<?xml version="1.0" encoding="utf-8"?>
<!-- Generator: Adobe Illustrator 16.0.4, SVG Export Plug-In . SVG Version: 6.00 Build 0)  -->
<!DOCTYPE svg PUBLIC "-//W3C//DTD SVG 1.1//EN" "http://www.w3.org/Graphics/SVG/1.1/DTD/svg11.dtd">
<svg version="1.1" id="Layer_1" xmlns="http://www.w3.org/2000/svg" xmlns:xlink="http://www.w3.org/1999/xlink" x="0px" y="0px"
	 width="140.167px" height="18.829px" viewBox="0 0 140.167 18.829" enable-background="new 0 0 140.167 18.829"
	 xml:space="preserve">
<g>
	<path fill="#FFFFFF" d="M13.107,14.271H7.731l-0.798,2.128H2.868l5.68-13.317h4.065l5.49,13.317h-4.218L13.107,14.271z
		 M12.063,11.384l-1.596-4.351l-1.633,4.351H12.063z"/>
	<path fill="#FFFFFF" d="M20.291,3.083l3.04,9.213l3.04-9.213h4.046l-5.148,13.317h-4.104L16.073,3.083H20.291z"/>
	<path fill="#FFFFFF" d="M38.605,14.271h-5.376l-0.798,2.128h-4.065l5.68-13.317h4.065l5.49,13.317h-4.218L38.605,14.271z
		 M37.561,11.384l-1.596-4.351l-1.633,4.351H37.561z"/>
	<path fill="#FFFFFF" d="M54.717,3.083v3.04h-6.934v2.089h6.288v3.04h-6.288v2.109h7.124v3.039H43.832V3.083H54.717z"/>
	<path fill="#FFFFFF" d="M65.034,14.271h-5.376l-0.798,2.128h-4.065l5.68-13.317h4.065l5.49,13.317h-4.218L65.034,14.271z
		 M63.99,11.384l-1.596-4.351l-1.633,4.351H63.99z"/>
	<path fill="#FFFFFF" d="M82.647,14.271h-5.376l-0.798,2.128h-4.065l5.68-13.317h4.065l5.49,13.317h-4.217L82.647,14.271z
		 M81.602,11.384l-1.596-4.351l-1.634,4.351H81.602z"/>
	<path fill="#FFFFFF" d="M96.195,9.503h3.4v5.357c-1.444,0.988-3.8,1.71-5.699,1.71c-4.123,0-7.162-2.906-7.162-6.82
		c0-3.895,3.135-6.782,7.428-6.782c2.033,0,4.217,0.779,5.623,2.014l-2.241,2.717c-0.912-0.874-2.242-1.444-3.401-1.444
		c-1.918,0-3.361,1.501-3.361,3.496c0,2.033,1.462,3.514,3.4,3.514c0.551,0,1.291-0.189,2.014-0.513V9.503z"/>
	<path fill="#FFFFFF" d="M111.698,3.083v3.04h-6.934v2.089h6.288v3.04h-6.288v2.109h7.124v3.039h-11.076V3.083H111.698z"/>
	<path fill="#FFFFFF" d="M116.43,3.083l5.642,7.447V3.083h3.609v13.317h-3.362l-5.642-7.409v7.409h-3.629V3.083H116.43z"/>
	<path fill="#FFFFFF" d="M137.879,3.083v3.153h-3.875v10.164h-3.971V6.236h-3.856V3.083H137.879z"/>
</g>
</svg>
