<?xml version="1.0" encoding="utf-8"?>
<!-- Generator: Adobe Illustrator 16.0.4, SVG Export Plug-In . SVG Version: 6.00 Build 0)  -->
<!DOCTYPE svg PUBLIC "-//W3C//DTD SVG 1.1//EN" "http://www.w3.org/Graphics/SVG/1.1/DTD/svg11.dtd">
<svg version="1.1" id="Layer_1" xmlns="http://www.w3.org/2000/svg" xmlns:xlink="http://www.w3.org/1999/xlink" x="0px" y="0px"
	 width="137px" height="17px" viewBox="0 0 137 17" enable-background="new 0 0 137 17" xml:space="preserve">
<g>
	<g>
		<path fill="#FFFFFF" stroke="#FFFFFF" stroke-width="0.5" stroke-miterlimit="10" d="M13.42,14.985l-1.17-2.715H6.977l-1.17,2.715
			H2.818L8.254,2.417h2.718l5.436,12.568H13.42z M9.625,5.666l-2.011,4.634h4L9.625,5.666z"/>
		<path fill="#FFFFFF" stroke="#FFFFFF" stroke-width="0.5" stroke-miterlimit="10" d="M21.736,10.419l3.204-8.002h3.042
			l-5.059,12.568h-2.376L15.49,2.417h3.042L21.736,10.419z"/>
		<path fill="#FFFFFF" stroke="#FFFFFF" stroke-width="0.5" stroke-miterlimit="10" d="M37.666,14.985l-1.17-2.715h-5.274
			l-1.17,2.715h-2.988L32.5,2.417h2.718l5.437,12.568H37.666z M33.871,5.665L31.859,10.3h4L33.871,5.665z"/>
		<path fill="#FFFFFF" stroke="#FFFFFF" stroke-width="0.5" stroke-miterlimit="10" d="M51.184,2.417v2.5H44.92v2.589h5.634v2.392
			H44.92v2.607h6.462v2.481h-9.27V2.417H51.184z"/>
		<path fill="#FFFFFF" stroke="#FFFFFF" stroke-width="0.5" stroke-miterlimit="10" d="M62.848,14.985l-1.17-2.715h-5.274
			l-1.17,2.715h-2.988l5.436-12.568h2.718l5.437,12.568H62.848z M59.052,5.665L57.041,10.3h4L59.052,5.665z"/>
		<path fill="#FFFFFF" stroke="#FFFFFF" stroke-width="0.5" stroke-miterlimit="10" d="M81.01,14.985l-1.17-2.715h-5.274
			l-1.17,2.715h-2.988l5.437-12.568h2.718l5.437,12.568H81.01z M77.215,5.665L75.202,10.3h4L77.215,5.665z"/>
		<path fill="#FFFFFF" stroke="#FFFFFF" stroke-width="0.5" stroke-miterlimit="10" d="M93.627,8.585h2.826v4.459
			c-1.248,1.391-2.976,2.086-5.184,2.086c-1.848,0-3.399-0.612-4.653-1.834c-1.254-1.223-1.881-2.767-1.881-4.63
			S85.374,5.247,86.652,4c1.278-1.247,2.82-1.87,4.626-1.87s3.375,0.593,4.707,1.78l-1.458,2.104
			c-0.564-0.492-1.083-0.83-1.557-1.016c-0.475-0.186-0.987-0.279-1.539-0.279c-1.068,0-1.969,0.363-2.7,1.088
			c-0.732,0.726-1.098,1.681-1.098,2.868c0,1.187,0.351,2.137,1.053,2.85c0.702,0.713,1.539,1.07,2.511,1.07
			c0.973,0,1.782-0.186,2.43-0.557V8.585z"/>
		<path fill="#FFFFFF" stroke="#FFFFFF" stroke-width="0.5" stroke-miterlimit="10" d="M108.027,2.417v2.5h-6.264v2.589h5.634v2.392
			h-5.634v2.607h6.462v2.481h-9.27V2.417H108.027z"/>
		<path fill="#FFFFFF" stroke="#FFFFFF" stroke-width="0.5" stroke-miterlimit="10" d="M119.529,2.417h2.808v12.568h-2.808
			l-5.994-7.875v7.875h-2.808V2.417h2.628l6.174,8.092V2.417z"/>
		<path fill="#FFFFFF" stroke="#FFFFFF" stroke-width="0.5" stroke-miterlimit="10" d="M130.761,4.845v10.141h-2.808V4.845h-3.564
			V2.417h9.937v2.428H130.761z"/>
	</g>
</g>
</svg>
