<?xml version="1.0" encoding="utf-8"?>
<!-- Generator: Adobe Illustrator 16.0.4, SVG Export Plug-In . SVG Version: 6.00 Build 0)  -->
<!DOCTYPE svg PUBLIC "-//W3C//DTD SVG 1.1//EN" "http://www.w3.org/Graphics/SVG/1.1/DTD/svg11.dtd">
<svg version="1.1" id="Layer_1" xmlns="http://www.w3.org/2000/svg" xmlns:xlink="http://www.w3.org/1999/xlink" x="0px" y="0px"
	 width="41.75px" height="41.75px" viewBox="0 0 41.75 41.75" enable-background="new 0 0 41.75 41.75" xml:space="preserve">
<g>
	<g>
		<path fill="#FFFFFF" d="M20.781,10.452c-1.139,0-2.06-0.918-2.06-2.054V2.743c0-1.135,0.921-2.055,2.06-2.055
			c1.138,0,2.06,0.918,2.06,2.053v5.658C22.841,9.534,21.921,10.452,20.781,10.452z"/>
		<path opacity="0.7" fill="#FFFFFF" enable-background="new    " d="M8.161,35.176c-0.528,0-1.053-0.199-1.456-0.6
			c-0.804-0.803-0.804-2.104,0-2.904l4.248-4.232c0.805-0.805,2.106-0.805,2.914,0c0.803,0.801,0.803,2.102,0,2.904L9.62,34.576
			C9.216,34.977,8.688,35.176,8.161,35.176z"/>
		<path opacity="0.8" fill="#FFFFFF" enable-background="new    " d="M8.607,22.592H2.933c-1.136,0-2.058-0.918-2.058-2.053
			c0-1.134,0.922-2.053,2.058-2.053h5.674c1.137,0,2.061,0.918,2.061,2.053C10.667,21.674,9.744,22.592,8.607,22.592z"/>
		<path opacity="0.9" fill="#FFFFFF" enable-background="new    " d="M12.288,14.122c-0.527,0-1.055-0.201-1.457-0.601L6.706,9.406
			c-0.804-0.802-0.804-2.102,0-2.904c0.807-0.803,2.107-0.803,2.915,0l4.125,4.113c0.805,0.802,0.805,2.103,0,2.905
			C13.34,13.921,12.815,14.122,12.288,14.122z"/>
		<path opacity="0.6" fill="#FFFFFF" enable-background="new    " d="M20.967,40.689L20.967,40.689
			c-1.136,0-2.057-0.922-2.057-2.059v-5.656c0-1.133,0.921-2.051,2.057-2.051l0,0c1.139,0,2.062,0.918,2.062,2.051v5.656
			C23.029,39.768,22.106,40.689,20.967,40.689z"/>
		<path opacity="0.3" fill="#FFFFFF" enable-background="new    " d="M29.343,14.541c-0.525,0-1.054-0.201-1.453-0.602
			c-0.807-0.802-0.807-2.102,0-2.905L32.13,6.8c0.808-0.803,2.11-0.803,2.916,0c0.802,0.801,0.802,2.102,0,2.905l-4.247,4.234
			C30.396,14.34,29.868,14.541,29.343,14.541z"/>
		<path opacity="0.4" fill="#FFFFFF" enable-background="new    " d="M38.812,22.891h-5.67c-1.141,0-2.062-0.92-2.062-2.055
			c0-1.133,0.922-2.052,2.062-2.052h5.67c1.139,0,2.062,0.919,2.062,2.052C40.875,21.971,39.951,22.891,38.812,22.891z"/>
		<path opacity="0.5" fill="#FFFFFF" enable-background="new    " d="M33.587,35.473c-0.524,0-1.055-0.199-1.457-0.598l-4.12-4.115
			c-0.806-0.803-0.806-2.098,0-2.902c0.804-0.803,2.106-0.803,2.911,0l4.125,4.113c0.802,0.801,0.802,2.102,0,2.904
			C34.642,35.273,34.114,35.473,33.587,35.473z"/>
	</g>
</g>
</svg>
