<?xml version="1.0" encoding="utf-8"?>
<!-- Generator: Adobe Illustrator 16.0.4, SVG Export Plug-In . SVG Version: 6.00 Build 0)  -->
<!DOCTYPE svg PUBLIC "-//W3C//DTD SVG 1.1//EN" "http://www.w3.org/Graphics/SVG/1.1/DTD/svg11.dtd">
<svg version="1.1" id="Layer_1" xmlns="http://www.w3.org/2000/svg" xmlns:xlink="http://www.w3.org/1999/xlink" x="0px" y="0px"
	 width="260.75px" height="190.25px" viewBox="0 0 260.75 190.25" enable-background="new 0 0 260.75 190.25" xml:space="preserve">
<g>
	<path fill="#B8E4F6" d="M258.554,12.256c0-5.5-4.5-10-10-10h-236c-5.5,0-10,4.5-10,10v17h256V12.256z"/>
	<path fill="#B8E4F6" d="M2.554,144.256c0,5.5,4.5,10,10,10h236c5.5,0,10-4.5,10-10v-88h-256V144.256z"/>
	<rect x="2.554" y="29.256" fill="#062855" width="256" height="27"/>
</g>
<rect x="16.048" y="75.256" fill="#FFFFFF" width="201.012" height="20"/>
<g>
	<path fill="#FFB502" d="M213.304,51.256c18.777,0,34,15.221,34,34c0,18.778-15.223,34-34,34s-34-15.222-34-34
		C179.304,66.477,194.526,51.256,213.304,51.256 M213.304,44.256c-22.607,0-41,18.393-41,41s18.393,41,41,41s41-18.393,41-41
		S235.911,44.256,213.304,44.256L213.304,44.256z"/>
</g>
<circle fill="#B8E4F6" stroke="#FFFFFF" stroke-width="6" stroke-miterlimit="10" cx="213.304" cy="85.256" r="34"/>
<g>
	<path fill="#062855" d="M207.401,93.513h-2.138v-8.589c0-1.025,0.023-1.838,0.072-2.438c-0.14,0.146-0.311,0.307-0.514,0.482
		s-0.885,0.733-2.043,1.674l-1.073-1.355l3.912-3.075h1.783V93.513z"/>
	<path fill="#062855" d="M220.775,93.513h-9.016v-1.619l3.43-3.448c1.013-1.038,1.685-1.773,2.016-2.207
		c0.33-0.434,0.571-0.842,0.723-1.224s0.228-0.791,0.228-1.229c0-0.601-0.181-1.073-0.541-1.419
		c-0.361-0.346-0.86-0.519-1.497-0.519c-0.51,0-1.002,0.094-1.479,0.282c-0.476,0.188-1.026,0.527-1.651,1.019l-1.155-1.41
		c0.74-0.625,1.459-1.067,2.156-1.328s1.44-0.392,2.229-0.392c1.237,0,2.229,0.323,2.975,0.969c0.746,0.646,1.119,1.516,1.119,2.607
		c0,0.601-0.107,1.171-0.322,1.71c-0.216,0.54-0.546,1.097-0.992,1.67s-1.188,1.348-2.225,2.324l-2.311,2.238v0.091h6.313V93.513z"
		/>
	<path fill="#062855" d="M231.657,83.268c0,0.844-0.246,1.546-0.737,2.106c-0.491,0.562-1.183,0.938-2.074,1.133v0.073
		c1.067,0.133,1.868,0.465,2.402,0.996c0.533,0.53,0.801,1.235,0.801,2.115c0,1.28-0.452,2.267-1.356,2.962
		c-0.903,0.694-2.189,1.041-3.857,1.041c-1.474,0-2.718-0.239-3.73-0.719v-1.901c0.564,0.279,1.162,0.494,1.793,0.646
		c0.631,0.151,1.237,0.228,1.819,0.228c1.031,0,1.802-0.191,2.311-0.573c0.51-0.383,0.765-0.974,0.765-1.774
		c0-0.71-0.282-1.231-0.846-1.565c-0.564-0.333-1.45-0.5-2.657-0.5h-1.155v-1.738h1.174c2.123,0,3.185-0.733,3.185-2.201
		c0-0.57-0.186-1.01-0.556-1.319s-0.916-0.464-1.638-0.464c-0.503,0-0.988,0.071-1.455,0.214c-0.468,0.143-1.02,0.42-1.656,0.832
		l-1.046-1.492c1.219-0.897,2.635-1.347,4.248-1.347c1.341,0,2.387,0.288,3.14,0.864C231.281,81.46,231.657,82.255,231.657,83.268z"
		/>
</g>
<g>
	<path fill="#FFFFFF" d="M195.306,70.126h-13.974c-2.558,4.302-4.029,9.325-4.029,14.692c0,6.113,1.909,11.776,5.157,16.438h12.846
		V70.126z"/>
</g>
<line fill="none" stroke="#FFB502" stroke-width="5" stroke-miterlimit="10" x1="214.304" y1="124.256" x2="214.304" y2="165.256"/>
<rect x="182.305" y="162.756" fill="#FFB502" width="64" height="25"/>
<g>
	<path fill="#FFFFFF" d="M204.086,173.231c-0.672,0-1.195,0.275-1.571,0.825c-0.377,0.55-0.564,1.309-0.564,2.275
		c0,2.011,0.764,3.016,2.293,3.016c0.462,0,0.91-0.064,1.344-0.193c0.434-0.128,0.869-0.283,1.308-0.464v2.387
		c-0.872,0.386-1.858,0.578-2.958,0.578c-1.577,0-2.786-0.457-3.627-1.371c-0.841-0.915-1.261-2.237-1.261-3.966
		c0-1.082,0.203-2.032,0.611-2.852c0.407-0.819,0.993-1.449,1.757-1.89c0.765-0.44,1.664-0.661,2.698-0.661
		c1.129,0,2.207,0.246,3.236,0.736l-0.864,2.222c-0.386-0.181-0.772-0.333-1.158-0.457S204.529,173.231,204.086,173.231z"/>
	<path fill="#FFFFFF" d="M215.675,171.066h3.158l-3.423,10.446h-3.322l-3.408-10.446h3.173l1.422,5.295
		c0.295,1.176,0.457,1.996,0.485,2.458c0.033-0.334,0.101-0.751,0.2-1.251c0.101-0.5,0.188-0.893,0.265-1.179L215.675,171.066z"/>
	<path fill="#FFFFFF" d="M226.706,171.066h3.158l-3.423,10.446h-3.322l-3.408-10.446h3.173l1.422,5.295
		c0.295,1.176,0.457,1.996,0.485,2.458c0.033-0.334,0.101-0.751,0.2-1.251c0.101-0.5,0.188-0.893,0.265-1.179L226.706,171.066z"/>
</g>
</svg>
