<?xml version="1.0" encoding="utf-8"?>
<!-- Generator: Adobe Illustrator 16.0.4, SVG Export Plug-In . SVG Version: 6.00 Build 0)  -->
<!DOCTYPE svg PUBLIC "-//W3C//DTD SVG 1.1//EN" "http://www.w3.org/Graphics/SVG/1.1/DTD/svg11.dtd">
<svg version="1.1" id="Layer_1" xmlns="http://www.w3.org/2000/svg" xmlns:xlink="http://www.w3.org/1999/xlink" x="0px" y="0px"
	 width="961px" height="132px" viewBox="-294 0 961 132" enable-background="new -294 0 961 132" xml:space="preserve">
<path opacity="0.5" fill-rule="evenodd" clip-rule="evenodd" fill="#99DEF9" d="M-106.175,36.83
	c-10.39-15.52-22.738-20.667-36.858-15.42c-7.479,2.779-12.831,7.944-16.062,15.223c-3.165,7.138-3.066,14.461-0.693,21.51
	c-3.566,2.102-7.063,3.678-9.987,5.98c-9.729,7.653-13.156,19.88-9.215,31.639c3.731,11.126,14.265,18.97,26.542,19.121
	c18.226,0.224,36.455,0.086,54.683,0.093c8.441,0.008,16.88,0.028,25.324-0.02c14.412-0.078,25.115-9.783,25.413-22.989
	c0.315-13.775-9.485-23.868-24.001-24.73c-0.467-0.029-0.925-0.146-1.54-0.25c3.67-10.98,1.595-20.451-7.323-27.891
	C-87.375,32.853-96.423,32.19-106.175,36.83z"/>
<path opacity="0.5" fill-rule="evenodd" clip-rule="evenodd" fill="#BFEBFB" d="M470.039,54.997
	c-11.397-17.024-24.942-22.671-40.433-16.915c-8.205,3.048-14.076,8.714-17.621,16.699c-3.471,7.83-3.363,15.862-0.76,23.597
	c-3.912,2.305-7.747,4.034-10.956,6.56c-10.672,8.395-14.431,21.809-10.107,34.707c4.092,12.206,15.646,20.81,29.115,20.977
	c19.992,0.244,39.989,0.094,59.985,0.102c9.259,0.008,18.517,0.03,27.779-0.021c15.81-0.086,27.551-10.733,27.877-25.22
	c0.346-15.11-10.404-26.183-26.328-27.128c-0.512-0.032-1.015-0.161-1.688-0.274c4.026-12.045,1.749-22.434-8.034-30.596
	C490.663,50.635,480.736,49.909,470.039,54.997z"/>
<path opacity="0.5" fill-rule="evenodd" clip-rule="evenodd" fill="#33BEF2" d="M-97.097,88.736c0.771-2.105,1.51-4.025,2.188-5.972
	c5.041-14.444,14.882-20.381,29.789-17.298c4.239,0.876,6.283,0.067,8.203-3.81c5.541-11.21,14.477-18.209,27.013-20.323
	C-11.697,38.265,7.48,52.431,9.547,70.739c0.49,4.34,0.305,8.771,0.213,13.156c-0.037,1.867,0.342,2.914,2.292,3.469
	c2.575,0.731,5.1,1.711,7.553,2.786c9.419,4.124,15.079,13.777,13.93,23.601c-1.246,10.67-8.872,18.886-19.317,20.703
	c-1.798,0.311-3.648,0.443-5.474,0.445c-38.173,0.025-76.35,0.062-114.521,0c-17.617-0.029-28.929-15.167-23.531-31.266
	c3.219-9.596,13.105-16.227,23.289-15.586C-103.1,88.229-100.187,88.494-97.097,88.736z"/>
<path opacity="0.5" fill-rule="evenodd" clip-rule="evenodd" fill="#99DEF9" d="M488.605,101.641
	c0.881-2.404,1.724-4.599,2.498-6.82c5.76-16.503,17.003-23.284,34.032-19.763c4.843,1,7.178,0.077,9.372-4.353
	c6.329-12.807,16.537-20.803,30.858-23.217c20.801-3.506,42.708,12.678,45.07,33.593c0.559,4.958,0.348,10.021,0.243,15.031
	c-0.042,2.132,0.392,3.328,2.618,3.962c2.941,0.836,5.826,1.954,8.628,3.183c10.761,4.711,17.227,15.739,15.914,26.962
	c-1.424,12.189-10.135,21.575-22.068,23.651c-2.053,0.355-4.168,0.507-6.254,0.509c-43.61,0.029-87.223,0.071-130.831,0
	c-20.125-0.034-33.048-17.326-26.881-35.719c3.678-10.962,14.972-18.537,26.605-17.805
	C481.746,101.062,485.073,101.365,488.605,101.641z"/>
<path opacity="0.5" fill-rule="evenodd" clip-rule="evenodd" fill="#BFEBFB" d="M-214.211,72.694
	c8.937-13.349,19.556-17.777,31.702-13.26c6.435,2.39,11.04,6.832,13.818,13.093c2.725,6.139,2.64,12.439,0.597,18.502
	c3.067,1.809,6.079,3.161,8.592,5.144c8.368,6.582,11.317,17.103,7.925,27.218c-3.208,9.566-12.269,16.314-22.832,16.446
	c-15.676,0.193-31.358,0.072-47.037,0.082c-7.258,0.003-14.52,0.021-21.784-0.021c-12.394-0.066-21.601-8.415-21.858-19.774
	c-0.27-11.849,8.161-20.531,20.647-21.273c0.4-0.021,0.795-0.124,1.322-0.217c-3.157-9.441-1.368-17.589,6.3-23.987
	C-230.382,69.276-222.6,68.705-214.211,72.694z"/>
<path opacity="0.5" fill-rule="evenodd" clip-rule="evenodd" fill="#FFFFFF" d="M66.949,38.04
	C56.612,22.599,44.329,17.478,30.28,22.702c-7.443,2.764-12.769,7.902-15.983,15.145c-3.151,7.101-3.054,14.388-0.69,21.4
	c-3.548,2.092-7.031,3.656-9.938,5.95c-9.679,7.613-13.09,19.782-9.167,31.482c3.711,11.064,14.191,18.87,26.409,19.022
	c18.131,0.224,36.271,0.084,54.405,0.095c8.395,0.004,16.795,0.023,25.197-0.023c14.335-0.077,24.985-9.733,25.283-22.872
	c0.312-13.705-9.44-23.748-23.882-24.606c-0.462-0.025-0.919-0.144-1.529-0.251c3.651-10.92,1.583-20.344-7.287-27.745
	C85.653,34.086,76.652,33.426,66.949,38.04z"/>
<path opacity="0.5" fill-rule="evenodd" clip-rule="evenodd" fill="#63CDF5" d="M358.696,97.877
	c8.905-13.303,19.485-17.715,31.589-13.214c6.412,2.381,11.001,6.808,13.771,13.047c2.714,6.118,2.629,12.396,0.594,18.438
	c3.057,1.802,6.057,3.149,8.562,5.125c8.339,6.56,11.277,17.042,7.898,27.121c-3.198,9.533-12.228,16.258-22.751,16.389
	c-15.622,0.191-31.248,0.073-46.872,0.082c-7.233,0.002-14.469,0.021-21.706-0.02c-12.35-0.066-21.525-8.386-21.782-19.705
	c-0.269-11.808,8.132-20.459,20.574-21.198c0.398-0.022,0.792-0.124,1.318-0.216c-3.146-9.409-1.364-17.528,6.277-23.904
	C342.582,94.471,350.336,93.901,358.696,97.877z"/>
<path opacity="0.5" fill-rule="evenodd" clip-rule="evenodd" fill="#33BEF2" d="M254.702,62.06
	c-8.121-12.132-17.771-16.156-28.81-12.051c-5.848,2.171-10.032,6.208-12.56,11.898c-2.476,5.58-2.397,11.305-0.541,16.815
	c-2.788,1.644-5.524,2.873-7.809,4.674c-7.605,5.982-10.284,15.543-7.203,24.734c2.916,8.694,11.151,14.827,20.749,14.947
	c14.247,0.175,28.498,0.066,42.747,0.074c6.597,0.002,13.195,0.02,19.797-0.018c11.263-0.061,19.631-7.648,19.864-17.971
	c0.246-10.77-7.416-18.659-18.763-19.333c-0.364-0.021-0.723-0.113-1.202-0.197c2.868-8.581,1.243-15.985-5.726-21.8
	C269.398,58.952,262.327,58.433,254.702,62.06z"/>
<path opacity="0.5" fill-rule="evenodd" clip-rule="evenodd" fill="#33BEF2" d="M99.702,102.06
	c-8.121-12.132-17.771-16.156-28.81-12.052c-5.848,2.172-10.032,6.209-12.56,11.898c-2.476,5.58-2.397,11.306-0.541,16.815
	c-2.788,1.644-5.524,2.873-7.809,4.674c-7.605,5.982-10.284,15.543-7.203,24.734c2.916,8.694,11.151,14.827,20.749,14.947
	c14.247,0.175,28.498,0.066,42.747,0.074c6.597,0.002,13.195,0.02,19.797-0.018c11.263-0.061,19.631-7.648,19.864-17.971
	c0.246-10.77-7.416-18.659-18.763-19.333c-0.364-0.021-0.723-0.113-1.202-0.197c2.868-8.581,1.243-15.985-5.726-21.8
	C114.398,98.952,107.327,98.434,99.702,102.06z"/>
<path opacity="0.5" fill-rule="evenodd" clip-rule="evenodd" fill="#FFFFFF" d="M-137.298,93.06
	c-8.121-12.132-17.771-16.156-28.81-12.052c-5.848,2.172-10.032,6.209-12.56,11.898c-2.476,5.58-2.397,11.306-0.541,16.815
	c-2.788,1.644-5.524,2.873-7.809,4.674c-7.605,5.982-10.284,15.543-7.203,24.734c2.916,8.694,11.151,14.827,20.749,14.947
	c14.247,0.175,28.498,0.066,42.747,0.074c6.597,0.002,13.195,0.02,19.797-0.018c11.263-0.061,19.631-7.648,19.864-17.971
	c0.246-10.77-7.416-18.659-18.763-19.333c-0.364-0.021-0.723-0.113-1.202-0.197c2.868-8.581,1.243-15.985-5.726-21.8
	C-122.602,89.952-129.673,89.434-137.298,93.06z"/>
<path opacity="0.5" fill-rule="evenodd" clip-rule="evenodd" fill="#FFFFFF" d="M229.702,108.56
	c-8.121-12.132-17.771-16.156-28.81-12.052c-5.848,2.172-10.032,6.209-12.56,11.898c-2.476,5.58-2.397,11.306-0.541,16.815
	c-2.788,1.644-5.524,2.873-7.809,4.674c-7.605,5.982-10.284,15.543-7.203,24.734c2.916,8.694,11.151,14.827,20.749,14.947
	c14.247,0.175,28.498,0.066,42.747,0.074c6.597,0.002,13.195,0.02,19.797-0.018c11.263-0.061,19.631-7.648,19.864-17.971
	c0.246-10.77-7.416-18.659-18.763-19.333c-0.364-0.021-0.723-0.113-1.202-0.197c2.868-8.581,1.243-15.985-5.726-21.8
	C244.398,105.452,237.327,104.934,229.702,108.56z"/>
<path opacity="0.5" fill-rule="evenodd" clip-rule="evenodd" fill="#63CDF5" d="M169.383,36.83
	c10.391-15.52,22.738-20.667,36.859-15.42c7.478,2.779,12.83,7.944,16.062,15.223c3.165,7.138,3.066,14.461,0.694,21.51
	c3.565,2.102,7.062,3.678,9.986,5.98c9.729,7.653,13.156,19.88,9.215,31.639c-3.731,11.126-14.265,18.97-26.541,19.121
	c-18.226,0.224-36.455,0.086-54.683,0.093c-8.441,0.008-16.88,0.028-25.323-0.02c-14.412-0.078-25.116-9.783-25.413-22.989
	c-0.315-13.775,9.485-23.868,24-24.73c0.467-0.029,0.926-0.146,1.54-0.25c-3.67-10.98-1.594-20.451,7.324-27.891
	C150.583,32.853,159.631,32.19,169.383,36.83z"/>
<path opacity="0.5" fill-rule="evenodd" clip-rule="evenodd" fill="#FFFFFF" d="M331.146,26.291
	c12.458-18.605,27.261-24.777,44.189-18.486c8.966,3.332,15.382,9.524,19.256,18.25c3.795,8.558,3.677,17.337,0.833,25.788
	c4.274,2.519,8.467,4.409,11.973,7.169c11.664,9.174,15.772,23.833,11.047,37.931c-4.474,13.339-17.101,22.742-31.819,22.924
	c-21.85,0.268-43.705,0.103-65.559,0.111c-10.119,0.009-20.236,0.033-30.357-0.023c-17.278-0.094-30.111-11.729-30.469-27.562
	c-0.376-16.515,11.373-28.615,28.774-29.648c0.56-0.035,1.109-0.176,1.847-0.3c-4.4-13.164-1.91-24.518,8.78-33.438
	C308.606,21.523,319.455,20.729,331.146,26.291z"/>
<path opacity="0.5" fill-rule="evenodd" clip-rule="evenodd" fill="#FFFFFF" d="M-79.854,117.291
	c12.458-18.605,27.261-24.777,44.189-18.486c8.966,3.332,15.382,9.523,19.256,18.25c3.795,8.558,3.677,17.337,0.833,25.788
	c4.274,2.519,8.467,4.409,11.973,7.169c11.664,9.175,15.772,23.834,11.047,37.932c-4.474,13.339-17.101,22.742-31.819,22.924
	c-21.85,0.268-43.705,0.103-65.559,0.111c-10.119,0.009-20.236,0.033-30.357-0.023c-17.278-0.094-30.111-11.729-30.469-27.562
	c-0.376-16.515,11.373-28.615,28.774-29.648c0.56-0.035,1.109-0.176,1.847-0.3c-4.4-13.164-1.91-24.518,8.78-33.438
	C-102.394,112.523-91.545,111.729-79.854,117.291z"/>
<path opacity="0.5" fill-rule="evenodd" clip-rule="evenodd" fill="#99DEF9" d="M294.882,96.342
	c12.714-18.989,27.821-25.289,45.102-18.867c9.149,3.398,15.699,9.721,19.652,18.626c3.874,8.734,3.753,17.694,0.85,26.32
	c4.364,2.572,8.643,4.501,12.221,7.318c11.904,9.363,16.098,24.326,11.275,38.714c-4.566,13.614-17.455,23.213-32.478,23.397
	c-22.301,0.273-44.607,0.104-66.91,0.114c-10.329,0.01-20.655,0.034-30.986-0.025c-17.636-0.095-30.732-11.971-31.097-28.13
	c-0.385-16.855,11.605-29.205,29.368-30.261c0.57-0.035,1.132-0.179,1.884-0.306c-4.491-13.437-1.95-25.023,8.962-34.129
	C271.876,91.476,282.949,90.666,294.882,96.342z"/>
<path opacity="0.5" fill-rule="evenodd" clip-rule="evenodd" fill="#BFEBFB" d="M191.204,110.366
	c-0.771-2.105-1.51-4.025-2.188-5.971c-5.04-14.445-14.882-20.382-29.789-17.299c-4.239,0.876-6.283,0.067-8.203-3.811
	c-5.541-11.21-14.477-18.209-27.013-20.322c-18.207-3.068-37.384,11.098-39.451,29.405c-0.49,4.34-0.305,8.772-0.213,13.156
	c0.037,1.867-0.342,2.914-2.291,3.469c-2.575,0.732-5.1,1.711-7.553,2.786c-9.419,4.124-15.079,13.777-13.93,23.601
	c1.246,10.67,8.872,18.886,19.317,20.703c1.798,0.312,3.648,0.444,5.474,0.446c38.173,0.024,76.35,0.061,114.52,0
	c17.617-0.03,28.929-15.168,23.531-31.267c-3.219-9.596-13.105-16.227-23.289-15.586
	C197.207,109.859,194.294,110.125,191.204,110.366z"/>
<path opacity="0.5" fill-rule="evenodd" clip-rule="evenodd" fill="#FFFFFF" d="M509.204,159.866
	c-0.771-2.105-1.51-4.025-2.188-5.971c-5.04-14.445-14.882-20.382-29.789-17.299c-4.238,0.876-6.282,0.067-8.202-3.811
	c-5.54-11.21-14.477-18.209-27.013-20.322c-18.207-3.068-37.384,11.098-39.451,29.405c-0.489,4.34-0.305,8.772-0.213,13.156
	c0.037,1.867-0.342,2.914-2.291,3.469c-2.575,0.732-5.1,1.711-7.553,2.786c-9.42,4.124-15.08,13.777-13.931,23.601
	c1.246,10.67,8.872,18.886,19.317,20.703c1.798,0.312,3.648,0.444,5.475,0.446c38.173,0.024,76.35,0.061,114.52,0
	c17.617-0.03,28.929-15.168,23.531-31.267c-3.219-9.596-13.105-16.227-23.289-15.586
	C515.207,159.359,512.294,159.625,509.204,159.866z"/>
<path opacity="0.5" fill-rule="evenodd" clip-rule="evenodd" fill="#63CDF5" d="M25.53,85.646
	c8.861-13.236,19.39-17.627,31.435-13.149c6.379,2.371,10.946,6.775,13.701,12.982c2.701,6.089,2.617,12.335,0.591,18.348
	c3.042,1.792,6.028,3.134,8.52,5.1c8.297,6.525,11.221,16.958,7.858,26.987c-3.181,9.485-12.165,16.177-22.638,16.307
	c-15.543,0.191-31.093,0.072-46.639,0.082c-7.197,0.003-14.397,0.021-21.6-0.021c-12.289-0.065-21.419-8.344-21.674-19.607
	c-0.268-11.748,8.092-20.357,20.473-21.093c0.396-0.021,0.787-0.124,1.311-0.214c-3.13-9.363-1.356-17.441,6.246-23.786
	C9.495,82.256,17.211,81.689,25.53,85.646z"/>
<path opacity="0.5" fill-rule="evenodd" clip-rule="evenodd" fill="#63CDF5" d="M505.529,127.646
	c8.861-13.236,19.391-17.627,31.436-13.149c6.379,2.371,10.945,6.775,13.701,12.982c2.701,6.089,2.617,12.335,0.59,18.348
	c3.043,1.792,6.028,3.134,8.521,5.1c8.297,6.525,11.222,16.958,7.858,26.987c-3.182,9.485-12.166,16.177-22.639,16.307
	c-15.543,0.191-31.094,0.072-46.639,0.082c-7.197,0.003-14.398,0.021-21.6-0.021c-12.289-0.065-21.42-8.344-21.674-19.607
	c-0.268-11.748,8.092-20.357,20.473-21.093c0.396-0.021,0.787-0.124,1.311-0.214c-3.13-9.363-1.355-17.441,6.246-23.786
	C489.495,124.256,497.211,123.689,505.529,127.646z"/>
<path opacity="0.5" fill-rule="evenodd" clip-rule="evenodd" fill="#FFFFFF" d="M131.769,113.06
	c8.121-12.132,17.771-16.156,28.81-12.052c5.848,2.172,10.032,6.209,12.56,11.898c2.476,5.58,2.397,11.306,0.541,16.815
	c2.788,1.644,5.524,2.873,7.809,4.674c7.605,5.982,10.284,15.543,7.203,24.734c-2.916,8.694-11.151,14.827-20.749,14.947
	c-14.247,0.175-28.498,0.066-42.747,0.074c-6.597,0.002-13.195,0.02-19.797-0.018c-11.263-0.061-19.631-7.648-19.864-17.971
	c-0.246-10.77,7.416-18.659,18.763-19.333c0.364-0.021,0.723-0.113,1.202-0.197c-2.868-8.581-1.243-15.985,5.726-21.8
	C117.072,109.952,124.144,109.434,131.769,113.06z"/>
</svg>
