<?xml version="1.0" encoding="utf-8"?>
<!-- Generator: Adobe Illustrator 16.0.4, SVG Export Plug-In . SVG Version: 6.00 Build 0)  -->
<!DOCTYPE svg PUBLIC "-//W3C//DTD SVG 1.1//EN" "http://www.w3.org/Graphics/SVG/1.1/DTD/svg11.dtd">
<svg version="1.1" id="Layer_1" xmlns="http://www.w3.org/2000/svg" xmlns:xlink="http://www.w3.org/1999/xlink" x="0px" y="0px"
	 width="232px" height="111.5px" viewBox="50 20.5 232 111.5" enable-background="new 50 20.5 232 111.5" xml:space="preserve">
<path opacity="0.5" fill-rule="evenodd" clip-rule="evenodd" fill="#63CDF5" d="M170.743,52.444
	c-8.063-12.044-17.646-16.039-28.605-11.967c-5.804,2.157-9.958,6.165-12.466,11.814c-2.456,5.54-2.38,11.223-0.538,16.694
	c-2.768,1.631-5.481,2.854-7.751,4.641c-7.55,5.939-10.21,15.43-7.151,24.555c2.896,8.635,11.07,14.723,20.599,14.84
	c14.144,0.174,28.292,0.066,42.438,0.072c6.552,0.006,13.101,0.021,19.653-0.016c11.185-0.061,19.491-7.593,19.723-17.842
	c0.244-10.69-7.361-18.523-18.627-19.192c-0.362-0.022-0.718-0.114-1.195-0.194c2.85-8.521,1.237-15.872-5.684-21.646
	C185.334,49.358,178.312,48.844,170.743,52.444z"/>
<path opacity="0.5" fill-rule="evenodd" clip-rule="evenodd" fill="#63CDF5" d="M177.789,92.729c0.6-1.634,1.172-3.124,1.698-4.634
	c3.912-11.211,11.55-15.818,23.119-13.426c3.289,0.68,4.876,0.053,6.366-2.957c4.3-8.7,11.234-14.132,20.964-15.772
	c14.13-2.381,29.013,8.613,30.618,22.821c0.379,3.369,0.235,6.809,0.164,10.211c-0.028,1.449,0.266,2.262,1.778,2.691
	c1.999,0.568,3.958,1.328,5.862,2.163c7.31,3.2,11.702,10.692,10.811,18.315c-0.967,8.281-6.885,14.657-14.992,16.068
	c-1.395,0.241-2.831,0.344-4.248,0.346c-29.626,0.02-59.254,0.048-88.878,0c-13.672-0.023-22.451-11.771-18.262-24.266
	c2.498-7.447,10.171-12.593,18.074-12.096C173.13,92.335,175.391,92.541,177.789,92.729z"/>
<path opacity="0.5" fill-rule="evenodd" clip-rule="evenodd" fill="#63CDF5" d="M91.43,79.22
	c6.303-9.416,13.792-12.539,22.359-9.354c4.539,1.686,7.786,4.818,9.746,9.234c1.922,4.33,1.862,8.773,0.421,13.05
	c2.164,1.275,4.287,2.229,6.06,3.628c5.902,4.643,7.982,12.062,5.59,19.195c-2.263,6.748-8.653,11.508-16.103,11.601
	c-11.056,0.136-22.117,0.052-33.175,0.057c-5.119,0.003-10.241,0.016-15.364-0.013c-8.741-0.047-15.235-5.936-15.417-13.947
	c-0.19-8.357,5.756-14.48,14.562-15.004c0.282-0.016,0.561-0.088,0.933-0.152c-2.227-6.66-0.965-12.406,4.444-16.919
	C80.024,76.808,85.513,76.405,91.43,79.22z"/>
<g>
	<path fill="#002453" d="M201.521,48.505h-1.872h-10.595h-56.118l-8.726-4.96l-17.152-16.408h-7.48l7.794,20.368h-8.106l11.536,7.92
		l16.812,5.79h31.849c1.972,1.285,4.556,3.413,7.508,4.166c7.293,1.863,14.019,0.752,15.021-2.482
		c0.07-0.224,0.102-1.454,0.111-1.684h6.637h10.911h1.872c7.717,0,14.029-2.31,14.029-6.355
		C215.55,50.813,209.237,48.505,201.521,48.505z"/>
	<circle fill="#FFFFFF" stroke="#002453" stroke-miterlimit="10" cx="182.79" cy="55.005" r="2.664"/>
	<circle fill="#FFFFFF" stroke="#002453" stroke-miterlimit="10" cx="174.463" cy="55.005" r="2.664"/>
	<path fill="#FFFFFF" stroke="#002453" stroke-miterlimit="10" d="M166.137,52.34c1.474,0,2.663,1.193,2.663,2.665
		s-1.189,2.664-2.663,2.664s-2.669-1.192-2.669-2.664S164.663,52.34,166.137,52.34z"/>
	<path fill="#FFFFFF" stroke="#002453" stroke-miterlimit="10" d="M157.81,52.34c1.472,0,2.664,1.193,2.664,2.665
		s-1.192,2.664-2.664,2.664c-1.475,0-2.665-1.192-2.665-2.664S156.335,52.34,157.81,52.34z"/>
	<path fill="#FFFFFF" stroke="#002453" stroke-miterlimit="10" d="M141.153,57.669c-1.471,0-2.662-1.192-2.662-2.664
		s1.191-2.665,2.662-2.665c1.476,0,2.67,1.193,2.67,2.665S142.629,57.669,141.153,57.669z"/>
	<path fill="#FFFFFF" stroke="#002453" stroke-miterlimit="10" d="M149.481,57.669c-1.472,0-2.663-1.192-2.663-2.664
		s1.191-2.665,2.663-2.665c1.474,0,2.664,1.193,2.664,2.665S150.955,57.669,149.481,57.669z"/>
	<path fill="#FFFFFF" stroke="#002453" stroke-miterlimit="10" d="M191.116,57.669c-1.475,0-2.664-1.192-2.664-2.664
		s1.189-2.665,2.664-2.665s2.666,1.193,2.666,2.665S192.591,57.669,191.116,57.669z"/>
</g>
</svg>
