<?xml version="1.0" encoding="utf-8"?>
<!-- Generator: Adobe Illustrator 16.0.4, SVG Export Plug-In . SVG Version: 6.00 Build 0)  -->
<!DOCTYPE svg PUBLIC "-//W3C//DTD SVG 1.1//EN" "http://www.w3.org/Graphics/SVG/1.1/DTD/svg11.dtd">
<svg version="1.1" id="Layer_1" xmlns="http://www.w3.org/2000/svg" xmlns:xlink="http://www.w3.org/1999/xlink" x="0px" y="0px"
	 width="337px" height="132px" viewBox="0 0 337 132" enable-background="new 0 0 337 132" xml:space="preserve">
<g>
	<g>
		<path opacity="0.5" fill="#63CDF5" d="M106.841,110.319c3.127,1.843,6.195,3.223,8.757,5.242c5.34,4.201,8.515,9.975,9.292,16.236
			h22.594c0.247-1.304,0.577-2.617,1.021-3.938c3.61-10.762,14.696-18.195,26.116-17.479c3.273,0.205,6.54,0.502,10.005,0.772
			c0.866-2.36,1.693-4.515,2.453-6.694c4.745-13.599,13.302-20.445,25.81-20.257c2.983-11.226,0.325-20.955-8.973-28.715
			c-8.389-7-18.535-7.742-29.47-2.541c-11.651-17.402-25.499-23.175-41.332-17.291c-8.387,3.116-14.388,8.907-18.012,17.071
			c-3.549,8.004-3.439,16.215-0.778,24.12c-4,2.356-7.919,4.123-11.199,6.706c-0.444,0.349-0.858,0.721-1.278,1.086
			c1.765,1.964,3.238,4.232,4.387,6.824C109.011,97.72,108.924,104.141,106.841,110.319z"/>
		<path opacity="0.5" fill="#63CDF5" d="M213.854,87.045c16.278,0.968,27.268,12.285,26.914,27.731
			c-0.15,6.691-2.701,12.566-6.923,17.021h96.982c-1.55-8.204-7.175-15.484-15.338-19.057c-2.751-1.208-5.58-2.304-8.469-3.126
			c-2.186-0.621-2.611-1.794-2.569-3.889c0.102-4.916,0.311-9.886-0.238-14.754c-2.319-20.529-23.823-36.415-44.239-32.974
			c-14.058,2.369-24.078,10.219-30.292,22.789c-2.152,4.348-4.445,5.255-9.198,4.271c-2.683-0.556-5.203-0.82-7.596-0.856
			c-0.224,0.847-0.473,1.698-0.761,2.561C212.816,86.88,213.33,87.014,213.854,87.045z"/>
		<path opacity="0.5" fill="#63CDF5" d="M187.078,104.46c-0.76,2.18-1.587,4.334-2.453,6.694c-3.465-0.271-6.731-0.567-10.005-0.772
			c-11.42-0.717-22.506,6.717-26.116,17.479c-0.443,1.32-0.774,2.634-1.021,3.938h86.361c4.222-4.455,6.772-10.33,6.923-17.021
			c0.354-15.446-10.636-26.764-26.914-27.731c-0.523-0.031-1.037-0.165-1.727-0.281c0.288-0.862,0.537-1.714,0.761-2.561
			C200.38,84.015,191.823,90.861,187.078,104.46z"/>
		<path opacity="0.5" fill="#63CDF5" d="M187.078,104.46c-0.76,2.18-1.587,4.334-2.453,6.694c-3.465-0.271-6.731-0.567-10.005-0.772
			c-11.42-0.717-22.506,6.717-26.116,17.479c-0.443,1.32-0.774,2.634-1.021,3.938h86.361c4.222-4.455,6.772-10.33,6.923-17.021
			c0.354-15.446-10.636-26.764-26.914-27.731c-0.523-0.031-1.037-0.165-1.727-0.281c0.288-0.862,0.537-1.714,0.761-2.561
			C200.38,84.015,191.823,90.861,187.078,104.46z"/>
		<path opacity="0.5" fill="#63CDF5" d="M92.791,119.032c-4.24-12.647-0.856-25.77,9.055-34.393c-2.58-2.872-5.799-5.073-9.693-6.52
			c-12.38-4.601-23.201-0.088-32.308,13.517c-8.55-4.067-16.48-3.486-23.037,1.987c-7.815,6.521-9.639,14.822-6.421,24.446
			c-0.539,0.092-0.939,0.196-1.348,0.222c-9.626,0.571-16.879,5.778-19.726,13.506h91.693
			C97.312,128.318,94.447,123.971,92.791,119.032z"/>
		<path opacity="0.5" fill="#63CDF5" d="M92.791,119.032c1.656,4.938,4.521,9.286,8.215,12.766h23.883
			c-0.777-6.262-3.952-12.035-9.292-16.236c-2.562-2.02-5.63-3.399-8.757-5.242c2.083-6.179,2.17-12.6-0.608-18.855
			c-1.149-2.592-2.622-4.86-4.387-6.824C91.935,93.263,88.551,106.385,92.791,119.032z"/>
		<path opacity="0.5" fill="#63CDF5" d="M92.791,119.032c1.656,4.938,4.521,9.286,8.215,12.766h23.883
			c-0.777-6.262-3.952-12.035-9.292-16.236c-2.562-2.02-5.63-3.399-8.757-5.242c2.083-6.179,2.17-12.6-0.608-18.855
			c-1.149-2.592-2.622-4.86-4.387-6.824C91.935,93.263,88.551,106.385,92.791,119.032z"/>
	</g>
</g>
<g>
	<path fill="#002453" d="M212.949,57.78h-2.159h-12.219h-64.72l-10.063-5.721l-19.781-18.923H95.38l8.989,23.489H95.02l13.304,9.134
		l19.388,6.677h36.73c2.274,1.482,5.254,3.936,8.659,4.805c8.41,2.148,16.167,0.867,17.322-2.862
		c0.081-0.259,0.117-1.677,0.129-1.942h7.653h12.584h2.159c8.899,0,16.18-2.664,16.18-7.329S221.849,57.78,212.949,57.78z"/>
	<g>
		<path fill="#FFFFFF" d="M191.348,62.703c-1.421,0-2.576,1.154-2.576,2.573c0,1.418,1.155,2.572,2.576,2.572
			s2.576-1.154,2.576-2.572C193.924,63.857,192.769,62.703,191.348,62.703z"/>
	</g>
	<g>
		<path fill="#FFFFFF" d="M181.744,62.703c-1.419,0-2.574,1.154-2.574,2.573c0,1.418,1.155,2.572,2.574,2.572
			s2.573-1.154,2.573-2.572C184.317,63.857,183.163,62.703,181.744,62.703z"/>
	</g>
	<g>
		<path fill="#FFFFFF" d="M172.142,62.703c-1.421,0-2.578,1.154-2.578,2.573c0,1.418,1.157,2.572,2.578,2.572
			c1.418,0,2.571-1.154,2.571-2.572C174.713,63.857,173.56,62.703,172.142,62.703z"/>
	</g>
	<g>
		<path fill="#FFFFFF" d="M162.538,62.703c-1.419,0-2.573,1.154-2.573,2.573c0,1.418,1.154,2.572,2.573,2.572
			c1.418,0,2.572-1.154,2.572-2.572C165.11,63.857,163.957,62.703,162.538,62.703z"/>
	</g>
	<g>
		<path fill="#FFFFFF" d="M143.329,62.703c-1.417,0-2.57,1.154-2.57,2.573c0,1.418,1.153,2.572,2.57,2.572
			c1.422,0,2.579-1.154,2.579-2.572C145.908,63.857,144.751,62.703,143.329,62.703z"/>
	</g>
	<g>
		<path fill="#FFFFFF" d="M152.934,62.703c-1.418,0-2.571,1.154-2.571,2.573c0,1.418,1.153,2.572,2.571,2.572
			c1.418,0,2.572-1.154,2.572-2.572C155.506,63.857,154.352,62.703,152.934,62.703z"/>
	</g>
	<g>
		<path fill="#FFFFFF" d="M200.949,62.703c-1.418,0-2.572,1.154-2.572,2.573c0,1.418,1.154,2.572,2.572,2.572
			c1.42,0,2.575-1.154,2.575-2.572C203.524,63.857,202.369,62.703,200.949,62.703z"/>
	</g>
</g>
</svg>
