<?xml version="1.0" encoding="utf-8"?>
<!-- Generator: Adobe Illustrator 16.0.4, SVG Export Plug-In . SVG Version: 6.00 Build 0)  -->
<!DOCTYPE svg PUBLIC "-//W3C//DTD SVG 1.1//EN" "http://www.w3.org/Graphics/SVG/1.1/DTD/svg11.dtd">
<svg version="1.1" id="Layer_1" xmlns="http://www.w3.org/2000/svg" xmlns:xlink="http://www.w3.org/1999/xlink" x="0px" y="0px"
	 width="232px" height="111.5px" viewBox="0 0 232 111.5" enable-background="new 0 0 232 111.5" xml:space="preserve">
<rect fill="none" width="232" height="111.5"/>
<path opacity="0.5" fill="#63CDF5" enable-background="new    " d="M119.743,28.442c-8.063-12.044-17.646-16.039-28.605-11.967
	c-5.804,2.157-9.958,6.165-12.466,11.814c-2.456,5.54-2.38,11.223-0.538,16.694c-2.768,1.631-5.48,2.854-7.751,4.641
	c-7.55,5.938-10.21,15.43-7.151,24.555c2.896,8.636,11.07,14.724,20.599,14.841c14.144,0.174,28.292,0.065,42.438,0.071
	c6.552,0.006,13.101,0.021,19.652-0.016c11.186-0.062,19.491-7.593,19.723-17.842c0.244-10.69-7.36-18.523-18.627-19.192
	c-0.361-0.021-0.718-0.114-1.194-0.193c2.85-8.521,1.237-15.873-5.685-21.646C134.334,25.356,127.312,24.842,119.743,28.442z"/>
<path opacity="0.5" fill="#63CDF5" enable-background="new    " d="M126.789,68.727c0.6-1.634,1.172-3.123,1.698-4.634
	c3.911-11.211,11.55-15.817,23.118-13.426c3.289,0.68,4.877,0.053,6.366-2.957c4.3-8.7,11.234-14.132,20.964-15.772
	c14.131-2.381,29.014,8.613,30.618,22.821c0.38,3.369,0.235,6.81,0.164,10.211c-0.028,1.449,0.267,2.263,1.778,2.691
	c1.999,0.567,3.958,1.328,5.861,2.163c7.311,3.199,11.703,10.691,10.812,18.314c-0.967,8.281-6.885,14.657-14.992,16.068
	c-1.395,0.241-2.831,0.344-4.248,0.346c-29.626,0.021-59.254,0.049-88.878,0c-13.672-0.022-22.451-11.771-18.262-24.266
	c2.498-7.447,10.171-12.593,18.074-12.096C122.13,68.333,124.391,68.539,126.789,68.727z"/>
<path opacity="0.5" fill="#63CDF5" enable-background="new    " d="M40.43,55.218c6.303-9.416,13.792-12.539,22.359-9.354
	c4.539,1.686,7.786,4.817,9.746,9.233c1.922,4.33,1.861,8.773,0.421,13.051c2.164,1.274,4.287,2.229,6.06,3.628
	c5.902,4.643,7.982,12.062,5.59,19.194c-2.263,6.748-8.652,11.508-16.103,11.602c-11.056,0.136-22.117,0.052-33.175,0.057
	c-5.119,0.003-10.241,0.016-15.364-0.013c-8.741-0.047-15.235-5.937-15.417-13.947c-0.19-8.356,5.756-14.479,14.562-15.004
	c0.282-0.017,0.561-0.088,0.933-0.152c-2.227-6.659-0.965-12.405,4.444-16.919C29.024,52.807,34.513,52.403,40.43,55.218z"/>
<g>
	<path fill="#002453" d="M150.521,24.503h-1.873h-10.595H81.936l-8.726-4.96L56.058,3.135h-7.48l7.794,20.368h-8.106l11.536,7.92
		l16.812,5.79h31.849c1.973,1.285,4.557,3.413,7.508,4.166c7.293,1.863,14.02,0.752,15.021-2.482
		c0.07-0.224,0.102-1.453,0.111-1.684h6.637h10.91h1.873c7.717,0,14.028-2.31,14.028-6.354
		C164.55,26.811,158.237,24.503,150.521,24.503z"/>
	<circle fill="#FFFFFF" stroke="#002453" stroke-miterlimit="10" cx="131.79" cy="31.003" r="2.664"/>
	<circle fill="#FFFFFF" stroke="#002453" stroke-miterlimit="10" cx="123.463" cy="31.003" r="2.664"/>
	<path fill="#FFFFFF" stroke="#002453" stroke-miterlimit="10" d="M115.137,28.338c1.475,0,2.663,1.193,2.663,2.665
		s-1.188,2.664-2.663,2.664c-1.474,0-2.669-1.192-2.669-2.664S113.663,28.338,115.137,28.338z"/>
	<path fill="#FFFFFF" stroke="#002453" stroke-miterlimit="10" d="M106.811,28.338c1.472,0,2.664,1.193,2.664,2.665
		s-1.192,2.664-2.664,2.664c-1.476,0-2.666-1.192-2.666-2.664S105.335,28.338,106.811,28.338z"/>
	<path fill="#FFFFFF" stroke="#002453" stroke-miterlimit="10" d="M90.153,33.667c-1.472,0-2.662-1.192-2.662-2.664
		s1.19-2.665,2.662-2.665c1.476,0,2.67,1.193,2.67,2.665S91.629,33.667,90.153,33.667z"/>
	<path fill="#FFFFFF" stroke="#002453" stroke-miterlimit="10" d="M98.48,33.667c-1.472,0-2.662-1.192-2.662-2.664
		s1.19-2.665,2.662-2.665c1.475,0,2.664,1.193,2.664,2.665S99.955,33.667,98.48,33.667z"/>
	<path fill="#FFFFFF" stroke="#002453" stroke-miterlimit="10" d="M140.116,33.667c-1.476,0-2.664-1.192-2.664-2.664
		s1.188-2.665,2.664-2.665c1.475,0,2.666,1.193,2.666,2.665S141.591,33.667,140.116,33.667z"/>
</g>
</svg>
