<?xml version="1.0" encoding="utf-8"?>
<!-- Generator: Adobe Illustrator 16.0.4, SVG Export Plug-In . SVG Version: 6.00 Build 0)  -->
<!DOCTYPE svg PUBLIC "-//W3C//DTD SVG 1.1//EN" "http://www.w3.org/Graphics/SVG/1.1/DTD/svg11.dtd">
<svg version="1.1" id="Layer_1" xmlns="http://www.w3.org/2000/svg" xmlns:xlink="http://www.w3.org/1999/xlink" x="0px" y="0px"
	 width="244.167px" height="111.5px" viewBox="-12.167 0 244.167 111.5" enable-background="new -12.167 0 244.167 111.5"
	 xml:space="preserve">
<rect fill="none" width="232" height="111.5"/>
<path opacity="0.5" fill="#63CDF5" enable-background="new    " d="M119.743,28.442c-8.063-12.044-17.646-16.039-28.605-11.967
	c-5.804,2.157-9.958,6.165-12.466,11.814c-2.456,5.54-2.38,11.223-0.538,16.694c-2.768,1.631-5.48,2.854-7.751,4.641
	c-7.55,5.938-10.21,15.431-7.151,24.556c2.896,8.635,11.07,14.723,20.599,14.84c14.144,0.174,28.292,0.065,42.438,0.071
	c6.551,0.007,13.101,0.021,19.651-0.016c11.187-0.062,19.491-7.593,19.724-17.843c0.244-10.689-7.36-18.522-18.627-19.191
	c-0.361-0.021-0.719-0.114-1.195-0.193c2.851-8.521,1.238-15.873-5.684-21.646C134.334,25.356,127.312,24.842,119.743,28.442z"/>
<path opacity="0.5" fill="#63CDF5" enable-background="new    " d="M126.789,68.727c0.6-1.634,1.172-3.123,1.697-4.634
	c3.912-11.211,11.551-15.817,23.119-13.426c3.289,0.68,4.877,0.053,6.365-2.957c4.301-8.7,11.234-14.132,20.965-15.772
	c14.131-2.381,29.014,8.613,30.617,22.821c0.381,3.369,0.235,6.81,0.164,10.212c-0.027,1.448,0.268,2.262,1.778,2.69
	c1.999,0.567,3.958,1.328,5.86,2.163c7.312,3.199,11.703,10.691,10.812,18.314c-0.967,8.28-6.885,14.656-14.992,16.067
	c-1.395,0.241-2.83,0.344-4.248,0.346c-29.626,0.021-59.254,0.05-88.878,0c-13.672-0.022-22.451-11.771-18.262-24.266
	c2.498-7.447,10.171-12.593,18.073-12.097C122.13,68.333,124.391,68.539,126.789,68.727z"/>
<g>
	<path fill="#CFDE00" d="M5.755,46.744c-1.688-6.351,2.104-12.892,8.454-14.58c6.354-1.689,12.896,2.104,14.584,8.455
		c0.464,1.747,0.501,3.504,0.197,5.175c0.492-0.097,0.988-0.171,1.486-0.232c0.248-1.723,0.162-3.521-0.312-5.307
		c-1.89-7.108-9.211-11.353-16.321-9.462c-7.104,1.889-11.347,9.208-9.457,16.316c1.287,4.838,5.092,8.345,9.631,9.497
		c0.258-0.429,0.531-0.853,0.822-1.269C10.574,54.438,6.949,51.236,5.755,46.744z"/>
	<path fill="#CFDE00" d="M11.6,25.827c0.126,0.474,0.615,0.756,1.089,0.63c0.481-0.128,0.77-0.617,0.644-1.09l-1.481-5.571
		c-0.126-0.474-0.619-0.755-1.101-0.627c-0.474,0.126-0.758,0.614-0.632,1.088L11.6,25.827z"/>
	<path fill="#CFDE00" d="M0.052,48.261c-0.127-0.477-0.618-0.762-1.094-0.636l-5.567,1.48c-0.476,0.126-0.758,0.617-0.631,1.094
		c0.127,0.478,0.615,0.764,1.091,0.637l5.567-1.48C-0.106,49.23,0.179,48.738,0.052,48.261z"/>
	<path fill="#CFDE00" d="M35.586,39.74l5.568-1.48c0.476-0.126,0.761-0.618,0.634-1.096c-0.127-0.477-0.619-0.762-1.095-0.636
		l-5.568,1.481c-0.474,0.126-0.756,0.617-0.63,1.094C34.623,39.58,35.112,39.866,35.586,39.74z"/>
	<path fill="#CFDE00" d="M-4.344,32.179l4.959,2.87c0.409,0.246,1.016,0.085,1.243-0.312c0.123-0.211,0.154-0.451,0.091-0.678
		c-0.062-0.232-0.205-0.421-0.407-0.537l-4.989-2.891c-0.188-0.109-0.435-0.135-0.676-0.071c-0.238,0.063-0.443,0.21-0.548,0.392
		c-0.122,0.207-0.154,0.447-0.093,0.675C-4.701,31.862-4.552,32.058-4.344,32.179z"/>
	<path fill="#CFDE00" d="M5.771,65.304l2.894-4.989c0.247-0.425,0.09-0.979-0.349-1.234c-0.173-0.096-0.418-0.12-0.649-0.059
		c-0.245,0.065-0.445,0.212-0.565,0.413L4.212,64.41c-0.239,0.422-0.09,0.97,0.335,1.219C4.926,65.849,5.549,65.687,5.771,65.304z"
		/>
	<path fill="#CFDE00" d="M26.243,28.281c0.344,0.19,0.978,0.032,1.178-0.327l2.906-5c0.119-0.205,0.15-0.446,0.087-0.681
		c-0.061-0.229-0.207-0.419-0.412-0.537c-0.187-0.107-0.439-0.134-0.677-0.071c-0.24,0.064-0.44,0.209-0.552,0.399l-2.892,4.989
		C25.645,27.468,25.805,28.02,26.243,28.281z"/>
</g>
<path opacity="0.5" fill="#63CDF5" enable-background="new    " d="M40.43,55.218c6.303-9.416,13.792-12.539,22.359-9.354
	c4.539,1.686,7.786,4.817,9.746,9.233c1.922,4.33,1.861,8.773,0.421,13.051c2.164,1.273,4.287,2.229,6.06,3.627
	c5.902,4.644,7.982,12.062,5.59,19.195c-2.263,6.747-8.652,11.508-16.103,11.602c-11.056,0.136-22.117,0.052-33.175,0.057
	c-5.119,0.003-10.241,0.016-15.364-0.013c-8.741-0.048-15.235-5.937-15.417-13.947c-0.19-8.356,5.756-14.479,14.562-15.004
	c0.282-0.017,0.561-0.088,0.933-0.151c-2.227-6.66-0.965-12.406,4.444-16.92C29.024,52.807,34.513,52.403,40.43,55.218z"/>
<g>
	<path fill="#002453" d="M150.521,24.503h-1.873h-10.596H81.936l-8.726-4.96L56.058,3.135h-7.48l7.794,20.368h-8.106l11.536,7.92
		l16.812,5.79h31.849c1.973,1.285,4.557,3.413,7.508,4.166c7.292,1.863,14.02,0.752,15.021-2.482
		c0.07-0.224,0.102-1.453,0.111-1.684h6.637h10.91h1.873c7.717,0,14.027-2.31,14.027-6.354
		C164.55,26.811,158.236,24.503,150.521,24.503z"/>
	<circle fill="#FFFFFF" stroke="#002453" stroke-miterlimit="10" cx="131.79" cy="31.003" r="2.664"/>
	<circle fill="#FFFFFF" stroke="#002453" stroke-miterlimit="10" cx="123.463" cy="31.003" r="2.664"/>
	<path fill="#FFFFFF" stroke="#002453" stroke-miterlimit="10" d="M115.137,28.338c1.474,0,2.663,1.193,2.663,2.665
		c0,1.472-1.188,2.664-2.663,2.664s-2.669-1.192-2.669-2.664C112.468,29.531,113.663,28.338,115.137,28.338z"/>
	<path fill="#FFFFFF" stroke="#002453" stroke-miterlimit="10" d="M106.811,28.338c1.472,0,2.664,1.193,2.664,2.665
		c0,1.472-1.192,2.664-2.664,2.664c-1.476,0-2.666-1.192-2.666-2.664C104.145,29.531,105.335,28.338,106.811,28.338z"/>
	<path fill="#FFFFFF" stroke="#002453" stroke-miterlimit="10" d="M90.153,33.667c-1.472,0-2.662-1.192-2.662-2.664
		c0-1.472,1.19-2.665,2.662-2.665c1.476,0,2.67,1.193,2.67,2.665C92.823,32.475,91.629,33.667,90.153,33.667z"/>
	<path fill="#FFFFFF" stroke="#002453" stroke-miterlimit="10" d="M98.48,33.667c-1.472,0-2.662-1.192-2.662-2.664
		c0-1.472,1.19-2.665,2.662-2.665c1.475,0,2.664,1.193,2.664,2.665C101.144,32.475,99.955,33.667,98.48,33.667z"/>
	<path fill="#FFFFFF" stroke="#002453" stroke-miterlimit="10" d="M140.116,33.667c-1.476,0-2.664-1.192-2.664-2.664
		c0-1.472,1.188-2.665,2.664-2.665c1.475,0,2.666,1.193,2.666,2.665C142.782,32.475,141.591,33.667,140.116,33.667z"/>
</g>
</svg>
