<?xml version="1.0" encoding="utf-8"?>
<!-- Generator: Adobe Illustrator 16.0.4, SVG Export Plug-In . SVG Version: 6.00 Build 0)  -->
<!DOCTYPE svg PUBLIC "-//W3C//DTD SVG 1.1//EN" "http://www.w3.org/Graphics/SVG/1.1/DTD/svg11.dtd">
<svg version="1.1" id="Layer_1" xmlns="http://www.w3.org/2000/svg" xmlns:xlink="http://www.w3.org/1999/xlink" x="0px" y="0px"
	 width="100px" height="100px" viewBox="0 0 100 100" enable-background="new 0 0 100 100" xml:space="preserve">
<g>
	<circle fill="#FFFFFF" cx="49.825" cy="49.673" r="48.449"/>
	<g>
		<path fill="#3EBBED" d="M20.634,49.652c12.658-14.842,29.191-11.761,29.191-11.761s-1.848,9.429,10.727,17.374
			c8.297,5.238,24.12-2.099,28.996,20.591c0.12,0.558-0.045,1.129-0.094,1.693c5.552-7.885,8.822-17.492,8.822-27.873
			c0-26.758-21.691-48.453-48.451-48.453c-26.766,0-48.451,21.693-48.451,48.447c0,10.383,3.271,19.988,8.828,27.872
			c-0.056-0.565-0.096-1.125-0.096-1.692C10.101,67.986,14.633,56.686,20.634,49.652z"/>
		<path fill="#F8ADA0" d="M49.778,86.642c3.258,0,6.521-0.648,9.616-1.939c1.532-0.635,2.263-2.396,1.624-3.936
			c-0.638-1.528-2.403-2.257-3.935-1.62c-4.687,1.952-9.846,1.966-14.528,0.037c-1.532-0.637-3.293,0.096-3.928,1.636
			c-0.631,1.535,0.107,3.293,1.633,3.928C43.333,86.011,46.547,86.642,49.778,86.642z"/>
	</g>
</g>
</svg>
