<?xml version="1.0" encoding="utf-8"?>
<!-- Generator: Adobe Illustrator 16.0.4, SVG Export Plug-In . SVG Version: 6.00 Build 0)  -->
<!DOCTYPE svg PUBLIC "-//W3C//DTD SVG 1.1//EN" "http://www.w3.org/Graphics/SVG/1.1/DTD/svg11.dtd">
<svg version="1.1" id="Layer_1" xmlns="http://www.w3.org/2000/svg" xmlns:xlink="http://www.w3.org/1999/xlink" x="0px" y="0px"
	 width="62px" height="62px" viewBox="0 0 62 62" enable-background="new 0 0 62 62" xml:space="preserve">
<g>
	<path opacity="0.42" fill="#3CD52E" d="M34.119,13.01c0,1.657-1.344,3-3,3l0,0c-1.656,0-3-1.343-3-3V3.99c0-1.657,1.344-3,3-3l0,0
		c1.656,0,3,1.343,3,3V13.01z"/>
	<path fill="#3CD52E" d="M34.119,58.01c0,1.656-1.344,3-3,3l0,0c-1.656,0-3-1.344-3-3v-9.02c0-1.658,1.344-3,3-3l0,0
		c1.656,0,3,1.342,3,3V58.01z"/>
	<path opacity="0.19" fill="#3CD52E" d="M13.129,28c1.657,0,3,1.343,3,3l0,0c0,1.656-1.343,3-3,3h-9.02c-1.657,0-3-1.344-3-3l0,0
		c0-1.657,1.343-3,3-3H13.129z"/>
	<path opacity="0.76" fill="#3CD52E" d="M58.129,28c1.656,0,3,1.343,3,3l0,0c0,1.656-1.344,3-3,3h-9.02c-1.658,0-3-1.344-3-3l0,0
		c0-1.657,1.342-3,3-3H58.129z"/>
	<path opacity="0.09" fill="#3CD52E" d="M14.041,37.402c1.436-0.83,3.27-0.338,4.099,1.096l0,0c0.829,1.436,0.338,3.27-1.097,4.1
		l-7.811,4.512c-1.436,0.828-3.27,0.338-4.099-1.098l0,0c-0.829-1.434-0.338-3.27,1.097-4.098L14.041,37.402z"/>
	<path opacity="0.58" fill="#3CD52E" d="M53.006,14.891c1.435-0.829,3.27-0.337,4.099,1.097l0,0c0.829,1.435,0.337,3.27-1.097,4.098
		l-7.811,4.513c-1.436,0.829-3.27,0.337-4.099-1.097l0,0c-0.829-1.435-0.338-3.27,1.097-4.098L53.006,14.891z"/>
	<path opacity="0.92" fill="#3CD52E" d="M37.521,48.078c-0.829-1.434-0.338-3.27,1.097-4.098l0,0
		c1.435-0.828,3.27-0.338,4.099,1.098l4.512,7.811c0.829,1.434,0.338,3.27-1.097,4.098l0,0c-1.435,0.83-3.27,0.338-4.099-1.096
		L37.521,48.078z"/>
	<path opacity="0.34" fill="#3CD52E" d="M15.01,9.115c-0.829-1.435-0.338-3.27,1.097-4.099l0,0c1.435-0.829,3.27-0.337,4.099,1.097
		l4.512,7.811c0.829,1.436,0.338,3.27-1.097,4.099l0,0c-1.435,0.829-3.27,0.338-4.099-1.097L15.01,9.115z"/>
	<path opacity="0.05" fill="#3CD52E" d="M19.541,45.092c0.826-1.436,2.661-1.93,4.096-1.102l0,0c1.436,0.826,1.93,2.66,1.103,4.096
		l-4.503,7.816c-0.827,1.436-2.662,1.93-4.098,1.102l0,0c-1.436-0.826-1.929-2.66-1.102-4.096L19.541,45.092z"/>
	<path opacity="0.5" fill="#3CD52E" d="M42.003,6.099c0.827-1.435,2.661-1.929,4.098-1.102l0,0c1.436,0.827,1.928,2.662,1.102,4.097
		L42.7,16.911c-0.828,1.436-2.662,1.929-4.098,1.102l0,0c-1.436-0.827-1.93-2.661-1.103-4.097L42.003,6.099z"/>
	<path opacity="0.84" fill="#3CD52E" d="M45.21,42.582c-1.436-0.828-1.929-2.662-1.102-4.098l0,0
		c0.827-1.436,2.661-1.928,4.097-1.102l7.815,4.502c1.437,0.828,1.93,2.662,1.103,4.098l0,0c-0.827,1.436-2.661,1.93-4.097,1.104
		L45.21,42.582z"/>
	<path opacity="0.29" fill="#3CD52E" d="M6.218,20.119c-1.435-0.827-1.929-2.661-1.102-4.098l0,0
		c0.827-1.436,2.661-1.928,4.097-1.102l7.816,4.502c1.436,0.828,1.929,2.662,1.102,4.098l0,0c-0.826,1.436-2.661,1.93-4.097,1.103
		L6.218,20.119z"/>
</g>
</svg>
