<?xml version="1.0" standalone="no"?>
<!DOCTYPE svg PUBLIC "-//W3C//DTD SVG 1.1//EN" "http://www.w3.org/Graphics/SVG/1.1/DTD/svg11.dtd" >
<svg xmlns="http://www.w3.org/2000/svg">
<metadata>Generated by IcoMoon</metadata>
<defs>
<font id="icomoon" horiz-adv-x="1024">
<font-face units-per-em="1024" ascent="960" descent="-64" />
<missing-glyph horiz-adv-x="1024" />
<glyph unicode="&#x20;" horiz-adv-x="512" d="" />
<glyph unicode="&#xe900;" glyph-name="account" d="M667.976 330.254c-28.331 12.261-45.124 28.426-49.848 48.101-8.67 35.703 22.473 74.534 22.473 74.534 2.376 2.348 54.955 56.457 54.955 178.627 0 93.102-19.060 216.842-183.542 216.842-164.468 0-183.473-123.74-183.473-216.842 0-122.307 52.62-176.415 53.821-177.507 0.369-0.396 32.181-39.84 23.566-75.544-4.683-19.674-21.477-35.949-49.766-48.21-192.048-59.174-311.282-129.147-311.282-182.559v-66.669c0-21.709 17.203-33.382 33.382-33.382h867.519c16.179 0 33.328 11.674 33.328 33.382v66.669c0.014 53.412-119.221 123.385-311.132 182.559z" />
<glyph unicode="&#xe901;" glyph-name="arr-dropdown" d="M879.862 721.244l-367.889-367.916-367.848 367.916-89.293-89.293 457.141-457.209 457.196 457.209z" />
<glyph unicode="&#xe902;" glyph-name="arr-left-circle" d="M512 848.207c220.679 0 400.207-179.541 400.207-400.207s-179.528-400.207-400.207-400.207c-220.692 0-400.207 179.514-400.207 400.193s179.514 400.22 400.207 400.22zM512 905.387c-252.191 0-457.387-205.155-457.387-457.387 0-252.204 205.196-457.373 457.387-457.373 252.218 0 457.387 205.155 457.387 457.373 0 252.232-205.169 457.387-457.387 457.387v0zM670.147 463.674h-225.812l-0.027 3.509-1.010 88.624-123.331-123.344 126.129-126.129-1.024 92.119h225.075z" />
<glyph unicode="&#xe903;" glyph-name="calendar" d="M868.502 415.601h-129.638v-129.652h129.638v129.652zM836.089 318.375h-64.812v64.799h64.812v-64.799zM674.065 415.601h-129.638v-129.652h129.638v129.652zM641.638 318.375h-64.84v64.799h64.84v-64.799zM868.502 610.024h-129.638v-129.638h129.638v129.638zM836.089 512.799h-64.812v64.812h64.812v-64.812zM674.065 610.024h-129.638v-129.638h129.638v129.638zM641.638 512.799h-64.84v64.812h64.84v-64.812zM285.136 415.601h-129.638v-129.652h129.638v129.652zM252.737 318.375h-64.826v64.799h64.826v-64.799zM285.136 221.15h-129.638v-129.652h129.638v129.652zM252.737 123.897h-64.826v64.826h64.826v-64.826zM819.883 804.475v97.253h-32.386v-97.266h-550.994v97.266h-32.386v-97.266h-145.845v-810.202h907.469v810.216h-145.859zM933.301 26.672h-842.615v648.192h842.615v-648.192zM933.301 707.249h-842.615v64.84h113.432v-32.427h32.386v32.427h550.98v-32.427h32.386v32.427h113.432v-64.84zM479.601 415.601h-129.666v-129.652h129.666v129.652zM447.201 318.375h-64.84v64.799h64.84v-64.799zM479.601 221.15h-129.666v-129.652h129.666v129.652zM447.201 123.897h-64.84v64.826h64.84v-64.826zM479.601 610.024h-129.666v-129.638h129.666v129.638zM447.201 512.799h-64.84v64.812h64.84v-64.812zM674.065 221.15h-129.638v-129.652h129.638v129.652zM641.638 123.897h-64.84v64.826h64.84v-64.826z" />
<glyph unicode="&#xe904;" glyph-name="camera" d="M512 560.64c-71.107 0-128.737-57.631-128.737-128.737 0-71.093 57.631-128.737 128.737-128.737 71.093 0 128.724 57.644 128.724 128.737 0 71.107-57.631 128.737-128.724 128.737zM512 335.36c-53.289 0-96.57 43.213-96.57 96.543 0 53.303 43.267 96.556 96.57 96.556s96.529-43.254 96.529-96.556c0-53.33-43.226-96.543-96.529-96.543zM769.461 608.918c-17.804 0-32.181-14.432-32.181-32.181 0-17.79 14.391-32.181 32.181-32.181s32.154 14.391 32.154 32.181c0.014 17.749-14.363 32.181-32.154 32.181zM512 625.015c-106.605 0-193.113-86.467-193.113-193.113 0-106.673 86.494-193.085 193.113-193.085 106.66 0 193.099 86.398 193.099 193.085 0 106.633-86.439 193.113-193.099 193.113zM512 271.012c-88.897 0-160.918 72.008-160.918 160.891 0 88.842 72.021 160.905 160.918 160.905 88.87 0 160.932-72.062 160.932-160.905 0-88.87-72.062-160.891-160.932-160.891zM898.212 689.377h-128.751c-64.375 0-96.529 96.543-160.932 96.543-64.348 0-96.529 0-96.529 0s-32.167 0-96.57 0c-64.348 0-96.543-96.543-160.918-96.543h-128.71c-35.54 0-64.348-28.822-64.348-64.362v-450.587c0-35.553 28.822-64.348 64.348-64.348h772.41c35.553 0 64.348 28.781 64.348 64.348v450.587c0 35.54-28.781 64.362-64.348 64.362zM930.379 174.428c0-17.763-14.404-32.154-32.154-32.154h-772.424c-17.777 0-32.181 14.404-32.181 32.154v450.587c0 17.749 14.404 32.167 32.181 32.167h128.724c80.473 0 112.64 96.556 160.918 96.556 48.292 0 96.57 0 96.57 0s49.657 0 99.328 0c49.575 0 82.726-96.556 165.437-96.556h121.446c17.763 0 32.154-14.432 32.154-32.167v-450.587z" />
<glyph unicode="&#xe905;" glyph-name="checkmark-circle" d="M47.787 448c0 256.41 207.872 464.213 464.213 464.213s464.213-207.804 464.213-464.213c0-256.369-207.872-464.213-464.213-464.213s-464.213 207.845-464.213 464.213zM809.574 588.179l-43.759 43.759-294.953-294.98-185.467 185.453-43.759-43.759 229.239-229.212 338.698 338.739z" />
<glyph unicode="&#xe906;" glyph-name="checkmark" d="M809.574 588.179l-43.759 43.759-294.953-294.98-185.467 185.453-43.759-43.759 229.239-229.212 338.698 338.739z" />
<glyph unicode="&#xe907;" glyph-name="close" d="M512.027 388.676l347.942-348.023 50.695 50.695-353.225 353.212 353.225 353.212-50.695 50.654-347.996-348.010-347.942 348.010-50.695-50.654 353.171-353.212-353.171-353.212 50.695-50.695 347.996 348.023z" />
<glyph unicode="&#xe908;" d="M742.55 854.501c-111.466 0-204.991-76.8-230.55-180.388v-632.6l0.014-0.014c0 0 467.995 295.226 467.995 575.488 0 131.195-106.305 237.513-237.459 237.513z" />
<glyph unicode="&#xe909;" d="M281.45 854.501c-131.127 0-237.486-106.305-237.486-237.513 0.041-282.296 467.75-575.297 468.036-575.461v632.6c-25.573 103.574-119.071 180.374-230.55 180.374z" />
<glyph unicode="&#xe90a;" glyph-name="heart" d="M512 41.513c0 0 467.995 295.24 467.995 575.488 0 131.195-106.305 237.513-237.459 237.513-111.479 0-204.991-76.8-230.55-180.388-25.573 103.588-119.057 180.388-230.537 180.388-131.14 0-237.486-106.305-237.486-237.513 0.027-282.378 468.036-575.488 468.036-575.488z" />
<glyph unicode="&#xe90b;" glyph-name="keyboard" d="M946.394 190.116c0-11.018-9.025-20.043-20.043-20.043h-828.716c-11.018 0-20.029 9.025-20.029 20.043v515.768c0 11.018 9.011 20.029 20.029 20.029h828.716c11.018 0 20.043-9.011 20.043-20.029v-515.768zM706.041 357.847h-388.069v-80.118h388.069v80.118zM356.775 488.059h-80.118v-80.118h80.118v80.118zM486.96 488.059h-80.118v-80.118h80.118v80.118zM617.158 488.059h-80.118v-80.118h80.118v80.118zM747.356 488.059h-80.118v-80.118h80.118v80.118zM291.676 620.742h-80.118v-80.118h80.118v80.118zM421.861 620.742h-80.104v-80.118h80.104v80.118zM552.073 620.742h-80.118v-80.118h80.118v80.118zM682.271 620.742h-80.118v-80.118h80.118v80.118zM812.442 620.742h-80.104v-80.118h80.104v80.118z" />
<glyph unicode="&#xe90c;" glyph-name="map-pin" d="M511.59 916.173c62.737 0 120.641-16.084 173.766-48.251 53.084-32.181 95.027-75.353 125.897-129.516 30.816-54.176 46.257-112.613 46.257-175.377 0-61.686-18.773-130.867-56.306-207.544-37.014-58.45-79.394-118.934-127.126-181.398-47.705-62.478-86.084-110.633-115.016-144.411l-43.459-49.848c-4.833 4.26-11.66 10.841-20.494 19.674-8.861 8.847-25.887 26.979-51.091 54.327-25.245 27.334-49.616 54.955-73.209 82.848-23.607 27.88-50.026 62.218-79.244 102.96-29.245 40.755-54.845 80.473-76.827 119.084-32.181 70.779-48.265 137.557-48.265 200.294 0 47.2 9.12 92.638 27.348 136.356 18.227 43.691 42.749 81.783 73.605 114.237 30.816 32.427 67.57 58.313 110.21 77.633 42.639 19.292 87.313 28.931 133.953 28.931zM641.092 707.045c-34.857 34.843-76.8 52.279-125.897 52.279-49.056 0-91.027-17.435-125.884-52.279-34.871-34.884-52.292-76.977-52.292-126.321s17.422-91.313 52.292-125.897c34.857-34.584 76.827-51.896 125.884-51.896 49.097 0 91.040 17.312 125.897 51.896 34.884 34.584 52.32 76.541 52.32 125.897s-17.435 91.436-52.32 126.321z" />
<glyph unicode="&#xe90d;" glyph-name="menu" d="M37.246 788.91h949.535v-94.932h-949.535v94.932zM37.246 504.129h949.535v-94.932h-949.535v94.932zM37.246 219.348h949.535v-94.932h-949.535v94.932z" />
<glyph unicode="&#xe90e;" glyph-name="mic" d="M512 269.251c43.131 0 80.022 15.36 110.729 46.053 30.72 30.693 46.080 67.598 46.080 110.742v294.775c0 43.117-15.36 80.049-46.080 110.756-30.706 30.72-67.598 46.080-110.729 46.080-43.117 0-80.049-15.36-110.742-46.080-30.734-30.706-46.053-67.639-46.053-110.756v-294.775c0-43.145 15.346-80.049 46.053-110.742 30.693-30.693 67.625-46.053 110.742-46.053zM731.546 487.076v-61.030c0-60.43-21.477-112.135-64.471-155.088-42.94-42.953-94.645-64.457-155.075-64.457s-112.162 21.49-155.116 64.457c-42.953 42.94-64.43 94.672-64.43 155.088v61.030h-62.737v-61.030c0-72.185 24.112-135.018 72.281-188.402 48.183-53.412 107.766-84.050 178.627-91.887v-64.689h-123.194v-62.723h308.115v62.723h-122.184v64.689c70.861 7.837 130.43 38.475 178.586 91.887 48.21 53.385 72.322 116.217 72.322 188.402v61.030h-62.723z" />
<glyph unicode="&#xe90f;" glyph-name="pencil" d="M142.759 261.687l-52.333-235.179 235.261 52.251v79.353h-71.038c-8.643 0-16.794 3.29-22.897 9.571-6.226 6.13-9.585 14.309-9.585 23.047v70.956h-79.408zM608.556 740.154l-413.327-413.218h59.433c17.954-0.191 32.563-14.705 32.563-32.672v-71.025h71.038c17.954-0.164 32.563-14.691 32.563-32.509v-59.447l413.327 413.191-195.598 195.68zM737.976 869.492l-83.395-83.381 195.584-195.625 83.395 83.463-195.584 195.543z" />
<glyph unicode="&#xe910;" glyph-name="settings-outline" d="M512 609.86c-89.306 0-161.956-72.622-161.956-161.888 0-89.252 72.649-161.874 161.956-161.874 89.252 0 161.874 72.622 161.874 161.874 0 89.265-72.622 161.888-161.874 161.888zM512 326.472c-67.024 0-121.556 54.504-121.556 121.501 0 67.011 54.531 121.515 121.556 121.515 66.997 0 121.501-54.504 121.501-121.515 0-66.997-54.504-121.501-121.501-121.501zM945.78 513.14l-113.678 33.082c-6.185 19.961-14.404 39.595-24.453 58.436l56.033 100.721 1.993 4.178-0.423 0.218c2.062 6.895 0.287 14.377-4.983 19.674l-66.833 66.806c-5.175 5.175-12.971 7.004-20.043 4.82l-0.355 0.587-104.298-57.972c-18.964 10.103-38.653 18.336-58.573 24.521l-31.594 110.387-1.365 3.959-0.41-0.096c-3.413 6.608-10.063 10.813-17.585 10.813h-94.454c-7.496 0-14.159-4.219-17.613-10.813l-0.642 0.137-32.713-114.374c-18.459-5.693-37.069-13.394-55.433-22.924l-102.277 55.747-3.127 1.379-0.232-0.218c-7.291 2.485-15.66 0.573-21.122-4.902l-68.936-68.949c-5.379-5.393-7.25-13.094-5.188-20.207l-0.642-0.369 57.863-106.237c-9.093-17.517-16.425-34.993-21.818-52.019l-111.561-32.945-3.782-1.352 0.068-0.382c-6.676-3.482-10.936-10.349-10.936-18.145v-97.498c0-7.782 4.314-14.677 11.046-18.173l-0.096-0.655 115.261-33.997c5.448-17.203 12.602-34.27 21.818-52.019l-55.788-102.427-1.898-4.014 0.451-0.246c-2.021-7.1-0.15-14.773 5.202-20.139l68.949-69.004c5.489-5.448 13.858-7.277 21.163-4.833l0.437-0.41 105.021 57.207c17.244-8.97 34.802-16.357 52.265-21.968l32.85-111.316 1.57-4.082 0.423 0.109c3.495-6.472 10.24-10.581 17.913-10.581h97.485c7.482 0 14.145 3.973 17.777 10.24l0.792-0.3 34.133 115.944c18.814 6.007 37.41 13.954 55.364 23.62l100.557-55.883 3.919-1.884 0.246 0.396c1.952-0.601 3.987-0.901 6.007-0.901 5.257 0 10.199 2.034 13.926 5.748l66.847 66.833c5.297 5.325 7.072 12.834 4.943 19.743l0.655 0.341-58.231 104.707c10.063 18.828 18.282 38.448 24.453 58.382l110.469 31.621 3.209 1.201v0.287c6.936 3.29 11.551 10.254 11.551 17.927v94.454c-0.041 7.837-4.56 14.691-11.578 18.009zM798.461 379.747c-7.209-30.365-19.224-59.324-35.703-86.057l-1.379-2.212 59.556-107.165-45.233-45.261-107.233 59.556-2.212-1.379c-25.914-16.002-54.067-27.812-83.695-35.103l-2.471-0.614-34.912-118.415h-66.369l-34.898 118.415-2.471 0.614c-28.918 7.168-56.375 18.569-81.633 33.874l-2.185 1.324-108.407-59.105-46.94 46.913 59.105 108.503-1.324 2.185c-15.305 25.149-26.706 52.593-33.901 81.579l-0.614 2.471-118.415 34.925v66.369l118.415 34.953 0.614 2.471c7.154 28.863 18.569 56.32 33.901 81.579l1.324 2.185-59.105 108.476 46.954 46.94 108.394-59.064 2.171 1.311c26.337 15.865 54.6 27.443 83.995 34.406l2.526 0.601 33.655 117.897h64.061l33.669-117.897 2.526-0.601c30.447-7.223 59.392-19.224 86.016-35.676l2.212-1.365 107.233 59.583 45.22-45.247-59.556-107.233 1.379-2.212c16.493-26.72 28.508-55.665 35.717-86.030l0.601-2.526 117.815-33.71v-64.007l-117.801-33.71-0.601-2.54z" />
<glyph unicode="&#xe911;" glyph-name="spinner" d="M907.687 634.436c-49.835 105.745-137.858 185.767-247.863 225.294-109.595 39.404-228.379 33.778-334.507-15.961-196.745-92.706-294.502-311.392-232.448-519.974l3.154-10.636 0.451 0.137c5.093-20.944 23.839-36.536 46.339-36.536 26.406 0 47.814 21.395 47.814 47.828 0 5.584-1.133 10.854-2.895 15.838l0.232 0.068-3.168 10.636c-48.442 162.83 27.839 333.524 181.289 405.832 82.944 38.775 175.718 43.254 261.311 12.506 85.92-30.87 154.638-93.334 193.55-175.923 38.912-82.562 43.336-175.377 12.479-261.243-30.911-85.92-93.361-154.665-175.841-193.55-84.91-39.922-180.183-43.117-268.111-9.202 0 0-9.312 2.922-17.422 2.949-26.406 0.096-47.814-21.395-47.814-47.814 0-20.371 12.793-37.656 30.72-44.551l-0.014-0.055c104.066-40.154 216.173-39.595 318.587 1.092 8.369 3.359 16.643 6.936 24.849 10.772 105.731 49.807 185.713 137.871 225.28 247.89 39.54 110.073 33.86 228.83-15.974 334.602z" />
<glyph unicode="&#xe912;" glyph-name="ticket-outline" d="M477.389 22.439c-22.132 0-42.912 8.615-58.505 24.262l-308.224 308.401c-32.208 32.29-32.208 84.801 0 117.064l377.078 377.283c15.565 15.551 36.318 24.112 58.436 24.112l308.579-0.041c45.657 0 82.794-37.151 82.794-82.821l-0.519-328.308h-2.567c-3.482-14.5-10.759-27.716-21.354-38.393l-377.16-377.324c-15.66-15.633-36.441-24.235-58.559-24.235zM546.871 832.601c-11.892 0-22.351-4.301-30.16-12.111l-377.078-377.269c-16.275-16.302-16.275-42.858 0.014-59.174l308.238-308.415c15.756-15.824 43.295-15.783 59.105 0.014l377.091 377.269c7.646 7.7 11.824 18.295 11.728 29.792l-0.177 20.644h0.478l0.464 287.375c0 23.443-18.377 41.82-41.834 41.82l-307.869 0.055c0 0 0 0 0 0zM745.295 583.305c-54.204 0-98.304 44.128-98.304 98.386 0 54.231 44.1 98.345 98.304 98.345 54.231 0 98.331-44.114 98.331-98.345 0-54.245-44.1-98.386-98.331-98.386zM745.295 739.075c-31.621 0-57.344-25.737-57.344-57.385 0-31.662 25.723-57.426 57.344-57.426 31.635 0 57.371 25.764 57.371 57.426 0 31.648-25.737 57.385-57.371 57.385z" />
<glyph unicode="&#xe913;" glyph-name="credit-card-outline" d="M931.471 588.274h-838.943v152.371h838.943v-152.371zM113.009 608.754h797.983v111.411h-797.983v-111.411zM931.471 155.327h-838.943v368.886h838.943v-368.886zM113.009 175.807h797.983v327.926h-797.983v-327.926z" />
<glyph unicode="&#xe914;" glyph-name="credit-card" d="M102.769 730.406h818.463v-131.891h-818.463v131.891zM102.769 513.973h818.463v-348.392h-818.463v348.392z" />
<glyph unicode="&#xe915;" glyph-name="expander-down" d="M791.62 587.81l-279.62-279.62-279.62 279.62z" />
<glyph unicode="&#xe916;" glyph-name="expander-up" d="M232.38 308.19l279.62 279.62 279.62-279.62z" />
<glyph unicode="&#xe917;" glyph-name="phone-outline" d="M760.108-37.54h-496.217c-27.607 0-50.067 22.473-50.067 50.067v870.932c0 27.607 22.473 50.067 50.067 50.067h496.217c27.593 0 50.067-22.46 50.067-50.067v-870.932c0-27.593-22.473-50.067-50.067-50.067zM263.892 914.412c-17.067 0-30.952-13.885-30.952-30.952v-870.932c0-17.067 13.885-30.952 30.952-30.952h496.217c17.067 0 30.952 13.885 30.952 30.952v870.932c0 17.067-13.885 30.952-30.952 30.952h-496.217zM732.556 148.159h-441.085v592.964h441.098v-592.964zM310.586 167.274h402.855v554.735h-402.855v-554.735zM512 0.28c-36.55 0-66.287 29.737-66.287 66.273s29.737 66.287 66.287 66.287 66.273-29.751 66.273-66.287-29.723-66.273-66.273-66.273zM512 113.739c-26.010 0-47.172-21.163-47.172-47.172 0-25.996 21.163-47.159 47.172-47.159 25.996 0 47.159 21.163 47.159 47.159 0 26.010-21.163 47.172-47.159 47.172zM599.272 782.671h-174.544v59.788h174.544v-59.788zM443.843 801.785h136.301v21.559h-136.301v-21.559z" />
<glyph unicode="&#xe918;" glyph-name="phone" d="M800.618 12.527c0-22.269-18.2-40.509-40.509-40.509h-496.217c-22.269 0-40.509 18.241-40.509 40.509v870.932c0 22.282 18.227 40.509 40.509 40.509h496.217c22.31 0 40.509-18.214 40.509-40.509v-870.932zM722.999 731.566h-421.97v-573.85h421.97v573.85zM512 9.837c31.321 0 56.716 25.436 56.716 56.73 0 31.321-25.395 56.716-56.716 56.716s-56.716-25.395-56.716-56.716c0-31.293 25.395-56.73 56.716-56.73zM582.874 826.074h-141.763v-27.020h141.776v27.020z" />
<glyph unicode="&#xe919;" glyph-name="refresh" d="M900.847 454.485c1.174-96.857-32.591-189.413-97.143-262.513-68.908-78.056-164.113-124.587-268.029-131.072-110.537-6.909-217.975 33.969-297.042 111.63l72.991 74.534h-205.237v-209.811l79.558 81.333c87.409-85.811 203.872-133.844 325.468-133.844 9.653 0 19.279 0.273 28.986 0.874 123.945 7.673 237.595 63.283 319.898 156.454 76.827 86.985 117.091 197.14 115.917 312.402h-75.366zM220.46 703.973c68.908 78.015 164.058 124.587 268.070 131.072 110.428 6.881 217.894-33.956 296.946-111.616l-72.881-74.534h205.196v209.797l-79.517-81.333c-87.477 85.825-203.953 133.885-325.536 133.885-9.612 0-19.319-0.314-28.918-0.901-124.095-7.714-237.65-63.256-319.898-156.426-79.804-90.344-120.463-205.633-115.794-325.659h75.353c-4.615 101.622 29.478 199.311 96.98 275.715z" />
<glyph unicode="&#xe91a;" glyph-name="search-plus" d="M829.604 765.604c129.993-130.021 129.993-341.593 0-471.613-130.021-129.993-341.579-129.993-471.6 0-130.021 130.034-130.007 341.593 0 471.613 130.021 130.007 341.565 130.007 471.6 0zM863.287 799.287c-148.603 148.589-390.362 148.589-538.965 0s-148.589-390.39 0-538.993 390.362-148.562 538.965 0.041c148.603 148.603 148.589 390.349 0 538.952v0zM619.506 383.556v120.532h120.45l-0.928 54.354h-119.521v117.542l-54.34-0.942v-116.599h-117.583v-54.354h117.583v-120.532zM619.493 675.983h0.014l2.935 0.055zM739.983 504.061l-0.027 0.027 0.068-2.908zM49.294 25.248l281.818 281.818 39.92-39.92-281.818-281.818-39.92 39.92z" />
<glyph unicode="&#xe91b;" glyph-name="search-solid" d="M867.287 803.328c-143.196 143.142-376.313 143.251-519.578 0-134.554-134.554-142.391-348.201-24.153-492.394l-0.601-0.505-10.090 10.090-263.591-263.55 71.694-71.707 263.564 263.564-16.63 16.616c144.166-124.409 362.66-118.497 499.384 18.227 143.264 143.292 143.264 376.313 0 519.66z" />
<glyph unicode="&#xe91c;" glyph-name="search" d="M829.604 765.604c129.993-130.021 129.993-341.593 0-471.613-130.021-129.993-341.579-129.993-471.6 0-130.021 130.034-130.007 341.593 0 471.613 130.021 130.007 341.565 130.007 471.6 0zM863.287 799.287c-148.603 148.589-390.362 148.589-538.965 0s-148.589-390.39 0-538.993 390.362-148.562 538.965 0.041c148.603 148.603 148.589 390.349 0 538.952v0zM619.493 675.983h0.014l2.935 0.055zM739.983 504.061l-0.027 0.027 0.068-2.908zM49.294 25.248l281.818 281.818 39.92-39.92-281.818-281.818-39.92 39.92z" />
<glyph unicode="&#xe91d;" glyph-name="start-over" d="M972.513 476.658c-7.632 123.276-62.833 236.162-155.389 317.904-92.611 81.756-211.436 122.552-334.739 114.906-230.769-14.336-414.624-196.977-431.814-426.489h75.298c16.944 189.59 169.738 339.777 361.158 351.655 103.233 6.376 202.861-27.771 280.412-96.27 77.606-68.499 123.863-163.075 130.266-266.377 6.403-103.26-27.785-202.848-96.27-280.399-68.54-77.592-163.116-123.849-266.377-130.266-109.827-6.881-216.583 33.737-295.103 110.892l72.431 74.083h-203.872v-208.5l79.039 80.841c86.835-85.265 202.575-133.011 323.447-133.011 9.53 0 19.128 0.287 28.713 0.901 123.249 7.646 236.189 62.846 317.945 155.402 81.702 92.597 122.525 211.449 114.852 334.725z" />
<glyph unicode="&#xe91e;" glyph-name="ticket" d="M854.74 853.040l-307.855 0.041c-16.152 0.177-32.304-5.762-44.66-18.104l-377.078-377.269c-24.276-24.33-24.276-63.788 0-88.119l308.251-308.429c24.235-24.317 63.72-24.317 88.078 0l377.078 377.283c12.206 12.274 17.872 28.344 17.736 44.428h0.3l0.478 307.828c0 34.679-27.675 62.341-62.327 62.341zM745.295 603.785c-42.994 0-77.838 34.871-77.838 77.906s34.843 77.865 77.838 77.865c42.94 0 77.851-34.83 77.851-77.865s-34.925-77.906-77.851-77.906z" />
<glyph unicode="&#xe91f;" glyph-name="seat-outline" d="M655.578 358.967h-284.645c-32.372 0-58.709 26.337-58.709 58.696v406.842c0 32.372 26.337 58.709 58.709 58.709h284.645c32.372 0 58.723-26.337 58.723-58.709v-406.856c-0.041-32.372-26.351-58.682-58.723-58.682zM370.934 847.715c-12.807 0-23.211-10.417-23.211-23.211v-406.856c0-12.807 10.417-23.211 23.211-23.211h284.645c12.807 0 23.211 10.417 23.211 23.211v406.856c0 12.807-10.417 23.211-23.211 23.211h-284.645zM737.116 12.786h-447.72c-16.357 0-30.857 6.786-39.799 18.637-8.929 11.824-11.469 27.634-6.963 43.377l59.010 206.234c8.383 29.3 38.816 52.265 69.291 52.265h284.645c30.461 0 60.908-22.965 69.291-52.265l59.010-206.234c4.506-15.701 1.966-31.553-6.977-43.377-8.916-11.851-23.402-18.637-39.786-18.637zM370.934 297.813c-14.691 0-31.116-12.397-35.157-26.501l-59.010-206.247c-1.434-4.997-1.010-9.353 1.174-12.247s6.253-4.506 11.441-4.506h447.72c5.202 0 9.271 1.597 11.469 4.506 2.185 2.908 2.58 7.25 1.174 12.247l-59.023 206.247c-4.041 14.104-20.466 26.501-35.144 26.501h-284.645zM826.313 427.52h-35.512v40.564c0 12.807-10.417 23.211-23.211 23.211h-60.826v35.499h60.826c32.372 0 58.723-26.337 58.723-58.709v-40.564zM889.788 308.053h-101.362c-32.372 0-58.723 26.351-58.723 58.709v30.092c0 32.372 26.351 58.709 58.723 58.709h101.362c32.372 0 58.723-26.337 58.723-58.709v-30.092c0-32.358-26.351-58.709-58.723-58.709zM788.425 420.065c-12.807 0-23.211-10.417-23.211-23.211v-30.092c0-12.807 10.417-23.211 23.211-23.211h101.362c12.807 0 23.211 10.431 23.211 23.211v30.092c0 12.807-10.417 23.211-23.211 23.211h-101.362zM233.213 436.613h-35.499v31.471c0 32.372 26.337 58.709 58.709 58.709h60.812v-35.499h-60.812c-12.807 0-23.211-10.417-23.211-23.211v-31.471zM235.575 308.053h-101.349c-32.372 0-58.709 26.351-58.709 58.709v30.092c0 32.372 26.337 58.709 58.709 58.709h101.362c32.372 0 58.709-26.337 58.709-58.709v-30.092c-0.014-32.358-26.365-58.709-58.723-58.709zM134.226 420.065c-12.807 0-23.211-10.417-23.211-23.211v-30.092c0-12.807 10.417-23.211 23.211-23.211h101.349c12.807 0 23.211 10.431 23.211 23.211l0.014 30.106c0 12.793-10.417 23.197-23.211 23.197h-101.362z" />
<glyph unicode="&#xe920;" glyph-name="seat" d="M655.578 358.967h-284.645c-32.372 0-58.709 26.337-58.709 58.696v406.842c0 32.372 26.337 58.709 58.709 58.709h284.645c32.372 0 58.723-26.337 58.723-58.709v-406.856c-0.041-32.372-26.351-58.682-58.723-58.682zM737.116 12.786h-447.72c-16.357 0-30.857 6.786-39.799 18.637-8.929 11.824-11.469 27.634-6.963 43.377l59.010 206.234c8.383 29.3 38.816 52.265 69.291 52.265h284.645c30.461 0 60.908-22.965 69.291-52.265l59.010-206.234c4.506-15.701 1.966-31.553-6.977-43.377-8.916-11.851-23.402-18.637-39.786-18.637zM826.313 427.52h-35.512v40.564c0 12.807-10.417 23.211-23.211 23.211h-60.826v35.499h60.826c32.372 0 58.723-26.337 58.723-58.709v-40.564zM889.788 308.053h-101.362c-32.372 0-58.723 26.351-58.723 58.709v30.092c0 32.372 26.351 58.709 58.723 58.709h101.362c32.372 0 58.723-26.337 58.723-58.709v-30.092c0-32.358-26.351-58.709-58.723-58.709zM233.213 436.613h-35.499v31.471c0 32.372 26.337 58.709 58.709 58.709h60.812v-35.499h-60.812c-12.807 0-23.211-10.417-23.211-23.211v-31.471zM235.575 308.053h-101.349c-32.372 0-58.709 26.351-58.709 58.709v30.092c0 32.372 26.337 58.709 58.709 58.709h101.362c32.372 0 58.709-26.337 58.709-58.709v-30.092c-0.014-32.358-26.365-58.709-58.723-58.709z" />
<glyph unicode="&#xe921;" glyph-name="settings" d="M945.78 513.14l-113.678 33.082c-6.185 19.961-14.404 39.595-24.453 58.436l56.033 100.721 1.993 4.178-0.423 0.218c2.062 6.895 0.287 14.377-4.983 19.674l-66.833 66.806c-5.175 5.175-12.971 7.004-20.043 4.82l-0.355 0.587-104.298-57.972c-18.964 10.103-38.653 18.336-58.573 24.521l-31.594 110.387-1.365 3.959-0.41-0.096c-3.413 6.608-10.063 10.813-17.585 10.813h-94.454c-7.496 0-14.159-4.219-17.613-10.813l-0.642 0.137-32.713-114.374c-18.459-5.693-37.069-13.394-55.433-22.924l-102.277 55.747-3.127 1.379-0.232-0.218c-7.291 2.485-15.66 0.573-21.122-4.902l-68.936-68.949c-5.379-5.393-7.25-13.094-5.188-20.207l-0.642-0.369 57.863-106.237c-9.093-17.517-16.425-34.993-21.818-52.019l-111.561-32.945-3.782-1.352 0.068-0.382c-6.676-3.482-10.936-10.349-10.936-18.145v-97.498c0-7.782 4.314-14.677 11.046-18.173l-0.096-0.655 115.261-33.997c5.448-17.203 12.602-34.27 21.818-52.019l-55.788-102.427-1.898-4.014 0.451-0.246c-2.021-7.1-0.15-14.773 5.202-20.139l68.949-69.004c5.489-5.448 13.858-7.277 21.163-4.833l0.437-0.41 105.021 57.207c17.244-8.97 34.802-16.357 52.265-21.968l32.85-111.316 1.57-4.082 0.423 0.109c3.495-6.472 10.24-10.581 17.913-10.581h97.485c7.482 0 14.145 3.973 17.777 10.24l0.792-0.3 34.133 115.944c18.814 6.007 37.41 13.954 55.364 23.62l100.557-55.883 3.919-1.884 0.246 0.396c1.952-0.601 3.987-0.901 6.007-0.901 5.257 0 10.199 2.034 13.926 5.748l66.847 66.833c5.297 5.325 7.072 12.834 4.943 19.743l0.655 0.341-58.231 104.707c10.063 18.828 18.282 38.448 24.453 58.382l110.469 31.621 3.209 1.201v0.287c6.936 3.29 11.551 10.254 11.551 17.927v94.454c-0.041 7.837-4.56 14.691-11.578 18.009zM512 326.472c-67.024 0-121.556 54.504-121.556 121.501 0 67.011 54.531 121.515 121.556 121.515 66.997 0 121.501-54.504 121.501-121.515 0-66.997-54.504-121.501-121.501-121.501z" />
<glyph unicode="&#xe922;" glyph-name="watched-outline" d="M164.004 762.873c54.859 0 99.437-44.442 99.437-99.478 0-23.088-8.274-44.073-21.463-60.867l131.741-207.012c7.182 1.652 14.541 2.717 22.337 2.717 15.183 0 29.532-3.7 42.503-9.885l99.915 99.888c-6.117 12.916-9.885 27.279-9.885 42.598 0 54.9 44.469 99.424 99.41 99.424 54.9 0 99.369-44.51 99.369-99.424 0-19.975-5.953-38.516-16.193-54.026l115.712-150.951c10.458 3.7 21.49 6.089 33.178 6.089 54.9 0 99.369-44.564 99.369-99.41 0-54.955-44.51-99.41-99.369-99.41-54.982 0-99.519 44.455-99.519 99.41 0 19.019 5.625 36.482 14.828 51.651l-116.9 152.521c-9.653-3.209-19.838-5.352-30.447-5.352-15.333 0-29.655 3.809-42.694 9.953l-99.847-99.915c6.226-12.834 9.967-27.307 9.967-42.639 0-54.9-44.551-99.424-99.396-99.424-54.955 0-99.519 44.551-99.519 99.424 0 23.074 8.192 44.141 21.367 60.88l-131.7 207.094c-7.141-1.679-14.582-2.799-22.187-2.799-54.9 0-99.478 44.51-99.478 99.437-0.014 55.050 44.578 99.505 99.465 99.505zM164.004 803.833c-77.442 0-140.438-62.996-140.438-140.438 0-77.414 62.996-140.397 140.438-140.397 0.492 0 0.983 0 1.475 0l104.079-163.663c-9.202-18.801-13.981-39.322-13.981-60.566 0-77.414 63.024-140.397 140.479-140.397 77.387 0 140.356 62.983 140.356 140.397 0 10.772-1.27 21.436-3.768 31.867l63.529 63.597c10.527-2.567 21.176-3.823 31.853-3.823 4.574 0 9.148 0.259 13.763 0.765l85.975-112.162c-5.379-15.046-8.165-30.734-8.165-46.449 0-77.414 63.010-140.37 140.479-140.37 77.387 0 140.343 62.956 140.343 140.37 0 77.387-62.956 140.356-140.343 140.356-5.584 0-11.155-0.355-16.78-1.092l-83.995 109.582c5.98 15.674 9.066 32.399 9.066 49.452 0 77.401-62.956 140.384-140.343 140.384-77.401 0-140.37-62.969-140.37-140.384 0-10.704 1.256-21.313 3.755-31.744l-63.693-63.652c-10.404 2.485-20.985 3.727-31.676 3.727-0.532 0-1.051 0-1.57-0.027l-104.134 163.663c9.257 18.869 14.063 39.39 14.063 60.553 0 77.442-62.983 140.452-140.397 140.452v0z" />
<glyph unicode="&#xe923;" glyph-name="watched" d="M860.092 331.947c-11.66 0-22.719-2.403-33.15-6.076l-115.712 150.951c10.226 15.51 16.207 34.051 16.207 54.040 0 54.9-44.483 99.424-99.383 99.424-54.968 0-99.437-44.51-99.437-99.424 0-15.333 3.741-29.682 9.885-42.612l-99.929-99.874c-12.971 6.158-27.32 9.871-42.516 9.871-7.796 0-15.142-1.065-22.337-2.717l-131.741 206.998c13.189 16.794 21.463 37.779 21.463 60.867 0 55.037-44.578 99.492-99.437 99.492-54.886 0-99.478-44.455-99.478-99.492 0-54.927 44.592-99.451 99.478-99.451 7.619 0 15.046 1.133 22.187 2.813l131.714-207.094c-13.189-16.753-21.367-37.82-21.367-60.88 0-54.9 44.564-99.437 99.519-99.437 54.859 0 99.396 44.537 99.396 99.437 0 15.333-3.741 29.792-9.967 42.639l99.874 99.915c13.053-6.158 27.348-9.94 42.708-9.94 10.609 0 20.78 2.103 30.433 5.325l116.927-152.494c-9.216-15.169-14.828-32.672-14.828-51.678 0-54.955 44.51-99.41 99.505-99.41 54.886 0 99.383 44.455 99.383 99.41-0.014 54.859-44.51 99.396-99.396 99.396z" />
<glyph unicode="&#xe924;" glyph-name="close-circle" d="M180.074 779.981c181.289 181.303 475.245 181.275 656.507 0 181.275-181.275 181.275-475.232 0-656.493-181.303-181.316-475.245-181.275-656.507 0-181.275 181.262-181.303 475.204 0 656.493zM466.862 451.7l-179.896-179.828 38.789-38.775 182.559 182.531 182.572-182.572 38.789 38.789-179.896 179.869 179.896 179.842-38.748 38.816-182.613-182.545-182.559 182.559-38.803-38.789 179.91-179.896z" />
<glyph unicode="&#xe925;" glyph-name="arr-chevron-left" d="M647.837 886.572l-438.6-438.545 467.545-467.545 137.94 137.926-329.619 329.619 329.632 329.578-137.953 137.926z" />
<glyph unicode="&#xe926;" glyph-name="arr-chevron-right" d="M376.149 9.441l438.6 438.531-467.545 467.558-137.94-137.94 329.619-329.619-329.632-329.578 137.953-137.912z" />
<glyph unicode="&#xe927;" glyph-name="arr-ascend" d="M479.396 623.077v-225.812l-3.509-0.027-88.624-1.010 123.344-123.317 126.129 126.116-92.119-1.024v225.075z" />
<glyph unicode="&#xe928;" glyph-name="arr-descend" d="M544.618 272.923v225.812l3.509 0.027 88.624 1.010-123.358 123.317-126.129-126.116 92.119 1.024v-225.075z" />
<glyph unicode="&#xe929;" glyph-name="arr-connects-none" d="M1005.609 448l-56.675 56.648v-46.462h-930.529v-26.692h930.529v-40.127z" />
<glyph unicode="&#xe92a;" glyph-name="arr-connects" d="M750.66 276.774l137.025 170.803-137.025 171.65v-136.97h-607.3v-68.499h607.3v-16.234z" />
<glyph unicode="&#xe92b;" glyph-name="thumbs-up" d="M966.588 486.489c0-35.144-9.653-67.256-28.986-96.433 3.523-13.121 5.338-26.692 5.338-40.933 0-30.379-7.496-58.778-22.501-85.197 1.201-8.26 1.816-16.821 1.816-25.436 0-39.895-11.837-74.957-35.499-105.335 0.341-54.9-16.398-98.236-50.326-129.993-33.942-31.758-78.752-47.65-134.431-47.65h-76.349c-37.861 0-75.284 4.478-112.176 13.312-36.864 8.957-79.599 21.845-128.15 38.83-45.793 15.701-72.991 23.648-81.702 23.648h-170.462c-20.931 0-38.789 7.441-53.562 22.187-14.8 14.732-22.187 32.7-22.187 53.603v378.825c0 20.903 7.386 38.762 22.187 53.576 14.773 14.8 32.631 22.187 53.562 22.187h162.161c14.24 9.448 41.26 40.059 81.142 91.764 22.883 29.573 43.977 54.832 63.324 75.749 9.448 9.885 16.439 26.72 21.026 50.627 4.533 23.866 10.527 48.811 18.036 74.875 7.509 26.037 19.729 47.35 36.687 63.925 15.428 14.595 33.164 21.886 53.262 21.886 33.15 0 62.983-6.431 89.443-19.251 26.433-12.807 46.531-32.85 60.348-60.075 13.817-27.197 20.726-63.939 20.726-110.073 0-36.727-9.489-74.575-28.399-113.691h104.189c41.015 0 76.582-14.978 106.537-44.974 30.010-29.983 44.947-65.304 44.947-105.95zM197.687 118.299c7.509 7.523 11.223 16.398 11.223 26.583 0 10.377-3.7 19.169-11.223 26.692-7.509 7.496-16.411 11.305-26.679 11.305-10.226 0-19.115-3.809-26.583-11.305-7.509-7.523-11.278-16.316-11.278-26.692 0-10.185 3.755-19.060 11.278-26.583 7.455-7.523 16.357-11.196 26.583-11.196 10.281-0.014 19.183 3.673 26.679 11.196zM890.88 485.915c0 20.125-7.755 37.765-23.115 52.961-15.387 15.196-32.986 22.787-52.661 22.787h-208.404c0 22.883 9.516 54.34 28.426 94.399 18.992 40.059 28.426 71.735 28.426 95.041 0 38.639-6.349 67.243-18.937 85.811-12.616 18.555-37.915 27.839-75.817 27.839-10.24-10.267-17.736-27.061-22.432-50.326-4.751-23.32-10.8-48.046-18.077-74.274-7.305-26.242-19.060-47.869-35.239-64.84-8.684-9.066-23.866-27.020-45.575-53.862-1.611-1.993-6.089-7.892-13.612-17.736-7.509-9.885-13.722-17.954-18.65-24.289-4.915-6.308-11.728-14.691-20.453-25.122-8.629-10.486-16.575-19.156-23.648-26.078-7.086-6.909-14.677-13.899-22.787-21.026-8.11-7.072-15.961-12.425-23.648-15.961-7.728-3.536-14.732-5.311-21.067-5.311h-18.91v-378.825h18.91c5.175 0 11.387-0.642 18.65-1.816 7.332-1.147 13.804-2.512 19.552-3.891 5.734-1.393 13.244-3.468 22.473-6.485 9.298-2.935 16.193-5.284 20.726-6.799 4.574-1.57 11.564-4 21.026-7.441 9.448-3.277 15.183-5.366 17.176-6.212 83.258-28.74 150.76-43.172 202.438-43.172h71.598c75.817 0 113.705 32.986 113.705 98.823 0 10.295-1.038 21.327-2.935 33.178 11.81 6.294 21.149 16.643 28.030 31.061 6.936 14.432 10.404 28.904 10.404 43.527 0 14.582-3.577 28.208-10.636 40.823 20.876 19.756 31.334 43.254 31.334 70.424 0 9.844-1.98 20.903-5.871 32.905-3.973 12.001-8.902 21.408-14.828 28.058 12.67 0.423 23.197 9.68 31.648 27.894 8.492 18.118 12.78 34.092 12.78 47.937z" />
<glyph unicode="&#xe92c;" glyph-name="arr-dropdown-up" d="M144.138 174.742l367.889 367.93 367.848-367.93 89.293 89.293-457.141 457.223-457.196-457.223z" />
<glyph unicode="&#xe92d;" glyph-name="arr-chevron-up" d="M950.559 312.149l-438.531 438.6-467.558-467.558 137.94-137.926 329.619 329.619 329.578-329.632 137.912 137.94z" />
<glyph unicode="&#xe92e;" glyph-name="arr-chevron-down" d="M73.441 583.851l438.531-438.6 467.545 467.558-137.926 137.926-329.619-329.632-329.578 329.646-137.912-137.94z" />
<glyph unicode="&#xe92f;" glyph-name="star" d="M977.101 575.508l-262.226-240.995 83.763-330.889-288.754 181.944-288.782-181.917 83.791 330.834-257.98 241.022h336.295l126.689 316.853 126.717-316.88z" />
<glyph unicode="&#xe930;" glyph-name="social-fb" d="M611.997 700.546c-17.722 0-28.945-2.785-33.669-8.424-4.724-5.625-7.086-17.626-7.086-36.086v-47.718h117.746c5.775 0 10.677-2.185 14.623-6.54 4.028-4.683 5.816-9.94 5.407-15.688l-7.537-108.476c-0.751-5.434-2.99-10.049-6.772-13.872-3.796-3.809-8.438-5.707-13.858-5.707h-109.595v-416.631c0-5.803-2.007-10.718-5.926-14.705-4.028-3.946-8.67-5.926-14.118-5.926h-135.632c-5.789 0-10.704 2.007-14.664 5.926-4 4.028-5.98 8.929-5.98 14.705v416.631h-66.164c-5.789 0-10.704 2.089-14.664 6.212-3.973 4.164-5.939 9.107-5.939 14.937v108.503c0 5.775 1.98 10.704 5.939 14.609 4 4 8.875 5.994 14.664 5.994h66.164v55.856c0 64.007 15.933 111.63 47.759 142.937 31.812 31.239 80.077 46.954 144.807 46.954 43.459 0 84.118-5.475 122.074-16.288 5.065-1.42 9.052-4.328 11.96-8.684 2.867-4.314 3.987-9.079 3.249-14.104l-14.664-105.8c-0.737-5.789-3.604-10.513-8.67-14.063-5.079-3.249-10.527-4.314-16.288-3.249-27.43 5.789-51.842 8.697-73.168 8.697z" />
<glyph unicode="&#xe931;" glyph-name="social-twitter" d="M893.215 683.465c0-2.785-0.669-5.257-2.048-7.468-17.64-28.658-42.312-54.845-74.042-78.589v-13.612c1.12-62.587-12.684-125.597-41.342-188.989-36.932-81.879-91.75-145.913-164.332-192.075-72.636-46.189-154.201-69.277-244.627-69.277-73.059 0-141.954 16.821-206.793 50.463-17.64 9.079-29.628 15.988-35.936 20.712-4.178 3.263-6.226 6.991-6.226 11.141 0 3.604 1.324 6.69 3.919 9.325 2.635 2.58 5.707 3.919 9.339 3.919 3.837 0 9.912-0.382 18.186-1.024 8.274-0.71 14.473-0.997 18.637-0.997 56.197 0 107.875 14.554 155.061 43.8-28.385 6.636-53.371 19.852-74.848 39.663-21.531 19.893-36.809 43.718-45.943 71.557-0.573 2.171-0.806 3.7-0.806 4.506 0 3.345 1.229 6.294 3.714 8.916 2.499 2.608 5.53 3.919 9.107 3.919 1.365 0 3.304-0.273 5.775-0.833 2.471-0.532 4.123-0.806 4.943-0.806-24.521 15.155-44.128 35.43-58.682 60.798-14.623 25.382-21.955 52.388-21.955 81.087 0 4.123 1.611 7.646 4.779 10.527 3.14 2.908 6.95 4.355 11.36 4.355 2.744 0 7.578-1.556 14.473-4.738 6.922-3.14 11.018-5.024 12.384-5.584-25.382 30.324-38.065 65.591-38.065 105.854 0 14.063 1.993 28.931 6.021 44.674 3.987 15.729 9.544 28.809 16.766 39.281 2.758 4.424 6.199 6.622 10.336 6.622 4.41 0 8.151-1.666 11.127-4.956 20.972-23.17 36.127-39.021 45.534-47.527 33.888-30.638 71.939-55.064 114.101-73.428 42.161-18.309 85.907-29.45 131.086-33.287-1.079 5.762-1.652 12.534-1.652 20.248 0 45.998 16.343 85.388 49.043 118.047 32.686 32.686 72.021 49.029 118.019 49.029 44.947 0 83.804-15.742 116.627-47.186 26.16 5.53 54.996 16.821 86.385 33.929 2.212 1.393 4.437 2.048 6.608 2.048 3.604 0 6.717-1.297 9.353-3.932 2.594-2.635 3.932-5.707 3.932-9.312 0-6.649-3.864-16.712-11.605-30.201-7.7-13.517-14.705-23.975-21.040-31.416 1.898 0.546 6.021 1.952 12.37 4.342 6.349 2.335 12.261 4.533 17.79 6.608 5.53 2.089 8.834 3.113 9.94 3.113 3.577 0 6.704-1.297 9.298-3.919 2.635-2.58 3.932-5.762 3.932-9.325z" />
<glyph unicode="&#xe932;" glyph-name="social-google" d="M409.068 817.527h208.691l-64.471-37.724h-64.471c22.596-14.322 40.113-34.379 52.524-60.17 12.425-25.791 18.623-52.688 18.623-80.705 0-23.566-3.659-44.496-10.977-62.792-7.332-18.309-16.234-33.027-26.747-44.169-10.513-11.155-21.026-21.422-31.526-30.802-10.513-9.393-19.429-19.101-26.747-29.123-7.332-10.035-10.977-20.767-10.977-32.236 0-8.274 2.621-16.398 7.878-24.358s12.097-15.606 20.521-22.924c8.438-7.332 17.749-14.978 27.948-22.924 10.199-7.96 20.384-16.794 30.57-26.501 10.185-9.721 19.497-20.221 27.935-31.526s15.278-24.822 20.535-40.591 7.878-32.713 7.878-50.872c0-50.927-22.282-95.833-66.847-134.663-48.401-41.711-115.261-62.56-200.581-62.56-18.787 0-37.806 1.597-57.071 4.779s-38.68 8.52-58.259 16.002-36.85 16.725-51.814 27.689c-14.978 10.991-27.225 25.163-36.768 42.503-9.557 17.353-14.322 36.7-14.322 58.027 0 19.415 5.885 40.905 17.667 64.471 10.185 20.371 25.463 37.956 45.848 52.77 20.371 14.8 43.459 26.092 69.25 33.901 25.791 7.782 50.449 13.517 74.015 17.19 23.566 3.659 47.432 5.803 71.639 6.458-20.384 26.419-30.57 50.135-30.57 71.148 0 3.823 0.314 7.564 0.956 11.223 0.628 3.659 1.434 6.758 2.389 9.312s2.225 5.98 3.823 10.267c1.584 4.287 2.703 7.714 3.345 10.267-12.739-1.597-23.88-2.389-33.423-2.389-47.445 0-88.105 15.592-122.020 46.804-33.901 31.198-50.859 70.356-50.859 117.473 0 44.578 15.114 84.446 45.37 119.631 30.242 35.185 67.488 57.713 111.753 67.57 29.901 6.362 59.679 9.544 89.293 9.544zM528.93 179.043c0 6.676-0.724 13.135-2.144 19.347-1.42 6.199-2.949 11.933-4.533 17.19-1.597 5.257-4.396 10.745-8.369 16.48-3.987 5.721-7.332 10.568-10.022 14.554-2.703 3.973-6.922 8.67-12.657 14.090-5.734 5.407-10.117 9.462-13.135 12.179-3.031 2.69-8.124 6.758-15.292 12.179-7.154 5.407-12.097 9.079-14.8 10.991-2.717 1.911-7.96 5.557-15.756 10.991-7.81 5.407-12.657 8.752-14.568 10.022-5.42 0.628-13.367 0.956-23.88 0.956-17.19 0-34.065-1.12-50.627-3.345s-33.751-6.212-51.569-11.947c-17.831-5.721-33.423-13.053-46.804-21.955-13.367-8.916-24.358-20.849-32.959-35.813-8.588-14.978-12.889-32.003-12.889-51.104 0-21.654 5.652-40.987 16.957-58.013 11.305-17.039 26.105-30.406 44.414-40.113 18.295-9.708 37.492-16.944 57.549-21.736 20.057-4.779 40.264-7.154 60.648-7.154 18.773 0 36.687 1.993 53.726 5.98 17.026 3.987 33.027 10.185 47.991 18.623s26.815 20.139 35.567 35.089c8.779 14.95 13.148 32.454 13.148 52.511zM471.613 590.691c0 19.101-2.621 39.39-7.878 60.88s-12.739 42.257-22.446 62.314c-9.708 20.057-23.088 36.605-40.113 49.671-17.039 13.053-36.058 19.579-57.071 19.579-29.6 0-52.524-10.991-68.772-32.959-16.234-21.968-24.358-48.237-24.358-78.793 0-14.964 1.83-30.72 5.489-47.268 3.659-16.561 9.312-33.109 16.957-49.671s16.548-31.444 26.733-44.66c10.185-13.216 22.61-23.962 37.26-32.236 14.636-8.274 30.092-12.411 46.326-12.411 30.884 0 53.248 9.626 67.092 28.89 13.872 19.279 20.78 44.824 20.78 76.663zM905.257 695.276v-61.126h-122.252v-122.252h-61.14v122.252h-122.252v61.126h122.252v122.252h61.14v-122.252h122.252z" />
<glyph unicode="&#xe933;" glyph-name="social-instagram" d="M702.287 872.697h-380.604c-129.23 0-234.393-105.163-234.393-234.411v-380.622c0-129.248 105.163-234.366 234.393-234.366h380.591c129.248 0 234.411 105.118 234.411 234.366v380.622c0.014 129.248-105.149 234.411-234.393 234.411zM861.331 257.669c0-87.681-71.349-159.030-159.044-159.030h-380.604c-87.681 0-159.030 71.349-159.030 159.030v380.622c0 87.695 71.349 159.044 159.030 159.044h380.591c87.695 0 159.044-71.349 159.044-159.044v-380.622h0.014zM512 666.862c-120.681 0-218.875-98.177-218.875-218.875 0-120.653 98.177-218.862 218.875-218.862 120.667 0 218.844 98.195 218.844 218.862 0 120.698-98.177 218.875-218.844 218.875zM512 304.491c-79.132 0-143.509 64.363-143.509 143.481 0 79.146 64.381 143.526 143.509 143.526 79.115 0 143.495-64.381 143.495-143.526 0-79.101-64.381-143.481-143.495-143.481zM740.046 730.752c-14.513 0-28.792-5.892-39.071-16.184-10.261-10.247-16.211-24.513-16.211-39.084 0-14.513 5.937-28.778 16.211-39.084 10.247-10.247 24.54-16.17 39.071-16.17 14.558 0 28.765 5.923 39.071 16.17 10.306 10.306 16.184 24.571 16.184 39.084 0 14.576-5.86 28.837-16.184 39.084-10.247 10.292-24.495 16.184-39.071 16.184z" />
<glyph unicode="&#xe934;" glyph-name="info" d="M385.72 611.239v-139.155h98.072v-454.164h154.474v593.319zM433.207 878.080h182.081v-182.108h-182.081v182.108z" />
<glyph unicode="&#xe935;" glyph-name="extra-baggage" d="M61.959 68h900.096v592.104h-252l0.055 167.909h-396.097v-167.909h-252.054v-592.104zM901.816 128.212h-107.738v471.682h107.738v-471.682zM733.839 128.212h-443.692v471.682h443.692v-471.682zM229.99 128.212h-107.82v471.682h107.82v-471.682zM649.899 660.105h-275.729v107.752h275.729v-107.752z" />
<glyph unicode="&#xe936;" glyph-name="extra-lounge" d="M79.039 229.915h865.922v265.789h-77.442l0.082 170.394h-711.748v-170.394h-76.814v-265.789zM904.219 270.671h-112.080v190.874h112.080v-190.874zM751.384 270.671h-479.478v113.036h479.478v-113.036zM231.247 270.671h-111.452v190.874h111.452v-190.874zM751.384 424.448h-479.478v71.243h-75.462v129.679h630.497v-129.679h-75.544v-71.243z" />
<glyph unicode="&#xe937;" glyph-name="extra-priority" d="M373.064 136.663h-119.221v326.383l1.161 53.63 1.925 58.641c-19.811-19.811-33.56-32.782-41.274-38.967l-64.812-52.087-57.481 71.762 181.712 144.671h97.99v-564.033zM677.601 471.77c0-32.181-11.168-56.716-33.519-73.564-22.405-16.848-55.869-25.286-100.407-25.286-22.856 0-42.325 1.529-58.423 4.628s-31.171 7.632-45.22 13.626v70.752c15.906-7.482 33.833-13.749 53.767-18.801s37.492-7.591 52.661-7.591c31.061 0 46.612 8.984 46.612 26.965 0 6.745-2.075 12.22-6.185 16.425-4.11 4.233-11.223 8.984-21.327 14.336-10.131 5.325-23.607 11.551-40.428 18.664-24.166 10.117-41.902 19.47-53.221 28.085-11.332 8.615-19.565 18.487-24.726 29.628-5.147 11.141-7.714 24.849-7.714 41.151 0 27.88 10.813 49.466 32.44 64.73 21.627 15.251 52.265 22.897 91.969 22.897 37.792 0 74.588-8.247 110.346-24.726l-25.818-61.781c-15.729 6.745-30.447 12.261-44.128 16.575-13.626 4.314-27.593 6.458-41.807 6.458-25.286 0-37.915-6.84-37.915-20.494 0-7.687 4.082-14.336 12.233-19.948 8.11-5.598 25.969-13.94 53.466-24.986 24.535-9.926 42.53-19.197 53.917-27.798 11.414-8.615 19.866-18.528 25.313-29.764 5.42-11.25 8.11-24.644 8.11-40.182zM876.721 441.173c14.991 0 32.959 3.263 53.917 9.83v-63.747c-21.327-9.557-47.541-14.322-78.616-14.322-34.297 0-59.228 8.656-74.848 25.969-15.647 17.312-23.443 43.295-23.443 77.933v151.361h-41.015v36.222l47.172 28.645 24.726 66.273h54.75v-66.847h87.914v-64.294h-87.914v-151.361c0-12.179 3.413-21.163 10.267-26.965 6.827-5.816 15.865-8.697 27.088-8.697z" />
<glyph unicode="&#xe938;" glyph-name="extra-wireless" d="M920.344 525.715c-25.914 26.242-54.327 49.848-85.224 70.984-30.857 20.999-63.679 38.967-98.154 53.808-34.529 14.855-70.697 26.255-108.503 34.202s-76.636 11.974-116.681 11.974c-39.731 0-78.479-4.028-116.231-11.974-37.82-7.946-74.028-19.279-108.517-33.969-34.652-14.732-67.284-32.522-98.263-53.466-30.802-20.89-59.296-44.51-85.606-70.752l-57.617 58.423c29.983 29.641 62.573 56.416 97.799 80.295 35.239 23.839 72.527 44.087 111.916 60.798 39.308 16.698 80.527 29.587 123.658 38.557 42.994 8.984 87.327 13.462 132.861 13.462 45.507 0 89.853-4.478 133.188-13.462 43.172-8.97 84.5-21.873 124-38.557 39.526-16.712 76.8-37.028 112.135-61.030 35.116-23.948 67.652-50.9 97.362-80.828l-58.122-58.464zM797.519 402.534c-18.241 18.186-38.161 34.748-59.733 49.507-21.681 14.664-44.401 27.17-68.635 37.533-24.057 10.363-49.384 18.186-75.872 23.648-26.474 5.407-53.712 8.124-81.51 8.124-27.812 0-54.914-2.703-81.292-8.124-26.365-5.461-51.569-13.189-75.639-23.265-24.18-10.063-46.927-22.378-68.458-36.96-21.463-14.554-41.274-31.007-59.569-49.261l-56.88 56.825c21.75 21.968 45.411 41.725 71.38 59.174 25.846 17.49 53.193 32.399 82.029 44.715 28.904 12.384 59.174 21.832 90.836 28.44 31.73 6.622 64.253 9.953 97.58 9.953 33.369 0 65.959-3.331 97.608-9.953 31.648-6.608 62-16.179 90.986-28.604 29.041-12.438 56.375-27.525 82.289-45.138 25.818-17.613 49.739-37.424 71.735-59.419l-56.852-57.194zM677.041 281.279c-21.408 21.777-46.217 38.816-74.424 51.296-28.208 12.438-58.477 18.719-90.836 18.719-32.249 0-62.519-6.103-90.385-18.132-27.976-12.097-52.729-28.836-74.138-50.258l-54.463 54.804c28.372 28.099 61.235 50.135 98.604 66.205 37.315 16.002 77.428 24.057 120.381 24.057s83.299-8.165 121.050-24.521c37.711-16.22 70.697-38.694 98.714-67.297l-54.504-54.873zM512.573 117.903l-103.383 103.328c13.53 13.025 29.068 23.252 46.572 30.802 17.504 7.591 36.209 11.414 56.020 11.414 20.152 0 39.021-3.932 56.648-11.742 17.599-7.823 32.905-18.528 45.916-32.017l-101.772-101.786z" />
<glyph unicode="&#xe939;" glyph-name="ff-miles" d="M578.137 17.469l-177.179 0.628 68.485 323.789h-105.431l-85.975-87.668h-191.119l99.628 192.266-99.574 192.703h191.092l85.975-87.846h102.892l-69.031 319.037h183.678l116.299-316.416h100.584c84.064 0 169.178-36.291 169.178-105.663 0-64.007-71.12-110.66-169.11-110.906h-100.762l-119.631-319.925zM468.282 72.465l72.008-0.259 119.576 319.802h138.581c63.133 0.164 114.565 25.409 114.565 56.293 0 27.197-53.535 51.050-114.565 51.050h-138.691l-116.299 316.416h-77.879l69.031-319.037h-193.55l-85.975 87.846h-78.425l71.38-138.131-71.311-137.612h78.384l85.975 87.668h195.748l-68.553-324.035z" />
<glyph unicode="&#xe93a;" glyph-name="account-outline" d="M665.504 365.684c-11.633 5.175-26.037 13.667-28.699 24.74-3.686 15.142 9.475 36.905 14.677 43.814 9.585 10.336 57.385 67.707 57.385 182.723 0 150.979-66.246 227.533-196.867 227.533-130.58 0-196.799-76.554-196.799-227.533 0-110.087 42.817-166.53 55.842-181.084 6.54-8.151 19.661-30.897 16.166-45.452-2.635-11.087-17.012-19.579-28.303-24.631-113.855-35.185-304.879-107.233-304.879-194.287v-61.385c0-36.7 29.805-58.627 58.6-58.627h798.761c28.781 0 58.559 21.927 58.559 58.627v61.372c0.027 87.054-190.915 159.102-304.442 194.191zM441.426 377.44c11.837 49.015-28.617 95.3-29.027 95.737s-41.438 44.974-41.438 143.783c0 120.409 42.175 171.786 141.053 171.786 98.905 0 141.107-51.377 141.107-171.786 0-99.56-41.861-144.193-42.366-144.698l-2.103-2.335c-3.809-4.738-36.932-47.609-26.037-92.57 6.513-27.047 27.334-48.374 62.054-63.406l2.731-1.010c201.619-62.15 266.813-122.129 266.8-141.435v-61.385c0-2.144-0.71-2.867-2.799-2.867h-798.761c-2.144 0-2.854 0.724-2.854 2.867v61.385c0 19.319 65.249 79.312 267.073 141.489l2.744 1.010c34.584 15.005 55.392 36.359 61.822 63.433z" />
</font>
</defs>
</svg>
