<?xml version="1.0" encoding="utf-8"?>
<!-- Generator: Adobe Illustrator 16.0.4, SVG Export Plug-In . SVG Version: 6.00 Build 0)  -->
<!DOCTYPE svg PUBLIC "-//W3C//DTD SVG 1.1//EN" "http://www.w3.org/Graphics/SVG/1.1/DTD/svg11.dtd">
<svg version="1.1" id="Layer_1" xmlns="http://www.w3.org/2000/svg" xmlns:xlink="http://www.w3.org/1999/xlink" x="0px" y="0px"
	 width="76.333px" height="76.333px" viewBox="0 0 76.333 76.333" enable-background="new 0 0 76.333 76.333" xml:space="preserve">
<circle fill="#FFFFFF" cx="38.386" cy="38.172" r="36"/>
<path fill="#15CB61" d="M38.386,75.172c-20.402,0-37-16.598-37-37c0-20.402,16.598-37,37-37s37,16.598,37,37
	C75.386,58.575,58.788,75.172,38.386,75.172z M38.386,3.172c-19.299,0-35,15.701-35,35s15.701,35,35,35s35-15.701,35-35
	S57.685,3.172,38.386,3.172z"/>
<g>
	<polygon fill="#15CB61" points="36.387,48.681 24.581,36.875 26.835,34.621 36.387,44.172 51.581,28.98 53.835,31.235 	"/>
</g>
</svg>
