<?xml version="1.0" encoding="utf-8"?>
<!-- Generator: Adobe Illustrator 16.0.4, SVG Export Plug-In . SVG Version: 6.00 Build 0)  -->
<!DOCTYPE svg PUBLIC "-//W3C//DTD SVG 1.1//EN" "http://www.w3.org/Graphics/SVG/1.1/DTD/svg11.dtd">
<svg version="1.1" id="Layer_1" xmlns="http://www.w3.org/2000/svg" xmlns:xlink="http://www.w3.org/1999/xlink" x="0px" y="0px"
	 width="526px" height="549px" viewBox="0 0 526 549" enable-background="new 0 0 526 549" xml:space="preserve">
<g>
	<circle fill="#D9F2FB" cx="262.861" cy="285.235" r="254.246"/>
	<g>
		<g>
			<radialGradient id="SVGID_1_" cx="262.4336" cy="250.5269" r="233.0139" gradientUnits="userSpaceOnUse">
				<stop  offset="0" style="stop-color:#15CB61"/>
				<stop  offset="1" style="stop-color:#95E8B8"/>
			</radialGradient>
			<path fill="url(#SVGID_1_)" d="M345.112,462.413c-2.73,2.734-6.835,3.882-11.86,3.312c-3.624-0.41-7.404-1.69-10.636-3.606
				c-3.482-2.063-6.648-4.604-10-7.295l-0.13-0.104c-4.45-3.585-9.032-7.279-14.433-9.812c-6.951-3.262-14.549-4.291-21.896-5.289
				l-0.089-0.012c-7.919-1.064-16.113-2.167-22.672-6.219c-4.871-3.004-8.858-7.674-12.717-12.188l-0.098-0.113
				c-4.424-5.183-8.998-10.54-15.205-14.062c-8.851-5.033-18.898-5.269-28.613-5.5c-7.283-0.174-14.112-0.335-20.47-2.322
				c-8.518-2.656-13.786-8.634-18.88-14.412c-4.282-4.838-8.69-9.818-14.867-12.854c-5.317-2.606-11.229-1.63-16.443-0.771
				c-17.475,2.904-35.3,4.143-52.991,3.688c-10.171-0.264-20.802-1.163-29.633-5.942c-2.06-1.12-3.567-1.978-4.651-2.6
				c-4.341-2.476-5.16-2.683-8.293-2.838l-5.51-0.274l-1.575-5.285c-6.928-23.25-10.446-47.46-10.454-71.955
				c-0.006-41.463,10.246-82.453,29.646-118.54l3.679-6.845l6.858,3.657c13.971,7.455,28.207,13.568,40.456,18.714
				c11.003,4.62,23.475,9.857,31.373,19.535c5.413,6.635,7.458,12.025,6.435,16.959c-0.944,4.522-4.427,8.641-8.111,13
				c-4.663,5.515-9.913,11.726-11.396,20.204c-0.338,1.934-0.584,3.917-0.823,5.834l-0.045,0.351
				c-0.618,5.078-1.263,10.352-3.638,14.581c-0.956,1.704-2.248,3.36-3.948,5.062c-1.938,1.941-4.156,3.7-6.501,5.563
				c-1.881,1.496-4.025,3.204-5.984,5.038c-0.198,0.184-0.377,0.358-0.561,0.541c-5.582,5.587-15.366,20.879-13.813,32.583
				c0.667,5.004,3.345,8.887,7.739,11.221c3.248,1.725,6.883,1.823,10.324,1.675c18.699-0.81,38.453-7.89,54.197-19.423
				c2.275-1.661,4.456-3.365,6.563-5.017l0.153-0.119c11.746-9.184,21.023-16.438,36.754-11.937
				c3.442,0.982,6.803,2.509,10.049,3.983l0.135,0.06c3.506,1.573,6.818,3.059,10.5,4.148c9.582,2.817,18.94,0.976,24.087-4.789
				c3.861-4.336,4.798-9.787,5.705-15.06l0.013-0.084c0.53-3.068,1.032-5.967,2.091-8.538c0.916-2.232,2.34-4.327,4.23-6.218
				c4.249-4.254,10.687-7.338,18.61-8.924c7.216-1.444,17.718-2.213,26.75,2.342c8.232,4.138,13.533,12.568,12.879,20.496
				l-3.34,42.51c-0.986,12.573-1.229,25.606,7.402,34.661c2.786,2.92,6.314,5.194,9.726,7.395l0.045,0.028
				c6.018,3.899,8.992,6.097,10.279,9.383l0.621,1.594l-0.1,1.709c-0.152,2.539-1.436,4.82-3.532,8.28
				c-1.41,2.323-2.866,4.722-3.776,7.489c-4.348,13.222,6.246,25.604,13.98,34.646c7.097,8.295,13.196,20.593,7.051,27.994
				C345.556,461.947,345.34,462.187,345.112,462.413z M511.871,250.189l-4.03,2.799c-6.709,4.666-14.726,6.834-23.183,6.27
				c-18.984-1.262-25.22-14.711-32.44-30.282c-3.596-7.766-7.313-15.791-12.897-22.655c-8.193-10.071-16.388-15.621-25.05-16.965
				c-10.272-1.597-19.643,2.727-28.703,6.911c-2.076,0.956-4,1.843-5.954,2.675c-9.041,3.844-18.409,6.194-28.329,8.683
				l-0.096,0.023c-6.385,1.598-12.988,3.249-19.33,2.245c-11.935-1.901-22.479-24.405-26.321-38.144
				c-3.555-12.744-3.381-30.329,7.761-41.476c1.389-1.389,2.931-2.654,4.578-3.758c6.179-4.133,12.18-6.892,18.533-9.812
				l0.157-0.073c9.635-4.431,18.735-8.617,27.229-17.111c1.141-1.144,2.27-2.361,3.343-3.619c2.398-2.803,4.884-5.346,7.076-7.589
				c3.649-3.746,7.794-7.996,10.167-12.663l3.845-7.559l7.209,4.469c16.416,10.179,31.708,22.306,45.455,36.048
				c37.521,37.503,61.793,84.784,70.195,136.735L511.871,250.189z M221.778,109.731c-0.838,0.839-1.754,1.559-2.721,2.138
				c-4.992,3.008-11.463,2.501-18.785,1.591c-3.379-0.43-5.462-0.874-6.989-1.486l-3.697-1.488l-0.962-3.869
				c-0.27-1.075-0.45-2.378-0.613-3.617l-0.017-0.13c-0.984-7.623-0.888-18.19-0.792-28.409v-0.278
				c0.074-7.743,0.117-14.659-0.162-20.958l-0.269-6.102l5.861-1.722c21.249-6.242,43.331-9.643,65.636-10.109l5.057-0.106
				l2.155,4.576c5.153,10.921,2.296,17.152-1.005,20.456l-0.332,0.324c-3.248,3.026-7.546,5.199-11.698,7.296
				c-4.815,2.444-9.77,4.956-13.719,8.908c-0.502,0.501-0.983,1.022-1.434,1.551c-4.119,4.843-6.163,10.871-8.14,16.698
				C227.199,100.742,225.359,106.149,221.778,109.731z M133.646,127.753c-1.711,1.713-3.655,2.983-5.778,3.775
				c-6.859,2.57-15.933,0.387-24.89-5.99c-4.017-2.851-8.458-4.797-11.878-6.172l-11.079-4.461l8.544-8.347
				c8.793-8.596,18.252-16.587,28.112-23.748l6.294-4.573l4.587,6.286c5.278,7.243,11.292,18.732,12.043,25.761
				C140.281,116.707,137.999,123.398,133.646,127.753z"/>
		</g>
	</g>
	<g>
		<g>
			<g>
				<path fill="#FFFFFF" d="M80.908,103.571C32.35,152.148,5.615,216.734,5.628,285.432c0.011,68.682,26.774,133.251,75.36,181.817
					c48.585,48.563,113.166,75.3,181.854,75.286c68.688-0.015,133.263-26.777,181.824-75.361
					c48.564-48.584,75.299-113.168,75.283-181.857c-0.012-68.688-26.773-133.26-75.358-181.825
					c-17.932-17.924-38.194-33.017-60.223-44.862l-0.983-0.523c-36.739-19.563-78.459-29.901-120.653-29.896
					C194.037,28.23,129.462,54.994,80.908,103.571z M440.08,462.587c-47.34,47.358-110.284,73.448-177.237,73.466
					c-66.96,0.007-129.914-26.058-177.269-73.392c-22.258-22.251-39.891-47.962-52.403-76.423l-7.897-17.967l18.076,7.649
					c9.153,3.875,19.213,4.641,28.722,4.892c18.116,0.46,36.376-0.812,54.269-3.781c5.424-0.908,9.229-1.385,12.458,0.194
					c5.087,2.504,8.872,6.803,12.878,11.354c5.441,6.151,11.593,13.102,21.806,16.287c7.246,2.256,14.529,2.431,22.241,2.615
					c9.35,0.22,18.151,0.427,25.565,4.65c5.215,2.962,9.412,7.879,13.472,12.633l0.035,0.041
					c4.198,4.929,8.531,10.017,14.302,13.574c7.708,4.76,16.582,5.961,25.166,7.125l0.058,0.008
					c6.908,0.932,14.019,1.893,20.078,4.732c4.7,2.211,8.966,5.646,13.092,8.97l0.066,0.053c3.419,2.749,6.956,5.591,10.866,7.911
					c9.27,5.483,22.673,7.023,30.344-0.65c0.374-0.375,0.739-0.775,1.087-1.191c7.3-8.776,4.587-22.71-7.095-36.36
					c-7.111-8.317-15.966-18.665-12.754-28.424c0.689-2.085,1.95-4.153,3.168-6.153c2.123-3.497,4.535-7.477,4.477-12.258
					c-0.101-8.047-5.783-12.337-13.799-17.519c-3.241-2.095-6.293-4.068-8.566-6.445c-6.797-7.129-6.475-19.055-5.638-29.676
					l3.328-42.481c0.889-10.67-5.712-21.438-16.423-26.835c-8.454-4.254-19.155-5.258-30.946-2.9
					c-9.225,1.85-16.798,5.522-21.894,10.619c-2.485,2.486-4.39,5.319-5.669,8.421c-1.336,3.241-1.92,6.661-2.486,9.968
					c-0.793,4.596-1.535,8.912-4.175,11.878c-0.101,0.116-0.246,0.27-0.393,0.419c-4.24,4.243-11.572,4.042-17.019,2.44
					c-3.22-0.941-6.422-2.382-9.516-3.774l-0.338-0.151c-3.625-1.639-7.049-3.186-10.871-4.277
					c-18.906-5.405-30.375,3.563-42.518,13.059c-2.009,1.573-4.284,3.356-6.571,5.029c-14.726,10.783-33.187,17.408-50.642,18.17
					c-2.614,0.119-4.164,0.02-5.515-0.354l-1.106-0.306l-0.938-0.592c-0.24-0.146-0.86-0.536-1.507-1.183l-1.132-1.13l-0.595-1.485
					c-0.968-2.413-1.761-6.686,2.482-15.883c1.17-2.54,4.375-8.927,8.813-13.368c0.168-0.167,0.336-0.331,0.502-0.488
					c1.726-1.611,3.562-3.076,5.506-4.628l0.115-0.09c2.394-1.907,4.854-3.863,7.057-6.068c2.117-2.118,3.752-4.228,5.002-6.447
					c3.002-5.346,3.725-11.262,4.424-16.986c0.259-2.095,0.496-3.978,0.816-5.831c1.183-6.76,5.433-11.788,9.928-17.109
					c7.88-9.314,16.808-19.866,1.787-38.284c-8.921-10.928-22.76-16.744-33.885-21.417c-11.796-4.956-25.508-10.834-38.931-17.922
					l-7.615-4.021l4.755-7.18c5.312-8.016,11.199-15.863,17.498-23.325l3.609-4.273l5.203,2.047c1.058,0.416,2.114,0.82,3.158,1.22
					l0.425,0.162c5.118,1.935,10.442,3.946,14.966,7.164c10.905,7.746,21.89,10.15,30.93,6.768c3.002-1.126,5.735-2.904,8.115-5.288
					c5.771-5.772,8.682-14.266,7.786-22.718c-0.753-7.049-6.103-18.865-12.726-28.089l-4.95-6.899l7.294-4.345
					c10.968-6.535,22.537-12.259,34.38-17.017l10.562-4.242l0.137,11.38c0.056,4.397,0.013,9.066-0.034,13.58v0.152
					c-0.099,10.53-0.204,21.418,0.846,29.544c0.377,2.951,0.843,6.612,3.065,9.667c3.783,5.195,10.976,6.086,14.841,6.565
					c6.589,0.819,15.603,1.939,22.948-2.469c1.443-0.869,2.733-1.88,3.947-3.093c4.644-4.646,6.917-11.338,8.922-17.239
					c1.871-5.502,3.636-10.695,6.938-14.58c0.338-0.4,0.709-0.801,1.099-1.19c3.216-3.219,7.476-5.378,11.982-7.666l0.074-0.036
					c4.556-2.306,9.259-4.685,13.18-8.331c0.208-0.196,0.408-0.388,0.601-0.582c5.007-5.008,6.702-11.537,5.037-19.403
					l-2.146-10.147l10.347,0.758c32.655,2.396,63.951,10.963,93.022,25.462l5.131,2.559l-0.912,5.661
					c-0.746,4.608-4.06,8.011-10.078,14.188c-2.268,2.324-4.837,4.958-7.352,7.891c-0.932,1.086-1.909,2.144-2.907,3.142
					c-7.799,7.803-16.403,11.759-25.517,15.946c-6.33,2.91-12.875,5.916-19.514,10.356c-1.968,1.312-3.81,2.825-5.48,4.497
					c-11.196,11.201-14.749,29.096-9.501,47.871c3.82,13.685,15.333,40.236,31.546,42.807c7.689,1.219,15.287-0.689,21.992-2.372
					c9.734-2.441,19.799-4.966,29.323-9.017c2.122-0.902,4.269-1.889,6.115-2.743c8.212-3.785,16.69-7.692,25.007-6.402
					c6.994,1.083,13.866,5.879,21.009,14.656c5.038,6.192,8.42,13.469,11.999,21.173l0.05,0.109
					c7.418,15.991,15.079,32.517,37.898,34.03c6.589,0.443,12.953-0.536,18.919-2.913l9.973-3.972l0.691,10.714
					c0.359,5.565,0.539,11.048,0.539,16.294C513.478,352.275,487.416,415.229,440.08,462.587z M344.229,461.885
					c-2.732,2.736-6.835,3.882-11.862,3.312c-3.624-0.41-7.402-1.69-10.634-3.606c-3.484-2.063-6.65-4.604-10.003-7.295
					l-0.131-0.104c-4.447-3.585-9.03-7.279-14.433-9.812c-6.948-3.26-14.549-4.291-21.896-5.288l-0.084-0.013
					c-7.92-1.064-16.116-2.167-22.672-6.22c-4.872-3.002-8.86-7.673-12.722-12.188l-0.096-0.113
					c-4.423-5.182-8.996-10.541-15.204-14.062c-8.851-5.033-18.898-5.271-28.617-5.5c-7.279-0.172-14.108-0.336-20.466-2.322
					c-8.52-2.657-13.786-8.633-18.879-14.412c-4.283-4.838-8.69-9.816-14.868-12.853c-5.317-2.606-11.229-1.632-16.443-0.771
					c-17.475,2.902-35.3,4.142-52.991,3.685c-10.169-0.261-20.798-1.162-29.633-5.938c-2.06-1.123-3.566-1.979-4.653-2.602
					c-4.336-2.477-5.158-2.681-8.29-2.838l-5.511-0.274l-1.575-5.285c-6.927-23.248-10.445-47.458-10.453-71.954
					c-0.007-41.463,10.245-82.454,29.646-118.54l3.68-6.844l6.857,3.657c13.971,7.452,28.206,13.566,40.457,18.712
					c11.002,4.622,23.473,9.858,31.372,19.537c5.415,6.634,7.459,12.023,6.435,16.958c-0.947,4.523-4.43,8.641-8.11,13.001
					c-4.663,5.514-9.914,11.725-11.397,20.202c-0.336,1.935-0.584,3.917-0.821,5.837l-0.045,0.349
					c-0.62,5.078-1.265,10.351-3.641,14.582c-0.955,1.702-2.245,3.36-3.946,5.062c-1.942,1.94-4.155,3.699-6.502,5.562
					c-1.883,1.497-4.024,3.204-5.981,5.039c-0.199,0.185-0.379,0.358-0.562,0.541c-5.583,5.586-15.369,20.879-13.817,32.583
					c0.673,5.004,3.349,8.887,7.744,11.22c3.247,1.726,6.881,1.824,10.324,1.677c18.694-0.811,38.45-7.891,54.197-19.425
					c2.274-1.657,4.454-3.365,6.562-5.015l0.152-0.12c11.745-9.185,21.024-16.437,36.754-11.937
					c3.444,0.98,6.804,2.508,10.053,3.985l0.131,0.059c3.507,1.572,6.819,3.058,10.501,4.146c9.583,2.818,18.941,0.976,24.088-4.788
					c3.86-4.335,4.799-9.787,5.703-15.059l0.015-0.085c0.529-3.069,1.03-5.967,2.091-8.538c0.916-2.232,2.339-4.327,4.229-6.217
					c4.253-4.254,10.688-7.34,18.61-8.923c7.216-1.447,17.719-2.215,26.749,2.341c8.234,4.137,13.533,12.566,12.884,20.495
					l-3.344,42.511c-0.986,12.572-1.229,25.605,7.405,34.66c2.783,2.921,6.312,5.195,9.725,7.394l0.043,0.029
					c6.018,3.899,8.995,6.097,10.277,9.383l0.624,1.595l-0.103,1.708c-0.15,2.538-1.435,4.823-3.53,8.28
					c-1.41,2.322-2.863,4.722-3.778,7.49c-4.345,13.22,6.249,25.604,13.983,34.646c7.097,8.294,13.195,20.593,7.051,27.993
					C344.672,461.42,344.454,461.658,344.229,461.885z M510.984,249.659l-4.03,2.802c-6.707,4.665-14.725,6.833-23.179,6.269
					c-18.987-1.261-25.226-14.709-32.443-30.28c-3.597-7.767-7.312-15.792-12.896-22.656c-8.196-10.072-16.389-15.621-25.05-16.965
					c-10.275-1.598-19.644,2.729-28.705,6.911c-2.074,0.957-3.999,1.843-5.953,2.676c-9.041,3.844-18.409,6.193-28.328,8.682
					l-0.097,0.025c-6.385,1.597-12.988,3.249-19.331,2.245c-11.935-1.9-22.478-24.404-26.32-38.144
					c-3.556-12.744-3.382-30.327,7.761-41.475c1.389-1.389,2.931-2.654,4.58-3.757c6.177-4.134,12.176-6.893,18.532-9.815
					l0.154-0.07c9.638-4.432,18.739-8.618,27.23-17.11c1.141-1.146,2.269-2.363,3.341-3.62c2.401-2.803,4.886-5.347,7.079-7.59
					c3.647-3.744,7.793-7.995,10.165-12.661l3.848-7.561l7.208,4.471c16.415,10.179,31.707,22.305,45.454,36.047
					c37.519,37.502,61.791,84.784,70.195,136.735L510.984,249.659z M220.893,109.203c-0.837,0.84-1.754,1.56-2.721,2.138
					c-4.993,3.008-11.461,2.501-18.785,1.59c-3.378-0.429-5.463-0.873-6.99-1.486l-3.699-1.488l-0.959-3.868
					c-0.269-1.077-0.451-2.378-0.612-3.619l-0.019-0.13c-0.981-7.622-0.885-18.189-0.794-28.408l0.001-0.278
					c0.076-7.744,0.119-14.66-0.16-20.958l-0.267-6.103l5.859-1.721c21.252-6.242,43.331-9.643,65.634-10.11l5.057-0.106
					l2.157,4.576c5.15,10.921,2.298,17.152-1.008,20.455l-0.328,0.325c-3.249,3.027-7.547,5.198-11.699,7.297
					c-4.816,2.443-9.769,4.955-13.72,8.907c-0.501,0.5-0.982,1.021-1.432,1.55c-4.118,4.846-6.163,10.871-8.14,16.7
					C226.313,100.214,224.474,105.62,220.893,109.203z M132.76,127.225c-1.711,1.713-3.656,2.983-5.777,3.775
					c-6.857,2.569-15.932,0.387-24.889-5.989c-4.019-2.853-8.461-4.798-11.879-6.174l-11.078-4.46l8.542-8.348
					c8.794-8.597,18.254-16.586,28.113-23.747l6.295-4.572l4.586,6.287c5.279,7.241,11.295,18.729,12.042,25.76
					C139.396,116.178,137.113,122.87,132.76,127.225z"/>
				<path fill="#00AAE7" d="M262.842,543.035h-0.053c-68.802-0.003-133.492-26.792-182.154-75.433
					C31.954,418.941,5.139,354.245,5.128,285.432C5.115,216.6,31.902,151.889,80.555,103.218
					c48.647-48.672,113.346-75.487,182.177-75.507c42.298,0,84.088,10.358,120.889,29.954l0.983,0.523
					c22.076,11.871,42.378,26.994,60.341,44.95c48.679,48.658,75.493,113.357,75.505,182.178
					c0.016,68.823-26.772,133.534-75.43,182.211C396.365,516.204,331.666,543.021,262.842,543.035z M262.768,28.711
					c-68.6,0.02-133.047,26.731-181.506,75.214C32.798,152.407,6.115,216.867,6.128,285.432
					c0.011,68.547,26.722,132.991,75.214,181.464c48.473,48.452,112.913,75.137,181.447,75.14v0.5l0.053-0.5
					c68.557-0.015,133.005-26.727,181.471-75.215c48.468-48.488,75.152-112.947,75.137-181.504
					c-0.012-68.554-26.723-133.001-75.212-181.471c-17.895-17.887-38.116-32.951-60.105-44.775l-0.982-0.522
					C346.493,39.028,304.865,28.711,262.768,28.711z M262.843,536.553c-67.108,0-130.18-26.116-177.622-73.538
					c-22.306-22.3-39.972-48.062-52.507-76.575l-8.404-19.119l19.235,8.14c9.075,3.843,19.08,4.604,28.54,4.853
					c18.045,0.459,36.35-0.817,54.173-3.774c2.66-0.445,5.233-0.846,7.471-0.846c2.096,0,3.776,0.345,5.289,1.084
					c5.18,2.55,8.995,6.885,13.034,11.474c5.387,6.09,11.495,12.994,21.579,16.14c7.181,2.235,14.43,2.409,22.104,2.593
					c9.399,0.221,18.277,0.43,25.801,4.716c5.288,3.003,9.512,7.95,13.598,12.734c4.214,4.947,8.524,10.008,14.226,13.522
					c7.614,4.701,16.43,5.897,24.956,7.054c6.999,0.943,14.161,1.909,20.296,4.784c4.756,2.237,9.045,5.692,13.193,9.033
					c3.467,2.787,6.984,5.615,10.874,7.924c4.882,2.888,10.738,4.544,16.066,4.544c5.596,0,10.321-1.77,13.669-5.118
					c0.362-0.363,0.718-0.754,1.057-1.158c7.136-8.58,4.419-22.265-7.091-35.715c-7.201-8.423-16.146-18.886-12.849-28.905
					c0.705-2.135,1.977-4.223,3.206-6.242c2.101-3.459,4.47-7.362,4.413-12.007c-0.098-7.797-5.686-12.008-13.57-17.104
					c-3.26-2.106-6.339-4.097-8.656-6.52c-6.94-7.28-6.62-19.334-5.774-30.061l3.328-42.481c0.87-10.455-5.62-21.043-16.149-26.349
					c-5.396-2.715-11.688-4.092-18.702-4.092c-3.812,0-7.822,0.416-11.922,1.235c-9.129,1.831-16.611,5.456-21.638,10.482
					c-2.434,2.435-4.304,5.213-5.56,8.258c-1.312,3.183-1.892,6.566-2.452,9.839c-0.809,4.689-1.566,9.08-4.298,12.148
					c-0.102,0.118-0.255,0.279-0.409,0.438c-2.384,2.386-5.936,3.645-10.274,3.645c-2.346,0-4.851-0.372-7.243-1.075
					c-3.259-0.952-6.472-2.399-9.58-3.798l-0.337-0.151c-3.606-1.63-7.012-3.17-10.804-4.253c-3.743-1.069-7.383-1.612-10.82-1.612
					c-12.601,0-21.659,7.083-31.249,14.582c-2.054,1.608-4.315,3.379-6.587,5.041c-14.807,10.843-33.364,17.5-50.915,18.267
					c-2.635,0.118-4.244,0.022-5.67-0.373l-1.24-0.364l-0.938-0.592c-0.578-0.353-1.116-0.775-1.593-1.252l-1.243-1.298
					l-0.595-1.485c-1.001-2.497-1.833-6.902,2.493-16.277c1.18-2.562,4.41-9.006,8.914-13.513c0.172-0.171,0.343-0.338,0.512-0.498
					c1.739-1.624,3.58-3.093,5.528-4.647l0.129-0.102c2.421-1.929,4.852-3.865,7.01-6.027c2.081-2.082,3.69-4.155,4.92-6.339
					c2.953-5.26,3.67-11.127,4.363-16.802c0.273-2.207,0.506-4.039,0.82-5.855c1.206-6.891,5.493-11.966,10.031-17.339
					c7.76-9.173,16.546-19.558,1.789-37.653c-8.844-10.834-22.621-16.622-33.691-21.272c-11.82-4.966-25.554-10.856-38.97-17.941
					l-8.104-4.279l5.06-7.64c5.32-8.028,11.219-15.892,17.533-23.372l3.841-4.547l5.537,2.178c0.979,0.385,1.957,0.759,2.924,1.13
					l0.654,0.25c5.168,1.954,10.504,3.971,15.078,7.224c7.524,5.344,15.188,8.169,22.165,8.169c2.914,0,5.706-0.492,8.299-1.462
					c2.941-1.103,5.611-2.843,7.937-5.173c5.666-5.667,8.523-14.007,7.643-22.312c-0.746-6.979-6.059-18.692-12.635-27.851
					l-5.268-7.341l7.762-4.624c10.982-6.543,22.573-12.28,34.449-17.051l11.239-4.514l0.146,12.11
					c0.054,4.288,0.015,8.876-0.034,13.591l-0.001,0.248c-0.098,10.478-0.2,21.312,0.843,29.379c0.37,2.896,0.829,6.489,2.974,9.437
					c3.655,5.02,10.708,5.894,14.498,6.364c2.853,0.354,6.085,0.756,9.459,0.756c5.322,0,9.63-1.033,13.171-3.157
					c1.406-0.846,2.666-1.833,3.851-3.018c4.561-4.563,6.814-11.194,8.801-17.045c1.89-5.556,3.669-10.791,7.031-14.744
					c0.341-0.404,0.72-0.815,1.126-1.22c3.266-3.269,7.549-5.443,12.084-7.745l0.1-0.049c4.525-2.291,9.197-4.655,13.064-8.251
					c0.201-0.19,0.397-0.377,0.586-0.567c4.882-4.884,6.531-11.258,4.903-18.948l-2.284-10.798l11.01,0.807
					c32.721,2.401,64.08,10.985,93.21,25.514l5.459,2.723l-0.97,6.024c-0.772,4.766-4.126,8.208-10.214,14.458
					c-2.262,2.317-4.824,4.944-7.33,7.867c-0.944,1.1-1.931,2.167-2.934,3.17c-7.868,7.873-16.511,11.843-25.661,16.046
					c-6.332,2.911-12.849,5.906-19.444,10.318c-1.936,1.291-3.754,2.783-5.405,4.435c-11.067,11.072-14.571,28.786-9.373,47.382
					c3.79,13.575,15.176,39.916,31.143,42.448c1.591,0.252,3.272,0.38,5,0.38c5.861,0,11.663-1.456,16.782-2.741
					c9.725-2.439,19.77-4.958,29.26-8.995c2.07-0.88,4.149-1.834,6.101-2.737c7.147-3.294,14.537-6.7,21.888-6.7
					c1.159,0,2.306,0.087,3.405,0.257c7.121,1.103,14.095,5.955,21.32,14.835c5.081,6.244,8.474,13.547,12.064,21.278l0.052,0.111
					c7.355,15.857,14.958,32.246,37.477,33.739c6.504,0.438,12.82-0.536,18.7-2.878l10.612-4.227L513.427,269
					c0.358,5.55,0.54,11.043,0.54,16.326c0.011,67.084-26.104,130.162-73.533,177.614C393,510.393,329.931,536.535,262.843,536.553z
					 M26.238,369.223l7.391,16.814c12.485,28.398,30.081,54.06,52.299,76.271c47.253,47.232,110.074,73.245,176.889,73.245
					c66.847-0.018,129.665-26.057,176.91-73.319c47.24-47.263,73.251-110.09,73.24-176.907c0-5.262-0.181-10.733-0.538-16.262
					l-0.647-10.027l-9.333,3.717c-6.019,2.399-12.492,3.394-19.137,2.948c-23.11-1.533-30.84-18.195-38.314-34.309l-0.056-0.121
					c-3.562-7.67-6.93-14.918-11.932-21.066c-7.062-8.679-13.833-13.415-20.697-14.478c-1.051-0.163-2.145-0.246-3.253-0.246
					c-7.131,0-14.42,3.359-21.469,6.608c-1.958,0.905-4.045,1.863-6.129,2.749c-9.562,4.067-19.646,6.596-29.396,9.042
					c-5.186,1.301-11.051,2.773-17.036,2.773c-1.779,0-3.515-0.132-5.156-0.393c-16.469-2.611-28.1-29.377-31.949-43.166
					c-5.297-18.949-1.697-37.027,9.629-48.358c1.698-1.698,3.567-3.232,5.557-4.559c6.661-4.456,13.215-7.468,19.554-10.381
					c9.095-4.179,17.659-8.113,25.4-15.858c0.984-0.985,1.954-2.033,2.881-3.114c2.527-2.948,5.103-5.586,7.374-7.915
					c5.945-6.104,9.221-9.465,9.942-13.919l0.854-5.298l-4.802-2.395c-29.013-14.47-60.247-23.02-92.836-25.411l-9.684-0.709
					l2.009,9.496c1.702,8.042-0.038,14.724-5.173,19.86c-0.194,0.197-0.398,0.392-0.611,0.592c-3.973,3.694-8.709,6.092-13.289,8.41
					l-0.333-0.394l0.226,0.446c-4.462,2.265-8.676,4.404-11.83,7.561c-0.387,0.386-0.747,0.775-1.07,1.159
					c-3.239,3.811-4.989,8.957-6.842,14.406c-2.027,5.968-4.32,12.716-9.046,17.444c-1.244,1.243-2.566,2.279-4.043,3.167
					c-3.701,2.221-8.178,3.3-13.686,3.3c-3.436,0-6.701-0.406-9.582-0.764c-3.94-0.488-11.273-1.397-15.184-6.767
					c-2.296-3.155-2.773-6.889-3.156-9.889c-1.052-8.144-0.951-19.013-0.852-29.525l0.001-0.244
					c0.049-4.714,0.088-9.296,0.034-13.574l-0.128-10.65l-9.884,3.969c-11.829,4.752-23.373,10.465-34.311,16.982l-6.826,4.066
					l4.633,6.457c6.665,9.283,12.055,21.196,12.816,28.328c0.912,8.602-2.053,17.247-7.93,23.125
					c-2.427,2.431-5.217,4.249-8.293,5.402c-2.707,1.012-5.617,1.526-8.65,1.526c-7.185,0-15.05-2.889-22.745-8.354
					c-4.469-3.178-9.743-5.172-14.844-7.1l-0.666-0.254c-0.971-0.372-1.951-0.747-2.933-1.133l-4.869-1.916l-3.378,4
					c-6.289,7.45-12.165,15.283-17.463,23.279l-4.45,6.719l7.127,3.763c13.38,7.065,27.09,12.946,38.891,17.903
					c11.172,4.693,25.076,10.534,34.078,21.562c15.283,18.739,6.211,29.461-1.792,38.922c-4.457,5.276-8.659,10.251-9.818,16.874
					c-0.31,1.794-0.542,3.614-0.813,5.807c-0.705,5.771-1.434,11.737-4.484,17.17c-1.275,2.265-2.938,4.408-5.084,6.556
					c-2.199,2.202-4.651,4.156-7.023,6.046l-0.195,0.153c-1.938,1.547-3.764,3.004-5.472,4.599
					c-0.161,0.152-0.326,0.313-0.491,0.478c-4.389,4.392-7.555,10.71-8.712,13.223c-4.164,9.025-3.405,13.162-2.473,15.487
					l0.557,1.391l1.059,1.058c0.421,0.421,0.897,0.794,1.414,1.109l0.882,0.557l1.035,0.285c1.33,0.369,2.829,0.451,5.358,0.338
					c17.36-0.758,35.718-7.346,50.369-18.074c2.259-1.652,4.513-3.418,6.501-4.976c9.79-7.655,18.979-14.841,31.925-14.841
					c3.53,0,7.263,0.556,11.095,1.651c3.862,1.104,7.3,2.657,10.939,4.302l0.336,0.151c3.077,1.385,6.259,2.817,9.451,3.751
					c2.303,0.677,4.709,1.034,6.961,1.034c2.836,0,6.797-0.581,9.563-3.349c0.135-0.138,0.273-0.283,0.368-0.393
					c2.546-2.86,3.28-7.114,4.057-11.618c0.577-3.366,1.166-6.806,2.52-10.091c1.307-3.168,3.25-6.056,5.778-8.584
					c5.166-5.167,12.825-8.886,22.148-10.756c4.164-0.833,8.241-1.254,12.118-1.254c7.171,0,13.614,1.413,19.151,4.198
					c10.891,5.488,17.601,16.468,16.696,27.323l-3.328,42.479c-0.828,10.512-1.154,22.311,5.502,29.292
					c2.235,2.337,5.267,4.296,8.476,6.37c8.148,5.268,13.924,9.637,14.027,17.933c0.061,4.931-2.389,8.964-4.549,12.523
					c-1.21,1.986-2.451,4.025-3.121,6.051c-3.122,9.484,5.621,19.71,12.646,27.926c11.862,13.861,14.582,28.041,7.113,37.021
					c-0.358,0.429-0.734,0.841-1.118,1.226c-3.539,3.54-8.51,5.411-14.376,5.411c-5.502,0-11.544-1.707-16.576-4.684
					c-3.951-2.346-7.496-5.195-10.925-7.952c-4.169-3.357-8.411-6.774-13.058-8.96c-5.996-2.81-13.08-3.765-19.932-4.689
					c-8.703-1.18-17.626-2.39-25.42-7.202c-5.835-3.599-10.198-8.719-14.416-13.672c-4.075-4.771-8.241-9.65-13.377-12.567
					c-7.305-4.161-16.061-4.367-25.33-4.585c-7.747-0.186-15.063-0.36-22.378-2.638c-10.351-3.229-16.557-10.244-22.032-16.434
					c-3.972-4.513-7.723-8.775-12.724-11.237c-1.369-0.669-2.91-0.981-4.848-0.981c-2.161,0-4.689,0.394-7.307,0.832
					c-17.887,2.968-36.255,4.245-54.364,3.788c-9.559-0.252-19.675-1.024-28.904-4.931L26.238,369.223z M334.806,465.84
					c-0.804,0-1.644-0.049-2.496-0.146c-3.695-0.419-7.543-1.723-10.832-3.674c-3.514-2.08-6.692-4.632-10.058-7.332l-0.133-0.106
					c-4.419-3.562-8.985-7.243-14.333-9.749c-6.879-3.228-14.438-4.253-21.75-5.245c-8.06-1.085-16.305-2.193-22.954-6.304
					c-4.924-3.033-8.931-7.718-12.805-12.248l-0.131-0.155c-4.397-5.151-8.94-10.474-15.069-13.95
					c-8.742-4.971-18.727-5.207-28.382-5.435c-7.287-0.172-14.169-0.335-20.603-2.345c-8.654-2.699-13.967-8.729-19.105-14.559
					c-4.241-4.791-8.625-9.743-14.714-12.735c-2.245-1.1-4.795-1.635-7.796-1.635c-2.838,0-5.637,0.462-8.345,0.909
					c-17.464,2.9-35.395,4.148-53.085,3.691c-10.23-0.263-20.928-1.171-29.858-5.999c-2.065-1.126-3.575-1.983-4.664-2.607
					c-4.263-2.435-4.987-2.617-8.066-2.772l-5.864-0.292l-1.676-5.624c-6.942-23.3-10.466-47.557-10.474-72.097
					c-0.007-41.544,10.265-82.616,29.705-118.777l3.916-7.283l7.297,3.892c13.973,7.454,28.188,13.557,40.416,18.692
					c11.062,4.646,23.589,9.909,31.565,19.682c5.518,6.759,7.595,12.28,6.537,17.375c-0.972,4.638-4.48,8.795-8.196,13.196
					c-4.628,5.473-9.849,11.646-11.309,19.992c-0.345,1.985-0.607,4.107-0.818,5.812l-0.045,0.352
					c-0.627,5.133-1.276,10.444-3.701,14.763c-0.982,1.75-2.3,3.441-4.029,5.17c-1.975,1.974-4.195,3.734-6.544,5.6
					c-1.773,1.409-3.979,3.164-5.951,5.012c-0.197,0.183-0.372,0.353-0.552,0.531c-5.522,5.524-15.203,20.632-13.674,32.163
					c0.651,4.841,3.239,8.591,7.483,10.844c2.168,1.152,4.657,1.666,8.069,1.666c0.671,0,1.338-0.02,2-0.047
					c18.6-0.807,38.254-7.852,53.923-19.329c2.232-1.626,4.375-3.304,6.447-4.926l0.252-0.198
					c9.206-7.199,17.155-13.415,27.931-13.415c2.967,0,6,0.455,9.271,1.391c3.482,0.991,6.857,2.526,10.122,4.011l0.128,0.058
					c3.495,1.566,6.791,3.044,10.438,4.123c2.885,0.849,5.774,1.278,8.586,1.278c6.256,0,11.578-2.103,14.987-5.92
					c3.769-4.232,4.691-9.609,5.583-14.811c0.548-3.179,1.052-6.101,2.136-8.729c0.943-2.299,2.403-4.445,4.338-6.38
					c4.324-4.325,10.848-7.458,18.866-9.06c3.739-0.75,7.397-1.13,10.872-1.13c6.126,0,11.576,1.183,16.2,3.515
					c8.412,4.226,13.822,12.854,13.156,20.982l-3.344,42.509c-0.978,12.461-1.221,25.372,7.27,34.276
					c2.747,2.883,6.247,5.138,9.633,7.318c6.155,3.989,9.181,6.229,10.516,9.65l0.664,1.696l-0.109,1.818
					c-0.157,2.654-1.466,4.985-3.602,8.509c-1.392,2.291-2.829,4.66-3.731,7.389c-4.256,12.95,6.23,25.21,13.888,34.162
					c7.22,8.438,13.399,21,7.057,28.639c-0.212,0.257-0.44,0.507-0.677,0.744C342.229,464.594,338.849,465.84,334.806,465.84z
					 M133.645,369.223c3.157,0,5.852,0.568,8.237,1.737c6.266,3.079,10.716,8.106,15.02,12.968
					c5.05,5.73,10.269,11.653,18.656,14.269c6.3,1.969,13.114,2.13,20.329,2.3c9.78,0.231,19.893,0.47,28.853,5.565
					c6.282,3.563,10.882,8.953,15.332,14.166l0.103,0.122c3.856,4.508,7.811,9.132,12.602,12.084
					c6.468,3.998,14.606,5.092,22.476,6.15c7.473,1.015,15.109,2.051,22.126,5.343c5.457,2.559,10.072,6.278,14.534,9.875
					l0.129,0.104c3.342,2.681,6.493,5.211,9.946,7.255c3.171,1.881,6.876,3.138,10.436,3.54c4.833,0.55,8.852-0.565,11.452-3.169
					c0.214-0.215,0.421-0.441,0.614-0.676c5.946-7.161-0.079-19.209-7.045-27.35c-7.812-9.134-18.511-21.641-14.078-35.127
					c0.938-2.837,2.405-5.255,3.825-7.594c2.057-3.392,3.315-5.626,3.459-8.05l0.096-1.599l-0.584-1.492
					c-1.229-3.15-4.156-5.305-10.083-9.146c-3.478-2.241-7.029-4.528-9.858-7.498c-8.774-9.202-8.537-22.357-7.541-35.044
					l3.344-42.511c0.633-7.733-4.553-15.961-12.61-20.009c-4.483-2.262-9.782-3.409-15.75-3.409c-3.408,0-7.001,0.374-10.676,1.111
					c-7.825,1.563-14.172,4.602-18.355,8.786c-1.841,1.84-3.228,3.877-4.121,6.053c-1.042,2.527-1.537,5.396-2.061,8.434
					c-0.931,5.424-1.877,10.945-5.837,15.391c-3.602,4.034-9.189,6.255-15.734,6.255c-2.907,0-5.891-0.443-8.869-1.319
					c-3.713-1.098-7.039-2.589-10.56-4.168l-0.135-0.061c-3.234-1.471-6.575-2.989-9.985-3.961
					c-3.181-0.909-6.123-1.352-8.996-1.352c-10.431,0-18.254,6.118-27.313,13.201l-0.254,0.2c-2.079,1.627-4.229,3.31-6.474,4.945
					c-15.824,11.59-35.678,18.705-54.47,19.521c-0.675,0.028-1.357,0.048-2.042,0.048c-2.225,0-5.53-0.185-8.538-1.783
					c-4.541-2.41-7.309-6.42-8.005-11.595c-1.575-11.877,8.315-27.355,13.959-33.003c0.189-0.188,0.373-0.365,0.576-0.555
					c1.999-1.874,4.223-3.643,6.01-5.063c2.327-1.847,4.525-3.591,6.459-5.523c1.663-1.663,2.927-3.283,3.864-4.953
					c2.328-4.146,2.965-9.357,3.581-14.397l0.045-0.353c0.212-1.713,0.476-3.849,0.825-5.858c1.507-8.613,6.82-14.896,11.508-20.439
					c3.653-4.328,7.083-8.391,8.003-12.781c0.991-4.776-1.021-10.031-6.333-16.539c-7.819-9.579-20.225-14.791-31.17-19.388
					c-12.256-5.148-26.497-11.262-40.507-18.736l-6.417-3.422l-3.444,6.405c-19.362,36.015-29.593,76.924-29.586,118.303
					c0.008,24.443,3.518,48.604,10.432,71.812l1.475,4.946l5.157,0.257c3.193,0.16,4.113,0.39,8.513,2.902
					c1.085,0.621,2.589,1.477,4.645,2.597c8.744,4.728,19.301,5.619,29.406,5.878c17.634,0.457,35.496-0.787,52.896-3.678
					C127.884,369.691,130.725,369.223,133.645,369.223z M486.393,259.317c-0.875,0-1.768-0.03-2.65-0.089
					c-19.287-1.281-25.579-14.854-32.863-30.569c-3.589-7.748-7.29-15.741-12.831-22.551c-8.114-9.971-16.207-15.462-24.739-16.787
					c-1.425-0.222-2.892-0.334-4.359-0.334c-8.449,0-16.379,3.66-24.048,7.199c-2.058,0.949-3.991,1.841-5.978,2.688
					c-9.075,3.858-18.459,6.212-28.394,8.705l-0.106,0.027c-5.042,1.262-10.257,2.566-15.389,2.566
					c-1.438,0-2.832-0.105-4.142-0.312c-12.165-1.937-22.848-24.645-26.724-38.503c-3.593-12.876-3.407-30.662,7.889-41.963
					c1.415-1.415,2.981-2.7,4.655-3.819c6.214-4.159,12.231-6.925,18.602-9.854l0.156-0.071c9.593-4.412,18.655-8.579,27.084-17.009
					c1.165-1.171,2.28-2.379,3.313-3.591c2.435-2.84,4.914-5.377,7.103-7.615c3.641-3.737,7.744-7.949,10.077-12.538l4.094-8.046
					l7.671,4.758c16.448,10.2,31.771,22.352,45.544,36.118c37.593,37.576,61.914,84.953,70.335,137.008l0.836,5.155l-4.289,2.981
					C501.177,257.088,493.968,259.317,486.393,259.317z M408.949,187.988c1.52,0,3.038,0.116,4.514,0.346
					c8.787,1.364,17.083,6.972,25.36,17.144c5.62,6.906,9.349,14.957,12.954,22.743c7.159,15.445,13.335,28.768,32.031,30.009
					c8.297,0.556,16.283-1.605,22.86-6.18l3.771-2.622l-0.734-4.533c-8.388-51.848-32.612-99.035-70.056-136.461
					c-13.718-13.712-28.98-25.816-45.364-35.976l-6.745-4.184l-3.602,7.076c-2.401,4.724-6.561,8.994-10.23,12.761
					c-2.199,2.25-4.667,4.773-7.079,7.588c-1.05,1.23-2.183,2.458-3.366,3.647c-8.557,8.557-17.698,12.761-27.376,17.212
					l-0.156,0.071c-6.331,2.911-12.313,5.661-18.461,9.776c-1.621,1.083-3.137,2.326-4.505,3.695
					c-10.991,10.997-11.149,28.383-7.633,40.987c3.81,13.619,14.214,35.921,25.918,37.785c1.258,0.199,2.599,0.3,3.984,0.3
					c5.009,0,10.162-1.289,15.146-2.536l0.228,0.458l-0.122-0.485c9.896-2.482,19.242-4.827,28.245-8.654
					c1.973-0.841,3.899-1.729,5.939-2.67C392.249,191.695,400.28,187.988,408.949,187.988z M120.875,132.553
					c-5.92,0-12.515-2.467-19.072-7.135c-3.97-2.818-8.378-4.75-11.776-6.118l-11.789-4.746l9.09-8.883
					c8.808-8.61,18.285-16.616,28.169-23.794l6.699-4.866l4.88,6.69c5.319,7.294,11.379,18.886,12.135,26.001
					c0.696,6.566-1.641,13.415-6.099,17.874c-1.761,1.763-3.765,3.072-5.956,3.89C125.236,132.188,123.123,132.553,120.875,132.553z
					 M80.034,114.199l10.367,4.174c3.448,1.389,7.926,3.352,11.982,6.23c6.387,4.547,12.781,6.95,18.492,6.95
					c2.126,0,4.123-0.344,5.932-1.021c2.056-0.768,3.939-1.999,5.599-3.661c4.25-4.25,6.477-10.788,5.812-17.062
					c-0.738-6.942-6.707-18.329-11.949-25.518l-4.292-5.884l-5.891,4.279c-9.845,7.15-19.285,15.124-28.058,23.7L80.034,114.199z
					 M208.246,114.135c-2.682,0-5.506-0.283-8.92-0.708c-3.418-0.434-5.545-0.888-7.115-1.518l-3.937-1.583l-1.021-4.116
					c-0.28-1.124-0.468-2.486-0.623-3.675l-0.018-0.124c-0.984-7.644-0.89-18.198-0.799-28.405l0.001-0.354
					c0.076-7.763,0.117-14.694-0.16-20.935l-0.284-6.494l6.235-1.831c21.291-6.253,43.417-9.662,65.765-10.13l5.38-0.113l2.296,4.87
					c5.277,11.189,2.311,17.608-1.106,21.022l-0.33,0.326c-3.306,3.081-7.626,5.265-11.805,7.377
					c-4.791,2.431-9.719,4.931-13.612,8.825c-0.492,0.492-0.964,1.003-1.404,1.52c-4.059,4.776-6.086,10.755-8.047,16.537
					c-1.97,5.792-3.831,11.262-7.496,14.93c-0.862,0.866-1.811,1.611-2.817,2.214C215.751,113.383,212.515,114.135,208.246,114.135z
					 M189.121,109.589l3.462,1.393c1.486,0.597,3.54,1.031,6.867,1.454c3.376,0.42,6.165,0.7,8.796,0.7
					c4.08,0,7.152-0.707,9.668-2.222c0.937-0.561,1.819-1.254,2.624-2.063c3.501-3.503,5.326-8.867,7.257-14.545
					c1.99-5.87,4.049-11.94,8.232-16.862c0.457-0.538,0.948-1.069,1.459-1.58c4.006-4.007,9.007-6.544,13.843-8.998
					c4.141-2.093,8.397-4.245,11.589-7.219l0.317-0.314c3.188-3.185,5.936-9.223,0.907-19.886l-2.019-4.283l-4.733,0.099
					c-22.259,0.466-44.297,3.861-65.503,10.089l-5.484,1.611l0.25,5.711c0.278,6.266,0.237,13.211,0.161,20.985l-0.001,0.274
					c-0.091,10.255-0.185,20.774,0.79,28.343l0.018,0.123c0.151,1.167,0.335,2.496,0.603,3.569L189.121,109.589z"/>
			</g>
		</g>
	</g>
</g>
<path fill="#062855" d="M154.437,351.477l-0.011-0.372l1.999-0.055l0.011,0.372L154.437,351.477z M156.339,343.087l-2-0.016
	c0.021-2.728,0.097-5.431,0.225-8.034l1.998,0.098C156.436,337.712,156.36,340.388,156.339,343.087z M157.134,327.21l-1.991-0.191
	c0.262-2.714,0.591-5.4,0.98-7.983l1.978,0.297C157.717,321.881,157.392,324.531,157.134,327.21z M159.516,311.532l-1.956-0.418
	c0.573-2.678,1.231-5.308,1.956-7.818l1.922,0.555C160.726,306.316,160.079,308.9,159.516,311.532z M163.928,296.348l-1.871-0.707
	c0.97-2.564,2.045-5.061,3.195-7.42l1.798,0.877C165.927,291.401,164.876,293.842,163.928,296.348z M170.856,282.196l-1.698-1.057
	c1.44-2.314,3.006-4.544,4.654-6.626l1.568,1.242C173.779,277.778,172.256,279.945,170.856,282.196z M180.622,269.894l-1.407-1.422
	c1.917-1.897,3.969-3.694,6.101-5.34l1.223,1.583C184.471,266.311,182.48,268.053,180.622,269.894z M193.046,260.294l-1.021-1.72
	c2.289-1.36,4.709-2.616,7.193-3.732l0.82,1.824C197.623,257.752,195.27,258.973,193.046,260.294z M301.972,259.904l-1.939-0.489
	c0.657-2.606,1.298-5.192,1.922-7.757l1.943,0.473C303.271,254.701,302.631,257.292,301.972,259.904z M293.344,258.342
	c-2.47-0.801-5.036-1.573-7.629-2.296l0.537-1.927c2.619,0.731,5.213,1.512,7.709,2.321L293.344,258.342z M278.001,254.053
	c-2.589-0.615-5.208-1.182-7.784-1.686l0.385-1.963c2.602,0.509,5.247,1.082,7.862,1.703L278.001,254.053z M207.396,253.819
	l-0.625-1.899c2.501-0.823,5.124-1.55,7.796-2.159l0.444,1.95C212.4,252.306,209.837,253.016,207.396,253.819z M262.373,251.005
	c-2.65-0.402-5.306-0.742-7.893-1.012l0.208-1.989c2.617,0.273,5.304,0.618,7.984,1.024L262.373,251.005z M222.795,250.277
	l-0.282-1.98c2.6-0.37,5.301-0.653,8.029-0.84l0.137,1.995C228,249.636,225.347,249.914,222.795,250.277z M246.553,249.366
	c-2.492-0.132-4.977-0.199-7.385-0.199l-0.559,0.001l-0.005-2l0.563-0.001c2.443,0,4.964,0.068,7.491,0.202L246.553,249.366z
	 M305.762,244.342l-1.947-0.457c0.614-2.619,1.214-5.214,1.796-7.787l1.951,0.441C306.978,239.118,306.378,241.719,305.762,244.342z
	 M309.296,228.721l-1.955-0.424c0.571-2.63,1.124-5.235,1.659-7.816l1.959,0.406C310.422,223.474,309.867,226.085,309.296,228.721z
	 M312.55,213.037l-1.963-0.388c0.522-2.642,1.025-5.257,1.511-7.846l1.966,0.368C313.577,207.767,313.072,210.389,312.55,213.037z
	 M315.497,197.29l-1.969-0.347c0.467-2.654,0.915-5.279,1.345-7.875l1.973,0.326C316.416,191.998,315.966,194.629,315.497,197.29z
	 M318.107,181.483l-1.977-0.303c0.408-2.666,0.796-5.3,1.162-7.903l1.98,0.279C318.905,176.167,318.518,178.809,318.107,181.483z
	 M320.341,165.616l-1.984-0.254c0.343-2.678,0.661-5.321,0.958-7.928l1.986,0.226C321.004,160.276,320.684,162.928,320.341,165.616z
	 M322.147,149.69l-1.99-0.197c0.266-2.69,0.508-5.34,0.726-7.951l1.992,0.166C322.657,144.329,322.415,146.989,322.147,149.69z
	 M323.474,133.714l-1.996-0.133c0.179-2.688,0.332-5.369,0.456-7.968l1.998,0.096C323.807,128.32,323.652,131.014,323.474,133.714z
	 M324.237,117.695l-2-0.056c0.076-2.699,0.123-5.382,0.141-7.977l2,0.014C324.36,112.285,324.312,114.983,324.237,117.695z
	 M322.339,101.687c-0.046-2.693-0.126-5.374-0.238-7.969l1.998-0.086c0.112,2.612,0.193,5.311,0.24,8.021L322.339,101.687z
	 M321.644,85.763c-0.197-2.705-0.436-5.375-0.706-7.934l1.988-0.211c0.273,2.581,0.514,5.272,0.712,8L321.644,85.763z
	 M319.952,69.93c-0.386-2.68-0.824-5.319-1.303-7.846l1.965-0.372c0.484,2.555,0.928,5.224,1.317,7.933L319.952,69.93z
	 M316.977,54.316c-0.644-2.643-1.353-5.217-2.107-7.648l1.91-0.593c0.767,2.471,1.487,5.084,2.141,7.768L316.977,54.316z
	 M235.458,39.713l-1.599-1.202c1.654-2.199,3.346-4.318,5.028-6.296l1.523,1.295C238.755,35.458,237.088,37.545,235.458,39.713z
	 M312.244,39.198c-1.008-2.542-2.102-4.962-3.251-7.196l1.779-0.915c1.178,2.291,2.299,4.772,3.331,7.374L312.244,39.198z
	 M245.751,27.651l-1.428-1.401c1.95-1.987,3.937-3.845,5.904-5.523l1.298,1.521C249.603,23.889,247.66,25.707,245.751,27.651z
	 M304.981,25.24c-1.548-2.252-3.206-4.291-4.929-6.061l1.434-1.395c1.801,1.85,3.531,3.978,5.144,6.323L304.981,25.24z
	 M257.79,17.463l-1.119-1.658c2.346-1.583,4.717-2.952,7.048-4.068l0.863,1.804C262.34,14.615,260.054,15.934,257.79,17.463z
	 M294.084,14.242c-2.217-1.43-4.558-2.524-6.957-3.253l0.58-1.914c2.578,0.783,5.088,1.956,7.461,3.486L294.084,14.242z
	 M271.891,10.848l-0.494-1.938c2.725-0.696,5.437-1.049,8.06-1.05l0.097,1v1C277,9.861,274.454,10.193,271.891,10.848z"/>
<g>
	<g>
		<path fill="#FFFFFF" d="M307.874,246.822c-0.94-1.649-2.217-2.963-3.833-3.943c-1.617-0.979-3.38-1.469-5.29-1.469
			c-1.42,0-2.78,0.293-4.078,0.881c-1.297,0.587-2.416,1.375-3.354,2.363c-0.938,0.988-1.686,2.148-2.241,3.478
			c-0.555,1.332-0.832,2.715-0.832,4.152c0,1.909,0.489,3.942,1.469,6.097c0.67,1.175,1.449,2.384,2.34,3.625
			c0.889,1.24,1.693,2.285,2.412,3.135c0.718,0.848,1.46,1.689,2.229,2.521c0.767,0.832,1.285,1.385,1.555,1.654
			c0.27,0.269,0.477,0.469,0.624,0.6l1.323-1.519c0.881-1.028,2.049-2.495,3.502-4.396c1.452-1.902,2.742-3.743,3.869-5.522
			c1.143-2.334,1.714-4.44,1.714-6.318C309.281,250.25,308.812,248.471,307.874,246.822z"/>
		<path fill="#FFFFFF" d="M298.751,241.41c1.91,0,3.673,0.489,5.29,1.469c1.616,0.98,2.893,2.294,3.833,3.943
			c0.938,1.649,1.407,3.428,1.407,5.339c0,1.878-0.571,3.984-1.714,6.318c-1.127,1.779-2.417,3.62-3.869,5.522
			c-1.453,1.901-2.621,3.368-3.502,4.396l-1.323,1.519c-0.147-0.131-0.354-0.331-0.624-0.6c-0.27-0.27-0.788-0.822-1.555-1.654
			c-0.769-0.832-1.511-1.674-2.229-2.521c-0.719-0.85-1.523-1.895-2.412-3.135c-0.891-1.241-1.67-2.45-2.34-3.625
			c-0.979-2.155-1.469-4.188-1.469-6.097c0-1.437,0.277-2.821,0.832-4.152c0.556-1.329,1.303-2.489,2.241-3.478
			c0.938-0.987,2.058-1.775,3.354-2.363C295.971,241.703,297.331,241.41,298.751,241.41 M298.751,237.41
			c-1.988,0-3.915,0.417-5.729,1.238c-1.764,0.799-3.312,1.892-4.604,3.25c-1.271,1.338-2.29,2.916-3.032,4.69
			c-0.758,1.82-1.142,3.735-1.142,5.695c0,2.477,0.615,5.085,1.827,7.752l0.076,0.167l0.09,0.159
			c0.74,1.298,1.604,2.636,2.566,3.977c0.943,1.316,1.821,2.456,2.607,3.385c0.772,0.913,1.562,1.805,2.344,2.652
			c0.843,0.914,1.356,1.461,1.665,1.769c0.347,0.346,0.61,0.598,0.797,0.764l3.02,2.679l2.651-3.043l1.323-1.519
			c0.957-1.117,2.148-2.612,3.664-4.596c1.519-1.988,2.888-3.942,4.07-5.811l0.117-0.185l0.097-0.197
			c1.407-2.875,2.121-5.593,2.121-8.077c0-2.602-0.649-5.062-1.93-7.315c-1.279-2.244-3.04-4.055-5.236-5.387
			C303.87,238.099,301.394,237.41,298.751,237.41L298.751,237.41z"/>
	</g>
	<g>
		<path fill="#FF466F" d="M298.751,241.41c1.91,0,3.673,0.489,5.29,1.469c1.616,0.98,2.893,2.294,3.833,3.943
			c0.938,1.649,1.407,3.428,1.407,5.339c0,1.878-0.571,3.984-1.714,6.318c-1.127,1.779-2.417,3.62-3.869,5.522
			c-1.453,1.901-2.621,3.368-3.502,4.396l-1.323,1.519c-0.147-0.131-0.354-0.331-0.624-0.6c-0.27-0.27-0.788-0.822-1.555-1.654
			c-0.769-0.832-1.511-1.674-2.229-2.521c-0.719-0.85-1.523-1.895-2.412-3.135c-0.891-1.241-1.67-2.45-2.34-3.625
			c-0.979-2.155-1.469-4.188-1.469-6.097c0-1.437,0.277-2.821,0.832-4.152c0.556-1.329,1.303-2.489,2.241-3.478
			c0.938-0.987,2.058-1.775,3.354-2.363C295.971,241.703,297.331,241.41,298.751,241.41z M302.693,247.776
			c-1.062-1.061-2.338-1.592-3.833-1.592c-1.493,0-2.771,0.531-3.832,1.592c-1.061,1.062-1.592,2.343-1.592,3.845
			c0,1.502,0.531,2.78,1.592,3.833c1.061,1.054,2.339,1.58,3.832,1.58c1.495,0,2.771-0.526,3.833-1.58
			c1.062-1.053,1.593-2.331,1.593-3.833C304.286,250.12,303.755,248.838,302.693,247.776z"/>
	</g>
</g>
<g>
	<g>
		<path fill="#FFFFFF" d="M163.617,336.816c-0.94-1.648-2.217-2.963-3.833-3.943c-1.617-0.979-3.38-1.469-5.29-1.469
			c-1.42,0-2.78,0.294-4.078,0.882c-1.297,0.587-2.416,1.376-3.354,2.362c-0.938,0.988-1.686,2.148-2.241,3.479
			c-0.555,1.331-0.832,2.715-0.832,4.152c0,1.908,0.489,3.941,1.469,6.097c0.67,1.175,1.449,2.384,2.34,3.625
			c0.889,1.239,1.693,2.285,2.412,3.134c0.718,0.85,1.46,1.691,2.229,2.522c0.767,0.833,1.285,1.384,1.555,1.653
			s0.477,0.47,0.624,0.6l1.323-1.518c0.881-1.029,2.049-2.494,3.502-4.396c1.452-1.902,2.742-3.742,3.869-5.521
			c1.143-2.334,1.714-4.441,1.714-6.318C165.024,340.244,164.555,338.467,163.617,336.816z"/>
		<path fill="#FFFFFF" d="M154.494,331.404c1.91,0,3.673,0.49,5.29,1.469c1.616,0.98,2.893,2.295,3.833,3.943
			c0.938,1.65,1.407,3.428,1.407,5.34c0,1.877-0.571,3.984-1.714,6.318c-1.127,1.779-2.417,3.619-3.869,5.521
			c-1.453,1.902-2.621,3.367-3.502,4.396l-1.323,1.518c-0.147-0.13-0.354-0.33-0.624-0.6s-0.788-0.82-1.555-1.653
			c-0.769-0.831-1.511-1.673-2.229-2.522c-0.719-0.849-1.523-1.895-2.412-3.134c-0.891-1.241-1.67-2.45-2.34-3.625
			c-0.979-2.155-1.469-4.188-1.469-6.097c0-1.438,0.277-2.821,0.832-4.152c0.556-1.33,1.303-2.49,2.241-3.479
			c0.938-0.986,2.058-1.775,3.354-2.362C151.714,331.698,153.074,331.404,154.494,331.404 M154.494,327.404
			c-1.987,0-3.915,0.417-5.729,1.238c-1.76,0.797-3.309,1.89-4.602,3.249c-1.272,1.34-2.292,2.918-3.034,4.693
			c-0.758,1.818-1.141,3.733-1.141,5.694c0,2.476,0.615,5.084,1.827,7.752l0.076,0.167l0.091,0.159
			c0.739,1.297,1.603,2.635,2.564,3.976c0.949,1.323,1.827,2.463,2.61,3.387c0.766,0.907,1.556,1.801,2.344,2.653
			c0.797,0.866,1.343,1.446,1.663,1.766c0.352,0.353,0.602,0.591,0.809,0.773l3.017,2.657l2.642-3.03l1.323-1.518
			c0.96-1.121,2.185-2.658,3.666-4.598c1.521-1.992,2.89-3.946,4.07-5.809l0.117-0.186l0.096-0.196
			c1.407-2.875,2.121-5.593,2.121-8.077c0-2.601-0.649-5.062-1.929-7.315c-1.281-2.246-3.042-4.057-5.236-5.388
			C159.611,328.093,157.134,327.404,154.494,327.404L154.494,327.404z"/>
	</g>
	<g>
		<path fill="#CFDE00" d="M154.494,331.404c1.91,0,3.673,0.49,5.29,1.469c1.616,0.98,2.893,2.295,3.833,3.943
			c0.938,1.65,1.407,3.428,1.407,5.34c0,1.877-0.571,3.984-1.714,6.318c-1.127,1.779-2.417,3.619-3.869,5.521
			c-1.453,1.902-2.621,3.367-3.502,4.396l-1.323,1.518c-0.147-0.13-0.354-0.33-0.624-0.6s-0.788-0.82-1.555-1.653
			c-0.769-0.831-1.511-1.673-2.229-2.522c-0.719-0.849-1.523-1.895-2.412-3.134c-0.891-1.241-1.67-2.45-2.34-3.625
			c-0.979-2.155-1.469-4.188-1.469-6.097c0-1.438,0.277-2.821,0.832-4.152c0.556-1.33,1.303-2.49,2.241-3.479
			c0.938-0.986,2.058-1.775,3.354-2.362C151.714,331.698,153.074,331.404,154.494,331.404z M158.437,337.771
			c-1.062-1.061-2.338-1.592-3.833-1.592c-1.493,0-2.771,0.531-3.832,1.592c-1.061,1.062-1.592,2.344-1.592,3.846
			s0.531,2.779,1.592,3.832c1.061,1.055,2.339,1.58,3.832,1.58c1.495,0,2.771-0.525,3.833-1.58c1.062-1.053,1.593-2.33,1.593-3.832
			S159.498,338.833,158.437,337.771z"/>
	</g>
</g>
<g>
	<g>
		<path fill="#FFFFFF" d="M248.067,20.793c-0.94-1.649-2.217-2.963-3.833-3.943c-1.617-0.979-3.38-1.469-5.29-1.469
			c-1.42,0-2.78,0.293-4.078,0.881c-1.297,0.587-2.416,1.375-3.354,2.363c-0.938,0.988-1.686,2.148-2.241,3.478
			c-0.555,1.332-0.832,2.715-0.832,4.152c0,1.909,0.489,3.942,1.469,6.097c0.67,1.175,1.449,2.384,2.34,3.625
			c0.889,1.24,1.693,2.285,2.412,3.134c0.718,0.849,1.46,1.69,2.229,2.522c0.767,0.833,1.285,1.384,1.555,1.654
			c0.27,0.269,0.477,0.469,0.624,0.6l1.323-1.518c0.881-1.029,2.049-2.495,3.502-4.396c1.452-1.902,2.742-3.743,3.869-5.522
			c1.143-2.334,1.714-4.44,1.714-6.318C249.475,24.221,249.005,22.443,248.067,20.793z"/>
		<path fill="#FFFFFF" d="M238.944,15.381c1.91,0,3.673,0.489,5.29,1.469c1.616,0.98,2.893,2.294,3.833,3.943
			c0.938,1.649,1.407,3.428,1.407,5.339c0,1.878-0.571,3.984-1.714,6.318c-1.127,1.779-2.417,3.62-3.869,5.522
			c-1.453,1.902-2.621,3.368-3.502,4.396l-1.323,1.518c-0.147-0.13-0.354-0.331-0.624-0.6c-0.27-0.27-0.788-0.821-1.555-1.654
			c-0.769-0.832-1.511-1.673-2.229-2.522c-0.719-0.849-1.523-1.895-2.412-3.134c-0.891-1.241-1.67-2.45-2.34-3.625
			c-0.979-2.155-1.469-4.188-1.469-6.097c0-1.437,0.277-2.821,0.832-4.152c0.556-1.329,1.303-2.489,2.241-3.478
			c0.938-0.987,2.058-1.775,3.354-2.363C236.164,15.675,237.524,15.381,238.944,15.381 M238.944,11.381
			c-1.988,0-3.916,0.417-5.729,1.238c-1.764,0.799-3.312,1.893-4.604,3.25c-1.271,1.338-2.29,2.916-3.032,4.69
			c-0.758,1.82-1.142,3.735-1.142,5.695c0,2.477,0.615,5.085,1.827,7.752l0.076,0.167l0.091,0.159
			c0.74,1.298,1.603,2.636,2.565,3.977c0.945,1.318,1.823,2.458,2.608,3.386c0.77,0.91,1.559,1.802,2.344,2.652
			c1.079,1.171,1.466,1.57,1.664,1.768c0.357,0.356,0.597,0.585,0.803,0.768l3.018,2.668l2.646-3.037l1.323-1.518
			c0.952-1.111,2.177-2.649,3.665-4.596c1.518-1.988,2.887-3.943,4.07-5.811l0.117-0.185l0.096-0.197
			c1.407-2.875,2.121-5.593,2.121-8.077c0-2.602-0.649-5.062-1.93-7.315c-1.279-2.244-3.04-4.055-5.236-5.387
			C244.063,12.07,241.586,11.381,238.944,11.381L238.944,11.381z"/>
	</g>
	<g>
		<path fill="#FFB502" d="M238.944,15.381c1.91,0,3.673,0.489,5.29,1.469c1.616,0.98,2.893,2.294,3.833,3.943
			c0.938,1.649,1.407,3.428,1.407,5.339c0,1.878-0.571,3.984-1.714,6.318c-1.127,1.779-2.417,3.62-3.869,5.522
			c-1.453,1.902-2.621,3.368-3.502,4.396l-1.323,1.518c-0.147-0.13-0.354-0.331-0.624-0.6c-0.27-0.27-0.788-0.821-1.555-1.654
			c-0.769-0.832-1.511-1.673-2.229-2.522c-0.719-0.849-1.523-1.895-2.412-3.134c-0.891-1.241-1.67-2.45-2.34-3.625
			c-0.979-2.155-1.469-4.188-1.469-6.097c0-1.437,0.277-2.821,0.832-4.152c0.556-1.329,1.303-2.489,2.241-3.478
			c0.938-0.987,2.058-1.775,3.354-2.363C236.164,15.675,237.524,15.381,238.944,15.381z M242.887,21.748
			c-1.062-1.061-2.338-1.592-3.833-1.592c-1.493,0-2.771,0.531-3.832,1.592c-1.061,1.062-1.592,2.343-1.592,3.845
			c0,1.502,0.531,2.78,1.592,3.833c1.061,1.054,2.339,1.58,3.832,1.58c1.495,0,2.771-0.526,3.833-1.58
			c1.062-1.053,1.593-2.331,1.593-3.833C244.479,24.091,243.948,22.81,242.887,21.748z"/>
	</g>
</g>
</svg>
