<?xml version="1.0" encoding="utf-8"?>
<!-- Generator: Adobe Illustrator 16.0.4, SVG Export Plug-In . SVG Version: 6.00 Build 0)  -->
<!DOCTYPE svg PUBLIC "-//W3C//DTD SVG 1.1//EN" "http://www.w3.org/Graphics/SVG/1.1/DTD/svg11.dtd">
<svg version="1.1" id="Layer_1" xmlns="http://www.w3.org/2000/svg" xmlns:xlink="http://www.w3.org/1999/xlink" x="0px" y="0px"
	 width="125.667px" height="124px" viewBox="0 0 125.667 124" enable-background="new 0 0 125.667 124" xml:space="preserve">
<g>
	<g>
		<circle fill="#FF466F" cx="62.565" cy="61.993" r="54"/>
		<path fill="#CFDE00" d="M62.565,118.748c-31.295,0-56.755-25.46-56.755-56.755c0-31.294,25.46-56.754,56.755-56.754
			s56.755,25.46,56.755,56.754C119.32,93.288,93.86,118.748,62.565,118.748z M62.565,10.749c-28.256,0-51.245,22.988-51.245,51.245
			c0,28.257,22.989,51.245,51.245,51.245s51.245-22.988,51.245-51.245C113.811,33.737,90.822,10.749,62.565,10.749z"/>
	</g>
	<g>
		<circle fill="#FF466F" cx="62.565" cy="61.993" r="54"/>
		<path fill="#FF466F" d="M62.565,7.994c29.822,0,54,24.176,54,54c0,29.824-24.178,54-54,54c-29.824,0-54-24.176-54-54
			C8.565,32.17,32.741,7.994,62.565,7.994 M62.565,2.483c-32.814,0-59.51,26.696-59.51,59.51c0,32.814,26.696,59.51,59.51,59.51
			s59.51-26.695,59.51-59.51C122.075,29.179,95.379,2.483,62.565,2.483L62.565,2.483z"/>
	</g>
	<g>
		<circle fill="#FF466F" cx="62.565" cy="61.993" r="54"/>
		<path fill="#FFFFFF" d="M62.565,7.994c29.822,0,54,24.176,54,54c0,29.824-24.178,54-54,54c-29.824,0-54-24.176-54-54
			C8.565,32.17,32.741,7.994,62.565,7.994 M62.565,3.585c-32.207,0-58.408,26.202-58.408,58.408s26.202,58.408,58.408,58.408
			s58.408-26.202,58.408-58.408S94.772,3.585,62.565,3.585L62.565,3.585z"/>
	</g>
	<g>
		<g>
			<g>
				<path fill="#FFFFFF" d="M94.251,56.217h-1.35v-9.104c0-2.136-1.682-3.819-3.711-3.819h-1.014v-6.083
					c0-2.136-1.572-3.819-3.482-3.819c0,0-0.107,0-0.229,0l-48.143,9.891c-0.012,0-0.033,0.011-0.045,0.011
					c-1.898,0.151-3.439,1.78-3.439,3.819v35.315c0,2.135,1.682,3.818,3.711,3.818H89.19c2.137,0,3.818-1.684,3.818-3.818v-9.342
					h1.242c0.68,0,1.121-0.453,1.121-1.121V57.35C95.372,56.67,94.812,56.217,94.251,56.217z M90.767,82.429
					c0,0.895-0.68,1.682-1.576,1.682H36.55c-0.896,0-1.576-0.787-1.576-1.682V47.113c0-0.895,0.68-1.683,1.576-1.683h52.523
					c0.895,0,1.574,0.788,1.574,1.683v9.104H79.515c-4.723,0-8.434,3.71-8.434,8.434c0,4.725,3.818,8.436,8.434,8.436h11.252V82.429
					z M93.118,70.952H79.515c-3.375,0-6.178-2.816-6.178-6.182c0-3.365,2.814-6.18,6.178-6.18h13.604V70.952z"/>
			</g>
		</g>
		<circle fill="#FFFFFF" cx="79.502" cy="64.462" r="1.425"/>
	</g>
</g>
</svg>
