<?xml version="1.0" encoding="utf-8"?>
<!-- Generator: Adobe Illustrator 16.0.4, SVG Export Plug-In . SVG Version: 6.00 Build 0)  -->
<!DOCTYPE svg PUBLIC "-//W3C//DTD SVG 1.1//EN" "http://www.w3.org/Graphics/SVG/1.1/DTD/svg11.dtd">
<svg version="1.1" id="Layer_1" xmlns="http://www.w3.org/2000/svg" xmlns:xlink="http://www.w3.org/1999/xlink" x="0px" y="0px"
	 width="125.667px" height="124px" viewBox="0 0 125.667 124" enable-background="new 0 0 125.667 124" xml:space="preserve">
<g>
	<circle fill="#FDB515" stroke="#CFDE00" stroke-width="5.5102" stroke-miterlimit="10" cx="62.938" cy="61.993" r="54"/>
	<path fill="#FDB515" d="M62.938,7.993c29.823,0,54,24.176,54,54c0,29.823-24.176,54-54,54s-54-24.177-54-54
		C8.938,32.169,33.115,7.993,62.938,7.993 M62.938,2.483c-32.814,0-59.51,26.696-59.51,59.51c0,32.814,26.696,59.51,59.51,59.51
		s59.509-26.695,59.509-59.51C122.447,29.179,95.752,2.483,62.938,2.483L62.938,2.483z"/>
	<g>
		<circle fill="#FDB515" cx="62.938" cy="61.993" r="54"/>
		<path fill="#FFFFFF" d="M62.938,7.993c29.823,0,54,24.176,54,54c0,29.823-24.176,54-54,54s-54-24.177-54-54
			C8.938,32.169,33.115,7.993,62.938,7.993 M62.938,3.585C30.731,3.585,4.53,29.787,4.53,61.993
			c0,32.206,26.202,58.408,58.408,58.408c32.206,0,58.408-26.202,58.408-58.408C121.346,29.787,95.144,3.585,62.938,3.585
			L62.938,3.585z"/>
	</g>
	<g>
		<g>
			<path fill="#FFFFFF" d="M53.722,88.792h18.367v-2.638h-7.864v-5.474l0.618-0.068c2.205-0.245,4.242-0.844,6.055-1.781
				s3.479-2.24,4.95-3.875c1.469-1.634,2.586-3.432,3.319-5.347c0.734-1.914,1.105-4.003,1.105-6.21v-3.206h-2.574v3.206
				c0,2.003-0.374,3.901-1.109,5.643c-0.734,1.735-1.83,3.337-3.25,4.759c-1.428,1.427-3.031,2.51-4.769,3.222
				c-3.478,1.426-7.788,1.426-11.269,0c-1.738-0.713-3.344-1.797-4.768-3.222c-1.422-1.421-2.515-3.022-3.248-4.759
				c-0.738-1.741-1.111-3.639-1.111-5.643v-3.206h-2.574v3.206c0,2.206,0.37,4.295,1.104,6.21c0.734,1.916,1.852,3.715,3.322,5.347
				c1.472,1.635,3.136,2.939,4.948,3.875c1.812,0.938,3.85,1.536,6.057,1.781l0.618,0.068v5.474h-7.928V88.792z M62.938,35.194
				c-1.269,0-2.47,0.23-3.574,0.683c-1.103,0.453-2.121,1.144-3.032,2.054c-0.911,0.912-1.604,1.932-2.055,3.033
				c-0.455,1.104-0.683,2.306-0.683,3.573v18.862c0,1.269,0.228,2.471,0.683,3.573c0.451,1.102,1.144,2.122,2.055,3.033
				c0.908,0.91,1.93,1.601,3.032,2.055c2.206,0.905,4.938,0.907,7.146,0c1.103-0.453,2.124-1.145,3.035-2.055
				c0.908-0.911,1.602-1.933,2.054-3.033c0.453-1.106,0.683-2.308,0.683-3.573V44.537c0-1.265-0.229-2.466-0.683-3.573
				c-0.452-1.1-1.144-2.121-2.056-3.034c-0.912-0.91-1.934-1.601-3.033-2.053C65.404,35.424,64.204,35.194,62.938,35.194z"/>
		</g>
	</g>
</g>
</svg>
