<?xml version="1.0" encoding="utf-8"?>
<!-- Generator: Adobe Illustrator 16.0.4, SVG Export Plug-In . SVG Version: 6.00 Build 0)  -->
<!DOCTYPE svg PUBLIC "-//W3C//DTD SVG 1.1//EN" "http://www.w3.org/Graphics/SVG/1.1/DTD/svg11.dtd">
<svg version="1.1" id="Layer_1" xmlns="http://www.w3.org/2000/svg" xmlns:xlink="http://www.w3.org/1999/xlink" x="0px" y="0px"
	 width="125.667px" height="124px" viewBox="0 0 125.667 124" enable-background="new 0 0 125.667 124" xml:space="preserve">
<g>
	<g>
		<circle fill="#CFDE00" cx="62.598" cy="61.993" r="54"/>
		<path fill="#CFDE00" d="M62.598,118.747c-31.295,0-56.755-25.46-56.755-56.754c0-31.295,25.46-56.755,56.755-56.755
			s56.755,25.46,56.755,56.755C119.353,93.287,93.893,118.747,62.598,118.747z M62.598,10.748
			c-28.256,0-51.245,22.989-51.245,51.245s22.989,51.245,51.245,51.245s51.245-22.988,51.245-51.245S90.854,10.748,62.598,10.748z"
			/>
	</g>
	<g>
		<circle fill="#CFDE00" cx="62.598" cy="61.993" r="54"/>
		<path fill="#CFDE00" d="M62.598,7.993c29.824,0,54,24.176,54,54s-24.176,54-54,54s-54-24.176-54-54S32.773,7.993,62.598,7.993
			 M62.598,2.482c-32.814,0-59.51,26.696-59.51,59.51s26.696,59.509,59.51,59.509s59.51-26.695,59.51-59.509
			S95.412,2.482,62.598,2.482L62.598,2.482z"/>
	</g>
	<g>
		<circle fill="#CFDE00" cx="62.598" cy="61.993" r="54"/>
		<path fill="#FFFFFF" d="M62.598,7.993c29.824,0,54,24.176,54,54s-24.176,54-54,54s-54-24.176-54-54S32.773,7.993,62.598,7.993
			 M62.598,3.584c-32.207,0-58.408,26.202-58.408,58.408S30.391,120.4,62.598,120.4s58.408-26.201,58.408-58.408
			S94.804,3.584,62.598,3.584L62.598,3.584z"/>
	</g>
	<g>
		<g>
			<g>
				<circle fill="#FFFFFF" cx="43.12" cy="49.413" r="3.802"/>
				<circle fill="#FFFFFF" cx="82.08" cy="49.413" r="3.801"/>
			</g>
			<g>
				<path fill="#FFFFFF" d="M62.6,85.785c-9.893,0-19.41-2.627-26.803-7.398l1.547-2.396c6.938,4.479,15.906,6.945,25.256,6.945
					c9.355,0,18.322-2.467,25.248-6.943l1.551,2.393C82.014,83.158,72.498,85.785,62.6,85.785z"/>
			</g>
		</g>
	</g>
</g>
</svg>
