<?xml version="1.0" encoding="utf-8"?>
<!-- Generator: Adobe Illustrator 16.0.4, SVG Export Plug-In . SVG Version: 6.00 Build 0)  -->
<!DOCTYPE svg PUBLIC "-//W3C//DTD SVG 1.1//EN" "http://www.w3.org/Graphics/SVG/1.1/DTD/svg11.dtd">
<svg version="1.1" id="Layer_1" xmlns="http://www.w3.org/2000/svg" xmlns:xlink="http://www.w3.org/1999/xlink" x="0px" y="0px"
	 width="28.875px" height="27px" viewBox="0 0 28.875 27" enable-background="new 0 0 28.875 27" xml:space="preserve">
<g>
	<path fill="#7FDAFF" d="M10.587,1.588c1.594,0,3.066,0.408,4.415,1.227c1.35,0.818,2.416,1.915,3.199,3.291
		c0.783,1.377,1.177,2.862,1.177,4.457c0,1.568-0.478,3.326-1.432,5.274c-0.939,1.485-2.018,3.022-3.23,4.61
		c-1.211,1.587-2.187,2.811-2.922,3.67l-1.105,1.267c-0.122-0.108-0.295-0.276-0.521-0.501s-0.657-0.686-1.298-1.38
		s-1.261-1.397-1.86-2.105c-0.599-0.709-1.271-1.582-2.014-2.616c-0.744-1.036-1.395-2.046-1.952-3.026
		c-0.818-1.799-1.228-3.496-1.228-5.09c0-1.199,0.231-2.354,0.696-3.466C2.976,6.09,3.598,5.121,4.384,4.296
		c0.782-0.824,1.716-1.481,2.8-1.973C8.266,1.833,9.4,1.588,10.587,1.588z M13.879,6.903c-0.886-0.885-1.952-1.329-3.2-1.329
		c-1.246,0-2.312,0.443-3.199,1.329C6.595,7.789,6.15,8.858,6.15,10.112c0,1.255,0.444,2.321,1.329,3.2
		c0.887,0.879,1.953,1.318,3.199,1.318c1.248,0,2.314-0.439,3.2-1.318s1.329-1.945,1.329-3.2
		C15.208,8.858,14.765,7.789,13.879,6.903z"/>
</g>
</svg>
