<?xml version="1.0" encoding="utf-8"?>
<!-- Generator: Adobe Illustrator 16.0.4, SVG Export Plug-In . SVG Version: 6.00 Build 0)  -->
<!DOCTYPE svg PUBLIC "-//W3C//DTD SVG 1.1//EN" "http://www.w3.org/Graphics/SVG/1.1/DTD/svg11.dtd">
<svg version="1.1" id="Layer_1" xmlns="http://www.w3.org/2000/svg" xmlns:xlink="http://www.w3.org/1999/xlink" x="0px" y="0px"
	 width="37.521px" height="27px" viewBox="0 0 37.521 27" enable-background="new 0 0 37.521 27" xml:space="preserve">
<polygon opacity="0.9" fill="#0B345F" points="22.982,3.142 22.982,1 22.09,1 22.09,3.142 6.911,3.142 6.911,1 6.018,1 6.018,3.142 
	2,3.142 2,23.932 27,23.932 27,3.142 "/>
<g>
	<g>
		<rect x="21.013" y="12.753" fill="#FFFFFF" width="3.048" height="3.048"/>
	</g>
	<g>
		<rect x="15.654" y="12.753" fill="#FFFFFF" width="3.049" height="3.048"/>
	</g>
	<g>
		<rect x="21.013" y="7.396" fill="#FFFFFF" width="3.048" height="3.048"/>
	</g>
	<g>
		<rect x="15.654" y="7.396" fill="#FFFFFF" width="3.049" height="3.048"/>
	</g>
	<g>
		<rect x="4.94" y="12.753" fill="#FFFFFF" width="3.048" height="3.048"/>
	</g>
	<g>
		<rect x="4.94" y="18.109" fill="#FFFFFF" width="3.048" height="3.049"/>
	</g>
	<g>
		<rect x="10.297" y="12.753" fill="#FFFFFF" width="3.048" height="3.048"/>
	</g>
	<g>
		<rect x="10.297" y="18.109" fill="#FFFFFF" width="3.048" height="3.049"/>
	</g>
	<g>
		<rect x="10.297" y="7.396" fill="#FFFFFF" width="3.048" height="3.048"/>
	</g>
	<g>
		<rect x="15.654" y="18.109" fill="#FFFFFF" width="3.049" height="3.049"/>
	</g>
</g>
</svg>
