<?xml version="1.0" encoding="utf-8"?>
<!-- Generator: Adobe Illustrator 16.0.4, SVG Export Plug-In . SVG Version: 6.00 Build 0)  -->
<!DOCTYPE svg PUBLIC "-//W3C//DTD SVG 1.1//EN" "http://www.w3.org/Graphics/SVG/1.1/DTD/svg11.dtd">
<svg version="1.1" id="Layer_1" xmlns="http://www.w3.org/2000/svg" xmlns:xlink="http://www.w3.org/1999/xlink" x="0px" y="0px"
	 width="28.875px" height="27px" viewBox="0 0 28.875 27" enable-background="new 0 0 28.875 27" xml:space="preserve">
<g opacity="0.9">
	<path fill="#0B345F" d="M10.586,0.911c1.685,0,3.24,0.431,4.667,1.297c1.427,0.864,2.554,2.024,3.381,3.478
		c0.828,1.456,1.244,3.025,1.244,4.711c0,1.657-0.505,3.516-1.515,5.574c-0.991,1.57-2.132,3.194-3.413,4.873
		c-1.28,1.677-2.312,2.971-3.088,3.879l-1.168,1.339c-0.129-0.115-0.312-0.292-0.551-0.529c-0.239-0.238-0.694-0.725-1.372-1.459
		c-0.678-0.733-1.333-1.477-1.966-2.225c-0.633-0.749-1.344-1.672-2.128-2.765c-0.787-1.096-1.475-2.162-2.063-3.199
		c-0.864-1.901-1.298-3.695-1.298-5.379c0-1.268,0.244-2.488,0.736-3.663C2.542,5.669,3.2,4.645,4.03,3.772
		c0.827-0.871,1.814-1.565,2.96-2.085C8.133,1.169,9.332,0.911,10.586,0.911z M14.066,6.528c-0.937-0.935-2.063-1.404-3.382-1.404
		c-1.317,0-2.444,0.468-3.381,1.404C6.367,7.465,5.896,8.594,5.896,9.92c0,1.327,0.469,2.453,1.405,3.382
		c0.938,0.929,2.064,1.393,3.381,1.393c1.319,0,2.446-0.464,3.382-1.393c0.936-0.929,1.405-2.056,1.405-3.382
		C15.471,8.594,15.003,7.465,14.066,6.528z"/>
</g>
</svg>
