<?xml version="1.0" encoding="utf-8"?>
<!-- Generator: Adobe Illustrator 16.0.4, SVG Export Plug-In . SVG Version: 6.00 Build 0)  -->
<!DOCTYPE svg PUBLIC "-//W3C//DTD SVG 1.1//EN" "http://www.w3.org/Graphics/SVG/1.1/DTD/svg11.dtd">
<svg version="1.1" id="Layer_1" xmlns="http://www.w3.org/2000/svg" xmlns:xlink="http://www.w3.org/1999/xlink" x="0px" y="0px"
	 width="121.875px" height="35.75px" viewBox="0 0 121.875 35.75" enable-background="new 0 0 121.875 35.75" xml:space="preserve">
<g>
	<path fill="#FFFFFF" d="M7.749,19.376c4.176-4.896,9.63-3.88,9.63-3.88s-1.826,3.708,2.321,6.328
		c2.735,1.728,10.781-2.018,10.781,6.195c0,0.187-0.014,0.371-0.033,0.558c1.833-2.601,2.912-5.771,2.912-9.192
		c0-8.827-7.155-15.982-15.981-15.982c-8.827,0-15.982,7.155-15.982,15.982c0,3.422,1.08,6.592,2.913,9.192
		c-0.019-0.187-0.033-0.371-0.033-0.558C4.276,25.424,5.771,21.695,7.749,19.376z"/>
	<path fill="#FFFFFF" d="M17.364,31.436c0.955,0,1.911-0.19,2.82-0.567c0.45-0.188,0.663-0.704,0.476-1.154
		s-0.704-0.662-1.154-0.476c-1.374,0.57-2.886,0.574-4.258,0.01c-0.451-0.188-0.966,0.029-1.152,0.479
		c-0.186,0.451,0.029,0.967,0.479,1.151C15.474,31.249,16.419,31.436,17.364,31.436z"/>
</g>
<g>
	<path fill="#FFFFFF" d="M36.135,29.281l7.985-18.352h3.487l7.924,18.352h-5.422l-1.728-4.382h-5.066l-1.728,4.382H36.135z
		 M45.859,17.217l-1.68,4.658h3.311L45.859,17.217z"/>
	<path fill="#FFFFFF" d="M64.907,11.123h5.48l-7.955,18.352h-3.515L50.96,11.123h5.483l4.231,11.307L64.907,11.123z"/>
	<path fill="#FFFFFF" d="M65.535,29.281l7.986-18.352h3.485l7.926,18.352h-5.422l-1.729-4.382h-5.064l-1.729,4.382H65.535z
		 M75.261,17.217l-1.682,4.658h3.312L75.261,17.217z"/>
	<path fill="#FFFFFF" d="M99.399,21.92h-8.462v3.391h9.325v3.972H85.931V11.123h14.33v3.97h-9.325v2.833h8.462v3.994H99.399z"/>
	<path fill="#FFFFFF" d="M101.438,29.281l7.986-18.352h3.485l7.927,18.352h-5.423l-1.729-4.382h-5.066l-1.728,4.382H101.438z
		 M111.163,17.217l-1.681,4.658h3.312L111.163,17.217z"/>
</g>
</svg>
