<?xml version="1.0" encoding="utf-8"?>
<!-- Generator: Adobe Illustrator 16.0.4, SVG Export Plug-In . SVG Version: 6.00 Build 0)  -->
<!DOCTYPE svg PUBLIC "-//W3C//DTD SVG 1.1//EN" "http://www.w3.org/Graphics/SVG/1.1/DTD/svg11.dtd">
<svg version="1.1" id="Layer_1" xmlns="http://www.w3.org/2000/svg" xmlns:xlink="http://www.w3.org/1999/xlink" x="0px" y="0px"
	 width="121.875px" height="35.75px" viewBox="0 0 121.875 35.75" enable-background="new 0 0 121.875 35.75" xml:space="preserve">
<path fill="#3ABBEC" d="M4.278,28.02c0,0.188,0.014,0.371,0.033,0.559c-1.833-2.602-2.913-5.771-2.913-9.192
	c0-8.827,7.155-15.982,15.982-15.982c8.826,0,15.981,7.155,15.981,15.982c0,3.423-1.079,6.593-2.912,9.192
	c0.019-0.188,0.033-0.371,0.033-0.559c0-8.213-8.046-4.468-10.781-6.194c-4.147-2.62-2.321-6.328-2.321-6.328
	s-5.454-1.016-9.63,3.88C5.772,21.695,4.278,25.424,4.278,28.02z"/>
<path fill="#FFFFFF" d="M14.576,30.878c-0.45-0.185-0.665-0.7-0.479-1.151c0.186-0.449,0.701-0.666,1.152-0.479
	c1.372,0.564,2.884,0.561,4.258-0.01c0.45-0.188,0.967,0.025,1.154,0.476c0.187,0.451-0.026,0.966-0.476,1.154
	c-0.909,0.377-1.865,0.567-2.82,0.567C16.421,31.436,15.475,31.249,14.576,30.878z"/>
<g>
	<path fill="#FFFFFF" d="M36.148,30.591l7.985-18.352h3.487l7.924,18.352h-5.422l-1.728-4.382h-5.066L41.6,30.591H36.148z
		 M45.872,18.526l-1.68,4.658h3.311L45.872,18.526z"/>
	<path fill="#FFFFFF" d="M64.92,12.433h5.48l-7.955,18.352H58.93l-7.957-18.353h5.483l4.231,11.308L64.92,12.433z"/>
	<path fill="#FFFFFF" d="M65.548,30.591l7.986-18.352h3.485l7.926,18.352h-5.422l-1.729-4.382H72.73l-1.729,4.382H65.548z
		 M75.273,18.526l-1.683,4.658h3.312L75.273,18.526z"/>
	<path fill="#FFFFFF" d="M99.412,23.229H90.95v3.392h9.325v3.972H85.943v-18.16h14.33v3.97h-9.325v2.833h8.462v3.994H99.412z"/>
	<path fill="#FFFFFF" d="M101.451,30.591l7.986-18.352h3.484l7.928,18.352h-5.424l-1.729-4.382h-5.066l-1.729,4.382H101.451z
		 M111.176,18.526l-1.681,4.658h3.312L111.176,18.526z"/>
</g>
</svg>
