<?xml version="1.0" encoding="utf-8"?>
<!-- Generator: Adobe Illustrator 16.0.4, SVG Export Plug-In . SVG Version: 6.00 Build 0)  -->
<!DOCTYPE svg PUBLIC "-//W3C//DTD SVG 1.1//EN" "http://www.w3.org/Graphics/SVG/1.1/DTD/svg11.dtd">
<svg version="1.1" id="Layer_1" xmlns="http://www.w3.org/2000/svg" xmlns:xlink="http://www.w3.org/1999/xlink" x="0px" y="0px"
	 width="228px" height="51.25px" viewBox="0 0 228 51.25" enable-background="new 0 0 228 51.25" xml:space="preserve">
<g>
	<path fill="#06287B" d="M70.806,12.676L57.353,42.668h5.598l3.12-7.157H80l3.159,7.157h5.673l-13.41-29.992H70.806z M77.837,30.552
		h-9.574l4.757-10.908L77.837,30.552z"/>
	<polygon fill="#06287B" points="106.083,12.676 97.086,35.354 88.128,12.676 82.525,12.676 94.692,42.668 99.358,42.668 
		111.611,12.676 	"/>
	<path fill="#06287B" d="M118.75,12.676l-13.454,29.992h5.598l3.12-7.157h13.929l3.16,7.157h5.672l-13.412-29.992H118.75z
		 M125.779,30.552h-9.573l4.757-10.908L125.779,30.552z"/>
	<path fill="#06287B" d="M175.977,12.676h-4.613l-11.236,25.047l-0.271-0.015H143.54v-7.757h14.117v-4.919H143.54v-7.397h15.795
		v-4.959h-20.994v29.992h19.566h1.948h3.648l3.119-7.157h13.932l3.157,7.157h5.675L175.977,12.676z M178.393,30.552h-9.576
		l4.76-10.908L178.393,30.552z"/>
</g>
<g enable-background="new    ">
	<path fill="#001689" d="M186.363,11.807h3.672c1.701,0,2.934,0.248,3.691,0.744c0.758,0.496,1.137,1.28,1.137,2.352
		c0,0.722-0.187,1.322-0.559,1.801c-0.371,0.479-0.908,0.781-1.604,0.905v0.085c0.868,0.164,1.506,0.486,1.916,0.969
		c0.409,0.481,0.612,1.135,0.612,1.958c0,1.11-0.39,1.98-1.164,2.609s-1.854,0.943-3.234,0.943h-4.467V11.807L186.363,11.807z
		 M188.385,16.915h1.947c0.845,0,1.463-0.134,1.85-0.402c0.393-0.268,0.586-0.723,0.586-1.366c0-0.581-0.213-1.001-0.629-1.26
		c-0.422-0.26-1.09-0.39-2.004-0.39h-1.75V16.915L188.385,16.915z M188.385,18.556v3.917h2.148c0.848,0,1.484-0.162,1.914-0.487
		c0.434-0.324,0.648-0.835,0.648-1.535c0-0.642-0.221-1.119-0.66-1.429c-0.438-0.31-1.107-0.465-2.006-0.465L188.385,18.556
		L188.385,18.556z"/>
	<path fill="#001689" d="M201.674,24.341c-1.455,0-2.594-0.424-3.414-1.272c-0.82-0.849-1.229-2.018-1.229-3.506
		c0-1.528,0.38-2.729,1.142-3.603c0.763-0.874,1.808-1.311,3.138-1.311c1.235,0,2.209,0.375,2.928,1.125
		c0.718,0.75,1.072,1.782,1.072,3.096v1.074h-6.232c0.029,0.908,0.273,1.605,0.734,2.093c0.463,0.488,1.117,0.731,1.955,0.731
		c0.553,0,1.067-0.052,1.545-0.156c0.478-0.105,0.986-0.278,1.533-0.521v1.615c-0.484,0.231-0.976,0.396-1.471,0.491
		C202.877,24.294,202.311,24.341,201.674,24.341z M201.309,16.154c-0.631,0-1.135,0.201-1.518,0.6
		c-0.38,0.401-0.607,0.984-0.682,1.751h4.246c-0.01-0.772-0.196-1.357-0.56-1.754C202.438,16.353,201.943,16.154,201.309,16.154z"/>
	<path fill="#001689" d="M211.055,22.734c0.484,0,0.969-0.076,1.453-0.229v1.497c-0.221,0.096-0.502,0.176-0.85,0.241
		c-0.346,0.065-0.707,0.097-1.08,0.097c-1.883,0-2.824-0.992-2.824-2.977v-5.041h-1.277v-0.88l1.371-0.728l0.678-1.979h1.227v2.081
		h2.666v1.506h-2.666v5.007c0,0.479,0.121,0.833,0.357,1.061C210.35,22.621,210.664,22.734,211.055,22.734z"/>
	<path fill="#001689" d="M220.232,24.172l-0.398-1.303h-0.068c-0.449,0.57-0.904,0.958-1.358,1.164
		c-0.457,0.206-1.046,0.308-1.761,0.308c-0.92,0-1.638-0.248-2.152-0.744c-0.516-0.497-0.771-1.199-0.771-2.107
		c0-0.964,0.356-1.691,1.073-2.181c0.716-0.491,1.808-0.759,3.272-0.805l1.615-0.05v-0.499c0-0.598-0.144-1.045-0.418-1.341
		c-0.281-0.296-0.713-0.444-1.301-0.444c-0.479,0-0.938,0.07-1.378,0.211c-0.44,0.142-0.862,0.308-1.269,0.499l-0.646-1.421
		c0.509-0.265,1.062-0.466,1.666-0.604s1.173-0.207,1.708-0.207c1.189,0,2.09,0.259,2.694,0.778
		c0.606,0.519,0.909,1.333,0.909,2.445v6.301H220.232z M217.27,22.819c0.725,0,1.306-0.202,1.738-0.604
		c0.438-0.403,0.656-0.969,0.656-1.696v-0.812l-1.203,0.05c-0.936,0.034-1.613,0.19-2.04,0.47c-0.427,0.28-0.64,0.706-0.64,1.281
		c0,0.417,0.123,0.74,0.373,0.969C216.402,22.705,216.775,22.819,217.27,22.819z"/>
</g>
<g>
	<path fill="#3ABBEC" d="M16.479,26.73c6.036-7.077,13.919-5.606,13.919-5.606s-2.639,5.358,3.355,9.146
		c3.956,2.498,15.585-2.914,15.585,8.955c0,0.271-0.022,0.537-0.046,0.808c2.647-3.761,4.207-8.341,4.207-13.289
		c0-12.759-10.343-23.103-23.102-23.103c-12.762,0-23.102,10.343-23.102,23.099c0,4.95,1.56,9.53,4.209,13.288
		c-0.026-0.27-0.045-0.535-0.045-0.805C11.457,35.473,13.618,30.084,16.479,26.73z"/>
	<path fill="#F8A9B3" d="M30.375,44.366c1.553,0,3.109-0.308,4.585-0.925c0.73-0.303,1.079-1.143,0.774-1.875
		c-0.304-0.729-1.146-1.076-1.876-0.772c-2.234,0.931-4.694,0.937-6.928,0.019c-0.729-0.305-1.569,0.045-1.872,0.778
		c-0.301,0.731,0.051,1.57,0.78,1.872C27.302,44.066,28.835,44.366,30.375,44.366z"/>
</g>
</svg>
