<?xml version="1.0" encoding="utf-8"?>
<!-- Generator: Adobe Illustrator 16.0.4, SVG Export Plug-In . SVG Version: 6.00 Build 0)  -->
<!DOCTYPE svg PUBLIC "-//W3C//DTD SVG 1.1//EN" "http://www.w3.org/Graphics/SVG/1.1/DTD/svg11.dtd">
<svg version="1.1" id="Layer_1" xmlns="http://www.w3.org/2000/svg" xmlns:xlink="http://www.w3.org/1999/xlink" x="0px" y="0px"
	 width="229.25px" height="51.25px" viewBox="0 0 229.25 51.25" enable-background="new 0 0 229.25 51.25" xml:space="preserve">
<g>
	<circle fill="#FFFFFF" cx="27.349" cy="23.261" r="21.884"/>
	<g>
		<path fill="#3ABBEC" d="M14.161,23.252c5.719-6.705,13.186-5.312,13.186-5.312s-0.834,4.259,4.846,7.847
			c3.748,2.367,10.895-0.947,13.098,9.301c0.055,0.252-0.021,0.51-0.041,0.768c2.508-3.562,3.984-7.902,3.984-12.591
			c0-12.087-9.798-21.886-21.887-21.886c-12.09,0-21.885,9.798-21.885,21.883c0,4.689,1.479,9.029,3.987,12.588
			c-0.024-0.256-0.042-0.508-0.042-0.764C9.404,31.533,11.451,26.428,14.161,23.252z"/>
		<path fill="#F8A9B3" d="M27.326,39.959c1.472,0,2.945-0.291,4.345-0.875c0.691-0.287,1.021-1.084,0.732-1.777
			c-0.288-0.689-1.085-1.02-1.777-0.73c-2.117,0.881-4.447,0.889-6.562,0.018c-0.691-0.287-1.487,0.043-1.773,0.738
			c-0.285,0.691,0.049,1.486,0.737,1.773C24.415,39.674,25.867,39.959,27.326,39.959z"/>
	</g>
	<g enable-background="new    ">
		<path fill="#001689" d="M174.569,13.815h3.479c1.608,0,2.776,0.235,3.496,0.705c0.717,0.47,1.076,1.213,1.076,2.228
			c0,0.684-0.177,1.252-0.527,1.706c-0.354,0.455-0.862,0.74-1.521,0.857v0.081c0.822,0.155,1.426,0.46,1.814,0.917
			c0.388,0.457,0.58,1.075,0.58,1.856c0,1.052-0.366,1.876-1.104,2.471c-0.731,0.597-1.756,0.894-3.063,0.894h-4.229V13.815
			L174.569,13.815z M176.485,18.655h1.845c0.801,0,1.385-0.127,1.752-0.381c0.37-0.253,0.555-0.685,0.555-1.294
			c0-0.55-0.2-0.948-0.596-1.194c-0.397-0.246-1.031-0.369-1.897-0.369h-1.656L176.485,18.655L176.485,18.655z M176.485,20.21v3.71
			h2.034c0.804,0,1.406-0.154,1.814-0.461c0.408-0.307,0.612-0.792,0.612-1.455c0-0.608-0.207-1.06-0.627-1.354
			c-0.415-0.293-1.048-0.44-1.897-0.44H176.485z"/>
		<path fill="#001689" d="M189.074,25.689c-1.379,0-2.457-0.4-3.234-1.206c-0.775-0.805-1.164-1.911-1.164-3.321
			c0-1.448,0.359-2.586,1.082-3.414c0.723-0.828,1.711-1.242,2.973-1.242c1.171,0,2.094,0.355,2.771,1.066
			c0.68,0.71,1.019,1.688,1.019,2.933v1.018h-5.905c0.028,0.86,0.262,1.521,0.696,1.982c0.438,0.462,1.06,0.693,1.853,0.693
			c0.524,0,1.012-0.049,1.465-0.148c0.449-0.099,0.936-0.263,1.453-0.493v1.53c-0.459,0.219-0.927,0.374-1.396,0.465
			C190.215,25.645,189.678,25.689,189.074,25.689z M188.729,17.934c-0.598,0-1.075,0.19-1.438,0.569
			c-0.361,0.379-0.576,0.932-0.646,1.658h4.021c-0.011-0.731-0.187-1.286-0.527-1.662C189.797,18.122,189.33,17.934,188.729,17.934z
			"/>
		<path fill="#001689" d="M197.961,24.168c0.461,0,0.92-0.072,1.377-0.217v1.418c-0.209,0.091-0.475,0.166-0.803,0.229
			s-0.672,0.092-1.025,0.092c-1.781,0-2.676-0.938-2.676-2.82v-4.776h-1.209v-0.833l1.297-0.689l0.646-1.875h1.159v1.971h2.525
			v1.426h-2.525v4.744c0,0.454,0.115,0.789,0.342,1.005C197.295,24.06,197.592,24.168,197.961,24.168z"/>
		<path fill="#001689" d="M206.655,25.529l-0.377-1.233h-0.065c-0.426,0.54-0.855,0.907-1.289,1.103
			c-0.433,0.193-0.987,0.291-1.668,0.291c-0.869,0-1.549-0.234-2.037-0.705c-0.487-0.471-0.732-1.135-0.732-1.996
			c0-0.913,0.34-1.602,1.02-2.066c0.678-0.465,1.711-0.719,3.103-0.762l1.53-0.047v-0.473c0-0.566-0.135-0.99-0.396-1.271
			c-0.266-0.28-0.676-0.421-1.23-0.421c-0.455,0-0.889,0.067-1.307,0.201c-0.418,0.133-0.816,0.292-1.201,0.473l-0.607-1.347
			c0.479-0.25,1.005-0.441,1.576-0.572c0.572-0.131,1.111-0.196,1.619-0.196c1.127,0,1.979,0.245,2.555,0.737
			c0.572,0.492,0.859,1.264,0.859,2.316v5.97L206.655,25.529L206.655,25.529z M203.85,24.248c0.685,0,1.234-0.191,1.646-0.573
			c0.415-0.382,0.622-0.918,0.622-1.607v-0.769l-1.14,0.048c-0.886,0.032-1.53,0.18-1.933,0.445
			c-0.404,0.264-0.607,0.669-0.607,1.214c0,0.395,0.115,0.701,0.354,0.917C203.027,24.14,203.381,24.248,203.85,24.248z"/>
	</g>
	<g>
		<path fill="#06287B" d="M67,40.007c-1.82,0-3.394-0.315-4.72-0.944s-2.416-1.5-3.27-2.612c-0.854-1.112-1.489-2.428-1.905-3.944
			c-0.416-1.518-0.623-3.174-0.623-4.973c0-1.798,0.207-3.466,0.623-5.006c0.416-1.539,1.051-2.871,1.905-3.995
			c0.854-1.124,1.943-2,3.27-2.629c1.326-0.629,2.899-0.944,4.72-0.944s3.394,0.315,4.72,0.944c1.325,0.629,2.415,1.506,3.27,2.629
			c0.854,1.124,1.489,2.456,1.905,3.995c0.415,1.54,0.623,3.208,0.623,5.006c0,1.799-0.208,3.455-0.623,4.973
			c-0.416,1.517-1.051,2.832-1.905,3.944s-1.944,1.983-3.27,2.612C70.394,39.691,68.82,40.007,67,40.007z M67,35.894
			c3.483,0,5.226-2.786,5.226-8.36c0-2.786-0.422-4.876-1.265-6.27s-2.152-2.09-3.928-2.09c-3.528,0-5.292,2.787-5.292,8.36
			C61.741,33.107,63.494,35.894,67,35.894z"/>
		<path fill="#06287B" d="M81.26,22.173c0.314-0.067,0.629-0.118,0.944-0.152c0.314-0.034,0.663-0.051,1.045-0.051
			s0.719,0.017,1.012,0.051c0.292,0.034,0.595,0.084,0.91,0.152c0.067,0.113,0.129,0.275,0.186,0.489
			c0.056,0.214,0.106,0.438,0.151,0.674s0.084,0.466,0.118,0.691c0.033,0.225,0.062,0.416,0.084,0.573
			c0.225-0.337,0.494-0.674,0.81-1.012c0.314-0.337,0.679-0.64,1.096-0.91c0.415-0.27,0.881-0.489,1.398-0.657
			c0.517-0.168,1.09-0.253,1.72-0.253c1.978,0,3.466,0.54,4.467,1.618c0.999,1.079,1.5,2.776,1.5,5.091v11.124
			c-0.81,0.136-1.607,0.203-2.394,0.203c-0.787,0-1.585-0.067-2.394-0.203v-9.844c0-1.213-0.186-2.146-0.557-2.798
			c-0.37-0.651-1.017-0.978-1.938-0.978c-0.382,0-0.775,0.057-1.18,0.169s-0.77,0.332-1.096,0.657
			c-0.326,0.326-0.59,0.781-0.792,1.365c-0.202,0.585-0.304,1.349-0.304,2.292v9.136c-0.809,0.136-1.606,0.203-2.394,0.203
			c-0.786,0-1.584-0.067-2.394-0.203V22.173z"/>
		<path fill="#06287B" d="M97.003,15.363c0.382-0.044,0.82-0.089,1.315-0.135c0.493-0.045,0.932-0.067,1.314-0.067
			c0.854,0,1.753,0.067,2.696,0.202l5.293,19.114l5.36-19.114c0.449-0.067,0.882-0.112,1.298-0.135
			c0.416-0.022,0.837-0.034,1.264-0.034c0.405,0,0.814,0.012,1.23,0.034c0.416,0.023,0.849,0.067,1.299,0.135l-7.821,24.238
			c-0.473,0.068-0.928,0.118-1.365,0.152c-0.438,0.033-0.905,0.051-1.399,0.051c-0.45,0-0.888-0.018-1.314-0.051
			c-0.428-0.034-0.899-0.084-1.416-0.152L97.003,15.363z"/>
		<path fill="#06287B" d="M125.286,40.007c-1.415,0-2.646-0.231-3.691-0.691c-1.045-0.46-1.91-1.101-2.596-1.922
			c-0.686-0.819-1.202-1.78-1.551-2.882c-0.349-1.101-0.522-2.293-0.522-3.573c0-1.281,0.174-2.483,0.522-3.607
			s0.865-2.096,1.551-2.916s1.551-1.466,2.596-1.938c1.046-0.472,2.276-0.708,3.691-0.708c1.416,0,2.652,0.236,3.709,0.708
			c1.056,0.472,1.933,1.118,2.629,1.938s1.214,1.792,1.551,2.916s0.506,2.326,0.506,3.607c0,1.28-0.169,2.473-0.506,3.573
			c-0.337,1.102-0.854,2.062-1.551,2.882c-0.696,0.821-1.573,1.462-2.629,1.922C127.938,39.775,126.702,40.007,125.286,40.007z
			 M125.286,36.365c1.259,0,2.163-0.466,2.714-1.398s0.826-2.275,0.826-4.028s-0.275-3.096-0.826-4.028s-1.455-1.399-2.714-1.399
			c-1.235,0-2.129,0.467-2.68,1.399s-0.826,2.275-0.826,4.028s0.275,3.096,0.826,4.028S124.051,36.365,125.286,36.365z"/>
		<path fill="#06287B" d="M134.759,22.173c0.517-0.112,0.972-0.174,1.365-0.186c0.394-0.011,0.759-0.017,1.096-0.017
			c0.449,0,0.91,0.012,1.383,0.034c0.472,0.022,0.898,0.079,1.28,0.168l3.642,15.204l4.112-15.204
			c0.742-0.135,1.506-0.203,2.292-0.203c0.338,0,0.697,0.006,1.079,0.017c0.382,0.012,0.854,0.073,1.416,0.186l-6.506,21.542
			c-0.271,0.854-0.591,1.562-0.961,2.124c-0.371,0.562-0.793,0.999-1.265,1.314c-0.472,0.314-1,0.534-1.584,0.657
			c-0.585,0.123-1.214,0.186-1.888,0.186c-0.63,0-1.197-0.039-1.703-0.118s-1.006-0.186-1.5-0.32
			c-0.022-0.112-0.033-0.208-0.033-0.286c0-0.079,0-0.163,0-0.253c0-0.539,0.062-1.051,0.185-1.534
			c0.124-0.483,0.275-0.949,0.455-1.398c0.203,0.067,0.473,0.129,0.81,0.186c0.337,0.056,0.674,0.084,1.012,0.084
			c0.27,0,0.539-0.017,0.809-0.051c0.27-0.033,0.533-0.135,0.792-0.304c0.259-0.168,0.5-0.433,0.725-0.792s0.427-0.865,0.607-1.517
			l0.573-2.091c-0.248,0.022-0.522,0.039-0.826,0.051s-0.612,0.018-0.927,0.018c-0.248,0-0.484,0-0.708,0
			c-0.226,0-0.428-0.023-0.607-0.068L134.759,22.173z"/>
		<path fill="#06287B" d="M163.414,28.141c0-0.54-0.091-0.979-0.27-1.315c-0.181-0.337-0.428-0.601-0.742-0.792
			c-0.314-0.19-0.702-0.32-1.163-0.388s-0.973-0.101-1.534-0.101c-1.213,0-2.506,0.235-3.876,0.707
			c-0.315-0.584-0.552-1.134-0.708-1.651c-0.158-0.517-0.236-1.135-0.236-1.854c0.988-0.337,1.978-0.584,2.967-0.741
			c0.988-0.157,1.91-0.236,2.765-0.236c2.337,0,4.163,0.562,5.478,1.686c1.314,1.124,1.973,2.922,1.973,5.394v10.114
			c-0.787,0.247-1.742,0.483-2.866,0.708c-1.124,0.224-2.394,0.337-3.809,0.337c-1.146,0-2.197-0.102-3.152-0.304
			c-0.956-0.202-1.775-0.539-2.461-1.012c-0.686-0.472-1.214-1.078-1.585-1.82c-0.37-0.741-0.556-1.651-0.556-2.73
			c0-1.078,0.229-1.983,0.69-2.714c0.461-0.729,1.057-1.314,1.787-1.753s1.545-0.753,2.444-0.943
			c0.898-0.191,1.798-0.287,2.696-0.287c0.652,0,1.371,0.034,2.158,0.102V28.141z M163.414,31.612
			c-0.27-0.045-0.562-0.084-0.877-0.118c-0.314-0.033-0.596-0.051-0.843-0.051c-1.102,0-1.972,0.197-2.612,0.591
			s-0.961,1.028-0.961,1.904c0,0.585,0.123,1.034,0.371,1.349c0.247,0.314,0.544,0.545,0.894,0.691
			c0.348,0.146,0.719,0.235,1.112,0.27c0.393,0.033,0.735,0.051,1.028,0.051c0.337,0,0.674-0.028,1.011-0.085
			c0.337-0.056,0.629-0.106,0.877-0.151V31.612z"/>
	</g>
</g>
</svg>
