<?xml version="1.0" encoding="utf-8"?>
<!-- Generator: Adobe Illustrator 16.0.4, SVG Export Plug-In . SVG Version: 6.00 Build 0)  -->
<!DOCTYPE svg PUBLIC "-//W3C//DTD SVG 1.1//EN" "http://www.w3.org/Graphics/SVG/1.1/DTD/svg11.dtd">
<svg version="1.1" id="Layer_1" xmlns="http://www.w3.org/2000/svg" xmlns:xlink="http://www.w3.org/1999/xlink" x="0px" y="0px"
	 width="121.875px" height="35.75px" viewBox="0 0 121.875 35.75" enable-background="new 0 0 121.875 35.75" xml:space="preserve">
<path fill="#3ABBEC" d="M4.983,25.889c0,0.178,0.013,0.355,0.032,0.532c-1.755-2.489-2.789-5.524-2.789-8.802
	c0-8.453,6.852-15.305,15.305-15.305c8.453,0,15.305,6.852,15.305,15.305c0,3.277-1.034,6.312-2.789,8.802
	c0.017-0.177,0.031-0.354,0.031-0.532c0-7.865-7.705-4.281-10.325-5.934c-3.972-2.509-2.223-6.06-2.223-6.06
	s-5.223-0.972-9.222,3.716C6.414,19.833,4.982,23.404,4.983,25.889z"/>
<g>
	<path fill="#FFFFFF" d="M14.846,28.184c-0.431-0.179-0.637-0.674-0.459-1.104c0.178-0.434,0.672-0.641,1.104-0.459
		c1.314,0.541,2.762,0.538,4.078-0.01c0.431-0.182,0.925,0.023,1.105,0.455c0.179,0.431-0.025,0.925-0.456,1.104
		c-0.872,0.362-1.786,0.544-2.701,0.544C16.61,28.714,15.706,28.537,14.846,28.184z"/>
	<path fill="#FFFFFF" d="M14.762,28.389c-0.544-0.225-0.805-0.85-0.58-1.395c0.219-0.53,0.86-0.801,1.394-0.58
		c1.254,0.516,2.652,0.513,3.907-0.01c0.533-0.223,1.175,0.047,1.396,0.576c0.109,0.263,0.11,0.553,0.001,0.815
		c-0.109,0.265-0.314,0.47-0.577,0.578c-0.894,0.373-1.831,0.562-2.786,0.562C16.57,28.938,15.644,28.751,14.762,28.389z
		 M19.653,26.816c-1.364,0.566-2.886,0.569-4.248,0.009c-0.313-0.13-0.685,0.028-0.813,0.338c-0.131,0.317,0.021,0.683,0.339,0.812
		c1.666,0.689,3.529,0.687,5.201-0.01c0.316-0.132,0.467-0.497,0.335-0.814c-0.097-0.231-0.323-0.383-0.575-0.383
		C19.81,26.768,19.729,26.783,19.653,26.816z"/>
</g>
<g>
	<path fill="#FFFFFF" d="M34.558,29.529l8.078-18.566h3.527l8.017,18.566h-5.485l-1.749-4.436h-5.125l-1.748,4.436H34.558z
		 M44.394,17.326l-1.7,4.711h3.349L44.394,17.326z"/>
	<path fill="#FFFFFF" d="M63.663,11.16h5.546l-8.048,18.565h-3.557L49.555,11.16h5.547l4.28,11.438L63.663,11.16z"/>
	<path fill="#FFFFFF" d="M64.299,29.529l8.079-18.566h3.526l8.019,18.566h-5.485l-1.748-4.436h-5.123l-1.75,4.436H64.299z
		 M74.139,17.326l-1.699,4.711h3.35L74.139,17.326z"/>
	<path fill="#FFFFFF" d="M98.559,22.082h-8.562v3.428h9.435v4.02H84.934V11.16H99.43v4.016h-9.435v2.865h8.562v4.042H98.559z"/>
	<path fill="#FFFFFF" d="M100.62,29.529l8.08-18.566h3.524l8.02,18.566h-5.484l-1.75-4.436h-5.125l-1.746,4.436H100.62z
		 M110.459,17.326l-1.702,4.711h3.349L110.459,17.326z"/>
</g>
<path fill="#FFFFFF" d="M1.177,17.602c0,2.979,0.81,5.896,2.342,8.436c2.991,4.957,8.229,7.917,14.011,7.917
	c5.782,0,11.019-2.96,14.01-7.917c1.533-2.539,2.343-5.457,2.343-8.436c0-9.018-7.336-16.354-16.353-16.354
	C8.514,1.248,1.177,8.583,1.177,17.602z M6.01,26.148c0.004-0.061,0.006-0.119,0-0.182c-0.014-0.144-0.026-0.287-0.026-0.434
	c0-2.248,1.356-5.598,3.086-7.627c2.518-2.953,5.532-3.434,7.141-3.453c-0.286,1.731,0.146,4.188,3.007,5.994
	c1.067,0.673,2.545,0.677,4.11,0.68c3.564,0.007,5.748,0.225,5.748,4.406c0,0.146-0.012,0.29-0.026,0.434
	c-0.006,0.062-0.005,0.12,0,0.182c-2.701,3.652-6.911,5.803-11.52,5.803C12.92,31.951,8.71,29.803,6.01,26.148z M3.18,17.601
	C3.18,9.688,9.617,3.25,17.53,3.25c7.913,0,14.351,6.438,14.351,14.351c0,1.893-0.378,3.756-1.094,5.485
	c-1.064-3.943-4.83-3.954-7.455-3.96c-1.213-0.002-2.466-0.005-3.045-0.37c-3.173-2.004-1.914-4.659-1.859-4.771
	c0.138-0.281,0.137-0.61-0.003-0.891c-0.14-0.281-0.404-0.478-0.712-0.536c-0.237-0.044-5.842-1.02-10.167,4.05
	c-1.485,1.741-2.7,4.258-3.248,6.542C3.564,21.402,3.18,19.518,3.18,17.601z"/>
</svg>
