<?xml version="1.0" encoding="utf-8"?>
<!-- Generator: Adobe Illustrator 16.0.4, SVG Export Plug-In . SVG Version: 6.00 Build 0)  -->
<!DOCTYPE svg PUBLIC "-//W3C//DTD SVG 1.1//EN" "http://www.w3.org/Graphics/SVG/1.1/DTD/svg11.dtd">
<svg version="1.1" id="Layer_1" xmlns="http://www.w3.org/2000/svg" xmlns:xlink="http://www.w3.org/1999/xlink" x="0px" y="0px"
	 width="229.25px" height="51.25px" viewBox="0 0 229.25 51.25" enable-background="new 0 0 229.25 51.25" xml:space="preserve">
<circle fill="#FFFFFF" cx="27.53" cy="23.356" r="21.884"/>
<g>
	<path fill="#3ABBEC" d="M14.343,23.347c5.718-6.705,13.186-5.312,13.186-5.312s-0.834,4.259,4.845,7.847
		c3.748,2.367,10.895-0.947,13.098,9.302c0.054,0.252-0.021,0.51-0.042,0.766c2.508-3.562,3.985-7.901,3.985-12.59
		c0-12.087-9.798-21.886-21.886-21.886c-12.09,0-21.885,9.798-21.885,21.883c0,4.69,1.478,9.029,3.987,12.589
		c-0.025-0.256-0.042-0.508-0.042-0.764C9.586,31.628,11.633,26.523,14.343,23.347z"/>
	<path fill="#F8A9B3" d="M27.508,40.055c1.471,0,2.945-0.291,4.344-0.875c0.692-0.287,1.022-1.084,0.733-1.777
		c-0.288-0.691-1.085-1.021-1.777-0.732c-2.117,0.882-4.447,0.889-6.563,0.018c-0.691-0.287-1.487,0.043-1.773,0.738
		c-0.285,0.692,0.048,1.487,0.737,1.773C24.597,39.77,26.049,40.055,27.508,40.055z"/>
</g>
<g enable-background="new    ">
	<path fill="#001689" d="M174.751,13.91h3.479c1.609,0,2.777,0.235,3.496,0.705c0.717,0.47,1.076,1.213,1.076,2.228
		c0,0.684-0.176,1.252-0.527,1.706c-0.353,0.455-0.862,0.74-1.521,0.857v0.081c0.822,0.155,1.426,0.46,1.814,0.917
		c0.388,0.457,0.58,1.075,0.58,1.856c0,1.052-0.366,1.876-1.104,2.471c-0.732,0.597-1.756,0.894-3.064,0.894h-4.229V13.91
		L174.751,13.91z M176.667,18.75h1.845c0.801,0,1.385-0.127,1.752-0.381c0.37-0.253,0.555-0.685,0.555-1.294
		c0-0.55-0.201-0.948-0.596-1.194c-0.398-0.246-1.031-0.369-1.898-0.369h-1.656L176.667,18.75L176.667,18.75z M176.667,20.305v3.71
		h2.034c0.804,0,1.406-0.154,1.814-0.461c0.409-0.307,0.613-0.792,0.613-1.455c0-0.608-0.207-1.06-0.627-1.354
		c-0.415-0.293-1.048-0.44-1.898-0.44H176.667z"/>
	<path fill="#001689" d="M189.256,25.785c-1.379,0-2.457-0.401-3.234-1.206c-0.776-0.805-1.164-1.911-1.164-3.321
		c0-1.448,0.359-2.586,1.082-3.414c0.722-0.828,1.711-1.242,2.972-1.242c1.171,0,2.094,0.355,2.772,1.066
		c0.68,0.71,1.018,1.688,1.018,2.933v1.018h-5.905c0.028,0.86,0.261,1.521,0.696,1.982c0.439,0.462,1.059,0.693,1.852,0.693
		c0.525,0,1.012-0.049,1.465-0.148c0.45-0.099,0.936-0.263,1.453-0.493v1.53c-0.459,0.219-0.926,0.374-1.395,0.465
		C190.396,25.74,189.859,25.785,189.256,25.785z M188.91,18.029c-0.598,0-1.075,0.19-1.438,0.569
		c-0.361,0.379-0.576,0.932-0.646,1.658h4.021c-0.01-0.731-0.186-1.286-0.527-1.662C189.979,18.217,189.512,18.029,188.91,18.029z"
		/>
	<path fill="#001689" d="M198.143,24.263c0.461,0,0.92-0.072,1.377-0.217v1.418c-0.209,0.091-0.475,0.167-0.803,0.229
		s-0.672,0.092-1.025,0.092c-1.782,0-2.676-0.939-2.676-2.82v-4.776h-1.209v-0.833l1.297-0.689l0.645-1.875h1.159v1.971h2.526v1.426
		h-2.526v4.744c0,0.454,0.116,0.789,0.342,1.005C197.477,24.155,197.773,24.263,198.143,24.263z"/>
	<path fill="#001689" d="M206.837,25.625l-0.377-1.234h-0.065c-0.426,0.54-0.856,0.907-1.289,1.102
		c-0.433,0.194-0.988,0.292-1.668,0.292c-0.869,0-1.549-0.234-2.037-0.705c-0.488-0.471-0.733-1.135-0.733-1.996
		c0-0.913,0.34-1.602,1.019-2.066c0.678-0.465,1.711-0.719,3.103-0.762l1.53-0.047v-0.473c0-0.566-0.135-0.99-0.396-1.271
		c-0.266-0.28-0.676-0.421-1.23-0.421c-0.455,0-0.89,0.067-1.307,0.201c-0.418,0.133-0.816,0.292-1.201,0.473l-0.608-1.347
		c0.479-0.25,1.005-0.441,1.577-0.572c0.572-0.131,1.111-0.196,1.619-0.196c1.127,0,1.979,0.245,2.554,0.737
		c0.573,0.492,0.86,1.264,0.86,2.316v5.97L206.837,25.625L206.837,25.625z M204.031,24.343c0.685,0,1.234-0.191,1.646-0.573
		c0.415-0.382,0.622-0.918,0.622-1.607v-0.769l-1.14,0.048c-0.886,0.032-1.53,0.18-1.933,0.445
		c-0.404,0.264-0.607,0.669-0.607,1.214c0,0.395,0.115,0.701,0.354,0.917C203.209,24.235,203.562,24.343,204.031,24.343z"/>
</g>
<g>
	<path fill="#06287B" d="M67.281,40.236c-1.831,0-3.413-0.317-4.747-0.949c-1.334-0.633-2.43-1.51-3.289-2.628
		c-0.859-1.119-1.498-2.441-1.916-3.968c-0.418-1.524-0.627-3.191-0.627-5s0.209-3.486,0.627-5.035
		c0.418-1.548,1.056-2.887,1.916-4.018c0.859-1.13,1.955-2.012,3.289-2.645c1.333-0.632,2.916-0.949,4.747-0.949
		c1.831,0,3.413,0.317,4.747,0.949c1.333,0.633,2.429,1.515,3.289,2.645c0.859,1.13,1.497,2.47,1.916,4.018
		c0.418,1.548,0.627,3.227,0.627,5.035s-0.209,3.476-0.627,5c-0.418,1.525-1.057,2.849-1.916,3.968
		c-0.859,1.118-1.955,1.995-3.289,2.628C70.693,39.919,69.112,40.236,67.281,40.236z M67.281,36.1c3.503,0,5.255-2.803,5.255-8.408
		c0-2.801-0.423-4.903-1.271-6.306c-0.848-1.401-2.165-2.102-3.95-2.102c-3.548,0-5.323,2.803-5.323,8.407
		C61.992,33.297,63.755,36.1,67.281,36.1z"/>
	<path fill="#06287B" d="M81.622,22.301c0.316-0.068,0.633-0.119,0.95-0.152c0.316-0.034,0.666-0.051,1.051-0.051
		c0.384,0,0.723,0.017,1.017,0.051c0.293,0.034,0.599,0.084,0.916,0.152c0.068,0.113,0.13,0.277,0.187,0.492
		c0.056,0.215,0.107,0.44,0.152,0.678c0.045,0.238,0.085,0.47,0.119,0.695c0.034,0.226,0.062,0.418,0.085,0.576
		c0.226-0.339,0.497-0.678,0.813-1.017c0.316-0.339,0.684-0.644,1.102-0.916c0.418-0.271,0.887-0.491,1.407-0.661
		s1.096-0.254,1.729-0.254c1.989,0,3.486,0.542,4.492,1.627c1.005,1.085,1.509,2.792,1.509,5.12v11.188
		c-0.814,0.136-1.616,0.203-2.407,0.203c-0.792,0-1.594-0.067-2.407-0.203v-9.9c0-1.22-0.187-2.158-0.56-2.812
		c-0.373-0.655-1.023-0.983-1.949-0.983c-0.385,0-0.78,0.058-1.187,0.17c-0.407,0.113-0.775,0.333-1.102,0.661
		c-0.328,0.327-0.593,0.785-0.797,1.373c-0.203,0.588-0.305,1.355-0.305,2.307v9.188c-0.813,0.136-1.616,0.203-2.407,0.203
		c-0.792,0-1.593-0.067-2.407-0.203L81.622,22.301L81.622,22.301z"/>
	<path fill="#06287B" d="M98.642,22.334c0.542-0.113,1.045-0.181,1.509-0.203c0.463-0.022,0.865-0.034,1.204-0.034
		c0.452,0,0.904,0.012,1.356,0.034s0.87,0.08,1.255,0.169l3.83,13.054L111.56,22.3c0.385-0.068,0.791-0.119,1.221-0.152
		c0.43-0.034,0.859-0.051,1.289-0.051c0.338,0,0.729,0.012,1.17,0.034c0.439,0.022,0.943,0.09,1.508,0.203l-6.645,17.495
		c-0.43,0.067-0.883,0.112-1.357,0.136s-0.869,0.034-1.186,0.034c-0.34,0-0.724-0.013-1.153-0.034
		c-0.43-0.021-0.836-0.079-1.221-0.17L98.642,22.334z"/>
	<path fill="#06287B" d="M125.695,40.236c-1.424,0-2.66-0.232-3.711-0.695c-1.051-0.463-1.922-1.107-2.61-1.934
		c-0.69-0.824-1.21-1.791-1.56-2.897c-0.352-1.106-0.526-2.306-0.526-3.594c0-1.289,0.175-2.498,0.526-3.628
		c0.35-1.131,0.869-2.107,1.56-2.933c0.688-0.825,1.56-1.475,2.61-1.949c1.05-0.474,2.288-0.712,3.711-0.712
		c1.426,0,2.668,0.237,3.729,0.712s1.944,1.125,2.646,1.949c0.699,0.826,1.221,1.802,1.56,2.933c0.341,1.13,0.509,2.339,0.509,3.628
		c0,1.288-0.168,2.485-0.509,3.594c-0.339,1.106-0.858,2.073-1.56,2.897c-0.701,0.826-1.582,1.471-2.646,1.934
		S127.121,40.236,125.695,40.236z M125.695,36.574c1.267,0,2.177-0.469,2.729-1.407c0.554-0.938,0.831-2.288,0.831-4.051
		c0-1.765-0.277-3.113-0.831-4.052s-1.464-1.407-2.729-1.407c-1.242,0-2.141,0.47-2.694,1.407c-0.554,0.938-0.83,2.287-0.83,4.052
		c0,1.763,0.276,3.112,0.83,4.051C123.555,36.105,124.453,36.574,125.695,36.574z"/>
	<path fill="#06287B" d="M135.225,22.301c0.52-0.113,0.978-0.175,1.373-0.187c0.396-0.011,0.762-0.017,1.103-0.017
		c0.45,0,0.915,0.012,1.39,0.034s0.903,0.08,1.288,0.169l3.662,15.291l4.136-15.291c0.746-0.136,1.516-0.204,2.307-0.204
		c0.338,0,0.699,0.006,1.084,0.017c0.385,0.012,0.858,0.074,1.425,0.187l-6.543,21.665c-0.271,0.858-0.595,1.57-0.968,2.137
		c-0.373,0.563-0.797,1.004-1.271,1.321c-0.476,0.316-1.006,0.536-1.593,0.661c-0.59,0.124-1.221,0.188-1.899,0.188
		c-0.633,0-1.202-0.041-1.712-0.119c-0.509-0.079-1.012-0.188-1.509-0.322c-0.022-0.113-0.033-0.209-0.033-0.288s0-0.164,0-0.254
		c0-0.543,0.062-1.058,0.187-1.543c0.123-0.486,0.276-0.955,0.457-1.407c0.203,0.068,0.476,0.13,0.813,0.188
		c0.34,0.057,0.679,0.084,1.019,0.084c0.271,0,0.541-0.017,0.812-0.051c0.271-0.033,0.537-0.136,0.797-0.305
		c0.26-0.17,0.503-0.436,0.729-0.797c0.228-0.361,0.431-0.87,0.611-1.525l0.576-2.103c-0.249,0.022-0.525,0.039-0.831,0.051
		c-0.305,0.011-0.616,0.017-0.933,0.017c-0.249,0-0.486,0-0.713,0c-0.225,0-0.43-0.021-0.609-0.066L135.225,22.301z"/>
	<path fill="#06287B" d="M164.042,28.302c0-0.542-0.09-0.983-0.271-1.321c-0.183-0.34-0.431-0.604-0.746-0.797
		c-0.317-0.191-0.707-0.323-1.17-0.391c-0.465-0.067-0.979-0.103-1.543-0.103c-1.221,0-2.521,0.238-3.898,0.712
		c-0.316-0.587-0.555-1.14-0.712-1.661c-0.158-0.52-0.237-1.141-0.237-1.865c0.994-0.339,1.988-0.587,2.983-0.746
		c0.993-0.158,1.921-0.237,2.78-0.237c2.351,0,4.187,0.565,5.508,1.695c1.322,1.131,1.984,2.938,1.984,5.426v10.17
		c-0.791,0.25-1.753,0.486-2.883,0.713s-2.406,0.34-3.831,0.34c-1.151,0-2.209-0.104-3.17-0.307s-1.784-0.541-2.476-1.017
		c-0.689-0.476-1.221-1.085-1.594-1.831s-0.56-1.661-0.56-2.746s0.231-1.995,0.694-2.729c0.464-0.734,1.062-1.322,1.798-1.764
		c0.733-0.441,1.554-0.758,2.458-0.949c0.902-0.191,1.808-0.289,2.712-0.289c0.655,0,1.379,0.035,2.17,0.104v-0.407H164.042z
		 M164.042,31.794c-0.271-0.045-0.563-0.085-0.881-0.119c-0.317-0.032-0.601-0.051-0.849-0.051c-1.107,0-1.982,0.198-2.627,0.594
		c-0.645,0.396-0.967,1.034-0.967,1.915c0,0.59,0.124,1.04,0.373,1.356c0.248,0.317,0.549,0.549,0.898,0.694
		c0.35,0.147,0.723,0.237,1.117,0.271c0.396,0.033,0.74,0.051,1.035,0.051c0.338,0,0.678-0.027,1.018-0.085
		c0.339-0.057,0.632-0.106,0.881-0.151L164.042,31.794L164.042,31.794z"/>
</g>
</svg>
