<?xml version="1.0" encoding="utf-8"?>
<!-- Generator: Adobe Illustrator 16.0.4, SVG Export Plug-In . SVG Version: 6.00 Build 0)  -->
<!DOCTYPE svg PUBLIC "-//W3C//DTD SVG 1.1//EN" "http://www.w3.org/Graphics/SVG/1.1/DTD/svg11.dtd">
<svg version="1.1" id="Layer_1" xmlns="http://www.w3.org/2000/svg" xmlns:xlink="http://www.w3.org/1999/xlink" x="0px" y="0px"
	 width="228px" height="51.25px" viewBox="-42.656 -7.875 228 51.25" enable-background="new -42.656 -7.875 228 51.25"
	 xml:space="preserve">
<g>
	<path fill="#06287B" d="M27.806,6.676L14.353,36.668h5.598l3.12-7.157H37l3.159,7.157h5.673L32.422,6.676H27.806z M34.837,24.552
		h-9.574l4.757-10.908L34.837,24.552z"/>
	<polygon fill="#06287B" points="63.083,6.676 54.086,29.353 45.128,6.676 39.525,6.676 51.692,36.668 56.358,36.668 68.611,6.676 	
		"/>
	<path fill="#06287B" d="M75.75,6.676L62.296,36.668h5.598l3.12-7.157h13.93l3.159,7.157h5.673L80.364,6.676H75.75z M82.78,24.552
		h-9.574l4.757-10.908L82.78,24.552z"/>
	<path fill="#06287B" d="M132.976,6.676h-4.613l-11.237,25.046l-0.27-0.014H100.54v-7.757h14.117v-4.919H100.54v-7.397h15.795V6.676
		H95.341v29.992h19.566h1.948h3.65l3.119-7.157h13.93l3.159,7.157h5.673L132.976,6.676z M135.392,24.552h-9.575l4.758-10.908
		L135.392,24.552z"/>
</g>
<g>
	<path fill="#3ABBEC" d="M-26.521,20.898c6.036-7.077,13.919-5.608,13.919-5.608s-2.639,5.36,3.355,9.147
		c3.956,2.498,15.586-2.914,15.586,8.955c0,0.271-0.023,0.537-0.047,0.807c2.648-3.76,4.207-8.34,4.207-13.289
		c0-12.759-10.342-23.103-23.102-23.103c-12.762,0-23.102,10.343-23.102,23.099c0,4.951,1.561,9.531,4.209,13.289
		c-0.026-0.27-0.045-0.536-0.045-0.806C-31.543,29.64-29.382,24.251-26.521,20.898z"/>
	<path fill="#F8A9B3" d="M-12.623,38.329c1.381,0,2.765-0.273,4.077-0.821c0.648-0.27,0.958-1.016,0.688-1.668
		c-0.271-0.648-1.019-0.957-1.668-0.688c-1.986,0.828-4.173,0.833-6.157,0.017c-0.649-0.271-1.396,0.04-1.665,0.692
		c-0.268,0.65,0.045,1.396,0.693,1.664C-15.354,38.062-13.991,38.329-12.623,38.329z"/>
</g>
<g enable-background="new    ">
	<path fill="#001689" d="M143.363,5.807h3.672c1.702,0,2.934,0.248,3.692,0.744c0.758,0.496,1.137,1.28,1.137,2.352
		c0,0.722-0.186,1.322-0.559,1.801c-0.371,0.479-0.908,0.781-1.605,0.905v0.085c0.868,0.164,1.506,0.486,1.916,0.969
		c0.409,0.481,0.612,1.135,0.612,1.958c0,1.11-0.388,1.98-1.164,2.609c-0.774,0.629-1.854,0.943-3.234,0.943h-4.467V5.807z
		 M145.385,10.915h1.947c0.845,0,1.463-0.134,1.85-0.402c0.391-0.268,0.585-0.723,0.585-1.366c0-0.581-0.212-1.001-0.629-1.26
		c-0.421-0.26-1.089-0.39-2.003-0.39h-1.75V10.915z M145.385,12.556v3.917h2.148c0.848,0,1.484-0.162,1.914-0.487
		c0.434-0.324,0.648-0.835,0.648-1.535c0-0.642-0.219-1.119-0.66-1.429c-0.438-0.31-1.107-0.465-2.005-0.465H145.385z"/>
	<path fill="#001689" d="M158.674,18.341c-1.455,0-2.594-0.424-3.414-1.272c-0.821-0.849-1.229-2.018-1.229-3.506
		c0-1.528,0.38-2.729,1.142-3.603s1.807-1.311,3.137-1.311c1.236,0,2.21,0.375,2.928,1.125c0.717,0.75,1.073,1.782,1.073,3.096
		v1.074h-6.234c0.03,0.908,0.274,1.605,0.735,2.093c0.464,0.488,1.117,0.731,1.955,0.731c0.554,0,1.068-0.052,1.545-0.156
		c0.477-0.105,0.987-0.278,1.533-0.521v1.615c-0.484,0.231-0.975,0.396-1.47,0.491C159.877,18.294,159.311,18.341,158.674,18.341z
		 M158.309,10.154c-0.631,0-1.135,0.201-1.518,0.6c-0.38,0.401-0.607,0.984-0.682,1.751h4.246c-0.01-0.772-0.196-1.357-0.558-1.754
		C159.438,10.353,158.943,10.154,158.309,10.154z"/>
	<path fill="#001689" d="M168.054,16.734c0.485,0,0.97-0.076,1.454-0.229v1.497c-0.221,0.096-0.502,0.176-0.85,0.241
		c-0.346,0.065-0.707,0.097-1.08,0.097c-1.882,0-2.824-0.992-2.824-2.977v-5.041h-1.277v-0.88l1.371-0.728l0.678-1.979h1.225v2.081
		h2.666v1.506h-2.666v5.007c0,0.479,0.121,0.833,0.359,1.061C167.35,16.621,167.664,16.734,168.054,16.734z"/>
	<path fill="#001689" d="M177.232,18.172l-0.398-1.303h-0.068c-0.45,0.57-0.904,0.958-1.36,1.164
		c-0.457,0.206-1.044,0.308-1.76,0.308c-0.919,0-1.637-0.248-2.153-0.744c-0.515-0.497-0.773-1.199-0.773-2.107
		c0-0.964,0.358-1.691,1.075-2.181c0.715-0.491,1.807-0.759,3.273-0.805l1.615-0.05v-0.499c0-0.598-0.143-1.045-0.418-1.341
		c-0.28-0.296-0.713-0.444-1.3-0.444c-0.479,0-0.938,0.07-1.378,0.211c-0.441,0.142-0.862,0.308-1.269,0.499l-0.644-1.421
		c0.508-0.265,1.061-0.466,1.666-0.604c0.604-0.138,1.172-0.207,1.708-0.207c1.19,0,2.089,0.259,2.694,0.778
		c0.607,0.519,0.91,1.333,0.91,2.445v6.301H177.232z M174.27,16.819c0.723,0,1.304-0.202,1.738-0.604
		c0.438-0.403,0.656-0.969,0.656-1.696v-0.812l-1.203,0.05c-0.935,0.034-1.613,0.19-2.04,0.47s-0.64,0.706-0.64,1.281
		c0,0.417,0.124,0.74,0.373,0.969C173.402,16.705,173.776,16.819,174.27,16.819z"/>
</g>
</svg>
