<?xml version="1.0" encoding="utf-8"?>
<!-- Generator: Adobe Illustrator 16.0.4, SVG Export Plug-In . SVG Version: 6.00 Build 0)  -->
<!DOCTYPE svg PUBLIC "-//W3C//DTD SVG 1.1//EN" "http://www.w3.org/Graphics/SVG/1.1/DTD/svg11.dtd">
<svg version="1.1" id="Layer_1" xmlns="http://www.w3.org/2000/svg" xmlns:xlink="http://www.w3.org/1999/xlink" x="0px" y="0px"
	 width="121.875px" height="35.75px" viewBox="0 0 121.875 35.75" enable-background="new 0 0 121.875 35.75" xml:space="preserve">
<g>
	<path fill="#FFFFFF" d="M17.232,33.977c-5.833,0-11.119-2.987-14.137-7.987c-1.546-2.563-2.363-5.507-2.363-8.512
		c0-9.098,7.402-16.5,16.5-16.5s16.5,7.402,16.5,16.5c0,3.005-0.818,5.951-2.364,8.512C28.35,30.991,23.065,33.977,17.232,33.977z
		 M17.232,2.359c-8.336,0-15.118,6.782-15.118,15.118c0,2.753,0.749,5.451,2.166,7.798c2.765,4.584,7.607,7.318,12.953,7.318
		c5.345,0,10.187-2.734,12.952-7.318c1.417-2.346,2.166-5.043,2.166-7.798C32.35,9.141,25.568,2.359,17.232,2.359z"/>
	<path fill="#FFFFFF" d="M7.894,17.487c4.049-4.748,9.338-3.763,9.338-3.763s-1.771,3.596,2.25,6.135
		c2.653,1.677,10.455-1.955,10.455,6.009c0,0.182-0.014,0.36-0.032,0.54c1.777-2.521,2.824-5.596,2.824-8.914
		c0-8.559-6.939-15.498-15.498-15.498c-8.56,0-15.498,6.939-15.498,15.498c0,3.318,1.047,6.392,2.824,8.914
		c-0.018-0.18-0.031-0.358-0.031-0.54C4.526,23.354,5.975,19.736,7.894,17.487z"/>
	<path fill="#FFFFFF" d="M17.218,29.182c0.926,0,1.853-0.185,2.735-0.551c0.437-0.182,0.643-0.683,0.461-1.119
		c-0.182-0.436-0.683-0.644-1.119-0.461c-1.333,0.555-2.799,0.559-4.129,0.01c-0.438-0.181-0.938,0.027-1.118,0.465
		c-0.18,0.438,0.028,0.938,0.465,1.117C15.385,29.002,16.301,29.182,17.218,29.182z"/>
</g>
<g>
	<path fill="#FFFFFF" d="M34.861,29.82l8.062-18.525h3.52l8,18.525h-5.474l-1.745-4.422H42.11l-1.744,4.422H34.861z M44.677,17.645
		l-1.696,4.701h3.342L44.677,17.645z"/>
	<path fill="#FFFFFF" d="M63.906,11.491h5.533l-8.031,18.524h-3.549l-8.032-18.524h5.535l4.271,11.411L63.906,11.491z"/>
	<path fill="#FFFFFF" d="M64.54,29.82l8.062-18.525h3.52l8.001,18.525h-5.474l-1.744-4.422h-5.112l-1.746,4.422H64.54z
		 M74.357,17.645l-1.695,4.701h3.343L74.357,17.645z"/>
	<path fill="#FFFFFF" d="M98.727,22.391h-8.543v3.422h9.414v4.01H85.13v-18.33h14.466v4.007h-9.414v2.858h8.543L98.727,22.391
		L98.727,22.391z"/>
	<path fill="#FFFFFF" d="M100.784,29.82l8.062-18.525h3.52l8.001,18.525h-5.474l-1.746-4.422h-5.112l-1.744,4.422H100.784z
		 M110.602,17.645l-1.697,4.701h3.343L110.602,17.645z"/>
</g>
</svg>
