<?xml version="1.0" encoding="utf-8"?>
<!-- Generator: Adobe Illustrator 16.0.4, SVG Export Plug-In . SVG Version: 6.00 Build 0)  -->
<!DOCTYPE svg PUBLIC "-//W3C//DTD SVG 1.1//EN" "http://www.w3.org/Graphics/SVG/1.1/DTD/svg11.dtd">
<svg version="1.1" id="Layer_1" xmlns="http://www.w3.org/2000/svg" xmlns:xlink="http://www.w3.org/1999/xlink" x="0px" y="0px"
	 width="229.25px" height="51.25px" viewBox="0 0 229.25 51.25" enable-background="new 0 0 229.25 51.25" xml:space="preserve">
<circle fill="#FFFFFF" cx="27.349" cy="23.261" r="21.884"/>
<g>
	<path fill="#3ABBEC" d="M14.161,23.252c5.719-6.705,13.186-5.312,13.186-5.312s-0.834,4.259,4.846,7.847
		c3.748,2.367,10.895-0.947,13.098,9.301c0.055,0.252-0.021,0.51-0.041,0.768c2.508-3.562,3.984-7.901,3.984-12.59
		c0-12.087-9.798-21.886-21.887-21.886c-12.09,0-21.885,9.798-21.885,21.883c0,4.689,1.479,9.029,3.987,12.587
		c-0.024-0.256-0.042-0.508-0.042-0.764C9.404,31.533,11.451,26.428,14.161,23.252z"/>
	<path fill="#F8A9B3" d="M27.326,39.959c1.472,0,2.945-0.291,4.345-0.875c0.691-0.287,1.021-1.084,0.732-1.777
		c-0.288-0.688-1.085-1.02-1.777-0.729c-2.117,0.881-4.447,0.889-6.562,0.019c-0.691-0.287-1.487,0.043-1.773,0.737
		c-0.285,0.69,0.049,1.485,0.737,1.772C24.415,39.674,25.867,39.959,27.326,39.959z"/>
</g>
<g enable-background="new    ">
	<path fill="#001689" d="M174.568,13.815h3.479c1.608,0,2.776,0.235,3.496,0.705c0.718,0.47,1.076,1.213,1.076,2.228
		c0,0.684-0.177,1.252-0.527,1.706c-0.354,0.455-0.862,0.74-1.521,0.857v0.081c0.822,0.155,1.426,0.46,1.814,0.917
		c0.387,0.457,0.579,1.075,0.579,1.856c0,1.052-0.366,1.876-1.104,2.471c-0.73,0.597-1.756,0.894-3.062,0.894h-4.229V13.815H174.568
		z M176.484,18.655h1.846c0.801,0,1.385-0.127,1.752-0.381c0.37-0.253,0.555-0.685,0.555-1.294c0-0.55-0.199-0.948-0.596-1.194
		s-1.031-0.369-1.896-0.369h-1.656L176.484,18.655L176.484,18.655z M176.484,20.21v3.71h2.035c0.804,0,1.405-0.154,1.813-0.461
		s0.612-0.792,0.612-1.455c0-0.608-0.207-1.06-0.627-1.354c-0.416-0.293-1.049-0.44-1.897-0.44H176.484z"/>
	<path fill="#001689" d="M189.074,25.689c-1.379,0-2.457-0.4-3.234-1.206c-0.775-0.805-1.164-1.911-1.164-3.321
		c0-1.448,0.359-2.586,1.082-3.414s1.711-1.242,2.973-1.242c1.172,0,2.095,0.355,2.771,1.066c0.68,0.71,1.02,1.688,1.02,2.933v1.018
		h-5.905c0.028,0.86,0.262,1.521,0.696,1.982c0.438,0.462,1.06,0.693,1.853,0.693c0.524,0,1.012-0.049,1.465-0.148
		c0.449-0.099,0.937-0.263,1.453-0.493v1.53c-0.459,0.219-0.927,0.374-1.396,0.465C190.215,25.645,189.678,25.689,189.074,25.689z
		 M188.729,17.934c-0.598,0-1.074,0.19-1.438,0.569c-0.361,0.379-0.576,0.932-0.646,1.658h4.021
		c-0.012-0.731-0.188-1.286-0.527-1.662C189.797,18.122,189.33,17.934,188.729,17.934z"/>
	<path fill="#001689" d="M197.961,24.168c0.461,0,0.92-0.072,1.377-0.217v1.418c-0.209,0.091-0.475,0.166-0.803,0.229
		s-0.672,0.092-1.025,0.092c-1.781,0-2.676-0.938-2.676-2.82v-4.776h-1.209v-0.833l1.297-0.689l0.646-1.875h1.158v1.971h2.525v1.426
		h-2.525v4.744c0,0.454,0.115,0.789,0.342,1.005C197.295,24.06,197.592,24.168,197.961,24.168z"/>
	<path fill="#001689" d="M206.654,25.529l-0.377-1.233h-0.064c-0.426,0.54-0.855,0.907-1.289,1.103
		c-0.433,0.193-0.986,0.291-1.668,0.291c-0.869,0-1.549-0.234-2.037-0.705c-0.486-0.471-0.732-1.135-0.732-1.996
		c0-0.913,0.341-1.602,1.021-2.066c0.679-0.465,1.711-0.719,3.103-0.762l1.531-0.047v-0.473c0-0.566-0.136-0.99-0.396-1.271
		c-0.266-0.28-0.676-0.421-1.23-0.421c-0.455,0-0.889,0.067-1.307,0.201c-0.418,0.133-0.816,0.292-1.201,0.473l-0.607-1.347
		c0.479-0.25,1.006-0.441,1.576-0.572c0.572-0.131,1.111-0.196,1.619-0.196c1.127,0,1.979,0.245,2.555,0.737
		c0.572,0.492,0.859,1.264,0.859,2.316v5.97L206.654,25.529L206.654,25.529z M203.85,24.248c0.686,0,1.234-0.191,1.646-0.573
		c0.415-0.382,0.622-0.918,0.622-1.607v-0.769l-1.14,0.048c-0.887,0.032-1.53,0.18-1.934,0.445
		c-0.404,0.264-0.607,0.669-0.607,1.214c0,0.395,0.115,0.701,0.354,0.917C203.027,24.14,203.381,24.248,203.85,24.248z"/>
</g>
<g>
	<g>
		<path fill="#06287B" d="M67.4,39.726c-1.833,0-3.418-0.312-4.753-0.935c-1.336-0.623-2.434-1.485-3.294-2.586
			c-0.859-1.102-1.499-2.401-1.917-3.904c-0.419-1.5-0.628-3.138-0.628-4.92c0-1.779,0.209-3.431,0.628-4.954
			s1.058-2.841,1.917-3.954c0.86-1.112,1.958-1.979,3.294-2.603c1.335-0.621,2.919-0.933,4.753-0.933s3.418,0.312,4.753,0.933
			c1.336,0.624,2.433,1.491,3.295,2.603c0.859,1.113,1.499,2.431,1.917,3.954c0.418,1.523,0.629,3.175,0.629,4.954
			c0,1.782-0.21,3.42-0.629,4.92c-0.418,1.503-1.058,2.803-1.917,3.904c-0.862,1.101-1.959,1.963-3.295,2.586
			C70.818,39.414,69.233,39.726,67.4,39.726z M67.4,35.655c3.509,0,5.263-2.758,5.263-8.274c0-2.757-0.425-4.826-1.272-6.205
			c-0.85-1.379-2.168-2.068-3.956-2.068c-3.554,0-5.332,2.758-5.332,8.273C62.103,32.897,63.87,35.655,67.4,35.655z"/>
		<path fill="#06287B" d="M81.084,21.724c0.316-0.068,0.632-0.12,0.95-0.152c0.317-0.034,0.667-0.052,1.053-0.052
			c0.384,0,0.724,0.018,1.018,0.052c0.294,0.033,0.6,0.084,0.917,0.152c0.068,0.114,0.13,0.279,0.187,0.494
			c0.056,0.216,0.106,0.442,0.152,0.681c0.045,0.239,0.085,0.471,0.12,0.699c0.033,0.226,0.062,0.42,0.085,0.579
			c0.225-0.341,0.498-0.681,0.815-1.021c0.317-0.34,0.684-0.647,1.103-0.92c0.419-0.271,0.889-0.494,1.41-0.663
			c0.52-0.171,1.097-0.256,1.73-0.256c1.992,0,3.493,0.545,4.499,1.634c1.008,1.089,1.511,2.804,1.511,5.142v11.234
			c-0.814,0.136-1.618,0.204-2.41,0.204c-0.793,0-1.596-0.068-2.412-0.204v-9.941c0-1.226-0.187-2.167-0.56-2.825
			c-0.373-0.658-1.024-0.987-1.952-0.987c-0.384,0-0.781,0.056-1.188,0.17c-0.408,0.114-0.775,0.335-1.103,0.664
			c-0.328,0.329-0.595,0.79-0.797,1.379c-0.205,0.59-0.306,1.362-0.306,2.315v9.226c-0.816,0.136-1.619,0.204-2.412,0.204
			c-0.793,0-1.595-0.068-2.41-0.204V21.724z"/>
		<path fill="#06287B" d="M97.188,18c0.383-0.04,0.827-0.079,1.326-0.12c0.495-0.04,0.936-0.06,1.321-0.06
			c0.861,0,1.766,0.06,2.719,0.18l5.342,16.326L113.283,18c0.451-0.06,0.887-0.1,1.305-0.12c0.419-0.02,0.844-0.029,1.275-0.029
			c0.407,0,0.819,0.01,1.239,0.029c0.418,0.021,0.854,0.061,1.309,0.12l-7.878,21.542c-0.475,0.06-0.935,0.104-1.375,0.134
			c-0.441,0.03-0.913,0.045-1.409,0.045c-0.453,0-0.895-0.015-1.323-0.045c-0.431-0.029-0.906-0.074-1.428-0.134L97.188,18z"/>
		<path fill="#06287B" d="M126.182,39.733c-1.424,0-2.665-0.231-3.716-0.699c-1.054-0.464-1.924-1.109-2.615-1.94
			c-0.689-0.826-1.211-1.796-1.562-2.908c-0.35-1.111-0.524-2.316-0.524-3.609c0-1.294,0.175-2.507,0.524-3.644
			c0.352-1.134,0.873-2.116,1.562-2.944c0.691-0.828,1.562-1.481,2.615-1.958c1.051-0.477,2.292-0.715,3.716-0.715
			c1.429,0,2.672,0.238,3.735,0.715c1.065,0.477,1.948,1.13,2.651,1.958c0.702,0.829,1.221,1.81,1.561,2.944
			c0.34,1.137,0.51,2.35,0.51,3.644c0,1.293-0.17,2.498-0.51,3.609c-0.34,1.112-0.858,2.082-1.561,2.908
			c-0.703,0.831-1.586,1.477-2.651,1.94C128.854,39.502,127.61,39.733,126.182,39.733z M126.182,36.057
			c1.27,0,2.18-0.47,2.735-1.412c0.555-0.943,0.832-2.299,0.832-4.068c0-1.771-0.277-3.126-0.832-4.068
			c-0.556-0.942-1.466-1.413-2.735-1.413c-1.242,0-2.144,0.47-2.697,1.413c-0.555,0.942-0.831,2.298-0.831,4.068
			c0,1.77,0.276,3.125,0.831,4.068C124.038,35.587,124.939,36.057,126.182,36.057z"/>
		<path fill="#06287B" d="M135.153,22.049c0.52-0.113,0.978-0.176,1.375-0.187c0.396-0.012,0.763-0.017,1.104-0.017
			c0.454,0,0.915,0.011,1.392,0.033c0.475,0.023,0.905,0.08,1.29,0.171l3.698,13.716l4.109-13.716
			c0.749-0.137,1.519-0.204,2.312-0.204c0.338,0,0.702,0.005,1.086,0.017c0.383,0.011,0.857,0.074,1.426,0.187l-6.555,21.755
			c-0.271,0.861-0.593,1.576-0.965,2.146c-0.376,0.565-0.798,1.008-1.274,1.327c-0.476,0.315-1.007,0.538-1.596,0.663
			s-1.223,0.188-1.902,0.188c-0.635,0-1.205-0.041-1.714-0.119c-0.51-0.082-1.015-0.188-1.511-0.325
			c-0.023-0.112-0.034-0.208-0.034-0.288c0-0.081,0-0.167,0-0.255c0-0.546,0.062-1.062,0.187-1.551
			c0.124-0.488,0.275-0.958,0.459-1.413c0.203,0.068,0.475,0.131,0.812,0.188c0.341,0.058,0.68,0.087,1.021,0.087
			c0.27,0,0.545-0.018,0.815-0.054c0.271-0.033,0.537-0.137,0.795-0.304c0.263-0.171,0.507-0.439,0.731-0.801
			c0.227-0.365,0.432-0.873,0.611-1.533l0.576-2.109c-0.247,0.021-0.525,0.038-0.83,0.05c-0.306,0.011-0.617,0.017-0.933,0.017
			c-0.25,0-0.488,0-0.715,0s-0.432-0.023-0.61-0.066L135.153,22.049z"/>
		<path fill="#06287B" d="M163.657,27.75c0-0.545-0.091-0.987-0.272-1.327c-0.181-0.341-0.429-0.608-0.746-0.8
			c-0.318-0.192-0.708-0.324-1.172-0.391c-0.463-0.069-0.978-0.102-1.543-0.102c-1.224,0-2.525,0.238-3.905,0.714
			c-0.317-0.59-0.556-1.146-0.712-1.667c-0.16-0.521-0.238-1.146-0.238-1.874c0.994-0.339,1.991-0.589,2.987-0.749
			c0.996-0.158,1.925-0.238,2.781-0.238c2.357,0,4.194,0.568,5.519,1.703c1.325,1.135,1.988,2.951,1.988,5.446v10.215
			c-0.793,0.249-1.756,0.487-2.888,0.716c-1.132,0.226-2.41,0.339-3.834,0.339c-1.157,0-2.216-0.103-3.177-0.306
			c-0.963-0.205-1.787-0.545-2.478-1.021c-0.69-0.479-1.223-1.091-1.596-1.839c-0.374-0.749-0.561-1.669-0.561-2.758
			s0.233-2.003,0.697-2.741c0.461-0.737,1.061-1.325,1.798-1.77c0.735-0.443,1.557-0.76,2.46-0.953
			c0.908-0.192,1.813-0.29,2.719-0.29c0.655,0,1.381,0.035,2.172,0.103V27.75z M163.657,31.258
			c-0.272-0.048-0.565-0.086-0.882-0.121c-0.317-0.033-0.602-0.051-0.849-0.051c-1.109,0-1.986,0.198-2.631,0.597
			c-0.646,0.397-0.97,1.038-0.97,1.924c0,0.589,0.124,1.044,0.374,1.361c0.249,0.317,0.549,0.551,0.899,0.697
			c0.352,0.147,0.725,0.238,1.12,0.272c0.396,0.035,0.742,0.053,1.036,0.053c0.34,0,0.68-0.03,1.02-0.087
			c0.34-0.056,0.632-0.106,0.882-0.152V31.258z"/>
	</g>
</g>
</svg>
