<?xml version="1.0" encoding="utf-8"?>
<!-- Generator: Adobe Illustrator 16.0.4, SVG Export Plug-In . SVG Version: 6.00 Build 0)  -->
<!DOCTYPE svg PUBLIC "-//W3C//DTD SVG 1.1//EN" "http://www.w3.org/Graphics/SVG/1.1/DTD/svg11.dtd">
<svg version="1.1" id="Layer_1" xmlns="http://www.w3.org/2000/svg" xmlns:xlink="http://www.w3.org/1999/xlink" x="0px" y="0px"
	 width="128px" height="155px" viewBox="0 0 128 155" enable-background="new 0 0 128 155" xml:space="preserve">
<g>
	<g>
		<path fill="#FFFFFF" d="M48.708,150.596c-5.603,0-10.543-3.365-12.586-8.573L5.65,64.412c-2.723-6.93,0.701-14.787,7.633-17.514
			l18.361-7.206l-1.479-15.174c-0.347-3.595,0.724-7.107,3.017-9.893c2.288-2.786,5.528-4.514,9.123-4.865l57.282-5.576
			c0.445-0.043,0.891-0.065,1.333-0.065c3.107,0,6.146,1.092,8.556,3.075c2.787,2.291,4.515,5.532,4.864,9.125l8.079,82.983
			c0.539,5.517-2.325,10.704-7.109,13.235c0.801,2.953,0.575,6.064-0.665,8.911c-1.444,3.312-4.088,5.86-7.444,7.177l-53.567,21.034
			c-0.575,0.224-1.159,0.407-1.744,0.552C50.844,150.468,49.776,150.596,48.708,150.596
			C48.708,150.596,48.708,150.596,48.708,150.596z"/>
		<path fill="#FFFFFF" d="M100.919,6.121c2.655,0,5.209,0.911,7.285,2.62c2.376,1.953,3.847,4.715,4.145,7.775l8.079,82.983
			c0.52,5.325-2.719,10.223-7.608,11.955l0.155,0.391c2.324,5.91-0.595,12.604-6.506,14.922l-53.567,21.035
			c-0.494,0.191-0.991,0.348-1.491,0.471c-0.899,0.219-1.805,0.324-2.702,0.324c-4.597,0-8.947-2.771-10.725-7.304L7.512,63.681
			c-2.32-5.905,0.595-12.597,6.503-14.921l19.767-7.758l-1.626-16.677c-0.296-3.062,0.617-6.055,2.57-8.428
			c1.954-2.379,4.716-3.847,7.772-4.145l57.281-5.576C100.161,6.139,100.541,6.121,100.919,6.121 M100.919,2.121
			c-0.507,0-1.021,0.025-1.529,0.075L42.11,7.771c-4.126,0.402-7.847,2.386-10.476,5.587c-2.629,3.194-3.859,7.227-3.46,11.351
			l1.333,13.673l-16.954,6.654c-7.96,3.132-11.891,12.151-8.764,20.108l30.471,77.61c2.345,5.979,8.016,9.842,14.448,9.842
			c1.227,0,2.454-0.147,3.648-0.438c0.678-0.167,1.344-0.377,1.99-0.627l53.584-21.042c3.853-1.512,6.889-4.438,8.546-8.239
			c1.216-2.789,1.582-5.801,1.093-8.729c4.689-3.112,7.406-8.602,6.84-14.411l-8.079-82.982c-0.402-4.125-2.386-7.847-5.586-10.477
			C107.979,3.375,104.489,2.121,100.919,2.121L100.919,2.121z"/>
	</g>
	<path fill="#00AAE7" d="M51.41,148.271c-5.503,1.339-11.302-1.562-13.427-6.979L7.512,63.681
		c-2.32-5.905,0.595-12.597,6.503-14.921l19.767-7.758l-1.626-16.677c-0.296-3.062,0.617-6.055,2.57-8.428
		c1.954-2.379,4.716-3.847,7.772-4.145l57.281-5.576c3.058-0.299,6.053,0.612,8.425,2.564c2.376,1.953,3.847,4.715,4.145,7.775
		l8.079,82.983c0.52,5.325-2.719,10.223-7.608,11.955l0.155,0.391c2.324,5.91-0.595,12.604-6.506,14.922l0,0l-53.567,21.035
		C52.407,147.992,51.91,148.148,51.41,148.271z M69.886,30.544c-0.355,0.086-0.718,0.199-1.062,0.337L15.255,51.91
		c-4.17,1.643-6.231,6.366-4.595,10.535l30.474,77.611c1.632,4.168,6.358,6.228,10.529,4.593l53.572-21.034
		c4.17-1.637,6.231-6.36,4.592-10.534l-0.848-2.15c-0.002-0.006-0.002-0.012-0.006-0.018L79.353,35.47
		c-0.795-2.018-2.326-3.61-4.312-4.475C73.396,30.275,71.599,30.128,69.886,30.544z M82.504,34.234l29.084,74.06
		c3.507-1.185,5.839-4.675,5.474-8.464l-8.082-82.988c-0.206-2.16-1.249-4.106-2.924-5.488c-1.678-1.375-3.785-2.018-5.948-1.811
		l0,0l-57.279,5.58c-2.159,0.207-4.11,1.248-5.489,2.92c-1.379,1.68-2.021,3.79-1.812,5.948l1.531,15.72l30.529-11.986
		c2.863-1.118,5.99-1.066,8.805,0.163C79.213,29.119,81.384,31.374,82.504,34.234z M65.806,110.848
		c-5.507,1.341-11.265,0.851-16.55-1.453c-6.391-2.789-11.31-7.893-13.857-14.383c-2.548-6.488-2.416-13.582,0.369-19.965
		c2.669-6.126,7.477-10.905,13.589-13.531c0.101-0.048,0.195-0.097,0.299-0.134c0.043-0.017,0.098-0.035,0.138-0.052
		c0.121-0.047,0.241-0.092,0.356-0.14l0,0c0,0,0.006-0.001,0.008-0.008c6.488-2.537,13.578-2.407,19.96,0.376
		c6.388,2.783,11.312,7.893,13.86,14.383l0,0l0,0c2.548,6.488,2.41,13.582-0.373,19.965c-2.786,6.391-7.89,11.313-14.378,13.863
		c-0.124,0.042-0.239,0.087-0.359,0.136c-0.046,0.016-0.09,0.039-0.141,0.057c-0.098,0.037-0.198,0.073-0.302,0.104
		C67.56,110.373,66.687,110.633,65.806,110.848z M61.392,101.15c2.733,3.949,4.997,5.76,5.938,5.693
		c0.084-0.027,0.17-0.054,0.257-0.079c0.761-0.5,1.226-3.391,0.527-8.258L61.392,101.15z M55.312,103.533
		c0.341,0.272,0.69,0.538,1.047,0.782c1.746,1.23,3.511,2.079,5.233,2.539c-1.157-1.225-2.314-2.732-3.446-4.433L55.312,103.533z
		 M71.354,97.236c0.402,2.438,0.577,4.691,0.459,6.618c1.758-2.036,2.91-4.859,3.398-8.135L71.354,97.236z M49.546,105.798
		c0.351,0.174,0.704,0.335,1.061,0.496c1.585,0.687,3.219,1.192,4.876,1.506c-0.355-0.228-0.718-0.464-1.073-0.716
		c-0.92-0.643-1.807-1.361-2.665-2.151L49.546,105.798z M78.71,94.35c-0.136,1.653-0.41,3.239-0.824,4.727
		c1.031-1.385,1.91-2.9,2.616-4.523c0.158-0.357,0.305-0.719,0.438-1.083L78.71,94.35z M39.227,95.328
		c1.568,3.273,3.868,6.081,6.724,8.242l3.258-1.273c-2.149-2.52-3.999-5.479-5.446-8.748L39.227,95.328z M46.912,92.311
		c1.485,3.309,3.412,6.261,5.649,8.67l3.783-1.487c-1.617-2.806-3.14-5.947-4.464-9.138L46.912,92.311z M55.031,89.117
		c1.503,3.624,3.04,6.654,4.499,9.124l7.964-3.126c-0.605-2.811-1.543-6.077-2.903-9.746L55.031,89.117z M67.741,84.133
		c1.201,3.238,2.221,6.567,2.95,9.729l4.778-1.88c-0.011-3.208-0.585-6.689-1.77-10.19L67.741,84.133z M76.849,80.555
		c1.181,3.436,1.812,6.866,1.936,10.125l3.28-1.284c0.624-3.526,0.399-7.153-0.675-10.62L76.849,80.555z M37.238,81.984
		c-0.537,3.391-0.286,6.865,0.75,10.192l4.535-1.778c-1.131-3.299-1.757-6.598-1.918-9.734L37.238,81.984z M43.911,79.366
		c0.051,3.102,0.629,6.438,1.769,9.794l4.964-1.956c-1.194-3.222-2.157-6.396-2.852-9.36L43.911,79.366z M50.974,76.594
		c0.66,2.941,1.62,6.123,2.82,9.373l9.559-3.748c-1.436-3.464-2.904-6.384-4.309-8.796L50.974,76.594z M62.229,72.172
		c1.545,2.72,3.002,5.74,4.276,8.811l5.957-2.342c-1.428-3.179-3.26-6.021-5.376-8.373L62.229,72.172z M70.419,68.955
		c2.044,2.449,3.805,5.31,5.195,8.449l4.537-1.78c-1.511-3.146-3.689-5.855-6.391-7.982L70.419,68.955z M41.49,71.877
		c-1.031,1.383-1.91,2.898-2.616,4.522c-0.228,0.507-0.432,1.026-0.609,1.546l2.366-0.932C40.755,75.213,41.042,73.485,41.49,71.877
		z M46.541,68.473c-1.254,1.956-2.079,4.415-2.435,7.177l3.001-1.175c-0.178-1.012-0.31-1.991-0.404-2.926
		C46.584,70.432,46.533,69.407,46.541,68.473z M50.795,64.593c-0.418,0.356-1.191,2.031-0.726,6.611
		c0.062,0.647,0.152,1.319,0.253,2.004l6.888-2.7c-2.898-4.265-5.3-6.168-6.223-6.004C50.922,64.531,50.859,64.565,50.795,64.593z
		 M56.086,63.768c1.465,1.398,2.935,3.281,4.362,5.469l3.95-1.551c-0.451-0.372-0.914-0.724-1.382-1.056
		C60.689,64.999,58.329,64.029,56.086,63.768z M63.887,63.147c0.362,0.225,0.718,0.464,1.078,0.714
		c1.03,0.726,2.019,1.538,2.969,2.434l2.332-0.918c-0.488-0.253-0.988-0.493-1.502-0.718C67.179,63.967,65.547,63.466,63.887,63.147
		z"/>
</g>
</svg>
