<?xml version="1.0" encoding="utf-8"?>
<!-- Generator: Adobe Illustrator 16.0.4, SVG Export Plug-In . SVG Version: 6.00 Build 0)  -->
<!DOCTYPE svg PUBLIC "-//W3C//DTD SVG 1.1//EN" "http://www.w3.org/Graphics/SVG/1.1/DTD/svg11.dtd">
<svg version="1.1" id="Layer_1" xmlns="http://www.w3.org/2000/svg" xmlns:xlink="http://www.w3.org/1999/xlink" x="0px" y="0px"
	 width="50px" height="50px" viewBox="0 0 50 50" enable-background="new 0 0 50 50" xml:space="preserve">
<g>
	<path fill="#062868" d="M27.244,18.635c-0.447,0-0.73,0.07-0.85,0.212c-0.118,0.142-0.178,0.445-0.178,0.911v1.204h2.971
		c0.146,0,0.27,0.055,0.37,0.165c0.101,0.118,0.146,0.251,0.137,0.396l-0.191,2.738c-0.019,0.137-0.075,0.253-0.171,0.35
		c-0.096,0.096-0.213,0.144-0.35,0.144h-2.766V35.27c0,0.146-0.051,0.27-0.15,0.37c-0.101,0.1-0.219,0.15-0.356,0.15h-3.423
		c-0.146,0-0.27-0.051-0.37-0.15c-0.101-0.101-0.151-0.225-0.151-0.37V24.755h-1.67c-0.146,0-0.27-0.053-0.37-0.157
		c-0.1-0.105-0.15-0.23-0.15-0.377v-2.738c0-0.146,0.05-0.27,0.15-0.369c0.101-0.101,0.224-0.151,0.37-0.151h1.67v-1.41
		c0-1.615,0.402-2.817,1.205-3.607c0.803-0.789,2.021-1.185,3.655-1.185c1.096,0,2.123,0.138,3.081,0.411
		c0.128,0.036,0.228,0.109,0.302,0.219c0.072,0.109,0.1,0.229,0.082,0.356l-0.37,2.67c-0.019,0.146-0.091,0.265-0.219,0.355
		c-0.128,0.082-0.265,0.109-0.411,0.082C28.398,18.708,27.782,18.635,27.244,18.635z"/>
</g>
</svg>
