<?xml version="1.0" encoding="utf-8"?>
<!-- Generator: Adobe Illustrator 16.0.4, SVG Export Plug-In . SVG Version: 6.00 Build 0)  -->
<!DOCTYPE svg PUBLIC "-//W3C//DTD SVG 1.1//EN" "http://www.w3.org/Graphics/SVG/1.1/DTD/svg11.dtd">
<svg version="1.1" id="Layer_1" xmlns="http://www.w3.org/2000/svg" xmlns:xlink="http://www.w3.org/1999/xlink" x="0px" y="0px"
	 width="50px" height="50px" viewBox="0 0 50 50" enable-background="new 0 0 50 50" xml:space="preserve">
<g>
	<path fill="#062868" d="M37.861,18.58c0,0.092-0.022,0.174-0.068,0.247c-0.584,0.949-1.4,1.816-2.451,2.602v0.451
		c0.037,2.072-0.42,4.158-1.369,6.257c-1.223,2.711-3.037,4.831-5.441,6.359c-2.405,1.529-5.105,2.294-8.099,2.294
		c-2.419,0-4.7-0.557-6.846-1.671c-0.584-0.301-0.981-0.529-1.19-0.685c-0.138-0.109-0.206-0.232-0.206-0.369
		c0-0.119,0.044-0.222,0.13-0.309c0.087-0.086,0.189-0.13,0.309-0.13c0.127,0,0.328,0.012,0.602,0.034
		c0.274,0.023,0.479,0.034,0.617,0.034c1.861,0,3.572-0.483,5.134-1.451c-0.94-0.219-1.767-0.657-2.478-1.314
		c-0.713-0.657-1.219-1.446-1.521-2.368c-0.019-0.073-0.027-0.123-0.027-0.15c0-0.11,0.041-0.208,0.123-0.295
		c0.083-0.087,0.183-0.13,0.302-0.13c0.045,0,0.109,0.009,0.191,0.027s0.137,0.027,0.164,0.027
		c-0.812-0.502-1.461-1.173-1.943-2.013c-0.484-0.84-0.727-1.734-0.727-2.684c0-0.137,0.053-0.253,0.158-0.349
		c0.104-0.096,0.23-0.144,0.376-0.144c0.091,0,0.251,0.052,0.479,0.157c0.229,0.104,0.365,0.166,0.41,0.185
		c-0.84-1.004-1.26-2.172-1.26-3.505c0-0.466,0.066-0.958,0.199-1.479c0.132-0.521,0.316-0.954,0.555-1.301
		c0.091-0.146,0.205-0.219,0.342-0.219c0.146,0,0.27,0.055,0.369,0.164c0.694,0.767,1.196,1.292,1.507,1.574
		c1.122,1.014,2.382,1.823,3.778,2.431c1.396,0.606,2.844,0.975,4.34,1.102c-0.036-0.191-0.055-0.415-0.055-0.671
		c0-1.523,0.541-2.827,1.623-3.908c1.082-1.082,2.385-1.623,3.908-1.623c1.488,0,2.775,0.521,3.861,1.562
		c0.867-0.183,1.821-0.557,2.861-1.123c0.073-0.046,0.146-0.068,0.219-0.068c0.119,0,0.222,0.043,0.309,0.13
		c0.086,0.087,0.13,0.189,0.13,0.308c0,0.22-0.128,0.553-0.384,1c-0.255,0.447-0.488,0.794-0.697,1.04
		c0.063-0.018,0.2-0.065,0.41-0.144c0.21-0.077,0.406-0.15,0.589-0.219s0.292-0.103,0.329-0.103c0.118,0,0.221,0.043,0.308,0.13
		S37.861,18.462,37.861,18.58z"/>
</g>
</svg>
