<?xml version="1.0" encoding="utf-8"?>
<!-- Generator: Adobe Illustrator 16.0.4, SVG Export Plug-In . SVG Version: 6.00 Build 0)  -->
<!DOCTYPE svg PUBLIC "-//W3C//DTD SVG 1.1//EN" "http://www.w3.org/Graphics/SVG/1.1/DTD/svg11.dtd">
<svg version="1.1" id="Layer_1" xmlns="http://www.w3.org/2000/svg" xmlns:xlink="http://www.w3.org/1999/xlink" x="0px" y="0px"
	 width="50px" height="50px" viewBox="0 0 50 50" enable-background="new 0 0 50 50" xml:space="preserve">
<g>
	<g>
		<path fill="#062868" d="M24.858,12.284c-3.492,0-3.93,0.015-5.301,0.077c-1.369,0.062-2.305,0.28-3.123,0.598
			c-0.846,0.329-1.562,0.768-2.277,1.483c-0.715,0.715-1.156,1.432-1.482,2.278c-0.318,0.818-0.537,1.753-0.6,3.122
			c-0.062,1.372-0.076,1.81-0.076,5.302s0.014,3.931,0.076,5.302c0.062,1.369,0.281,2.304,0.6,3.122
			c0.326,0.846,0.768,1.563,1.482,2.278s1.432,1.154,2.277,1.482c0.818,0.318,1.754,0.536,3.123,0.599
			c1.371,0.062,1.809,0.077,5.301,0.077c3.494,0,3.932-0.015,5.305-0.077c1.367-0.062,2.303-0.28,3.121-0.599
			c0.846-0.328,1.562-0.768,2.277-1.482s1.154-1.433,1.484-2.278c0.316-0.818,0.533-1.753,0.596-3.122
			c0.064-1.371,0.078-1.81,0.078-5.302s-0.014-3.931-0.078-5.302c-0.062-1.369-0.279-2.304-0.596-3.122
			c-0.33-0.846-0.77-1.563-1.484-2.278c-0.715-0.715-1.432-1.155-2.277-1.483c-0.818-0.318-1.754-0.536-3.121-0.598
			C28.79,12.299,28.353,12.284,24.858,12.284 M24.858,14.601c3.436,0,3.842,0.014,5.197,0.075c1.254,0.057,1.936,0.267,2.389,0.443
			c0.6,0.233,1.027,0.512,1.479,0.962c0.451,0.45,0.729,0.878,0.963,1.479c0.176,0.452,0.385,1.134,0.443,2.388
			c0.061,1.356,0.074,1.763,0.074,5.197s-0.014,3.841-0.074,5.197c-0.059,1.254-0.268,1.936-0.443,2.388
			c-0.234,0.601-0.512,1.029-0.963,1.479c-0.451,0.449-0.879,0.729-1.479,0.961c-0.453,0.177-1.135,0.387-2.389,0.443
			c-1.355,0.062-1.762,0.075-5.197,0.075c-3.434,0-3.84-0.013-5.195-0.075c-1.254-0.057-1.936-0.267-2.389-0.443
			c-0.6-0.232-1.029-0.512-1.479-0.961c-0.449-0.45-0.729-0.879-0.963-1.479c-0.176-0.452-0.385-1.134-0.441-2.388
			c-0.062-1.355-0.076-1.763-0.076-5.197s0.014-3.841,0.076-5.197c0.057-1.254,0.266-1.936,0.441-2.388
			c0.234-0.601,0.514-1.029,0.963-1.479c0.449-0.45,0.879-0.729,1.479-0.962c0.453-0.177,1.135-0.386,2.389-0.443
			C21.019,14.615,21.425,14.601,24.858,14.601"/>
	</g>
	<path fill="#062868" d="M24.858,29.432c-2.365,0-4.287-1.919-4.287-4.287s1.922-4.287,4.287-4.287c2.369,0,4.287,1.919,4.287,4.287
		S27.228,29.432,24.858,29.432 M24.858,18.541c-3.646,0-6.604,2.958-6.604,6.604s2.957,6.604,6.604,6.604
		c3.648,0,6.605-2.957,6.605-6.604S28.507,18.541,24.858,18.541"/>
	<path fill="#062868" d="M33.269,18.28c0,0.852-0.691,1.542-1.545,1.542c-0.852,0-1.543-0.69-1.543-1.542
		c0-0.853,0.691-1.544,1.543-1.544C32.577,16.736,33.269,17.427,33.269,18.28"/>
</g>
</svg>
