<?xml version="1.0" encoding="utf-8"?>
<!-- Generator: Adobe Illustrator 16.0.4, SVG Export Plug-In . SVG Version: 6.00 Build 0)  -->
<!DOCTYPE svg PUBLIC "-//W3C//DTD SVG 1.1//EN" "http://www.w3.org/Graphics/SVG/1.1/DTD/svg11.dtd">
<svg version="1.1" id="Layer_1" xmlns="http://www.w3.org/2000/svg" xmlns:xlink="http://www.w3.org/1999/xlink" x="0px" y="0px"
	 width="639px" height="490px" viewBox="50.5 -13 639 490" enable-background="new 50.5 -13 639 490" xml:space="preserve">
<g>
	<g>
		<g>
			<path fill="#1BA8E1" d="M626.693,335.113l-0.683-0.149L112.495,221.285l0.151-0.68L160.835,2.917l0.684,0.151l513.515,113.677
				l-0.149,0.683L626.693,335.113z M114.163,220.221l511.463,113.223l47.737-215.639L161.898,4.583L114.163,220.221z"/>
		</g>
	</g>
</g>
<g>
	<path fill="#1BA8E1" d="M581.82,245.185c-0.043-0.002-0.086-0.009-0.13-0.02c-0.256-0.062-0.453-0.261-0.512-0.515
		c-0.322-1.339-0.187-3.396,0.302-4.586l4.178-10.185c0.166-0.399,0.119-0.853-0.119-1.213c-3.841-5.777-9.079-14.639-9.125-14.716
		c-0.572-0.967-1.471-1.631-2.528-1.866c-1.129-0.251-2.333,0.041-3.277,0.783l-28.308,22.249c-0.196,0.156-0.468,0.192-0.696,0.098
		c-0.233-0.096-0.397-0.309-0.429-0.559l-0.494-3.846c-0.165-1.275,0.431-3.25,1.274-4.224l24.866-28.674
		c0.335-0.385,0.412-0.932,0.199-1.394c-4.362-9.505-3.99-17.695-0.928-19.103c0.57-0.262,1.229-0.312,2.021-0.137
		c3.191,0.707,8.093,5.09,11.86,13.292c0.168,0.368,0.505,0.64,0.9,0.727c0.066,0.015,0.137,0.025,0.208,0.029l38.031-0.173
		c0.256-0.001,0.568,0.034,0.901,0.109c1.194,0.264,2.484,0.953,3.136,1.677l2.594,2.881c0.17,0.187,0.224,0.45,0.146,0.689
		c-0.079,0.239-0.283,0.417-0.528,0.466l-35.33,6.973c-1.139,0.225-2.112,0.907-2.669,1.87c-0.556,0.961-0.661,2.145-0.288,3.245
		c0.587,1.73,3.508,10.433,5.212,16.503c0.119,0.416,0.435,0.746,0.846,0.882l10.453,3.465c1.22,0.404,2.867,1.642,3.672,2.758
		c0.151,0.212,0.173,0.49,0.058,0.725c-0.118,0.233-0.355,0.382-0.616,0.386l-10.787,0.138c-0.381,0.004-0.739,0.176-0.983,0.469
		c-0.243,0.292-0.347,0.675-0.282,1.051c0.238,1.391,0.37,2.561,0.393,3.476c0.008,0.279-0.153,0.536-0.407,0.652
		c-0.251,0.118-0.553,0.072-0.761-0.116c-0.676-0.609-1.479-1.473-2.383-2.562c-0.181-0.223-0.438-0.379-0.718-0.44
		c-0.067-0.015-0.14-0.025-0.209-0.029c-0.435-0.007-0.795,0.153-1.048,0.439l-7.134,8.093
		C582.241,245.111,582.032,245.196,581.82,245.185z M573.365,210.604c0.275,0.016,0.556,0.053,0.828,0.113
		c1.438,0.319,2.658,1.215,3.432,2.525c0.052,0.086,5.322,8.996,9.082,14.649c0.494,0.749,0.589,1.69,0.248,2.519l-4.18,10.185
		c-0.221,0.541-0.35,1.391-0.365,2.209l6.06-6.875c0.522-0.594,1.277-0.927,2.068-0.914c0.01,0,0.1,0.004,0.106,0.004
		c0.146,0.008,0.292,0.028,0.435,0.06c0.583,0.129,1.115,0.454,1.496,0.915c0.318,0.383,0.621,0.735,0.908,1.057
		c-0.057-0.428-0.126-0.887-0.21-1.379c-0.132-0.779,0.082-1.574,0.586-2.182c0.51-0.608,1.252-0.963,2.042-0.973l9.162-0.117
		c-0.628-0.521-1.355-0.976-1.913-1.159l-10.454-3.466c-0.853-0.283-1.506-0.968-1.75-1.833c-1.695-6.037-4.608-14.709-5.175-16.386
		c-0.52-1.529-0.371-3.13,0.387-4.442c0.76-1.312,2.075-2.24,3.61-2.543l34.117-6.734l-1.769-1.965
		c-0.46-0.509-1.492-1.045-2.398-1.246c-0.179-0.04-0.346-0.065-0.491-0.073l-0.102-0.002l-37.954,0.175
		c-0.197,0.002-0.4-0.021-0.595-0.064c-0.82-0.182-1.521-0.746-1.871-1.509c-3.389-7.379-8.044-11.879-10.89-12.509
		c-0.458-0.101-0.84-0.092-1.136,0.043c-1.766,0.811-2.797,7.634,1.616,17.245c0.441,0.96,0.279,2.096-0.414,2.896l-24.867,28.674
		c-0.582,0.67-1.058,2.25-0.943,3.127l0.333,2.624l27.342-21.488C570.793,210.945,572.078,210.532,573.365,210.604z"/>
</g>
<path fill="#FFFFFF" stroke="#D2D5DB" stroke-miterlimit="10" d="M585.079,194.804"/>
<g>
	<g>
		<path fill="#1BA8E1" d="M272.571,115.7l1.635,0.362l1.671-7.553l0.439,0.042c3.749,0.345,6.883-0.124,9.313-1.407
			c2.414-1.275,3.88-3.223,4.486-5.957c0.566-2.559,0.212-4.835-1.053-6.767c-1.3-1.983-4.076-4.194-8.251-6.575l-0.32-0.182
			l3.664-16.548l0.509,0.144c3.603,1.015,6.785,2.479,9.468,4.359l1.161-1.813c-2.872-1.915-6.318-3.423-10.252-4.484l-0.46-0.125
			l1.351-6.105l-1.635-0.362l-1.358,6.134l-0.439-0.041c-3.405-0.316-6.327,0.18-8.661,1.49c-2.326,1.307-3.729,3.177-4.292,5.722
			c-0.391,1.762-0.396,3.34-0.018,4.693c0.377,1.354,1.19,2.652,2.417,3.861c1.256,1.241,3.342,2.686,6.198,4.292l0.323,0.182
			l-3.815,17.231l-0.487-0.108c-1.944-0.432-4.021-1.18-6.172-2.227c-1.852-0.9-3.467-1.85-4.815-2.83l-0.497,2.247
			c1.179,0.859,2.806,1.736,4.842,2.607c2.199,0.941,4.293,1.659,6.226,2.13l0.475,0.116L272.571,115.7z M277.855,106.662
			L277.855,106.662c-0.322-0.018-0.648-0.045-0.982-0.083l-0.553-0.062l3.626-16.383l0.585,0.321
			c2.807,1.541,4.803,3.106,5.931,4.651c1.175,1.606,1.549,3.417,1.115,5.383c-0.496,2.244-1.728,3.92-3.663,4.986
			C282.244,106.394,280.207,106.793,277.855,106.662z M278.984,86.727l-0.586-0.328c-2.586-1.449-4.406-2.952-5.411-4.466
			c-1.037-1.564-1.34-3.36-0.902-5.337c0.423-1.912,1.498-3.424,3.193-4.495c1.673-1.057,3.912-1.478,6.64-1.245l0.57,0.049
			L278.984,86.727z"/>
	</g>
	<g>
		<path fill="#1BA8E1" d="M296.783,117.034l28.527,6.314l0.469-2.119l-25.216-5.582l0.182-0.816l15.01-9.849
			c5.075-3.309,8.757-6.263,10.942-8.779c2.16-2.487,3.593-5.281,4.261-8.301c0.817-3.689,0.33-6.869-1.447-9.451
			c-1.787-2.594-4.7-4.353-8.659-5.229c-4.509-0.999-9.016-0.393-13.421,1.803l0.823,1.72c4.149-1.928,8.224-2.471,12.109-1.612
			c3.06,0.678,5.386,2.174,6.912,4.445c1.531,2.281,1.978,4.929,1.326,7.87c-0.439,1.983-1.211,3.83-2.296,5.491
			c-1.078,1.646-2.573,3.312-4.444,4.956c-1.854,1.627-4.992,3.909-9.327,6.784l-15.273,10.202L296.783,117.034z"/>
	</g>
	<g>
		<path fill="#1BA8E1" d="M333.615,123.249c3.059,2.413,6.929,4.149,11.506,5.162c5.487,1.214,10.006,0.972,13.416-0.722
			c3.374-1.676,5.562-4.67,6.5-8.902c0.689-3.115,0.296-5.833-1.17-8.079c-1.481-2.268-4.036-4.06-7.593-5.328l-0.417-0.148
			l0.23-1.032l0.418,0.017c3.091,0.121,5.765-0.588,7.943-2.109c2.163-1.511,3.571-3.689,4.188-6.473
			c0.793-3.575,0.274-6.627-1.536-9.07c-1.827-2.465-4.883-4.186-9.086-5.116c-2.573-0.571-5.252-0.701-7.966-0.388
			c-2.528,0.292-4.82,0.932-6.823,1.902l0.72,1.641c2.605-0.968,4.938-1.57,6.939-1.789c2.125-0.232,4.409-0.082,6.797,0.445
			c3.114,0.691,5.497,2.095,7.07,4.173c1.596,2.106,2.097,4.573,1.484,7.333c-0.736,3.321-2.544,5.723-5.373,7.141
			c-2.792,1.398-6.243,1.657-10.25,0.771l-4.674-1.034l-0.47,2.119l4.605,1.019c4.807,1.063,8.325,2.761,10.457,5.043
			c2.179,2.335,2.913,5.178,2.188,8.451c-0.806,3.643-2.705,6.23-5.646,7.689c-2.906,1.442-6.829,1.627-11.676,0.558
			c-2.003-0.444-4.112-1.201-6.267-2.248c-1.88-0.915-3.578-1.963-5.055-3.122L333.615,123.249z"/>
	</g>
	<g>
		<path fill="#1BA8E1" d="M393.165,89.378c-3.683-0.206-6.871,1.029-9.476,3.67c-3.275,3.322-5.843,9.104-7.632,17.183
			c-1.752,7.912-1.819,14.23-0.21,18.777c1.605,4.53,4.713,7.247,9.499,8.307c4.916,1.09,9.055-0.015,12.322-3.293
			c3.322-3.332,5.92-9.151,7.724-17.296c1.727-7.801,1.764-14.067,0.109-18.626c-1.646-4.542-4.796-7.269-9.629-8.339
			C394.944,89.556,394.032,89.427,393.165,89.378z M387.833,135.681L387.833,135.681c-0.665-0.037-1.358-0.135-2.061-0.29
			c-4.065-0.9-6.729-3.43-7.918-7.516c-1.158-3.98-0.921-9.729,0.709-17.087c1.552-7.01,3.69-12.214,6.353-15.468
			c2.738-3.342,6.285-4.569,10.53-3.633c4.241,0.94,6.953,3.545,8.061,7.746c1.076,4.084,0.834,9.708-0.718,16.718
			c-1.575,7.117-3.743,12.373-6.441,15.62C394.038,134.551,391.172,135.868,387.833,135.681z"/>
	</g>
</g>
<path fill="#1BA8E1" d="M494.956,290.362c-0.038-0.002-0.075-0.007-0.114-0.015c-0.376-0.084-0.616-0.458-0.531-0.836l40.418-182.58
	c0.084-0.377,0.453-0.619,0.836-0.532c0.377,0.083,0.615,0.458,0.53,0.835l-40.418,182.581
	C495.603,290.155,495.292,290.382,494.956,290.362z"/>
<path fill="#1BA8E1" d="M339.984,211.893l-22.502-4.981l1.028-4.643l8.927,1.976l1.754-7.923l-7.381-1.634
	c-0.882,0.698-2.035,0.981-3.164,0.731c-2.037-0.451-3.329-2.472-2.879-4.506l6.437-29.075l-0.788-1.238
	c-1.118-1.758-0.6-4.098,1.153-5.217c0.672-0.427,1.446-0.63,2.239-0.586c1.214,0.068,2.326,0.719,2.979,1.74l2.475,3.877
	l-5.308,23.979l18.721,4.144c3.924,0.87,5.264,2.753,4.479,6.297c-0.681,3.08-2.444,4.562-5.232,4.406c-0.002,0-0.002,0-0.002,0
	c-0.48-0.027-1.009-0.102-1.564-0.225l-7.515-1.665l-1.754,7.924l8.927,1.977L339.984,211.893z M319.151,205.847l19.767,4.375
	l0.424-1.91l-8.929-1.976l2.359-10.657l8.885,1.966c2.991,0.661,4.485-0.208,5.13-3.116c0.61-2.758-0.252-3.926-3.417-4.626
	l-20.087-4.447l5.486-24.778l-2.164-3.388c-0.677-1.063-2.213-1.41-3.285-0.728c-1.103,0.705-1.43,2.178-0.726,3.286l1.099,1.727
	l-6.562,29.64c-0.283,1.28,0.532,2.554,1.816,2.837c0.787,0.173,1.61-0.071,2.186-0.633l0.271-0.265l0.368,0.082
	c0.051,0.011,0.101,0.025,0.149,0.04l8.937,1.981l-2.359,10.657l-8.927-1.976L319.151,205.847z"/>
<path fill="#FFFFFF" d="M603.918,224.987l-524.184-29.27c-4.411-0.246-8.187,3.13-8.434,7.542L58.924,424.914
	c-0.247,4.412,3.13,8.188,7.542,8.434l524.183,29.27c4.41,0.246,8.188-3.13,8.434-7.542l12.377-221.655
	C611.705,229.009,608.328,225.233,603.918,224.987z"/>
<g>
	<g>
		<g>
			<path fill="#FFFFFF" d="M83.278,200.292L70.887,422.205l524.431,29.283l12.391-221.914L83.278,200.292z"/>
			<path fill="#CFDE00" d="M592.451,455.618L66.621,426.257L79.09,202.945l525.828,29.361L592.451,455.618L592.451,455.618z
				 M68.097,424.937l523.036,29.205l12.312-220.515L80.411,204.422L68.097,424.937z"/>
		</g>
	</g>
</g>
<g>
	<g>
		<path fill="#CFDE00" d="M533.541,374.112c-0.006-0.001-0.012-0.002-0.018-0.002c-0.26-0.021-0.486-0.186-0.588-0.427
			c-0.533-1.27-0.732-3.322-0.439-4.574l2.48-10.724c0.098-0.424-0.02-0.862-0.312-1.178c-4.658-5.012-11.316-12.974-11.377-13.051
			c-0.725-0.865-1.717-1.374-2.799-1.434c-1.156-0.065-2.291,0.406-3.107,1.3l-24.348,26.526c-0.17,0.185-0.424,0.267-0.674,0.209
			c-0.244-0.057-0.441-0.241-0.512-0.482l-1.107-3.714c-0.369-1.233-0.1-3.28,0.578-4.375l19.914-32.311
			c0.266-0.434,0.254-0.985-0.029-1.408c-5.838-8.674-6.795-16.817-3.998-18.699c0.527-0.356,1.174-0.507,1.973-0.462
			c3.262,0.182,8.809,3.716,13.85,11.203c0.279,0.414,0.803,0.637,1.293,0.555l37.428-6.297c0.26-0.046,0.572-0.058,0.906-0.039
			c1.223,0.068,2.605,0.542,3.365,1.148l3.025,2.425c0.195,0.157,0.293,0.409,0.252,0.658c-0.039,0.249-0.211,0.457-0.445,0.544
			l-33.738,12.582c-1.088,0.406-1.938,1.235-2.332,2.275s-0.307,2.223,0.238,3.249c0.049,0.089,4.9,9.2,7.809,15.445
			c0.182,0.392,0.545,0.666,0.973,0.734l10.877,1.733c1.268,0.201,3.096,1.157,4.072,2.129c0.182,0.185,0.25,0.454,0.174,0.703
			c-0.08,0.252-0.293,0.435-0.549,0.482l-10.623,1.876c-0.375,0.066-0.701,0.293-0.893,0.621c-0.193,0.327-0.232,0.722-0.111,1.082
			c0.461,1.335,0.779,2.468,0.951,3.368c0.051,0.274-0.064,0.556-0.299,0.712c-0.232,0.156-0.533,0.157-0.77,0.009
			c-0.768-0.495-1.697-1.216-2.764-2.146c-0.283-0.245-0.682-0.357-1.043-0.307c-0.377,0.055-0.711,0.273-0.916,0.596l-5.732,9.138
			C534.037,374.002,533.797,374.126,533.541,374.112z M520.564,341.325c1.473,0.082,2.82,0.771,3.795,1.938
			c0.064,0.077,6.67,7.983,11.326,12.993c0.609,0.655,0.854,1.57,0.65,2.444l-2.48,10.728c-0.135,0.567-0.123,1.429-0.008,2.237
			l4.873-7.761c0.42-0.67,1.111-1.122,1.893-1.235c0.76-0.116,1.58,0.122,2.166,0.636c0.379,0.328,0.734,0.627,1.068,0.896
			c-0.123-0.412-0.266-0.855-0.432-1.326c-0.256-0.748-0.174-1.57,0.229-2.249c0.402-0.681,1.08-1.15,1.857-1.29l9.023-1.594
			c-0.707-0.412-1.498-0.743-2.076-0.836l-10.873-1.733c-0.889-0.141-1.645-0.711-2.023-1.525
			c-2.891-6.211-7.725-15.289-7.775-15.378c-0.734-1.383-0.848-2.99-0.311-4.405c0.537-1.417,1.686-2.547,3.15-3.093l32.586-12.15
			l-2.064-1.653c-0.535-0.43-1.641-0.791-2.568-0.843c-0.229-0.013-0.438-0.006-0.596,0.021l-37.428,6.298
			c-1.023,0.174-2.105-0.292-2.686-1.154c-4.537-6.737-9.857-10.425-12.768-10.587c-0.482-0.027-0.848,0.048-1.113,0.224
			c-1.613,1.088-1.529,7.987,4.379,16.758c0.592,0.879,0.613,2.026,0.059,2.926l-19.914,32.312c-0.467,0.755-0.682,2.39-0.428,3.239
			l0.756,2.534l23.514-25.617C517.451,341.875,518.988,341.237,520.564,341.325z"/>
	</g>
</g>
<path fill="#FFFFFF" d="M462.607,305.893"/>
<g>
	<g>
		<path fill="#FDB515" d="M211.425,307.002h1.675v-7.736l0.438-0.055c3.737-0.469,6.694-1.607,8.788-3.385
			c2.082-1.768,3.093-3.986,3.093-6.786c0-2.621-0.838-4.769-2.491-6.379c-1.697-1.654-4.886-3.216-9.477-4.638l-0.352-0.108
			v-16.949l0.528,0.03c3.738,0.212,7.162,0.955,10.187,2.21l0.741-2.021c-3.22-1.25-6.91-1.979-10.979-2.162l-0.477-0.021v-6.253
			h-1.675v6.282l-0.438,0.055c-3.403,0.426-6.14,1.545-8.134,3.328c-1.988,1.777-2.954,3.908-2.954,6.514
			c0,1.803,0.335,3.346,0.998,4.586c0.661,1.238,1.736,2.332,3.194,3.248c1.496,0.939,3.844,1.899,6.979,2.852l0.355,0.107v17.647
			h-0.5c-1.99,0-4.179-0.282-6.507-0.841c-2.001-0.479-3.784-1.058-5.312-1.721v2.301c1.338,0.584,3.115,1.088,5.29,1.498
			c2.353,0.443,4.553,0.69,6.54,0.733l0.489,0.013L211.425,307.002L211.425,307.002z M213.1,297.225v-16.776l0.64,0.188
			c3.075,0.897,5.361,1.994,6.796,3.261c1.493,1.312,2.25,3.002,2.25,5.016c0,2.298-0.84,4.201-2.498,5.658
			c-1.624,1.429-3.856,2.304-6.636,2.6L213.1,297.225z M211.425,277.327l-0.644-0.194c-2.839-0.855-4.941-1.929-6.247-3.189
			c-1.351-1.303-2.036-2.988-2.036-5.017c0-1.956,0.722-3.665,2.146-5.077c1.405-1.395,3.496-2.285,6.214-2.649l0.567-0.077V277.327
			L211.425,277.327z"/>
	</g>
	<g>
		<path fill="#FDB515" d="M235.354,303.07h29.219v-2.17h-25.826v-0.836l12.526-12.859c4.244-4.331,7.199-8.012,8.786-10.938
			c1.571-2.896,2.367-5.933,2.367-9.025c0-3.779-1.163-6.778-3.457-8.915c-2.305-2.146-5.529-3.233-9.584-3.233
			c-4.615,0-8.89,1.567-12.715,4.66l1.176,1.503c3.634-2.782,7.492-4.19,11.474-4.19c3.134,0,5.728,0.957,7.709,2.847
			c1.988,1.896,2.996,4.385,2.996,7.396c0,2.032-0.355,4.004-1.057,5.856c-0.695,1.84-1.794,3.791-3.268,5.8
			c-1.463,1.994-4.033,4.9-7.64,8.639l-12.707,13.265L235.354,303.07L235.354,303.07z"/>
	</g>
	<g>
		<path fill="#FDB515" d="M272.658,301.18c3.509,1.693,7.662,2.553,12.348,2.553c5.625,0,9.98-1.213,12.946-3.604
			c2.934-2.363,4.421-5.763,4.421-10.097c0-3.191-0.972-5.761-2.888-7.636c-1.936-1.895-4.818-3.092-8.564-3.562l-0.438-0.056
			v-1.059l0.411-0.072c3.045-0.551,5.501-1.82,7.301-3.776c1.786-1.942,2.691-4.374,2.691-7.226c0-3.662-1.165-6.528-3.46-8.521
			c-2.317-2.012-5.674-3.032-9.977-3.032c-2.638,0-5.284,0.452-7.862,1.343c-2.404,0.832-4.504,1.952-6.25,3.332l1.058,1.446
			c2.334-1.509,4.482-2.601,6.388-3.247c2.025-0.686,4.291-1.033,6.733-1.033c3.19,0,5.816,0.856,7.804,2.547
			c2.013,1.709,3.034,4.011,3.034,6.838c0,3.4-1.246,6.139-3.702,8.134c-2.425,1.97-5.737,2.969-9.844,2.969h-4.784v2.171h4.718
			c4.925,0,8.726,0.896,11.298,2.664c2.631,1.809,3.966,4.424,3.966,7.775c0,3.729-1.296,6.666-3.852,8.729
			c-2.524,2.034-6.319,3.066-11.279,3.066c-2.056,0-4.278-0.282-6.606-0.841c-2.033-0.484-3.916-1.144-5.609-1.954v2.147H272.658z"
			/>
	</g>
	<g>
		<path fill="#FDB515" d="M326.207,255.025c-5.059,0-8.718,1.912-11.186,5.844c-2.48,3.951-3.738,10.152-3.738,18.428
			c0,8.104,1.297,14.285,3.854,18.379c2.546,4.075,6.167,6.057,11.069,6.057c5.104,0,8.806-1.922,11.319-5.879
			c2.523-3.973,3.803-10.217,3.803-18.557c0-7.988-1.318-14.115-3.919-18.21C334.82,257.009,331.156,255.025,326.207,255.025z
			 M326.207,301.76c-4.164,0-7.312-1.894-9.355-5.627c-1.991-3.635-3.001-9.299-3.001-16.836c0-7.181,0.962-12.724,2.86-16.475
			c1.955-3.864,5.149-5.823,9.496-5.823c4.344,0,7.555,1.958,9.543,5.819c1.933,3.754,2.913,9.298,2.913,16.479
			c0,7.289-0.98,12.889-2.913,16.643C333.762,299.802,330.552,301.76,326.207,301.76z"/>
	</g>
</g>
<g>
	<g>
		<path fill="#FDB515" d="M169.236,389.354c-0.186,0-0.363-0.071-0.495-0.203l-5.797-5.799c-0.133-0.133-0.207-0.312-0.205-0.501
			c0.002-0.188,0.079-0.365,0.215-0.497c0.811-0.78,1.758-1.409,2.816-1.868c2.155-0.933,4.752-0.923,6.883,0.022
			c1.07,0.478,2.011,1.132,2.797,1.95c0.264,0.275,0.26,0.711-0.01,0.98l-5.709,5.71
			C169.599,389.281,169.421,389.354,169.236,389.354z M164.461,382.89l4.774,4.774l4.706-4.707
			c-0.549-0.472-1.172-0.863-1.857-1.169c-1.773-0.788-3.963-0.793-5.759-0.021C165.647,382.062,165.022,382.439,164.461,382.89z
			 M178.466,380.188c-0.001,0-0.001,0-0.002,0c-0.187-0.001-0.366-0.074-0.497-0.209c-1.131-1.147-2.464-2.065-3.963-2.728
			c-2.987-1.318-6.676-1.302-9.605-0.031c-1.486,0.641-2.812,1.537-3.942,2.672c-0.132,0.134-0.311,0.206-0.496,0.206
			c0,0,0,0-0.001,0c-0.186-0.001-0.364-0.073-0.495-0.206l-3.057-3.074c-0.132-0.133-0.205-0.312-0.204-0.496
			c0.001-0.187,0.075-0.363,0.207-0.494c1.643-1.627,3.577-2.926,5.75-3.859c2.171-0.935,4.537-1.408,7.03-1.408
			c2.492,0,4.87,0.481,7.068,1.433c2.192,0.944,4.132,2.269,5.765,3.931c0.269,0.273,0.268,0.713-0.003,0.984l-3.059,3.078
			C178.831,380.113,178.653,380.188,178.466,380.188z M169.191,374.861c1.899,0,3.709,0.373,5.378,1.107
			c1.442,0.638,2.747,1.486,3.888,2.535l2.074-2.088c-1.397-1.308-3.019-2.363-4.826-3.145c-2.022-0.872-4.214-1.314-6.514-1.314
			c-2.303,0-4.481,0.436-6.478,1.293c-1.791,0.771-3.405,1.807-4.809,3.086l2.068,2.081c1.141-1.034,2.439-1.868,3.871-2.483
			C165.486,375.223,167.285,374.861,169.191,374.861z M185.226,373.387c-0.186,0-0.363-0.074-0.495-0.205
			c-0.987-0.985-2.082-1.894-3.255-2.692c-1.186-0.806-2.44-1.49-3.729-2.04c-1.284-0.555-2.671-0.986-4.125-1.286
			c-2.879-0.589-5.978-0.589-8.851,0c-1.437,0.298-2.821,0.724-4.114,1.265c-1.297,0.541-2.547,1.216-3.718,2.008
			c-1.147,0.778-2.238,1.682-3.242,2.684c-0.273,0.271-0.716,0.271-0.989-0.001l-3.189-3.188c-0.272-0.271-0.273-0.713-0.003-0.984
			c1.255-1.271,2.638-2.417,4.11-3.412c1.472-0.996,3.061-1.861,4.723-2.57c1.64-0.703,3.398-1.254,5.225-1.637
			c3.656-0.763,7.604-0.76,11.238,0c1.825,0.382,3.588,0.937,5.237,1.646c1.65,0.705,3.244,1.578,4.735,2.594
			c1.48,1.014,2.867,2.163,4.125,3.421c0.272,0.271,0.273,0.715,0.002,0.986l-3.188,3.21
			C185.591,373.312,185.413,373.387,185.226,373.387L185.226,373.387z M169.191,365.317c1.593,0,3.179,0.157,4.712,0.472
			c1.549,0.32,3.026,0.781,4.396,1.371c1.369,0.584,2.704,1.312,3.965,2.17c1.051,0.717,2.041,1.512,2.954,2.372l2.201-2.218
			c-1.061-1.009-2.21-1.938-3.424-2.77c-1.415-0.962-2.93-1.791-4.499-2.462c-1.565-0.675-3.237-1.201-4.972-1.562
			c-3.446-0.723-7.199-0.725-10.665,0c-1.734,0.361-3.404,0.887-4.961,1.554c-1.58,0.673-3.09,1.495-4.488,2.44
			c-1.205,0.814-2.347,1.736-3.402,2.748l2.203,2.201c0.925-0.87,1.912-1.662,2.943-2.359c1.248-0.848,2.582-1.566,3.964-2.143
			c1.374-0.576,2.846-1.028,4.37-1.345C166.018,365.477,167.599,365.317,169.191,365.317z M192.115,366.476L192.115,366.476
			c-0.188-0.001-0.366-0.073-0.498-0.208c-1.422-1.438-2.995-2.748-4.676-3.896c-1.689-1.152-3.503-2.146-5.391-2.955
			c-1.886-0.811-3.89-1.441-5.956-1.877c-4.108-0.869-8.658-0.874-12.779,0c-2.063,0.434-4.067,1.061-5.96,1.865
			c-1.898,0.811-3.713,1.799-5.391,2.936c-1.674,1.134-3.257,2.441-4.705,3.885c-0.132,0.134-0.309,0.197-0.497,0.205
			c-0.187-0.001-0.365-0.074-0.496-0.209l-3.229-3.275c-0.271-0.275-0.268-0.719,0.006-0.988c1.692-1.68,3.571-3.223,5.585-4.588
			c2.008-1.358,4.159-2.527,6.396-3.479c2.247-0.951,4.625-1.693,7.068-2.204c4.882-1.024,10.301-1.025,15.214,0
			c2.448,0.511,4.833,1.253,7.086,2.204c2.245,0.949,4.402,2.121,6.412,3.486c2.003,1.367,3.876,2.922,5.566,4.623
			c0.271,0.273,0.271,0.714,0,0.986l-3.26,3.28C192.48,366.4,192.301,366.476,192.115,366.476z M169.191,355.482
			c2.286,0,4.537,0.229,6.691,0.688c2.157,0.453,4.25,1.113,6.22,1.96c1.97,0.845,3.864,1.882,5.628,3.085
			c1.56,1.064,3.03,2.264,4.381,3.572l2.272-2.289c-1.496-1.448-3.13-2.779-4.866-3.964c-1.933-1.312-4.008-2.44-6.169-3.354
			c-2.17-0.919-4.467-1.633-6.827-2.124c-4.727-0.986-9.947-0.986-14.641,0c-2.355,0.49-4.646,1.205-6.809,2.123
			c-2.154,0.914-4.227,2.039-6.158,3.348c-1.745,1.184-3.386,2.506-4.884,3.937l2.245,2.28c1.371-1.312,2.85-2.508,4.404-3.562
			c1.752-1.188,3.646-2.219,5.628-3.063c1.977-0.84,4.068-1.495,6.219-1.946C164.675,355.714,166.918,355.482,169.191,355.482z"/>
	</g>
</g>
<g>
	<path fill="#FFFFFF" d="M311.116,376.126c3.396,0,5.035-1.453,5.035-4.851c0-3.401-1.639-4.48-5.035-4.48h-19.873v-24.969
		l-3.049-3.046c-1.201-1.201-3.152-1.201-4.354,0c-1.201,1.202-1.201,3.147,0,4.354l1.242,1.243v30.068
		c0,1.697,1.381,3.078,3.086,3.078c1.078,0,2.031-0.562,2.584-1.408c0.066,0,0.135,0.01,0.205,0.01h8.4v9.515h-9.143v3.355h21.646
		v-3.355h-9.145v-9.515L311.116,376.126L311.116,376.126z"/>
	<path fill="#FDB515" d="M312.563,389.697h-23.047v-4.757h9.143v-8.114h-7.558c-0.718,0.883-1.787,1.396-2.932,1.396
		c-2.088,0-3.786-1.693-3.786-3.776v-29.778l-1.037-1.039c-1.471-1.475-1.471-3.872,0-5.344c1.426-1.426,3.918-1.426,5.344,0
		l3.254,3.251v24.56h19.173c4.02,0,5.735,1.549,5.735,5.182c0,3.732-1.876,5.551-5.735,5.551h-7.698v8.114h9.145L312.563,389.697
		L312.563,389.697z M290.916,388.297h20.246v-1.956h-9.145v-10.915h9.099c3.079,0,4.335-1.203,4.335-4.148
		c0-2.826-1.094-3.779-4.335-3.779h-20.573v-25.38l-2.844-2.841c-0.896-0.897-2.467-0.897-3.363,0
		c-0.926,0.926-0.926,2.436,0.001,3.363l1.446,1.447v30.358c0,1.312,1.07,2.378,2.386,2.378c0.805,0,1.552-0.408,1.998-1.091
		l0.207-0.317l9.685,0.01v10.915h-9.143V388.297z"/>
</g>
<g>
	<path fill="#FDB515" d="M371.352,370.904c-0.114,0-0.228-0.032-0.327-0.099l-4.449-2.891l-4.446,2.891
		c-0.209,0.136-0.478,0.128-0.68-0.018c-0.201-0.146-0.292-0.4-0.227-0.641l1.373-5.121l-4.123-3.337
		c-0.193-0.156-0.271-0.416-0.193-0.652c0.076-0.236,0.292-0.4,0.54-0.414l5.299-0.274l1.897-4.949c0.178-0.465,0.941-0.465,1.119,0
		l1.897,4.949l5.299,0.274c0.248,0.014,0.462,0.178,0.54,0.414c0.077,0.236,0,0.496-0.193,0.652l-4.123,3.337l1.338,4.979
		c0.051,0.088,0.08,0.188,0.08,0.297c0,0.334-0.271,0.605-0.61,0.602C371.358,370.904,371.355,370.904,371.352,370.904z
		 M360.445,361.743l2.958,2.393c0.337,0.272,0.483,0.723,0.371,1.143l-0.985,3.672l3.188-2.072c0.361-0.234,0.84-0.233,1.199-0.001
		l3.19,2.073l-0.987-3.671c-0.113-0.421,0.033-0.869,0.373-1.144l2.957-2.393l-3.802-0.197c-0.433-0.021-0.813-0.299-0.97-0.705
		l-1.36-3.55l-1.36,3.55c-0.156,0.406-0.537,0.686-0.971,0.705L360.445,361.743z"/>
</g>
<g>
	<g>
		<g>
			<path fill="#FDB515" d="M211.402,388.433h49.789v-32.066H246.69l0.005-9.661h-20.792v9.661h-14.501V388.433L211.402,388.433z
				 M259.726,386.971h-8.201V357.83h8.201V386.971z M250.06,386.971h-27.531V357.83h27.531V386.971z M221.071,386.971h-8.203V357.83
				h8.203V386.971z M245.228,356.364h-17.865v-8.2h17.865V356.364z"/>
		</g>
	</g>
</g>
<g>
	<path fill="#FDB515" d="M342.844,388.426h47.461v3.749c0,0.362,0.293,0.657,0.651,0.657c0.365,0,0.662-0.295,0.662-0.657v-3.749
		h4.879c0.36,0,0.654-0.293,0.654-0.651v-23.95c0-0.362-0.294-0.657-0.654-0.657h-4.879v-12.171c0-0.362-0.297-0.656-0.662-0.656
		H342.19c-0.362,0-0.656,0.294-0.656,0.656v12.171h-4.881c-0.36,0-0.654,0.295-0.654,0.657v23.95c0,0.358,0.294,0.651,0.654,0.651
		h4.881v3.749c0,0.362,0.294,0.657,0.656,0.657c0.358,0,0.651-0.295,0.651-0.657L342.844,388.426L342.844,388.426z M395.84,387.115
		h-58.532v-22.643h9.762v12.314c0,0.359,0.293,0.653,0.652,0.653h37.705c0.361,0,0.655-0.293,0.655-0.653v-12.314h9.757V387.115z
		 M384.77,376.133h-36.391v-12.311c0-0.362-0.295-0.657-0.656-0.657h-4.879v-11.52h47.461v11.52h-4.877
		c-0.363,0-0.658,0.295-0.658,0.657V376.133z"/>
</g>
<path fill="#CFDE00" d="M455.105,432.714c-0.387-0.021-0.682-0.352-0.66-0.738l10.424-186.71c0.021-0.386,0.354-0.681,0.738-0.659
	c0.389,0.021,0.682,0.352,0.66,0.737l-10.426,186.71C455.82,432.44,455.49,432.735,455.105,432.714z"/>
<g>
	<g>
		<path fill="#FFFFFF" d="M372.188,292.049c-0.28,0-0.518-0.097-0.713-0.291l-10.096-9.742c-0.111-0.086-0.261-0.227-0.449-0.42
			c-0.187-0.195-0.485-0.548-0.896-1.061c-0.406-0.514-0.775-1.038-1.1-1.578c-0.326-0.539-0.611-1.191-0.866-1.958
			c-0.253-0.767-0.38-1.511-0.38-2.233c0-2.373,0.686-4.229,2.053-5.565c1.372-1.339,3.268-2.009,5.682-2.009
			c0.668,0,1.352,0.117,2.047,0.351c0.697,0.231,1.344,0.545,1.943,0.938c0.598,0.396,1.114,0.765,1.543,1.107
			c0.436,0.348,0.846,0.712,1.232,1.102c0.387-0.39,0.798-0.754,1.229-1.102c0.43-0.345,0.946-0.714,1.547-1.107
			c0.596-0.395,1.245-0.705,1.938-0.938c0.696-0.229,1.379-0.351,2.049-0.351c2.418,0,4.312,0.672,5.681,2.009
			c1.373,1.339,2.057,3.192,2.057,5.565c0,2.385-1.234,4.812-3.707,7.282l-10.082,9.71
			C372.706,291.952,372.469,292.049,372.188,292.049z"/>
		<path fill="#FF466F" d="M378.95,267.191c2.418,0,4.312,0.67,5.681,2.007c1.373,1.339,2.057,3.194,2.057,5.567
			c0,2.385-1.234,4.812-3.707,7.28l-10.082,9.71c-0.191,0.194-0.43,0.291-0.711,0.291c-0.28,0-0.518-0.097-0.713-0.291l-10.096-9.74
			c-0.111-0.086-0.261-0.229-0.449-0.423c-0.187-0.192-0.485-0.547-0.896-1.06c-0.406-0.516-0.775-1.038-1.1-1.578
			c-0.326-0.539-0.611-1.189-0.866-1.958c-0.253-0.767-0.38-1.513-0.38-2.231c0-2.373,0.686-4.229,2.053-5.567
			c1.372-1.337,3.268-2.007,5.682-2.007c0.668,0,1.352,0.117,2.047,0.349c0.697,0.231,1.344,0.545,1.943,0.938
			c0.598,0.395,1.114,0.764,1.543,1.106c0.436,0.347,0.846,0.712,1.232,1.103c0.387-0.391,0.798-0.756,1.229-1.103
			c0.43-0.345,0.946-0.714,1.547-1.106c0.596-0.396,1.245-0.707,1.938-0.938C377.6,267.309,378.281,267.191,378.95,267.191
			 M378.95,265.791c-0.812,0-1.649,0.143-2.489,0.42c-0.818,0.273-1.58,0.645-2.271,1.1c-0.65,0.43-1.19,0.815-1.65,1.187
			c-0.118,0.096-0.237,0.19-0.354,0.291c-0.118-0.103-0.239-0.199-0.36-0.296c-0.448-0.359-0.987-0.748-1.644-1.182
			c-0.7-0.461-1.465-0.83-2.271-1.099c-0.839-0.278-1.676-0.421-2.489-0.421c-2.781,0-5.021,0.811-6.658,2.404
			c-1.646,1.609-2.478,3.818-2.478,6.57c0,0.866,0.152,1.768,0.451,2.672c0.295,0.89,0.621,1.623,0.998,2.244
			c0.34,0.566,0.731,1.133,1.198,1.723c0.434,0.539,0.762,0.926,0.981,1.156c0.218,0.225,0.388,0.385,0.535,0.506l10.05,9.699
			c0.447,0.44,1.035,0.684,1.686,0.684c0.662,0,1.252-0.245,1.709-0.709l10.056-9.684c2.751-2.748,4.138-5.531,4.138-8.291
			c0-2.757-0.834-4.967-2.479-6.57C383.975,266.602,381.734,265.791,378.95,265.791L378.95,265.791z"/>
	</g>
</g>
</svg>
