<?xml version="1.0" encoding="utf-8"?>
<!-- Generator: Adobe Illustrator 16.0.4, SVG Export Plug-In . SVG Version: 6.00 Build 0)  -->
<!DOCTYPE svg PUBLIC "-//W3C//DTD SVG 1.1//EN" "http://www.w3.org/Graphics/SVG/1.1/DTD/svg11.dtd">
<svg version="1.1" id="Layer_1" xmlns="http://www.w3.org/2000/svg" xmlns:xlink="http://www.w3.org/1999/xlink" x="0px" y="0px"
	 width="94.5px" height="75px" viewBox="0 0 94.5 75" enable-background="new 0 0 94.5 75" xml:space="preserve">
<g id="_x39_09-tags_x40_2x.png_44_">
	<g>
		<path fill="#00AAE7" d="M57.155,29.951l0.021-0.004L53.034,9.623c-0.471-2.288-2.669-3.739-4.959-3.269l-20.318,4.17
			c-1.07,0.207-2.057,0.818-2.705,1.799L5.28,42.337c-1.272,1.935-0.739,4.54,1.194,5.816l24.527,16.179
			c1.928,1.275,4.533,0.741,5.812-1.194l19.773-30.015C57.228,32.148,57.385,31.011,57.155,29.951z M44.231,24.289
			c-2.84,0.583-5.61-1.245-6.193-4.086c-0.584-2.84,1.244-5.612,4.083-6.194c2.831-0.582,5.608,1.244,6.192,4.084
			C48.897,20.933,47.063,23.707,44.231,24.289z"/>
	</g>
</g>
<g id="_x39_09-tags_x40_2x.png_42_">
	<g>
		<path fill="#FFFFFF" d="M81.235,15.029l-20.742-0.003c-1.089-0.012-2.176,0.387-3.01,1.219L32.077,41.666
			c-1.639,1.639-1.639,4.299,0,5.938l20.769,20.782c1.634,1.639,4.294,1.639,5.935,0l25.408-25.423
			c0.822-0.826,1.205-1.909,1.195-2.993h0.021l0.029-20.74C85.435,16.892,83.573,15.029,81.235,15.029z M73.864,31.824
			c-2.899,0-5.248-2.349-5.248-5.249c0-2.899,2.349-5.248,5.248-5.248c2.891,0,5.244,2.348,5.244,5.248
			C79.108,29.475,76.755,31.824,73.864,31.824z"/>
	</g>
	<g>
		<path fill="none" stroke="#00AAE7" stroke-miterlimit="10" d="M81.235,15.029l-20.742-0.003c-1.089-0.012-2.176,0.387-3.01,1.219
			L32.077,41.666c-1.639,1.639-1.639,4.299,0,5.938l20.769,20.782c1.634,1.639,4.294,1.639,5.935,0l25.408-25.423
			c0.822-0.826,1.205-1.909,1.195-2.993h0.021l0.029-20.74C85.435,16.892,83.573,15.029,81.235,15.029z M73.864,31.824
			c-2.899,0-5.248-2.349-5.248-5.249c0-2.899,2.349-5.248,5.248-5.248c2.891,0,5.244,2.348,5.244,5.248
			C79.108,29.475,76.755,31.824,73.864,31.824z"/>
	</g>
</g>
</svg>
