<?xml version="1.0" encoding="utf-8"?>
<!-- Generator: Adobe Illustrator 16.0.4, SVG Export Plug-In . SVG Version: 6.00 Build 0)  -->
<!DOCTYPE svg PUBLIC "-//W3C//DTD SVG 1.1//EN" "http://www.w3.org/Graphics/SVG/1.1/DTD/svg11.dtd">
<svg version="1.1" id="Layer_1" xmlns="http://www.w3.org/2000/svg" xmlns:xlink="http://www.w3.org/1999/xlink" x="0px" y="0px"
	 width="639px" height="490px" viewBox="0 0 639 490" enable-background="new 0 0 639 490" xml:space="preserve">
<g>
	<g>
		<g>
			<path fill="#1BA8E1" d="M626.693,335.113l-0.684-0.149L112.495,221.285l0.151-0.68L160.835,2.917l0.684,0.151l513.515,113.677
				l-0.149,0.683L626.693,335.113z M114.163,220.221l511.463,113.223l47.737-215.639L161.898,4.583L114.163,220.221z"/>
		</g>
	</g>
</g>
<g>
	<path fill="#1BA8E1" d="M581.82,245.185c-0.043-0.002-0.086-0.009-0.13-0.02c-0.257-0.062-0.453-0.261-0.513-0.515
		c-0.322-1.339-0.187-3.396,0.303-4.586l4.178-10.185c0.166-0.399,0.119-0.853-0.119-1.213c-3.841-5.777-9.079-14.639-9.125-14.716
		c-0.572-0.967-1.471-1.631-2.528-1.866c-1.129-0.251-2.333,0.041-3.276,0.783l-28.309,22.249c-0.195,0.156-0.468,0.192-0.695,0.098
		c-0.233-0.096-0.397-0.309-0.43-0.559l-0.494-3.846c-0.165-1.275,0.432-3.25,1.274-4.224l24.866-28.674
		c0.335-0.385,0.412-0.932,0.198-1.394c-4.361-9.505-3.989-17.695-0.928-19.103c0.57-0.262,1.229-0.312,2.021-0.137
		c3.19,0.707,8.093,5.09,11.859,13.292c0.168,0.368,0.505,0.64,0.9,0.727c0.065,0.015,0.137,0.025,0.208,0.029l38.031-0.173
		c0.256-0.001,0.567,0.034,0.9,0.109c1.194,0.264,2.484,0.953,3.137,1.677l2.594,2.881c0.17,0.187,0.224,0.45,0.146,0.689
		c-0.079,0.239-0.282,0.417-0.527,0.466l-35.33,6.973c-1.14,0.225-2.112,0.907-2.669,1.87c-0.557,0.961-0.661,2.145-0.288,3.245
		c0.587,1.73,3.508,10.433,5.212,16.503c0.119,0.416,0.435,0.746,0.846,0.882l10.453,3.465c1.22,0.404,2.867,1.642,3.672,2.758
		c0.151,0.212,0.173,0.49,0.058,0.725c-0.117,0.233-0.354,0.382-0.615,0.386l-10.787,0.138c-0.381,0.004-0.739,0.176-0.983,0.469
		c-0.243,0.292-0.347,0.675-0.282,1.051c0.238,1.391,0.37,2.561,0.394,3.476c0.008,0.279-0.153,0.536-0.407,0.652
		c-0.251,0.118-0.553,0.072-0.761-0.116c-0.676-0.609-1.479-1.473-2.383-2.562c-0.182-0.223-0.438-0.379-0.719-0.44
		c-0.066-0.015-0.14-0.025-0.209-0.029c-0.435-0.007-0.795,0.153-1.048,0.439l-7.134,8.093
		C582.241,245.111,582.032,245.196,581.82,245.185z M573.365,210.604c0.274,0.016,0.556,0.053,0.828,0.113
		c1.438,0.319,2.657,1.215,3.432,2.525c0.052,0.086,5.322,8.996,9.082,14.649c0.494,0.749,0.589,1.69,0.248,2.519l-4.18,10.185
		c-0.222,0.541-0.351,1.391-0.365,2.209l6.06-6.875c0.522-0.594,1.277-0.927,2.068-0.914c0.01,0,0.1,0.004,0.105,0.004
		c0.146,0.008,0.292,0.028,0.436,0.06c0.583,0.129,1.115,0.454,1.496,0.915c0.317,0.383,0.621,0.735,0.908,1.057
		c-0.058-0.428-0.126-0.887-0.21-1.379c-0.133-0.779,0.081-1.574,0.586-2.182c0.51-0.608,1.252-0.963,2.042-0.973l9.161-0.117
		c-0.628-0.521-1.354-0.976-1.912-1.159l-10.454-3.466c-0.854-0.283-1.507-0.968-1.75-1.833c-1.695-6.037-4.608-14.709-5.176-16.386
		c-0.52-1.529-0.37-3.13,0.388-4.442c0.76-1.312,2.075-2.24,3.609-2.543l34.117-6.734l-1.769-1.965
		c-0.46-0.509-1.492-1.045-2.398-1.246c-0.179-0.04-0.346-0.065-0.491-0.073l-0.102-0.002l-37.954,0.175
		c-0.197,0.002-0.4-0.021-0.595-0.064c-0.82-0.182-1.521-0.746-1.871-1.509c-3.389-7.379-8.044-11.879-10.89-12.509
		c-0.458-0.101-0.841-0.092-1.137,0.043c-1.766,0.811-2.797,7.634,1.616,17.245c0.441,0.96,0.279,2.096-0.414,2.896l-24.867,28.674
		c-0.582,0.67-1.058,2.25-0.942,3.127l0.333,2.624l27.342-21.488C570.793,210.945,572.078,210.532,573.365,210.604z"/>
</g>
<path fill="#FFFFFF" stroke="#D2D5DB" stroke-miterlimit="10" d="M585.079,194.804"/>
<g>
	<g>
		<path fill="#1BA8E1" d="M272.571,115.7l1.635,0.362l1.671-7.553l0.439,0.042c3.749,0.345,6.883-0.124,9.313-1.407
			c2.414-1.275,3.88-3.223,4.486-5.957c0.566-2.559,0.212-4.835-1.053-6.767c-1.3-1.983-4.076-4.194-8.251-6.575l-0.32-0.182
			l3.664-16.548l0.509,0.144c3.603,1.015,6.785,2.479,9.468,4.359l1.161-1.813c-2.872-1.915-6.318-3.423-10.252-4.484l-0.46-0.125
			l1.351-6.105l-1.635-0.362l-1.358,6.134l-0.439-0.041c-3.405-0.316-6.327,0.18-8.661,1.49c-2.326,1.307-3.729,3.177-4.292,5.722
			c-0.391,1.762-0.396,3.34-0.018,4.693c0.377,1.354,1.19,2.652,2.417,3.861c1.256,1.241,3.342,2.686,6.198,4.292l0.323,0.182
			l-3.815,17.231l-0.487-0.108c-1.944-0.432-4.021-1.18-6.172-2.227c-1.852-0.9-3.467-1.85-4.815-2.83l-0.497,2.247
			c1.179,0.859,2.806,1.736,4.842,2.607c2.199,0.941,4.293,1.659,6.226,2.13l0.475,0.116L272.571,115.7z M277.855,106.662
			L277.855,106.662c-0.322-0.018-0.648-0.045-0.982-0.083l-0.553-0.062l3.626-16.383l0.585,0.321
			c2.807,1.541,4.803,3.106,5.931,4.651c1.175,1.606,1.549,3.417,1.115,5.383c-0.496,2.244-1.728,3.92-3.663,4.986
			C282.244,106.394,280.207,106.793,277.855,106.662z M278.984,86.727l-0.586-0.328c-2.586-1.449-4.406-2.952-5.411-4.466
			c-1.037-1.564-1.34-3.36-0.902-5.337c0.423-1.912,1.498-3.424,3.193-4.495c1.673-1.057,3.912-1.478,6.64-1.245l0.57,0.049
			L278.984,86.727z"/>
	</g>
	<g>
		<path fill="#1BA8E1" d="M296.783,117.034l28.527,6.314l0.469-2.119l-25.216-5.582l0.182-0.816l15.01-9.849
			c5.075-3.309,8.757-6.263,10.942-8.779c2.16-2.487,3.593-5.281,4.261-8.301c0.817-3.689,0.33-6.869-1.447-9.451
			c-1.786-2.594-4.7-4.353-8.659-5.229c-4.509-0.999-9.016-0.393-13.42,1.803l0.823,1.72c4.149-1.928,8.224-2.471,12.109-1.612
			c3.06,0.678,5.386,2.174,6.912,4.445c1.531,2.281,1.978,4.929,1.326,7.87c-0.439,1.983-1.211,3.83-2.297,5.491
			c-1.078,1.646-2.572,3.312-4.443,4.956c-1.854,1.627-4.992,3.909-9.327,6.784l-15.273,10.202L296.783,117.034z"/>
	</g>
	<g>
		<path fill="#1BA8E1" d="M333.615,123.249c3.059,2.413,6.929,4.149,11.506,5.162c5.486,1.214,10.006,0.972,13.416-0.722
			c3.374-1.676,5.562-4.67,6.5-8.902c0.689-3.115,0.296-5.833-1.17-8.079c-1.481-2.268-4.036-4.06-7.594-5.328l-0.416-0.148
			l0.229-1.032l0.418,0.017c3.091,0.121,5.765-0.588,7.943-2.109c2.163-1.511,3.571-3.689,4.188-6.473
			c0.794-3.575,0.274-6.627-1.536-9.07c-1.826-2.465-4.883-4.186-9.086-5.116c-2.572-0.571-5.252-0.701-7.966-0.388
			c-2.528,0.292-4.819,0.932-6.823,1.902l0.721,1.641c2.604-0.968,4.938-1.57,6.938-1.789c2.125-0.232,4.409-0.082,6.798,0.445
			c3.113,0.691,5.496,2.095,7.069,4.173c1.597,2.106,2.097,4.573,1.483,7.333c-0.735,3.321-2.543,5.723-5.373,7.141
			c-2.791,1.398-6.242,1.657-10.25,0.771l-4.674-1.034l-0.47,2.119l4.605,1.019c4.807,1.063,8.325,2.761,10.456,5.043
			c2.18,2.335,2.914,5.178,2.188,8.451c-0.806,3.643-2.704,6.23-5.646,7.689c-2.906,1.442-6.829,1.627-11.676,0.558
			c-2.004-0.444-4.112-1.201-6.268-2.248c-1.88-0.915-3.578-1.963-5.055-3.122L333.615,123.249z"/>
	</g>
	<g>
		<path fill="#1BA8E1" d="M393.165,89.378c-3.683-0.206-6.871,1.029-9.476,3.67c-3.275,3.322-5.844,9.104-7.633,17.183
			c-1.752,7.912-1.818,14.23-0.209,18.777c1.604,4.53,4.713,7.247,9.498,8.307c4.916,1.09,9.055-0.015,12.322-3.293
			c3.322-3.332,5.92-9.151,7.724-17.296c1.728-7.801,1.765-14.067,0.109-18.626c-1.646-4.542-4.796-7.269-9.629-8.339
			C394.943,89.556,394.032,89.427,393.165,89.378z M387.833,135.681L387.833,135.681c-0.665-0.037-1.358-0.135-2.062-0.29
			c-4.064-0.9-6.729-3.43-7.918-7.516c-1.158-3.98-0.92-9.729,0.709-17.087c1.553-7.01,3.69-12.214,6.354-15.468
			c2.738-3.342,6.285-4.569,10.529-3.633c4.242,0.94,6.954,3.545,8.062,7.746c1.076,4.084,0.834,9.708-0.718,16.718
			c-1.575,7.117-3.743,12.373-6.441,15.62C394.038,134.551,391.172,135.868,387.833,135.681z"/>
	</g>
</g>
<path fill="#1BA8E1" d="M494.956,290.361c-0.038-0.002-0.075-0.006-0.114-0.014c-0.376-0.084-0.616-0.459-0.531-0.837l40.418-182.58
	c0.084-0.377,0.453-0.619,0.837-0.532c0.377,0.083,0.614,0.458,0.529,0.835l-40.418,182.581
	C495.603,290.154,495.292,290.382,494.956,290.361z"/>
<path fill="#1BA8E1" d="M339.984,211.893l-22.502-4.981l1.028-4.643l8.928,1.976l1.754-7.923l-7.381-1.634
	c-0.883,0.698-2.036,0.981-3.165,0.731c-2.037-0.451-3.329-2.472-2.879-4.506l6.437-29.075l-0.788-1.238
	c-1.118-1.758-0.6-4.098,1.152-5.217c0.673-0.427,1.447-0.63,2.24-0.586c1.213,0.068,2.325,0.719,2.979,1.74l2.475,3.877
	l-5.308,23.979l18.721,4.144c3.925,0.87,5.265,2.753,4.479,6.297c-0.682,3.08-2.444,4.562-5.232,4.406c-0.002,0-0.002,0-0.002,0
	c-0.48-0.027-1.009-0.102-1.564-0.225l-7.515-1.665l-1.754,7.924l8.927,1.977L339.984,211.893z M319.151,205.847l19.767,4.375
	l0.424-1.91l-8.929-1.976l2.358-10.657l8.886,1.966c2.991,0.661,4.485-0.208,5.13-3.116c0.609-2.758-0.252-3.926-3.417-4.626
	l-20.087-4.447l5.486-24.778l-2.164-3.388c-0.678-1.063-2.213-1.41-3.285-0.728c-1.104,0.705-1.43,2.178-0.727,3.286l1.1,1.727
	l-6.562,29.64c-0.283,1.28,0.532,2.554,1.816,2.837c0.787,0.173,1.609-0.071,2.186-0.633l0.271-0.265l0.367,0.082
	c0.052,0.011,0.102,0.025,0.149,0.04l8.937,1.981l-2.358,10.657l-8.927-1.976L319.151,205.847z"/>
<path fill="#FFFFFF" d="M603.918,224.987l-524.184-29.27c-4.411-0.246-8.187,3.13-8.434,7.542L58.924,424.914
	c-0.247,4.412,3.13,8.188,7.542,8.434l524.184,29.271c4.409,0.246,8.188-3.13,8.434-7.542l12.377-221.655
	C611.705,229.009,608.328,225.233,603.918,224.987z"/>
<g>
	<g>
		<g>
			<path fill="#FFFFFF" d="M83.278,200.292L70.887,422.205l524.431,29.283l12.391-221.914L83.278,200.292z"/>
			<path fill="#CFDE00" d="M592.451,455.618l-525.83-29.361L79.09,202.945l525.828,29.361L592.451,455.618L592.451,455.618z
				 M68.097,424.938l523.036,29.204l12.312-220.515L80.411,204.422L68.097,424.938z"/>
		</g>
	</g>
</g>
<g>
	<g>
		<path fill="#CFDE00" d="M533.541,374.112c-0.006-0.001-0.012-0.002-0.018-0.002c-0.261-0.021-0.486-0.187-0.589-0.428
			c-0.532-1.27-0.731-3.321-0.438-4.573l2.479-10.725c0.099-0.424-0.02-0.861-0.312-1.178c-4.658-5.012-11.316-12.974-11.377-13.051
			c-0.726-0.865-1.717-1.374-2.799-1.435c-1.156-0.064-2.291,0.406-3.107,1.3l-24.348,26.526c-0.17,0.186-0.424,0.268-0.674,0.209
			c-0.244-0.057-0.441-0.241-0.513-0.481l-1.106-3.715c-0.369-1.232-0.101-3.279,0.578-4.375l19.914-32.311
			c0.266-0.434,0.254-0.985-0.029-1.408c-5.838-8.674-6.795-16.816-3.998-18.699c0.527-0.355,1.174-0.507,1.973-0.462
			c3.262,0.183,8.81,3.717,13.851,11.203c0.278,0.414,0.803,0.638,1.293,0.556l37.428-6.298c0.26-0.046,0.572-0.058,0.906-0.039
			c1.223,0.068,2.604,0.542,3.364,1.148l3.025,2.425c0.195,0.157,0.293,0.409,0.252,0.658c-0.039,0.249-0.211,0.457-0.445,0.544
			l-33.737,12.582c-1.088,0.406-1.938,1.235-2.332,2.275c-0.395,1.04-0.308,2.223,0.237,3.249c0.05,0.089,4.9,9.199,7.81,15.444
			c0.182,0.393,0.545,0.666,0.973,0.734l10.877,1.733c1.269,0.2,3.097,1.156,4.072,2.129c0.183,0.185,0.25,0.453,0.174,0.702
			c-0.08,0.253-0.293,0.436-0.549,0.482l-10.623,1.876c-0.375,0.066-0.701,0.293-0.893,0.621c-0.193,0.327-0.232,0.722-0.111,1.082
			c0.461,1.335,0.779,2.468,0.951,3.368c0.051,0.273-0.064,0.556-0.299,0.712c-0.232,0.156-0.533,0.157-0.771,0.009
			c-0.768-0.495-1.697-1.216-2.764-2.146c-0.283-0.245-0.682-0.357-1.043-0.308c-0.377,0.056-0.711,0.273-0.916,0.597l-5.732,9.138
			C534.037,374.002,533.797,374.126,533.541,374.112z M520.564,341.325c1.473,0.082,2.819,0.771,3.795,1.938
			c0.063,0.077,6.67,7.983,11.325,12.993c0.609,0.655,0.854,1.57,0.65,2.444l-2.479,10.728c-0.136,0.567-0.123,1.43-0.009,2.237
			l4.873-7.761c0.42-0.67,1.111-1.122,1.894-1.235c0.76-0.116,1.58,0.122,2.166,0.636c0.379,0.328,0.733,0.627,1.067,0.896
			c-0.123-0.412-0.266-0.855-0.432-1.326c-0.256-0.748-0.174-1.57,0.229-2.249c0.401-0.681,1.079-1.15,1.856-1.29l9.023-1.594
			c-0.707-0.412-1.498-0.743-2.076-0.836l-10.873-1.733c-0.889-0.141-1.646-0.711-2.023-1.524
			c-2.891-6.211-7.725-15.289-7.774-15.378c-0.734-1.384-0.849-2.99-0.312-4.405c0.537-1.417,1.687-2.547,3.15-3.093l32.586-12.15
			l-2.064-1.653c-0.534-0.43-1.641-0.791-2.567-0.843c-0.229-0.013-0.438-0.006-0.597,0.021l-37.428,6.298
			c-1.022,0.174-2.104-0.292-2.686-1.154c-4.537-6.737-9.857-10.425-12.769-10.587c-0.481-0.027-0.848,0.048-1.112,0.224
			c-1.613,1.088-1.529,7.987,4.379,16.759c0.592,0.879,0.612,2.025,0.059,2.926l-19.914,32.312
			c-0.467,0.755-0.682,2.391-0.428,3.239l0.756,2.534l23.514-25.617C517.451,341.875,518.988,341.237,520.564,341.325z"/>
	</g>
</g>
<path fill="#FFFFFF" d="M462.607,305.893"/>
<g>
	<g>
		<path fill="#FDB515" d="M211.425,307.002h1.675v-7.736l0.438-0.055c3.737-0.469,6.694-1.607,8.788-3.385
			c2.082-1.768,3.093-3.986,3.093-6.786c0-2.621-0.838-4.769-2.491-6.379c-1.697-1.654-4.886-3.216-9.477-4.638l-0.352-0.108
			v-16.949l0.528,0.03c3.738,0.212,7.162,0.955,10.187,2.21l0.741-2.021c-3.22-1.25-6.91-1.979-10.979-2.162l-0.477-0.021v-6.253
			h-1.675v6.282l-0.438,0.055c-3.403,0.426-6.14,1.545-8.134,3.328c-1.988,1.777-2.954,3.908-2.954,6.514
			c0,1.803,0.335,3.346,0.998,4.586c0.661,1.238,1.736,2.332,3.194,3.248c1.496,0.939,3.844,1.899,6.979,2.852l0.355,0.107v17.647
			h-0.5c-1.99,0-4.179-0.282-6.507-0.841c-2.001-0.479-3.784-1.059-5.312-1.721v2.301c1.338,0.584,3.115,1.088,5.29,1.498
			c2.353,0.442,4.553,0.689,6.54,0.732l0.489,0.014L211.425,307.002L211.425,307.002z M213.1,297.225v-16.775l0.64,0.188
			c3.075,0.897,5.361,1.994,6.796,3.262c1.493,1.312,2.25,3.002,2.25,5.016c0,2.298-0.84,4.201-2.498,5.658
			c-1.624,1.429-3.856,2.304-6.636,2.6L213.1,297.225z M211.425,277.327l-0.644-0.194c-2.839-0.855-4.941-1.929-6.247-3.189
			c-1.351-1.303-2.036-2.987-2.036-5.017c0-1.956,0.722-3.665,2.146-5.077c1.405-1.395,3.496-2.285,6.214-2.648l0.567-0.077V277.327
			L211.425,277.327z"/>
	</g>
	<g>
		<path fill="#FDB515" d="M235.354,303.07h29.219v-2.17h-25.826v-0.836l12.526-12.859c4.244-4.331,7.199-8.012,8.786-10.938
			c1.571-2.896,2.367-5.934,2.367-9.025c0-3.779-1.163-6.778-3.457-8.915c-2.305-2.146-5.529-3.233-9.584-3.233
			c-4.615,0-8.89,1.567-12.715,4.66l1.176,1.503c3.634-2.782,7.492-4.19,11.474-4.19c3.134,0,5.728,0.957,7.709,2.848
			c1.988,1.896,2.996,4.385,2.996,7.396c0,2.031-0.355,4.004-1.057,5.855c-0.695,1.84-1.794,3.791-3.268,5.8
			c-1.463,1.994-4.033,4.899-7.64,8.64l-12.707,13.265L235.354,303.07L235.354,303.07z"/>
	</g>
	<g>
		<path fill="#FDB515" d="M272.658,301.18c3.509,1.693,7.662,2.553,12.348,2.553c5.625,0,9.98-1.213,12.946-3.604
			c2.934-2.363,4.421-5.763,4.421-10.097c0-3.191-0.972-5.761-2.888-7.636c-1.936-1.896-4.818-3.092-8.564-3.562l-0.438-0.057
			v-1.059l0.411-0.072c3.045-0.551,5.501-1.819,7.301-3.775c1.786-1.941,2.691-4.374,2.691-7.227c0-3.662-1.165-6.527-3.46-8.521
			c-2.317-2.013-5.674-3.032-9.977-3.032c-2.638,0-5.284,0.452-7.862,1.344c-2.404,0.832-4.504,1.951-6.25,3.332l1.058,1.445
			c2.334-1.509,4.482-2.602,6.388-3.247c2.025-0.687,4.291-1.032,6.733-1.032c3.19,0,5.816,0.855,7.804,2.547
			c2.013,1.709,3.034,4.011,3.034,6.838c0,3.399-1.246,6.139-3.702,8.134c-2.425,1.97-5.737,2.969-9.844,2.969h-4.784v2.171h4.718
			c4.925,0,8.726,0.896,11.298,2.664c2.631,1.809,3.966,4.424,3.966,7.775c0,3.729-1.296,6.666-3.852,8.729
			c-2.524,2.034-6.319,3.066-11.279,3.066c-2.056,0-4.278-0.282-6.606-0.842c-2.033-0.483-3.916-1.144-5.609-1.953v2.146h-0.002
			V301.18z"/>
	</g>
	<g>
		<path fill="#FDB515" d="M326.207,255.025c-5.059,0-8.718,1.912-11.186,5.844c-2.48,3.951-3.738,10.152-3.738,18.428
			c0,8.104,1.297,14.285,3.854,18.379c2.546,4.075,6.167,6.057,11.069,6.057c5.104,0,8.806-1.922,11.319-5.879
			c2.522-3.973,3.803-10.217,3.803-18.557c0-7.988-1.318-14.115-3.919-18.21C334.82,257.009,331.156,255.025,326.207,255.025z
			 M326.207,301.76c-4.164,0-7.312-1.894-9.355-5.627c-1.991-3.635-3.001-9.299-3.001-16.836c0-7.181,0.962-12.724,2.86-16.475
			c1.955-3.864,5.148-5.823,9.496-5.823c4.344,0,7.555,1.958,9.543,5.819c1.934,3.754,2.913,9.298,2.913,16.479
			c0,7.289-0.979,12.889-2.913,16.643C333.762,299.802,330.552,301.76,326.207,301.76z"/>
	</g>
</g>
<g>
	<g>
		<path fill="#FDB515" d="M167.001,386.189c-0.186,0-0.363-0.07-0.495-0.202l-5.797-5.8c-0.133-0.133-0.207-0.312-0.205-0.501
			c0.002-0.188,0.079-0.364,0.215-0.497c0.811-0.779,1.758-1.408,2.816-1.867c2.155-0.934,4.752-0.924,6.883,0.021
			c1.07,0.479,2.011,1.132,2.797,1.95c0.264,0.275,0.26,0.711-0.01,0.979l-5.709,5.711
			C167.364,386.117,167.186,386.189,167.001,386.189z M162.226,379.726L167,384.5l4.706-4.707c-0.549-0.472-1.172-0.863-1.857-1.169
			c-1.773-0.788-3.963-0.793-5.759-0.021C163.412,378.898,162.787,379.275,162.226,379.726z M176.231,377.023
			c-0.001,0-0.001,0-0.002,0c-0.187-0.001-0.366-0.073-0.497-0.209c-1.131-1.146-2.464-2.064-3.963-2.728
			c-2.987-1.318-6.676-1.302-9.605-0.031c-1.486,0.642-2.812,1.537-3.942,2.672c-0.132,0.135-0.311,0.206-0.496,0.206
			c0,0,0,0-0.001,0c-0.186-0.001-0.364-0.072-0.495-0.206l-3.057-3.073c-0.132-0.134-0.205-0.312-0.204-0.496
			c0.001-0.188,0.075-0.363,0.207-0.494c1.643-1.627,3.577-2.926,5.75-3.859c2.171-0.935,4.537-1.408,7.03-1.408
			c2.492,0,4.87,0.481,7.068,1.434c2.192,0.943,4.132,2.269,5.765,3.931c0.269,0.273,0.268,0.713-0.003,0.984l-3.059,3.078
			C176.596,376.949,176.418,377.023,176.231,377.023z M166.956,371.697c1.899,0,3.709,0.373,5.378,1.106
			c1.442,0.639,2.747,1.486,3.888,2.535l2.074-2.088c-1.397-1.308-3.019-2.363-4.826-3.146c-2.022-0.871-4.214-1.313-6.514-1.313
			c-2.303,0-4.481,0.436-6.478,1.293c-1.791,0.771-3.405,1.807-4.809,3.086l2.068,2.081c1.141-1.034,2.439-1.868,3.871-2.483
			C163.251,372.059,165.05,371.697,166.956,371.697z M182.991,370.223c-0.186,0-0.363-0.074-0.495-0.205
			c-0.987-0.984-2.082-1.894-3.255-2.691c-1.186-0.807-2.44-1.49-3.729-2.04c-1.284-0.556-2.671-0.986-4.125-1.286
			c-2.879-0.589-5.978-0.589-8.851,0c-1.437,0.298-2.821,0.724-4.114,1.265c-1.297,0.541-2.547,1.216-3.718,2.009
			c-1.147,0.777-2.238,1.682-3.242,2.684c-0.273,0.271-0.716,0.271-0.989-0.001l-3.189-3.188c-0.272-0.271-0.273-0.713-0.003-0.983
			c1.255-1.271,2.638-2.417,4.11-3.412c1.472-0.996,3.061-1.861,4.723-2.57c1.64-0.703,3.398-1.254,5.225-1.637
			c3.656-0.763,7.604-0.76,11.238,0c1.825,0.382,3.588,0.937,5.237,1.646c1.65,0.705,3.244,1.578,4.735,2.595
			c1.48,1.014,2.867,2.163,4.125,3.421c0.272,0.271,0.273,0.715,0.002,0.985l-3.188,3.21
			C183.356,370.148,183.178,370.223,182.991,370.223L182.991,370.223z M166.956,362.153c1.593,0,3.179,0.156,4.712,0.472
			c1.549,0.32,3.026,0.781,4.396,1.371c1.369,0.584,2.704,1.312,3.965,2.17c1.051,0.717,2.041,1.512,2.954,2.372l2.201-2.218
			c-1.061-1.01-2.21-1.938-3.424-2.771c-1.415-0.962-2.93-1.791-4.499-2.462c-1.565-0.675-3.237-1.201-4.972-1.562
			c-3.446-0.724-7.199-0.726-10.665,0c-1.734,0.36-3.404,0.887-4.961,1.554c-1.58,0.673-3.09,1.495-4.488,2.439
			c-1.205,0.814-2.347,1.736-3.402,2.748l2.203,2.201c0.925-0.87,1.912-1.662,2.943-2.358c1.248-0.849,2.582-1.566,3.964-2.144
			c1.374-0.576,2.846-1.028,4.37-1.345C163.783,362.312,165.364,362.153,166.956,362.153z M189.88,363.312L189.88,363.312
			c-0.188-0.001-0.366-0.072-0.498-0.208c-1.422-1.438-2.995-2.748-4.676-3.896c-1.689-1.152-3.503-2.146-5.391-2.955
			c-1.886-0.811-3.89-1.441-5.956-1.877c-4.108-0.869-8.658-0.874-12.779,0c-2.063,0.434-4.067,1.061-5.96,1.865
			c-1.898,0.811-3.713,1.799-5.391,2.936c-1.674,1.134-3.257,2.441-4.705,3.885c-0.132,0.135-0.309,0.197-0.497,0.205
			c-0.187-0.001-0.365-0.073-0.496-0.209l-3.229-3.274c-0.271-0.275-0.268-0.72,0.006-0.988c1.692-1.68,3.571-3.223,5.585-4.588
			c2.008-1.358,4.159-2.527,6.396-3.479c2.247-0.95,4.625-1.692,7.068-2.204c4.882-1.023,10.301-1.024,15.214,0
			c2.448,0.512,4.833,1.254,7.086,2.204c2.245,0.949,4.402,2.121,6.412,3.486c2.003,1.367,3.876,2.922,5.566,4.623
			c0.271,0.273,0.271,0.714,0,0.986l-3.26,3.279C190.245,363.236,190.066,363.312,189.88,363.312z M166.956,352.318
			c2.286,0,4.537,0.229,6.691,0.688c2.157,0.453,4.25,1.113,6.22,1.96c1.97,0.845,3.864,1.882,5.628,3.085
			c1.56,1.064,3.03,2.264,4.381,3.572l2.272-2.289c-1.496-1.448-3.13-2.779-4.866-3.964c-1.933-1.312-4.008-2.44-6.169-3.354
			c-2.17-0.919-4.467-1.633-6.827-2.124c-4.727-0.985-9.947-0.985-14.641,0c-2.355,0.49-4.646,1.205-6.809,2.123
			c-2.154,0.914-4.227,2.039-6.158,3.349c-1.745,1.184-3.386,2.506-4.884,3.937l2.245,2.28c1.371-1.312,2.85-2.508,4.404-3.562
			c1.752-1.188,3.646-2.219,5.628-3.062c1.977-0.84,4.068-1.495,6.219-1.946C162.44,352.55,164.683,352.318,166.956,352.318z"/>
	</g>
</g>
<g>
	<path fill="#FFFFFF" d="M311.116,376.126c3.396,0,5.035-1.453,5.035-4.851c0-3.401-1.639-4.48-5.035-4.48h-19.873v-24.969
		l-3.049-3.046c-1.201-1.201-3.152-1.201-4.354,0c-1.201,1.202-1.201,3.146,0,4.354l1.242,1.243v30.068
		c0,1.696,1.381,3.078,3.086,3.078c1.078,0,2.031-0.562,2.584-1.408c0.066,0,0.135,0.01,0.205,0.01h8.4v9.515h-9.143v3.355h21.646
		v-3.355h-9.145v-9.515L311.116,376.126L311.116,376.126z"/>
	<path fill="#FDB515" d="M312.563,389.697h-23.047v-4.757h9.143v-8.114h-7.558c-0.718,0.883-1.787,1.396-2.932,1.396
		c-2.088,0-3.786-1.692-3.786-3.775v-29.778l-1.037-1.039c-1.471-1.475-1.471-3.872,0-5.344c1.426-1.426,3.918-1.426,5.344,0
		l3.254,3.251v24.56h19.173c4.02,0,5.735,1.549,5.735,5.183c0,3.731-1.876,5.551-5.735,5.551h-7.698v8.114h9.145L312.563,389.697
		L312.563,389.697z M290.916,388.297h20.246v-1.956h-9.145v-10.915h9.099c3.079,0,4.335-1.203,4.335-4.147
		c0-2.826-1.094-3.779-4.335-3.779h-20.573v-25.38l-2.844-2.841c-0.896-0.897-2.467-0.897-3.363,0
		c-0.926,0.926-0.926,2.436,0.001,3.362l1.446,1.447v30.358c0,1.312,1.07,2.378,2.386,2.378c0.805,0,1.552-0.408,1.998-1.091
		l0.207-0.317l9.685,0.01v10.915h-9.143V388.297z"/>
</g>
<g>
	<path fill="#FDB515" d="M371.352,370.904c-0.113,0-0.228-0.032-0.326-0.1l-4.449-2.891l-4.446,2.891
		c-0.209,0.137-0.478,0.128-0.68-0.018c-0.201-0.146-0.292-0.4-0.228-0.641l1.373-5.121l-4.123-3.338
		c-0.193-0.155-0.271-0.415-0.193-0.651c0.076-0.236,0.293-0.4,0.541-0.414l5.299-0.274l1.896-4.948
		c0.178-0.466,0.941-0.466,1.119,0l1.897,4.948l5.299,0.274c0.248,0.014,0.462,0.178,0.54,0.414c0.077,0.235,0,0.496-0.193,0.651
		l-4.123,3.338l1.338,4.979c0.051,0.088,0.08,0.188,0.08,0.297c0,0.334-0.271,0.605-0.609,0.603
		C371.357,370.904,371.355,370.904,371.352,370.904z M360.445,361.743l2.957,2.393c0.338,0.272,0.484,0.724,0.371,1.144
		l-0.984,3.672l3.188-2.072c0.361-0.234,0.84-0.232,1.199-0.001l3.19,2.073l-0.987-3.671c-0.113-0.421,0.033-0.869,0.373-1.145
		l2.957-2.393l-3.802-0.197c-0.433-0.021-0.813-0.299-0.97-0.705l-1.36-3.55l-1.36,3.55c-0.156,0.406-0.537,0.687-0.971,0.705
		L360.445,361.743z"/>
</g>
<g>
	<g>
		<g>
			<path fill="#FDB515" d="M211.402,388.433h49.789v-32.065H246.69l0.005-9.661h-20.792v9.661h-14.501V388.433L211.402,388.433z
				 M259.726,386.971h-8.201V357.83h8.201V386.971z M250.06,386.971h-27.531V357.83h27.531V386.971z M221.071,386.971h-8.203V357.83
				h8.203V386.971z M245.228,356.364h-17.865v-8.2h17.865V356.364z"/>
		</g>
	</g>
</g>
<g>
	<path fill="#FDB515" d="M342.844,388.426h47.461v3.749c0,0.362,0.293,0.657,0.651,0.657c0.364,0,0.662-0.295,0.662-0.657v-3.749
		h4.879c0.36,0,0.654-0.293,0.654-0.65v-23.95c0-0.362-0.294-0.657-0.654-0.657h-4.879v-12.171c0-0.362-0.298-0.656-0.662-0.656
		h-48.767c-0.361,0-0.655,0.294-0.655,0.656v12.171h-4.882c-0.359,0-0.653,0.295-0.653,0.657v23.95c0,0.357,0.294,0.65,0.653,0.65
		h4.882v3.749c0,0.362,0.294,0.657,0.655,0.657c0.358,0,0.651-0.295,0.651-0.657L342.844,388.426L342.844,388.426z M395.84,387.115
		h-58.531v-22.644h9.762v12.314c0,0.358,0.293,0.653,0.652,0.653h37.704c0.361,0,0.655-0.293,0.655-0.653v-12.314h9.757
		L395.84,387.115L395.84,387.115z M384.77,376.133h-36.391v-12.311c0-0.362-0.295-0.657-0.656-0.657h-4.879v-11.521h47.461v11.521
		h-4.877c-0.363,0-0.658,0.295-0.658,0.657V376.133z"/>
</g>
<path fill="#CFDE00" d="M455.105,432.714c-0.388-0.021-0.683-0.352-0.66-0.738l10.424-186.709c0.021-0.386,0.354-0.681,0.738-0.659
	c0.389,0.021,0.682,0.352,0.659,0.737l-10.426,186.71C455.82,432.44,455.49,432.735,455.105,432.714z"/>
<g>
	<g>
		<path fill="#FFFFFF" d="M372.188,292.049c-0.279,0-0.518-0.097-0.713-0.291l-10.096-9.742c-0.111-0.086-0.261-0.227-0.449-0.42
			c-0.187-0.195-0.484-0.548-0.896-1.061c-0.406-0.514-0.775-1.038-1.101-1.578c-0.326-0.539-0.611-1.191-0.865-1.958
			s-0.381-1.511-0.381-2.233c0-2.373,0.687-4.229,2.054-5.564c1.372-1.34,3.268-2.01,5.682-2.01c0.668,0,1.353,0.117,2.047,0.352
			c0.697,0.23,1.345,0.545,1.943,0.938c0.598,0.396,1.114,0.766,1.543,1.107c0.437,0.348,0.846,0.712,1.231,1.102
			c0.388-0.39,0.799-0.754,1.229-1.102c0.431-0.345,0.946-0.714,1.547-1.107c0.597-0.395,1.245-0.705,1.938-0.938
			c0.695-0.229,1.379-0.352,2.049-0.352c2.418,0,4.312,0.672,5.681,2.01c1.373,1.339,2.058,3.191,2.058,5.564
			c0,2.385-1.234,4.812-3.707,7.282l-10.082,9.71C372.706,291.952,372.469,292.049,372.188,292.049z"/>
		<path fill="#FF466F" d="M378.95,267.191c2.418,0,4.312,0.67,5.681,2.007c1.373,1.339,2.057,3.194,2.057,5.567
			c0,2.385-1.233,4.812-3.707,7.279l-10.082,9.71c-0.19,0.194-0.43,0.291-0.711,0.291c-0.279,0-0.518-0.097-0.713-0.291
			l-10.096-9.739c-0.111-0.086-0.261-0.229-0.449-0.424c-0.187-0.191-0.484-0.547-0.896-1.06c-0.406-0.517-0.775-1.038-1.101-1.578
			c-0.326-0.539-0.61-1.188-0.865-1.958c-0.254-0.768-0.381-1.514-0.381-2.23c0-2.373,0.687-4.229,2.054-5.567
			c1.372-1.337,3.268-2.007,5.682-2.007c0.668,0,1.353,0.117,2.048,0.349c0.696,0.231,1.344,0.545,1.942,0.938
			c0.598,0.395,1.114,0.764,1.543,1.105c0.437,0.348,0.846,0.712,1.231,1.104c0.388-0.392,0.799-0.756,1.229-1.104
			c0.431-0.346,0.946-0.714,1.547-1.105c0.597-0.396,1.245-0.707,1.938-0.938C377.6,267.309,378.281,267.191,378.95,267.191
			 M378.95,265.791c-0.812,0-1.649,0.143-2.489,0.42c-0.818,0.273-1.58,0.645-2.271,1.1c-0.649,0.431-1.189,0.815-1.649,1.188
			c-0.118,0.096-0.237,0.189-0.354,0.291c-0.117-0.104-0.238-0.199-0.359-0.296c-0.448-0.359-0.987-0.748-1.645-1.183
			c-0.699-0.461-1.465-0.83-2.271-1.099c-0.839-0.278-1.677-0.421-2.489-0.421c-2.781,0-5.021,0.811-6.658,2.404
			c-1.646,1.609-2.478,3.818-2.478,6.57c0,0.865,0.151,1.768,0.45,2.672c0.296,0.89,0.621,1.623,0.998,2.244
			c0.341,0.565,0.731,1.133,1.199,1.723c0.434,0.539,0.762,0.926,0.98,1.156c0.218,0.225,0.388,0.385,0.535,0.506l10.05,9.699
			c0.446,0.439,1.035,0.684,1.687,0.684c0.662,0,1.252-0.245,1.709-0.709l10.056-9.684c2.751-2.748,4.138-5.531,4.138-8.291
			c0-2.758-0.834-4.968-2.479-6.57C383.975,266.602,381.734,265.791,378.95,265.791L378.95,265.791z"/>
	</g>
</g>
</svg>
