<?xml version="1.0" encoding="utf-8"?>
<!-- Generator: Adobe Illustrator 16.0.4, SVG Export Plug-In . SVG Version: 6.00 Build 0)  -->
<!DOCTYPE svg PUBLIC "-//W3C//DTD SVG 1.1//EN" "http://www.w3.org/Graphics/SVG/1.1/DTD/svg11.dtd">
<svg version="1.1" id="Layer_1" xmlns="http://www.w3.org/2000/svg" xmlns:xlink="http://www.w3.org/1999/xlink" x="0px" y="0px"
	 width="121.875px" height="35.75px" viewBox="0 0 121.875 35.75" enable-background="new 0 0 121.875 35.75" xml:space="preserve">
<g>
	<path fill="#FFFFFF" d="M36.196,28.207l7.818-17.968h3.414l7.759,17.968h-5.309l-1.692-4.289h-4.96l-1.692,4.289H36.196z
		 M45.716,16.397l-1.645,4.56h3.241L45.716,16.397z"/>
	<path fill="#FFFFFF" d="M64.365,10.429h5.367l-7.789,17.967h-3.442l-7.79-17.967h5.368l4.143,11.069L64.365,10.429z"/>
	<path fill="#FFFFFF" d="M64.981,28.207l7.819-17.968h3.413l7.76,17.968h-5.309l-1.692-4.289h-4.959l-1.692,4.289H64.981z
		 M74.503,16.397l-1.646,4.56H76.1L74.503,16.397z"/>
	<path fill="#FFFFFF" d="M98.136,21h-8.285v3.319h9.131v3.888H84.95V10.429h14.031v3.887h-9.131v2.773h8.285V21z"/>
	<path fill="#FFFFFF" d="M100.133,28.207l7.819-17.968h3.413l7.76,17.968h-5.309l-1.692-4.289h-4.96l-1.691,4.289H100.133z
		 M109.654,16.397l-1.646,4.56h3.241L109.654,16.397z"/>
</g>
<g>
	<g>
		<path fill="none" stroke="#FFFFFF" stroke-width="2" stroke-linecap="round" stroke-linejoin="round" stroke-miterlimit="10" d="
			M7.177,25.125c2.369,3.928,6.677,6.556,11.599,6.556c4.921,0,9.23-2.628,11.6-6.556"/>
		<g>
			<path fill="#3ABBEC" d="M30.773,24.295c-5.334-0.868-9.722-4.883-11.027-10.168c-0.11-0.447-0.511-0.76-0.971-0.76
				s-0.86,0.313-0.971,0.76c-1.306,5.286-5.692,9.3-11.026,10.168c-1.067-1.976-1.628-4.196-1.628-6.461
				c0-7.513,6.112-13.625,13.625-13.625c7.513,0,13.626,6.112,13.626,13.625C32.401,20.099,31.84,22.319,30.773,24.295z"/>
			<path fill="#FFFFFF" d="M18.775,5.208c6.962,0,12.626,5.664,12.626,12.625c0,1.854-0.406,3.675-1.181,5.337
				c-4.617-1.031-8.352-4.625-9.503-9.284c-0.22-0.893-1.021-1.521-1.941-1.521s-1.721,0.627-1.942,1.521
				c-1.151,4.66-4.886,8.253-9.502,9.284c-0.775-1.662-1.181-3.483-1.181-5.337C6.15,10.872,11.814,5.208,18.775,5.208
				 M18.775,3.208c-8.076,0-14.625,6.548-14.625,14.625c0,2.76,0.765,5.342,2.095,7.544c6.114-0.693,11.084-5.158,12.53-11.012
				c1.446,5.854,6.416,10.318,12.531,11.012c1.33-2.202,2.095-4.784,2.095-7.544C33.401,9.756,26.853,3.208,18.775,3.208
				L18.775,3.208z"/>
		</g>
	</g>
	<path fill="#FFFFFF" stroke="#FFFFFF" stroke-miterlimit="10" d="M19.077,27.663c-0.733,0-1.465-0.144-2.164-0.432
		c-0.28-0.115-0.414-0.436-0.297-0.716c0.115-0.28,0.437-0.413,0.716-0.298c1.132,0.467,2.379,0.464,3.513-0.008
		c0.279-0.116,0.601,0.016,0.716,0.295c0.117,0.28-0.016,0.601-0.295,0.718C20.56,27.517,19.818,27.663,19.077,27.663z"/>
</g>
</svg>
