<?xml version="1.0" standalone="no"?>
<!DOCTYPE svg PUBLIC "-//W3C//DTD SVG 20010904//EN"
 "http://www.w3.org/TR/2001/REC-SVG-20010904/DTD/svg10.dtd">
<svg version="1.0" xmlns="http://www.w3.org/2000/svg"
 width="260.000000pt" height="260.000000pt" viewBox="0 0 260.000000 260.000000"
 preserveAspectRatio="xMidYMid meet">
<metadata>
Created by potrace 1.11, written by Peter Selinger 2001-2013
</metadata>
<g transform="translate(0.000000,260.000000) scale(0.100000,-0.100000)"
fill="#000000" stroke="none">
<path d="M1078 2544 c-157 -29 -341 -102 -474 -190 -32 -21 -61 -41 -64 -44
-3 -3 -27 -23 -55 -45 -49 -40 -61 -51 -142 -137 -82 -89 -170 -234 -227 -375
-57 -143 -78 -253 -81 -438 -5 -205 19 -339 88 -505 33 -81 112 -226 127 -235
6 -4 10 16 11 47 0 29 2 60 4 68 1 8 6 34 10 58 3 24 22 89 42 145 99 286 275
506 494 617 55 28 164 68 204 76 84 15 140 20 191 18 106 -3 99 0 98 -41 -5
-126 84 -273 233 -385 75 -57 136 -78 303 -103 213 -32 310 -78 391 -185 52
-69 101 -186 117 -281 l8 -44 26 41 c82 128 143 282 178 450 14 71 17 122 15
254 -4 182 -4 182 -35 301 -114 444 -467 793 -925 915 -87 23 -123 26 -280 29
-124 2 -204 -1 -257 -11z"/>
<path d="M1042 513 c-19 -8 -40 -55 -35 -82 6 -39 31 -60 102 -82 177 -56 449
-20 490 65 27 57 -27 119 -92 103 -12 -3 -49 -13 -82 -22 -80 -21 -174 -19
-262 5 -73 20 -97 23 -121 13z"/>
</g>
</svg>
